<svg width="201" height="293" viewBox="0 0 201 293" fill="none" xmlns="http://www.w3.org/2000/svg">
<g filter="url(#filter0_i_227_1944)">
<rect width="201" height="293" rx="20" fill="url(#paint0_radial_227_1944)"/>
<rect x="2.5" y="2.5" width="196" height="288" rx="17.5" stroke="#E6180F" stroke-width="5"/>
<mask id="path-3-outside-1_227_1944" maskUnits="userSpaceOnUse" x="32" y="51" width="137" height="23" fill="black">
<rect fill="white" x="32" y="51" width="137" height="23"/>
<path d="M44.4355 61.9336H40.7148V60.4395C40.7148 59.9186 40.6725 59.5671 40.5879 59.3848C40.5033 59.196 40.347 59.1016 40.1191 59.1016C39.8913 59.1016 39.7383 59.1829 39.6602 59.3457C39.582 59.5085 39.543 59.873 39.543 60.4395V66.5527C39.543 67.015 39.6016 67.3633 39.7188 67.5977C39.8359 67.8255 40.0085 67.9395 40.2363 67.9395C40.5033 67.9395 40.6823 67.819 40.7734 67.5781C40.8711 67.3372 40.9199 66.8815 40.9199 66.2109V64.668H44.4355C44.429 65.7031 44.39 66.4811 44.3184 67.002C44.2533 67.5163 44.0352 68.0469 43.6641 68.5938C43.2995 69.1341 42.821 69.5443 42.2285 69.8242C41.6361 70.0977 40.9036 70.2344 40.0312 70.2344C38.918 70.2344 38.0358 70.0456 37.3848 69.668C36.7337 69.2839 36.2715 68.75 35.998 68.0664C35.7311 67.3763 35.5977 66.3997 35.5977 65.1367V61.4551C35.5977 60.3548 35.7083 59.5247 35.9297 58.9648C36.151 58.4049 36.623 57.9069 37.3457 57.4707C38.0684 57.028 38.9473 56.8066 39.9824 56.8066C41.0111 56.8066 41.89 57.0247 42.6191 57.4609C43.3483 57.8971 43.8333 58.4473 44.0742 59.1113C44.3151 59.7754 44.4355 60.7161 44.4355 61.9336ZM49.5625 57.041L49.4062 58.7402C49.9792 57.5228 50.8092 56.8783 51.8965 56.8066V61.3672C51.1738 61.3672 50.6432 61.4648 50.3047 61.6602C49.9661 61.8555 49.7578 62.1289 49.6797 62.4805C49.6016 62.8255 49.5625 63.6263 49.5625 64.8828V70H45.6172V57.041H49.5625ZM61.7207 63.75H56.6133V66.5527C56.6133 67.1387 56.6556 67.5163 56.7402 67.6855C56.8249 67.8548 56.9876 67.9395 57.2285 67.9395C57.528 67.9395 57.7266 67.8288 57.8242 67.6074C57.9284 67.3796 57.9805 66.9434 57.9805 66.2988V64.5898H61.7207V65.5469C61.7207 66.3477 61.6686 66.9629 61.5645 67.3926C61.4668 67.8223 61.2324 68.2812 60.8613 68.7695C60.4902 69.2578 60.0182 69.6257 59.4453 69.873C58.8789 70.1139 58.166 70.2344 57.3066 70.2344C56.4733 70.2344 55.7376 70.1139 55.0996 69.873C54.4616 69.6322 53.9635 69.3034 53.6055 68.8867C53.2539 68.4635 53.0098 68.0013 52.873 67.5C52.7363 66.9922 52.668 66.2565 52.668 65.293V61.5137C52.668 60.3809 52.821 59.4889 53.127 58.8379C53.4329 58.1803 53.9342 57.679 54.6309 57.334C55.3275 56.9824 56.1283 56.8066 57.0332 56.8066C58.14 56.8066 59.0514 57.0182 59.7676 57.4414C60.4902 57.8581 60.9948 58.4147 61.2812 59.1113C61.5742 59.8014 61.7207 60.7747 61.7207 62.0312V63.75ZM57.7656 61.6406V60.6934C57.7656 60.0228 57.7298 59.5898 57.6582 59.3945C57.5866 59.1992 57.4401 59.1016 57.2188 59.1016C56.9453 59.1016 56.776 59.1862 56.7109 59.3555C56.6458 59.5182 56.6133 59.9642 56.6133 60.6934V61.6406H57.7656ZM66.5449 62.0605H62.8438V61.1914C62.8438 60.1888 62.9577 59.4173 63.1855 58.877C63.4199 58.3301 63.8854 57.8483 64.582 57.4316C65.2786 57.015 66.1836 56.8066 67.2969 56.8066C68.6315 56.8066 69.6374 57.0443 70.3145 57.5195C70.9915 57.9883 71.3984 58.5677 71.5352 59.2578C71.6719 59.9414 71.7402 61.3542 71.7402 63.4961V70H67.9023V68.8477C67.6615 69.3099 67.349 69.6582 66.9648 69.8926C66.5872 70.1204 66.1348 70.2344 65.6074 70.2344C64.9173 70.2344 64.2826 70.0423 63.7031 69.6582C63.1302 69.2676 62.8438 68.418 62.8438 67.1094V66.0449C62.8438 65.0749 62.9967 64.4141 63.3027 64.0625C63.6087 63.7109 64.3672 63.3008 65.5781 62.832C66.8737 62.3242 67.5671 61.9824 67.6582 61.8066C67.7493 61.6309 67.7949 61.2728 67.7949 60.7324C67.7949 60.0553 67.7428 59.6159 67.6387 59.4141C67.541 59.2057 67.375 59.1016 67.1406 59.1016C66.8737 59.1016 66.7077 59.1895 66.6426 59.3652C66.5775 59.5345 66.5449 59.9805 66.5449 60.7031V62.0605ZM67.7949 63.8379C67.1634 64.3001 66.7956 64.6875 66.6914 65C66.5938 65.3125 66.5449 65.7617 66.5449 66.3477C66.5449 67.0182 66.5872 67.4512 66.6719 67.6465C66.763 67.8418 66.9388 67.9395 67.1992 67.9395C67.4466 67.9395 67.6061 67.8646 67.6777 67.7148C67.7559 67.5586 67.7949 67.1549 67.7949 66.5039V63.8379ZM77.2578 55.3125V57.3535H78.3223V59.4043H77.2578V66.3379C77.2578 67.1908 77.3001 67.666 77.3848 67.7637C77.4759 67.8613 77.8438 67.9102 78.4883 67.9102V70H76.8965C75.998 70 75.3568 69.9642 74.9727 69.8926C74.5885 69.8145 74.25 69.6419 73.957 69.375C73.6641 69.1016 73.4818 68.7923 73.4102 68.4473C73.3385 68.0957 73.3027 67.2754 73.3027 65.9863V59.4043H72.4531V57.3535H73.3027V55.3125H77.2578ZM88.127 63.75H83.0195V66.5527C83.0195 67.1387 83.0618 67.5163 83.1465 67.6855C83.2311 67.8548 83.3939 67.9395 83.6348 67.9395C83.9342 67.9395 84.1328 67.8288 84.2305 67.6074C84.3346 67.3796 84.3867 66.9434 84.3867 66.2988V64.5898H88.127V65.5469C88.127 66.3477 88.0749 66.9629 87.9707 67.3926C87.873 67.8223 87.6387 68.2812 87.2676 68.7695C86.8965 69.2578 86.4245 69.6257 85.8516 69.873C85.2852 70.1139 84.5723 70.2344 83.7129 70.2344C82.8796 70.2344 82.1439 70.1139 81.5059 69.873C80.8678 69.6322 80.3698 69.3034 80.0117 68.8867C79.6602 68.4635 79.416 68.0013 79.2793 67.5C79.1426 66.9922 79.0742 66.2565 79.0742 65.293V61.5137C79.0742 60.3809 79.2272 59.4889 79.5332 58.8379C79.8392 58.1803 80.3405 57.679 81.0371 57.334C81.7337 56.9824 82.5345 56.8066 83.4395 56.8066C84.5462 56.8066 85.4577 57.0182 86.1738 57.4414C86.8965 57.8581 87.401 58.4147 87.6875 59.1113C87.9805 59.8014 88.127 60.7747 88.127 62.0312V63.75ZM84.1719 61.6406V60.6934C84.1719 60.0228 84.1361 59.5898 84.0645 59.3945C83.9928 59.1992 83.8464 59.1016 83.625 59.1016C83.3516 59.1016 83.1823 59.1862 83.1172 59.3555C83.0521 59.5182 83.0195 59.9642 83.0195 60.6934V61.6406H84.1719ZM96.9746 57.041L96.9062 58.2324C97.1927 57.7572 97.541 57.4023 97.9512 57.168C98.3678 56.9271 98.8464 56.8066 99.3867 56.8066C100.064 56.8066 100.617 56.9661 101.047 57.2852C101.477 57.6042 101.753 58.0078 101.877 58.4961C102.001 58.9779 102.062 59.7852 102.062 60.918V70H98.1172V61.0254C98.1172 60.1335 98.0879 59.5898 98.0293 59.3945C97.9707 59.1992 97.8079 59.1016 97.541 59.1016C97.2611 59.1016 97.0853 59.2155 97.0137 59.4434C96.9421 59.6647 96.9062 60.2637 96.9062 61.2402V70H92.9609V57.041H96.9746ZM112.365 63.75H107.258V66.5527C107.258 67.1387 107.3 67.5163 107.385 67.6855C107.469 67.8548 107.632 67.9395 107.873 67.9395C108.173 67.9395 108.371 67.8288 108.469 67.6074C108.573 67.3796 108.625 66.9434 108.625 66.2988V64.5898H112.365V65.5469C112.365 66.3477 112.313 66.9629 112.209 67.3926C112.111 67.8223 111.877 68.2812 111.506 68.7695C111.135 69.2578 110.663 69.6257 110.09 69.873C109.523 70.1139 108.811 70.2344 107.951 70.2344C107.118 70.2344 106.382 70.1139 105.744 69.873C105.106 69.6322 104.608 69.3034 104.25 68.8867C103.898 68.4635 103.654 68.0013 103.518 67.5C103.381 66.9922 103.312 66.2565 103.312 65.293V61.5137C103.312 60.3809 103.465 59.4889 103.771 58.8379C104.077 58.1803 104.579 57.679 105.275 57.334C105.972 56.9824 106.773 56.8066 107.678 56.8066C108.785 56.8066 109.696 57.0182 110.412 57.4414C111.135 57.8581 111.639 58.4147 111.926 59.1113C112.219 59.8014 112.365 60.7747 112.365 62.0312V63.75ZM108.41 61.6406V60.6934C108.41 60.0228 108.374 59.5898 108.303 59.3945C108.231 59.1992 108.085 59.1016 107.863 59.1016C107.59 59.1016 107.421 59.1862 107.355 59.3555C107.29 59.5182 107.258 59.9642 107.258 60.6934V61.6406H108.41ZM126.408 57.041L124.836 70H120.549C120.314 68.418 120.044 66.3346 119.738 63.75C119.634 64.8828 119.488 66.0286 119.299 67.1875L118.859 70H114.572L112.902 57.041H116.301C116.327 57.3796 116.613 59.8503 117.16 64.4531C117.199 63.9844 117.492 61.5137 118.039 57.041H121.311L122.111 64.4531C122.235 62.2917 122.535 59.821 123.01 57.041H126.408ZM139.318 61.9336H135.598V60.4395C135.598 59.9186 135.555 59.5671 135.471 59.3848C135.386 59.196 135.23 59.1016 135.002 59.1016C134.774 59.1016 134.621 59.1829 134.543 59.3457C134.465 59.5085 134.426 59.873 134.426 60.4395V66.5527C134.426 67.015 134.484 67.3633 134.602 67.5977C134.719 67.8255 134.891 67.9395 135.119 67.9395C135.386 67.9395 135.565 67.819 135.656 67.5781C135.754 67.3372 135.803 66.8815 135.803 66.2109V64.668H139.318C139.312 65.7031 139.273 66.4811 139.201 67.002C139.136 67.5163 138.918 68.0469 138.547 68.5938C138.182 69.1341 137.704 69.5443 137.111 69.8242C136.519 70.0977 135.786 70.2344 134.914 70.2344C133.801 70.2344 132.919 70.0456 132.268 69.668C131.617 69.2839 131.154 68.75 130.881 68.0664C130.614 67.3763 130.48 66.3997 130.48 65.1367V61.4551C130.48 60.3548 130.591 59.5247 130.812 58.9648C131.034 58.4049 131.506 57.9069 132.229 57.4707C132.951 57.028 133.83 56.8066 134.865 56.8066C135.894 56.8066 136.773 57.0247 137.502 57.4609C138.231 57.8971 138.716 58.4473 138.957 59.1113C139.198 59.7754 139.318 60.7161 139.318 61.9336ZM149.426 61.5918V64.7656C149.426 65.931 149.367 66.7871 149.25 67.334C149.133 67.8743 148.882 68.3822 148.498 68.8574C148.114 69.3262 147.619 69.6745 147.014 69.9023C146.415 70.1237 145.725 70.2344 144.943 70.2344C144.071 70.2344 143.332 70.14 142.727 69.9512C142.121 69.7559 141.649 69.4661 141.311 69.082C140.979 68.6914 140.741 68.2227 140.598 67.6758C140.454 67.1224 140.383 66.2956 140.383 65.1953V61.875C140.383 60.6706 140.513 59.7298 140.773 59.0527C141.034 58.3757 141.503 57.832 142.18 57.4219C142.857 57.0117 143.723 56.8066 144.777 56.8066C145.663 56.8066 146.421 56.9401 147.053 57.207C147.691 57.4674 148.182 57.8092 148.527 58.2324C148.872 58.6556 149.107 59.0918 149.23 59.541C149.361 59.9902 149.426 60.6738 149.426 61.5918ZM145.48 60.6152C145.48 59.9512 145.445 59.5345 145.373 59.3652C145.301 59.1895 145.148 59.1016 144.914 59.1016C144.68 59.1016 144.523 59.1895 144.445 59.3652C144.367 59.5345 144.328 59.9512 144.328 60.6152V66.4648C144.328 67.0768 144.367 67.4772 144.445 67.666C144.523 67.8483 144.676 67.9395 144.904 67.9395C145.139 67.9395 145.292 67.8548 145.363 67.6855C145.441 67.5163 145.48 67.1517 145.48 66.5918V60.6152ZM154.797 54.1895V56.25H150.734V54.1895H154.797ZM154.797 57.041V70H150.734V57.041H154.797ZM160.236 57.041L160.168 58.2324C160.454 57.7572 160.803 57.4023 161.213 57.168C161.63 56.9271 162.108 56.8066 162.648 56.8066C163.326 56.8066 163.879 56.9661 164.309 57.2852C164.738 57.6042 165.015 58.0078 165.139 58.4961C165.262 58.9779 165.324 59.7852 165.324 60.918V70H161.379V61.0254C161.379 60.1335 161.35 59.5898 161.291 59.3945C161.232 59.1992 161.07 59.1016 160.803 59.1016C160.523 59.1016 160.347 59.2155 160.275 59.4434C160.204 59.6647 160.168 60.2637 160.168 61.2402V70H156.223V57.041H160.236Z"/>
</mask>
<path d="M44.4355 61.9336H40.7148V60.4395C40.7148 59.9186 40.6725 59.5671 40.5879 59.3848C40.5033 59.196 40.347 59.1016 40.1191 59.1016C39.8913 59.1016 39.7383 59.1829 39.6602 59.3457C39.582 59.5085 39.543 59.873 39.543 60.4395V66.5527C39.543 67.015 39.6016 67.3633 39.7188 67.5977C39.8359 67.8255 40.0085 67.9395 40.2363 67.9395C40.5033 67.9395 40.6823 67.819 40.7734 67.5781C40.8711 67.3372 40.9199 66.8815 40.9199 66.2109V64.668H44.4355C44.429 65.7031 44.39 66.4811 44.3184 67.002C44.2533 67.5163 44.0352 68.0469 43.6641 68.5938C43.2995 69.1341 42.821 69.5443 42.2285 69.8242C41.6361 70.0977 40.9036 70.2344 40.0312 70.2344C38.918 70.2344 38.0358 70.0456 37.3848 69.668C36.7337 69.2839 36.2715 68.75 35.998 68.0664C35.7311 67.3763 35.5977 66.3997 35.5977 65.1367V61.4551C35.5977 60.3548 35.7083 59.5247 35.9297 58.9648C36.151 58.4049 36.623 57.9069 37.3457 57.4707C38.0684 57.028 38.9473 56.8066 39.9824 56.8066C41.0111 56.8066 41.89 57.0247 42.6191 57.4609C43.3483 57.8971 43.8333 58.4473 44.0742 59.1113C44.3151 59.7754 44.4355 60.7161 44.4355 61.9336ZM49.5625 57.041L49.4062 58.7402C49.9792 57.5228 50.8092 56.8783 51.8965 56.8066V61.3672C51.1738 61.3672 50.6432 61.4648 50.3047 61.6602C49.9661 61.8555 49.7578 62.1289 49.6797 62.4805C49.6016 62.8255 49.5625 63.6263 49.5625 64.8828V70H45.6172V57.041H49.5625ZM61.7207 63.75H56.6133V66.5527C56.6133 67.1387 56.6556 67.5163 56.7402 67.6855C56.8249 67.8548 56.9876 67.9395 57.2285 67.9395C57.528 67.9395 57.7266 67.8288 57.8242 67.6074C57.9284 67.3796 57.9805 66.9434 57.9805 66.2988V64.5898H61.7207V65.5469C61.7207 66.3477 61.6686 66.9629 61.5645 67.3926C61.4668 67.8223 61.2324 68.2812 60.8613 68.7695C60.4902 69.2578 60.0182 69.6257 59.4453 69.873C58.8789 70.1139 58.166 70.2344 57.3066 70.2344C56.4733 70.2344 55.7376 70.1139 55.0996 69.873C54.4616 69.6322 53.9635 69.3034 53.6055 68.8867C53.2539 68.4635 53.0098 68.0013 52.873 67.5C52.7363 66.9922 52.668 66.2565 52.668 65.293V61.5137C52.668 60.3809 52.821 59.4889 53.127 58.8379C53.4329 58.1803 53.9342 57.679 54.6309 57.334C55.3275 56.9824 56.1283 56.8066 57.0332 56.8066C58.14 56.8066 59.0514 57.0182 59.7676 57.4414C60.4902 57.8581 60.9948 58.4147 61.2812 59.1113C61.5742 59.8014 61.7207 60.7747 61.7207 62.0312V63.75ZM57.7656 61.6406V60.6934C57.7656 60.0228 57.7298 59.5898 57.6582 59.3945C57.5866 59.1992 57.4401 59.1016 57.2188 59.1016C56.9453 59.1016 56.776 59.1862 56.7109 59.3555C56.6458 59.5182 56.6133 59.9642 56.6133 60.6934V61.6406H57.7656ZM66.5449 62.0605H62.8438V61.1914C62.8438 60.1888 62.9577 59.4173 63.1855 58.877C63.4199 58.3301 63.8854 57.8483 64.582 57.4316C65.2786 57.015 66.1836 56.8066 67.2969 56.8066C68.6315 56.8066 69.6374 57.0443 70.3145 57.5195C70.9915 57.9883 71.3984 58.5677 71.5352 59.2578C71.6719 59.9414 71.7402 61.3542 71.7402 63.4961V70H67.9023V68.8477C67.6615 69.3099 67.349 69.6582 66.9648 69.8926C66.5872 70.1204 66.1348 70.2344 65.6074 70.2344C64.9173 70.2344 64.2826 70.0423 63.7031 69.6582C63.1302 69.2676 62.8438 68.418 62.8438 67.1094V66.0449C62.8438 65.0749 62.9967 64.4141 63.3027 64.0625C63.6087 63.7109 64.3672 63.3008 65.5781 62.832C66.8737 62.3242 67.5671 61.9824 67.6582 61.8066C67.7493 61.6309 67.7949 61.2728 67.7949 60.7324C67.7949 60.0553 67.7428 59.6159 67.6387 59.4141C67.541 59.2057 67.375 59.1016 67.1406 59.1016C66.8737 59.1016 66.7077 59.1895 66.6426 59.3652C66.5775 59.5345 66.5449 59.9805 66.5449 60.7031V62.0605ZM67.7949 63.8379C67.1634 64.3001 66.7956 64.6875 66.6914 65C66.5938 65.3125 66.5449 65.7617 66.5449 66.3477C66.5449 67.0182 66.5872 67.4512 66.6719 67.6465C66.763 67.8418 66.9388 67.9395 67.1992 67.9395C67.4466 67.9395 67.6061 67.8646 67.6777 67.7148C67.7559 67.5586 67.7949 67.1549 67.7949 66.5039V63.8379ZM77.2578 55.3125V57.3535H78.3223V59.4043H77.2578V66.3379C77.2578 67.1908 77.3001 67.666 77.3848 67.7637C77.4759 67.8613 77.8438 67.9102 78.4883 67.9102V70H76.8965C75.998 70 75.3568 69.9642 74.9727 69.8926C74.5885 69.8145 74.25 69.6419 73.957 69.375C73.6641 69.1016 73.4818 68.7923 73.4102 68.4473C73.3385 68.0957 73.3027 67.2754 73.3027 65.9863V59.4043H72.4531V57.3535H73.3027V55.3125H77.2578ZM88.127 63.75H83.0195V66.5527C83.0195 67.1387 83.0618 67.5163 83.1465 67.6855C83.2311 67.8548 83.3939 67.9395 83.6348 67.9395C83.9342 67.9395 84.1328 67.8288 84.2305 67.6074C84.3346 67.3796 84.3867 66.9434 84.3867 66.2988V64.5898H88.127V65.5469C88.127 66.3477 88.0749 66.9629 87.9707 67.3926C87.873 67.8223 87.6387 68.2812 87.2676 68.7695C86.8965 69.2578 86.4245 69.6257 85.8516 69.873C85.2852 70.1139 84.5723 70.2344 83.7129 70.2344C82.8796 70.2344 82.1439 70.1139 81.5059 69.873C80.8678 69.6322 80.3698 69.3034 80.0117 68.8867C79.6602 68.4635 79.416 68.0013 79.2793 67.5C79.1426 66.9922 79.0742 66.2565 79.0742 65.293V61.5137C79.0742 60.3809 79.2272 59.4889 79.5332 58.8379C79.8392 58.1803 80.3405 57.679 81.0371 57.334C81.7337 56.9824 82.5345 56.8066 83.4395 56.8066C84.5462 56.8066 85.4577 57.0182 86.1738 57.4414C86.8965 57.8581 87.401 58.4147 87.6875 59.1113C87.9805 59.8014 88.127 60.7747 88.127 62.0312V63.75ZM84.1719 61.6406V60.6934C84.1719 60.0228 84.1361 59.5898 84.0645 59.3945C83.9928 59.1992 83.8464 59.1016 83.625 59.1016C83.3516 59.1016 83.1823 59.1862 83.1172 59.3555C83.0521 59.5182 83.0195 59.9642 83.0195 60.6934V61.6406H84.1719ZM96.9746 57.041L96.9062 58.2324C97.1927 57.7572 97.541 57.4023 97.9512 57.168C98.3678 56.9271 98.8464 56.8066 99.3867 56.8066C100.064 56.8066 100.617 56.9661 101.047 57.2852C101.477 57.6042 101.753 58.0078 101.877 58.4961C102.001 58.9779 102.062 59.7852 102.062 60.918V70H98.1172V61.0254C98.1172 60.1335 98.0879 59.5898 98.0293 59.3945C97.9707 59.1992 97.8079 59.1016 97.541 59.1016C97.2611 59.1016 97.0853 59.2155 97.0137 59.4434C96.9421 59.6647 96.9062 60.2637 96.9062 61.2402V70H92.9609V57.041H96.9746ZM112.365 63.75H107.258V66.5527C107.258 67.1387 107.3 67.5163 107.385 67.6855C107.469 67.8548 107.632 67.9395 107.873 67.9395C108.173 67.9395 108.371 67.8288 108.469 67.6074C108.573 67.3796 108.625 66.9434 108.625 66.2988V64.5898H112.365V65.5469C112.365 66.3477 112.313 66.9629 112.209 67.3926C112.111 67.8223 111.877 68.2812 111.506 68.7695C111.135 69.2578 110.663 69.6257 110.09 69.873C109.523 70.1139 108.811 70.2344 107.951 70.2344C107.118 70.2344 106.382 70.1139 105.744 69.873C105.106 69.6322 104.608 69.3034 104.25 68.8867C103.898 68.4635 103.654 68.0013 103.518 67.5C103.381 66.9922 103.312 66.2565 103.312 65.293V61.5137C103.312 60.3809 103.465 59.4889 103.771 58.8379C104.077 58.1803 104.579 57.679 105.275 57.334C105.972 56.9824 106.773 56.8066 107.678 56.8066C108.785 56.8066 109.696 57.0182 110.412 57.4414C111.135 57.8581 111.639 58.4147 111.926 59.1113C112.219 59.8014 112.365 60.7747 112.365 62.0312V63.75ZM108.41 61.6406V60.6934C108.41 60.0228 108.374 59.5898 108.303 59.3945C108.231 59.1992 108.085 59.1016 107.863 59.1016C107.59 59.1016 107.421 59.1862 107.355 59.3555C107.29 59.5182 107.258 59.9642 107.258 60.6934V61.6406H108.41ZM126.408 57.041L124.836 70H120.549C120.314 68.418 120.044 66.3346 119.738 63.75C119.634 64.8828 119.488 66.0286 119.299 67.1875L118.859 70H114.572L112.902 57.041H116.301C116.327 57.3796 116.613 59.8503 117.16 64.4531C117.199 63.9844 117.492 61.5137 118.039 57.041H121.311L122.111 64.4531C122.235 62.2917 122.535 59.821 123.01 57.041H126.408ZM139.318 61.9336H135.598V60.4395C135.598 59.9186 135.555 59.5671 135.471 59.3848C135.386 59.196 135.23 59.1016 135.002 59.1016C134.774 59.1016 134.621 59.1829 134.543 59.3457C134.465 59.5085 134.426 59.873 134.426 60.4395V66.5527C134.426 67.015 134.484 67.3633 134.602 67.5977C134.719 67.8255 134.891 67.9395 135.119 67.9395C135.386 67.9395 135.565 67.819 135.656 67.5781C135.754 67.3372 135.803 66.8815 135.803 66.2109V64.668H139.318C139.312 65.7031 139.273 66.4811 139.201 67.002C139.136 67.5163 138.918 68.0469 138.547 68.5938C138.182 69.1341 137.704 69.5443 137.111 69.8242C136.519 70.0977 135.786 70.2344 134.914 70.2344C133.801 70.2344 132.919 70.0456 132.268 69.668C131.617 69.2839 131.154 68.75 130.881 68.0664C130.614 67.3763 130.48 66.3997 130.48 65.1367V61.4551C130.48 60.3548 130.591 59.5247 130.812 58.9648C131.034 58.4049 131.506 57.9069 132.229 57.4707C132.951 57.028 133.83 56.8066 134.865 56.8066C135.894 56.8066 136.773 57.0247 137.502 57.4609C138.231 57.8971 138.716 58.4473 138.957 59.1113C139.198 59.7754 139.318 60.7161 139.318 61.9336ZM149.426 61.5918V64.7656C149.426 65.931 149.367 66.7871 149.25 67.334C149.133 67.8743 148.882 68.3822 148.498 68.8574C148.114 69.3262 147.619 69.6745 147.014 69.9023C146.415 70.1237 145.725 70.2344 144.943 70.2344C144.071 70.2344 143.332 70.14 142.727 69.9512C142.121 69.7559 141.649 69.4661 141.311 69.082C140.979 68.6914 140.741 68.2227 140.598 67.6758C140.454 67.1224 140.383 66.2956 140.383 65.1953V61.875C140.383 60.6706 140.513 59.7298 140.773 59.0527C141.034 58.3757 141.503 57.832 142.18 57.4219C142.857 57.0117 143.723 56.8066 144.777 56.8066C145.663 56.8066 146.421 56.9401 147.053 57.207C147.691 57.4674 148.182 57.8092 148.527 58.2324C148.872 58.6556 149.107 59.0918 149.23 59.541C149.361 59.9902 149.426 60.6738 149.426 61.5918ZM145.48 60.6152C145.48 59.9512 145.445 59.5345 145.373 59.3652C145.301 59.1895 145.148 59.1016 144.914 59.1016C144.68 59.1016 144.523 59.1895 144.445 59.3652C144.367 59.5345 144.328 59.9512 144.328 60.6152V66.4648C144.328 67.0768 144.367 67.4772 144.445 67.666C144.523 67.8483 144.676 67.9395 144.904 67.9395C145.139 67.9395 145.292 67.8548 145.363 67.6855C145.441 67.5163 145.48 67.1517 145.48 66.5918V60.6152ZM154.797 54.1895V56.25H150.734V54.1895H154.797ZM154.797 57.041V70H150.734V57.041H154.797ZM160.236 57.041L160.168 58.2324C160.454 57.7572 160.803 57.4023 161.213 57.168C161.63 56.9271 162.108 56.8066 162.648 56.8066C163.326 56.8066 163.879 56.9661 164.309 57.2852C164.738 57.6042 165.015 58.0078 165.139 58.4961C165.262 58.9779 165.324 59.7852 165.324 60.918V70H161.379V61.0254C161.379 60.1335 161.35 59.5898 161.291 59.3945C161.232 59.1992 161.07 59.1016 160.803 59.1016C160.523 59.1016 160.347 59.2155 160.275 59.4434C160.204 59.6647 160.168 60.2637 160.168 61.2402V70H156.223V57.041H160.236Z" fill="white"/>
<path d="M44.4355 61.9336V64.9336C46.0924 64.9336 47.4355 63.5904 47.4355 61.9336H44.4355ZM40.7148 61.9336H37.7148C37.7148 63.5904 39.058 64.9336 40.7148 64.9336V61.9336ZM40.5879 59.3848L37.8504 60.6119C37.8558 60.624 37.8613 60.6361 37.8669 60.6481L40.5879 59.3848ZM39.7188 67.5977L37.0355 68.9393C37.0406 68.9495 37.0457 68.9596 37.0509 68.9697L39.7188 67.5977ZM40.7734 67.5781L37.9932 66.451C37.9844 66.4727 37.9759 66.4945 37.9676 66.5164L40.7734 67.5781ZM40.9199 64.668V61.668C39.2631 61.668 37.9199 63.0111 37.9199 64.668H40.9199ZM44.4355 64.668L47.4355 64.6868C47.4405 63.8879 47.1267 63.12 46.5635 62.5533C46.0004 61.9866 45.2345 61.668 44.4355 61.668V64.668ZM44.3184 67.002L41.3463 66.5933C41.3449 66.6039 41.3435 66.6146 41.3421 66.6252L44.3184 67.002ZM43.6641 68.5938L41.1816 66.9092L41.1772 66.9158L43.6641 68.5938ZM42.2285 69.8242L43.4857 72.5481C43.4939 72.5443 43.5021 72.5405 43.5102 72.5366L42.2285 69.8242ZM37.3848 69.668L35.8603 72.2518C35.8667 72.2556 35.8732 72.2593 35.8796 72.2631L37.3848 69.668ZM35.998 68.0664L33.2001 69.1486C33.2042 69.1593 33.2084 69.17 33.2126 69.1806L35.998 68.0664ZM37.3457 57.4707L38.896 60.0391C38.9016 60.0357 38.9072 60.0323 38.9128 60.0288L37.3457 57.4707ZM44.4355 58.9336H40.7148V64.9336H44.4355V58.9336ZM43.7148 61.9336V60.4395H37.7148V61.9336H43.7148ZM43.7148 60.4395C43.7148 60.1094 43.702 59.7625 43.6616 59.4266C43.6268 59.1378 43.5484 58.6373 43.3089 58.1214L37.8669 60.6481C37.8209 60.549 37.7895 60.464 37.7685 60.4004C37.7473 60.3362 37.7335 60.2839 37.7248 60.2473C37.7081 60.177 37.7039 60.1381 37.7046 60.1437C37.705 60.1467 37.7078 60.1724 37.7104 60.2259C37.713 60.2784 37.7148 60.3488 37.7148 60.4395H43.7148ZM43.3254 58.1576C43.0679 57.5831 42.6272 57.0086 41.9586 56.6046C41.3091 56.2123 40.6452 56.1016 40.1191 56.1016V62.1016C39.8209 62.1016 39.3491 62.0381 38.8559 61.7401C38.3435 61.4305 38.0233 60.9976 37.8504 60.6119L43.3254 58.1576ZM40.1191 56.1016C39.6632 56.1016 39.0499 56.1814 38.4247 56.514C37.7586 56.8683 37.2591 57.4151 36.9556 58.0475L42.3647 60.6439C42.1393 61.1135 41.7554 61.5383 41.2423 61.8112C40.77 62.0624 40.3472 62.1016 40.1191 62.1016V56.1016ZM36.9556 58.0475C36.6835 58.6143 36.6157 59.1755 36.5893 59.4216C36.5541 59.7507 36.543 60.1002 36.543 60.4395H42.543C42.543 60.3312 42.5449 60.245 42.5477 60.1783C42.5505 60.1103 42.5539 60.0731 42.5552 60.0608C42.5569 60.0446 42.5539 60.0823 42.5374 60.1564C42.5288 60.1953 42.5139 60.256 42.4895 60.3321C42.4656 60.4066 42.4265 60.5152 42.3647 60.6439L36.9556 58.0475ZM36.543 60.4395V66.5527H42.543V60.4395H36.543ZM36.543 66.5527C36.543 67.1761 36.6068 68.082 37.0355 68.9393L42.402 66.256C42.4601 66.3722 42.4943 66.4689 42.514 66.5341C42.5338 66.5996 42.5423 66.6447 42.5453 66.663C42.5507 66.6945 42.543 66.6649 42.543 66.5527H36.543ZM37.0509 68.9697C37.2893 69.4332 37.6755 69.9563 38.2829 70.3574C38.9092 70.7711 39.597 70.9395 40.2363 70.9395V64.9395C40.6478 64.9395 41.1354 65.0509 41.5892 65.3506C42.024 65.6378 42.2654 65.9899 42.3866 66.2256L37.0509 68.9697ZM40.2363 70.9395C40.8241 70.9395 41.5547 70.8029 42.2453 70.3383C42.9444 69.868 43.3573 69.2266 43.5793 68.6398L37.9676 66.5164C38.0985 66.1705 38.3763 65.7098 38.8963 65.36C39.4079 65.0158 39.9155 64.9395 40.2363 64.9395V70.9395ZM43.5537 68.7052C43.8988 67.8538 43.9199 66.8415 43.9199 66.2109H37.9199C37.9199 66.3431 37.9175 66.4533 37.9136 66.5436C37.9096 66.6348 37.9045 66.6975 37.9004 66.7361C37.896 66.7768 37.8945 66.7744 37.9017 66.7398C37.9056 66.7212 37.9133 66.6876 37.9265 66.642C37.9396 66.5971 37.9606 66.5314 37.9932 66.451L43.5537 68.7052ZM43.9199 66.2109V64.668H37.9199V66.2109H43.9199ZM40.9199 67.668H44.4355V61.668H40.9199V67.668ZM41.4356 64.6491C41.4293 65.6532 41.3904 66.2724 41.3463 66.5933L47.2904 67.4106C47.3895 66.6898 47.4288 65.7531 47.4355 64.6868L41.4356 64.6491ZM41.3421 66.6252C41.3504 66.5599 41.3583 66.6489 41.1816 66.9092L46.1465 70.2783C46.712 69.4448 47.1561 68.4727 47.2946 67.3787L41.3421 66.6252ZM41.1772 66.9158C41.1157 67.0069 41.0546 67.0609 40.9468 67.1118L43.5102 72.5366C44.5874 72.0277 45.4832 71.2613 46.151 70.2717L41.1772 66.9158ZM40.9713 67.1003C40.8823 67.1415 40.6085 67.2344 40.0312 67.2344V73.2344C41.1988 73.2344 42.3899 73.0539 43.4857 72.5481L40.9713 67.1003ZM40.0312 67.2344C39.2107 67.2344 38.9156 67.0878 38.8899 67.0729L35.8796 72.2631C37.156 73.0034 38.6252 73.2344 40.0312 73.2344V67.2344ZM38.9092 67.0842C38.8437 67.0455 38.8218 67.0203 38.8178 67.0158C38.8144 67.0119 38.8015 66.9974 38.7835 66.9522L33.2126 69.1806C33.7394 70.4975 34.6545 71.5403 35.8603 72.2518L38.9092 67.0842ZM38.796 66.9842C38.7248 66.7999 38.5977 66.2536 38.5977 65.1367H32.5977C32.5977 66.5459 32.7375 67.9527 33.2001 69.1486L38.796 66.9842ZM38.5977 65.1367V61.4551H32.5977V65.1367H38.5977ZM38.5977 61.4551C38.5977 60.999 38.621 60.6541 38.6543 60.4038C38.689 60.1443 38.726 60.0517 38.7196 60.0678L33.1398 57.8619C32.7085 58.9529 32.5977 60.237 32.5977 61.4551H38.5977ZM38.7196 60.0678C38.6711 60.1905 38.6183 60.2444 38.6272 60.235C38.641 60.2205 38.7147 60.1485 38.896 60.0391L35.7954 54.9023C34.7312 55.5447 33.683 56.4879 33.1398 57.8619L38.7196 60.0678ZM38.9128 60.0288C39.0692 59.933 39.3778 59.8066 39.9824 59.8066V53.8066C38.5167 53.8066 37.0675 54.123 35.7786 54.9126L38.9128 60.0288ZM39.9824 59.8066C40.5831 59.8066 40.9046 59.9311 41.079 60.0354L44.1592 54.8864C42.8754 54.1184 41.4391 53.8066 39.9824 53.8066V59.8066ZM41.079 60.0354C41.219 60.1192 41.2713 60.1754 41.2795 60.1847C41.2836 60.1893 41.2799 60.1858 41.2729 60.1741C41.2657 60.1621 41.259 60.1481 41.254 60.1343L46.8944 58.0883C46.3729 56.6505 45.3561 55.6024 44.1592 54.8864L41.079 60.0354ZM41.254 60.1343C41.3199 60.316 41.4355 60.8504 41.4355 61.9336H47.4355C47.4355 60.5818 47.3103 59.2348 46.8944 58.0883L41.254 60.1343ZM49.5625 57.041L52.5499 57.3157C52.6271 56.4758 52.3472 55.6422 51.7788 55.0191C51.2104 54.3961 50.4059 54.041 49.5625 54.041V57.041ZM49.4062 58.7402L46.4189 58.4655C46.2855 59.9158 47.213 61.2524 48.6183 61.6349C50.0236 62.0174 51.5006 61.3354 52.1207 60.0176L49.4062 58.7402ZM51.8965 56.8066H54.8965C54.8965 55.9767 54.5527 55.1839 53.9469 54.6167C53.3411 54.0495 52.5274 53.7586 51.6993 53.8131L51.8965 56.8066ZM51.8965 61.3672V64.3672C53.5533 64.3672 54.8965 63.024 54.8965 61.3672H51.8965ZM49.6797 62.4805L52.6056 63.143L52.6082 63.1313L49.6797 62.4805ZM49.5625 70V73C51.2194 73 52.5625 71.6569 52.5625 70H49.5625ZM45.6172 70H42.6172C42.6172 71.6569 43.9603 73 45.6172 73V70ZM45.6172 57.041V54.041C43.9603 54.041 42.6172 55.3842 42.6172 57.041H45.6172ZM46.5751 56.7663L46.4189 58.4655L52.3936 59.0149L52.5499 57.3157L46.5751 56.7663ZM52.1207 60.0176C52.2606 59.7204 52.3467 59.6758 52.2984 59.7133C52.2728 59.7331 52.2311 59.7587 52.179 59.7781C52.1548 59.7872 52.1337 59.7929 52.1174 59.7963C52.1013 59.7997 52.0928 59.8002 52.0937 59.8002L51.6993 53.8131C49.2519 53.9743 47.6006 55.5315 46.6918 57.4628L52.1207 60.0176ZM48.8965 56.8066V61.3672H54.8965V56.8066H48.8965ZM51.8965 58.3672C51.0259 58.3672 49.8428 58.4632 48.8055 59.0616L51.8039 64.2587C51.6902 64.3243 51.6007 64.3587 51.5529 64.3748C51.5047 64.3911 51.4839 64.3938 51.4996 64.3909C51.5146 64.3881 51.5544 64.3818 51.6236 64.3764C51.6922 64.3711 51.7824 64.3672 51.8965 64.3672V58.3672ZM48.8055 59.0616C47.808 59.6371 47.0284 60.5821 46.7511 61.8297L52.6082 63.1313C52.5577 63.3586 52.4523 63.6048 52.2808 63.8298C52.1131 64.0499 51.9322 64.1847 51.8039 64.2587L48.8055 59.0616ZM46.7537 61.818C46.5864 62.5572 46.5625 63.7257 46.5625 64.8828H52.5625C52.5625 64.2794 52.572 63.8186 52.5882 63.486C52.5963 63.3201 52.6052 63.2043 52.6129 63.1299C52.6218 63.0424 52.624 63.0617 52.6056 63.1429L46.7537 61.818ZM46.5625 64.8828V70H52.5625V64.8828H46.5625ZM49.5625 67H45.6172V73H49.5625V67ZM48.6172 70V57.041H42.6172V70H48.6172ZM45.6172 60.041H49.5625V54.041H45.6172V60.041ZM61.7207 63.75V66.75C63.3776 66.75 64.7207 65.4069 64.7207 63.75H61.7207ZM56.6133 63.75V60.75C54.9564 60.75 53.6133 62.0931 53.6133 63.75H56.6133ZM57.8242 67.6074L55.0958 66.3601C55.0903 66.3722 55.0848 66.3843 55.0795 66.3965L57.8242 67.6074ZM57.9805 64.5898V61.5898C56.3236 61.5898 54.9805 62.933 54.9805 64.5898H57.9805ZM61.7207 64.5898H64.7207C64.7207 62.933 63.3776 61.5898 61.7207 61.5898V64.5898ZM61.5645 67.3926L58.6489 66.6858C58.6455 66.6997 58.6422 66.7137 58.6391 66.7277L61.5645 67.3926ZM59.4453 69.873L60.6194 72.6338C60.6245 72.6316 60.6296 72.6294 60.6346 72.6272L59.4453 69.873ZM53.6055 68.8867L51.2979 70.8038C51.3086 70.8166 51.3193 70.8294 51.3302 70.842L53.6055 68.8867ZM52.873 67.5L49.9762 68.2799L49.9788 68.2894L52.873 67.5ZM53.127 58.8379L55.842 60.114L55.8469 60.1036L53.127 58.8379ZM54.6309 57.334L55.9624 60.0223C55.9691 60.019 55.9758 60.0156 55.9825 60.0122L54.6309 57.334ZM59.7676 57.4414L58.2414 60.0242C58.2506 60.0296 58.2598 60.035 58.2691 60.0404L59.7676 57.4414ZM61.2812 59.1113L58.5067 60.2523C58.511 60.2628 58.5154 60.2732 58.5198 60.2836L61.2812 59.1113ZM57.7656 61.6406V64.6406C59.4225 64.6406 60.7656 63.2975 60.7656 61.6406H57.7656ZM56.7109 59.3555L59.4964 60.4696C59.5013 60.4573 59.5062 60.4448 59.511 60.4324L56.7109 59.3555ZM56.6133 61.6406H53.6133C53.6133 63.2975 54.9564 64.6406 56.6133 64.6406V61.6406ZM61.7207 60.75H56.6133V66.75H61.7207V60.75ZM53.6133 63.75V66.5527H59.6133V63.75H53.6133ZM53.6133 66.5527C53.6133 66.9045 53.6253 67.2674 53.6637 67.6095C53.6927 67.8687 53.7668 68.4469 54.057 69.0272L59.4235 66.3439C59.4884 66.4738 59.5299 66.5841 59.5555 66.6605C59.5816 66.7385 59.5976 66.8008 59.607 66.8411C59.6248 66.9179 59.6282 66.9574 59.6264 66.9413C59.625 66.9292 59.6214 66.8913 59.6183 66.8215C59.6153 66.753 59.6133 66.6643 59.6133 66.5527H53.6133ZM54.057 69.0272C54.796 70.5053 56.2201 70.9395 57.2285 70.9395V64.9395C57.4445 64.9395 57.8511 64.9758 58.3098 65.2143C58.8086 65.4737 59.1924 65.8817 59.4235 66.3439L54.057 69.0272ZM57.2285 70.9395C57.7324 70.9395 58.3972 70.8478 59.0626 70.4769C59.7697 70.0828 60.2748 69.4851 60.569 68.8183L55.0795 66.3965C55.276 65.9511 55.633 65.5194 56.1415 65.236C56.6084 64.9758 57.0241 64.9395 57.2285 64.9395V70.9395ZM60.5526 68.8547C60.7959 68.3226 60.8807 67.7964 60.9202 67.4651C60.9652 67.0883 60.9805 66.6906 60.9805 66.2988H54.9805C54.9805 66.4206 54.978 66.5198 54.9742 66.5988C54.9703 66.6787 54.9656 66.7287 54.9626 66.7537C54.9593 66.7811 54.9601 66.7625 54.9723 66.7103C54.9788 66.6828 54.99 66.6393 55.0082 66.5834C55.0262 66.5282 55.0541 66.4515 55.0958 66.3601L60.5526 68.8547ZM60.9805 66.2988V64.5898H54.9805V66.2988H60.9805ZM57.9805 67.5898H61.7207V61.5898H57.9805V67.5898ZM58.7207 64.5898V65.5469H64.7207V64.5898H58.7207ZM58.7207 65.5469C58.7207 66.2684 58.669 66.6029 58.6489 66.6858L64.48 68.0994C64.6683 67.3228 64.7207 66.4269 64.7207 65.5469H58.7207ZM58.6391 66.7277C58.6538 66.6629 58.6662 66.6506 58.6436 66.6947C58.6208 66.7394 58.5704 66.826 58.4728 66.9543L63.2498 70.5848C63.7849 69.8807 64.2678 69.0344 64.4899 68.0574L58.6391 66.7277ZM58.4728 66.9543C58.4197 67.0242 58.3638 67.0723 58.256 67.1189L60.6346 72.6272C61.6727 72.179 62.5607 71.4915 63.2498 70.5848L58.4728 66.9543ZM58.2712 67.1123C58.1922 67.146 57.9114 67.2344 57.3066 67.2344V73.2344C58.4206 73.2344 59.5656 73.0819 60.6194 72.6338L58.2712 67.1123ZM57.3066 67.2344C56.7575 67.2344 56.3928 67.1546 56.1593 67.0664L54.04 72.6797C55.0825 73.0733 56.1891 73.2344 57.3066 73.2344V67.2344ZM56.1593 67.0664C55.8795 66.9608 55.8413 66.8856 55.8807 66.9314L51.3302 70.842C52.0857 71.7212 53.0437 72.3035 54.04 72.6797L56.1593 67.0664ZM55.913 66.9697C55.8189 66.8564 55.7847 66.7744 55.7673 66.7106L49.9788 68.2894C50.2348 69.2282 50.6889 70.0707 51.2979 70.8038L55.913 66.9697ZM55.7699 66.7201C55.7364 66.5957 55.668 66.1728 55.668 65.293H49.668C49.668 66.3402 49.7363 67.3887 49.9762 68.2799L55.7699 66.7201ZM55.668 65.293V61.5137H49.668V65.293H55.668ZM55.668 61.5137C55.668 60.5952 55.8008 60.2017 55.842 60.114L50.4119 57.5618C49.8411 58.7761 49.668 60.1665 49.668 61.5137H55.668ZM55.8469 60.1036C55.8523 60.0918 55.8553 60.0879 55.8547 60.0888C55.854 60.0898 55.8531 60.0907 55.8537 60.0901C55.8545 60.0893 55.8608 60.0831 55.8761 60.0722C55.8917 60.0612 55.9192 60.0437 55.9624 60.0223L53.2993 54.6457C52.0387 55.2701 51.0221 56.2504 50.407 57.5722L55.8469 60.1036ZM55.9825 60.0122C56.1977 59.9036 56.5227 59.8066 57.0332 59.8066V53.8066C55.7338 53.8066 54.4572 54.0612 53.2792 54.6557L55.9825 60.0122ZM57.0332 59.8066C57.7751 59.8066 58.116 59.9501 58.2414 60.0242L61.2938 54.8586C59.9869 54.0864 58.5048 53.8066 57.0332 53.8066V59.8066ZM58.2691 60.0404C58.4822 60.1632 58.4999 60.2357 58.5067 60.2523L64.0558 57.9704C63.4897 56.5937 62.4983 55.5529 61.2661 54.8425L58.2691 60.0404ZM58.5198 60.2836C58.5838 60.4344 58.7207 60.9416 58.7207 62.0312H64.7207C64.7207 60.6079 64.5646 59.1684 64.0427 57.939L58.5198 60.2836ZM58.7207 62.0312V63.75H64.7207V62.0312H58.7207ZM60.7656 61.6406V60.6934H54.7656V61.6406H60.7656ZM60.7656 60.6934C60.7656 60.3146 60.7559 59.9486 60.7286 59.6184C60.7071 59.3588 60.6579 58.861 60.4748 58.3618L54.8416 60.4273C54.8043 60.3256 54.7823 60.2446 54.7702 60.1956C54.7577 60.1447 54.751 60.1083 54.7481 60.0912C54.7427 60.0598 54.7448 60.0626 54.749 60.113C54.7529 60.1601 54.7572 60.2317 54.7605 60.3323C54.7637 60.4318 54.7656 60.5516 54.7656 60.6934H60.7656ZM60.4748 58.3618C60.2609 57.7782 59.8529 57.1414 59.1587 56.6787C58.4796 56.2259 57.7693 56.1016 57.2188 56.1016V62.1016C56.8895 62.1016 56.3632 62.0261 55.8305 61.671C55.2828 61.3058 54.9839 60.8155 54.8416 60.4273L60.4748 58.3618ZM57.2188 56.1016C56.4396 56.1016 54.6374 56.3898 53.9109 58.2785L59.511 60.4324C59.2622 61.0791 58.7812 61.5719 58.2284 61.8483C57.753 62.086 57.3554 62.1016 57.2188 62.1016V56.1016ZM53.9255 58.2413C53.6991 58.8074 53.6601 59.3954 53.6457 59.5936C53.6218 59.92 53.6133 60.2951 53.6133 60.6934H59.6133C59.6133 60.5325 59.6151 60.3962 59.6182 60.2827C59.6214 60.1678 59.6257 60.0854 59.6297 60.0304C59.6341 59.9703 59.6364 59.9683 59.6303 60.0058C59.6271 60.0261 59.6189 60.0739 59.6026 60.1406C59.5942 60.175 59.5824 60.2198 59.5662 60.2724C59.5502 60.3245 59.5275 60.3917 59.4964 60.4696L53.9255 58.2413ZM53.6133 60.6934V61.6406H59.6133V60.6934H53.6133ZM56.6133 64.6406H57.7656V58.6406H56.6133V64.6406ZM66.5449 62.0605V65.0605C68.2018 65.0605 69.5449 63.7174 69.5449 62.0605H66.5449ZM62.8438 62.0605H59.8438C59.8438 63.7174 61.1869 65.0605 62.8438 65.0605V62.0605ZM63.1855 58.877L60.4281 57.6952C60.4258 57.7006 60.4235 57.7059 60.4213 57.7113L63.1855 58.877ZM70.3145 57.5195L68.5909 59.975C68.5962 59.9787 68.6015 59.9824 68.6068 59.9861L70.3145 57.5195ZM71.5352 59.2578L68.5923 59.8408L68.5934 59.8462L71.5352 59.2578ZM71.7402 70V73C73.3971 73 74.7402 71.6569 74.7402 70H71.7402ZM67.9023 70H64.9023C64.9023 71.6569 66.2455 73 67.9023 73V70ZM67.9023 68.8477H70.9023C70.9023 67.4657 69.9583 66.2626 68.616 65.9338C67.2738 65.605 65.8806 66.2357 65.2419 67.4612L67.9023 68.8477ZM66.9648 69.8926L68.5148 72.4611C68.519 72.4586 68.5232 72.4561 68.5274 72.4535L66.9648 69.8926ZM63.7031 69.6582L62.0131 72.1369C62.0239 72.1442 62.0347 72.1515 62.0455 72.1587L63.7031 69.6582ZM63.3027 64.0625L61.0398 62.0929L63.3027 64.0625ZM65.5781 62.832L66.6611 65.6298L66.6729 65.6251L65.5781 62.832ZM67.6387 59.4141L64.9223 60.6874C64.9385 60.7219 64.9553 60.7561 64.9728 60.79L67.6387 59.4141ZM66.6426 59.3652L69.4426 60.4422C69.4471 60.4305 69.4515 60.4189 69.4558 60.4072L66.6426 59.3652ZM67.7949 63.8379H70.7949C70.7949 62.7079 70.1599 61.6737 69.1522 61.1625C68.1444 60.6512 66.9349 60.7496 66.023 61.4171L67.7949 63.8379ZM66.6914 65L63.8454 64.0513C63.8394 64.0692 63.8336 64.0872 63.828 64.1052L66.6914 65ZM66.6719 67.6465L63.9192 68.8393C63.9302 68.8647 63.9416 68.89 63.9533 68.9151L66.6719 67.6465ZM67.6777 67.7148L64.9945 66.3732C64.9866 66.3889 64.9789 66.4047 64.9713 66.4205L67.6777 67.7148ZM66.5449 59.0605H62.8438V65.0605H66.5449V59.0605ZM65.8438 62.0605V61.1914H59.8438V62.0605H65.8438ZM65.8438 61.1914C65.8438 60.7977 65.8665 60.5056 65.897 60.2991C65.9284 60.0867 65.9603 60.0179 65.9498 60.0426L60.4213 57.7113C59.9649 58.7934 59.8438 60.0325 59.8438 61.1914H65.8438ZM65.943 60.0587C65.8997 60.1596 65.8566 60.2017 65.8679 60.19C65.8834 60.174 65.9541 60.1066 66.122 60.0062L63.0421 54.857C61.9969 55.4822 60.9877 56.3895 60.4281 57.6952L65.943 60.0587ZM66.122 60.0062C66.2112 59.9528 66.5325 59.8066 67.2969 59.8066V53.8066C65.8347 53.8066 64.346 54.0771 63.0421 54.857L66.122 60.0062ZM67.2969 59.8066C67.7954 59.8066 68.14 59.8519 68.3625 59.9045C68.5837 59.9567 68.6315 60.0035 68.5909 59.975L72.038 55.0641C70.6319 54.0771 68.9018 53.8066 67.2969 53.8066V59.8066ZM68.6068 59.9861C68.701 60.0513 68.7025 60.0727 68.6723 60.0298C68.6577 60.0088 68.6401 59.9791 68.6242 59.9419C68.6082 59.9047 68.5981 59.8696 68.5924 59.8408L74.478 58.6748C74.1642 57.0909 73.2226 55.8841 72.0221 55.053L68.6068 59.9861ZM68.5934 59.8462C68.6618 60.1881 68.7402 61.298 68.7402 63.4961H74.7402C74.7402 61.4103 74.6819 59.6947 74.4769 58.6695L68.5934 59.8462ZM68.7402 63.4961V70H74.7402V63.4961H68.7402ZM71.7402 67H67.9023V73H71.7402V67ZM70.9023 70V68.8477H64.9023V70H70.9023ZM65.2419 67.4612C65.2246 67.4945 65.225 67.4848 65.2543 67.4521C65.2853 67.4175 65.3351 67.3727 65.4023 67.3317L68.5274 72.4535C69.4472 71.8923 70.1102 71.1025 70.5628 70.2341L65.2419 67.4612ZM65.4148 67.324C65.4945 67.2759 65.5649 67.251 65.6098 67.2397C65.6517 67.2292 65.6556 67.2344 65.6074 67.2344V73.2344C66.5735 73.2344 67.5852 73.0221 68.5148 72.4611L65.4148 67.324ZM65.6074 67.2344C65.5115 67.2344 65.4526 67.2186 65.3607 67.1577L62.0455 72.1587C63.1125 72.866 64.3231 73.2344 65.6074 73.2344V67.2344ZM65.3931 67.1795C65.5792 67.3064 65.7096 67.4502 65.793 67.5705C65.8726 67.6853 65.8995 67.764 65.9014 67.7695C65.903 67.7744 65.8869 67.7272 65.8714 67.61C65.856 67.4941 65.8438 67.3299 65.8438 67.1094H59.8438C59.8438 68.574 60.1128 70.8412 62.0131 72.1369L65.3931 67.1795ZM65.8438 67.1094V66.0449H59.8438V67.1094H65.8438ZM65.8438 66.0449C65.8438 65.8795 65.8504 65.7512 65.8593 65.6556C65.8684 65.5588 65.8786 65.5096 65.8812 65.4985C65.8841 65.4859 65.8743 65.5345 65.8342 65.6229C65.7938 65.7121 65.7128 65.863 65.5656 66.0321L61.0398 62.0929C59.9572 63.3368 59.8438 65.0042 59.8438 66.0449H65.8438ZM65.5656 66.0321C65.4991 66.1086 65.444 66.1596 65.4127 66.187C65.3961 66.2014 65.3834 66.2117 65.3754 66.218C65.3674 66.2243 65.363 66.2275 65.3629 66.2275C65.3628 66.2276 65.3662 66.2252 65.3735 66.2204C65.3807 66.2156 65.3913 66.2088 65.4055 66.2001C65.4342 66.1825 65.4745 66.1591 65.5281 66.1301C65.7556 66.007 66.121 65.8388 66.6611 65.6297L64.4951 60.0343C63.8243 60.294 63.205 60.5652 62.674 60.8523C62.2003 61.1086 61.5517 61.5048 61.0398 62.0929L65.5656 66.0321ZM66.6729 65.6251C67.3479 65.3606 67.9367 65.1122 68.3963 64.8856C68.6203 64.7752 68.8815 64.637 69.129 64.4737C69.2528 64.3921 69.4234 64.2714 69.6014 64.1113C69.7505 63.9774 70.0712 63.6703 70.3215 63.1876L64.9949 60.4257C65.1181 60.1882 65.2507 60.0138 65.3446 59.9029C65.4413 59.7887 65.529 59.7043 65.5901 59.6493C65.7077 59.5436 65.7991 59.4825 65.8248 59.4655C65.8762 59.4316 65.866 59.4435 65.7434 59.504C65.5096 59.6192 65.1039 59.7957 64.4833 60.0389L66.6729 65.6251ZM70.3215 63.1876C70.612 62.6272 70.6998 62.075 70.7367 61.785C70.7813 61.4352 70.7949 61.0736 70.7949 60.7324H64.7949C64.7949 60.8265 64.7929 60.8987 64.7902 60.9515C64.7875 61.0056 64.7846 61.0289 64.7847 61.0275C64.7849 61.026 64.7864 61.0143 64.7902 60.994C64.7938 60.974 64.8005 60.9405 64.8118 60.8964C64.823 60.8527 64.8407 60.7907 64.8678 60.7153C64.8947 60.6407 64.9352 60.5409 64.9949 60.4257L70.3215 63.1876ZM70.7949 60.7324C70.7949 60.3306 70.7802 59.9229 70.735 59.5419C70.699 59.2379 70.6125 58.6349 70.3045 58.0381L64.9728 60.79C64.9091 60.6666 64.8681 60.5619 64.8428 60.4892C64.8169 60.4151 64.8012 60.3568 64.7923 60.3202C64.7832 60.2828 64.7786 60.2577 64.777 60.2479C64.7752 60.2377 64.7754 60.2372 64.7767 60.2481C64.7795 60.2716 64.7844 60.3231 64.7884 60.409C64.7924 60.4935 64.7949 60.6004 64.7949 60.7324H70.7949ZM70.355 58.1408C70.105 57.6074 69.6861 57.0468 69.0354 56.6385C68.3882 56.2324 67.7103 56.1016 67.1406 56.1016V62.1016C66.8053 62.1016 66.3277 62.0228 65.8464 61.7209C65.3617 61.4167 65.0746 61.0124 64.9223 60.6874L70.355 58.1408ZM67.1406 56.1016C66.7111 56.1016 66.0712 56.1672 65.4123 56.5161C64.6791 56.9043 64.1186 57.5423 63.8293 58.3233L69.4558 60.4072C69.2317 61.0124 68.7867 61.5186 68.2196 61.8188C67.7266 62.0798 67.3032 62.1016 67.1406 62.1016V56.1016ZM63.8425 58.2883C63.6325 58.8344 63.5927 59.3968 63.5773 59.6083C63.5535 59.9342 63.5449 60.3073 63.5449 60.7031H69.5449C69.5449 60.5441 69.5467 60.4092 69.5499 60.2965C69.553 60.1827 69.5573 60.1005 69.5614 60.0451C69.5658 59.985 69.5681 59.9805 69.5628 60.0144C69.5598 60.0328 69.5524 60.0768 69.5376 60.1388C69.5238 60.1964 69.4953 60.3051 69.4426 60.4422L63.8425 58.2883ZM63.5449 60.7031V62.0605H69.5449V60.7031H63.5449ZM66.023 61.4171C65.6225 61.7102 65.22 62.0407 64.87 62.4093C64.5496 62.7467 64.0966 63.2975 63.8454 64.0513L69.5375 65.9487C69.4573 66.1892 69.3589 66.3508 69.3062 66.429C69.2516 66.51 69.2148 66.5472 69.2209 66.5409C69.2251 66.5364 69.2528 66.5081 69.3139 66.4562C69.374 66.405 69.4569 66.3392 69.5668 66.2587L66.023 61.4171ZM63.828 64.1052C63.5951 64.8504 63.5449 65.6576 63.5449 66.3477H69.5449C69.5449 66.1331 69.5541 65.9863 69.564 65.8955C69.5747 65.7972 69.5813 65.8101 69.5548 65.8948L63.828 64.1052ZM63.5449 66.3477C63.5449 66.7344 63.5566 67.1167 63.5909 67.4671C63.6176 67.7405 63.6811 68.2898 63.9192 68.8393L69.4245 66.4537C69.4745 66.5689 69.5051 66.6635 69.5228 66.7246C69.5411 66.7874 69.5516 66.8348 69.5569 66.8612C69.5624 66.8885 69.5647 66.9043 69.5649 66.9059C69.5652 66.9079 69.5641 66.9009 69.5624 66.8835C69.5589 66.8472 69.5542 66.7848 69.5507 66.6911C69.5471 66.5985 69.5449 66.4848 69.5449 66.3477H63.5449ZM63.9533 68.9151C64.2459 69.5422 64.7339 70.1102 65.4151 70.4887C66.0612 70.8476 66.7056 70.9395 67.1992 70.9395V64.9395C67.4324 64.9395 67.8587 64.9825 68.329 65.2437C68.8344 65.5245 69.189 65.9461 69.3904 66.3778L63.9533 68.9151ZM67.1992 70.9395C67.9624 70.9395 69.5874 70.675 70.3841 69.0092L64.9713 66.4205C65.2536 65.8303 65.724 65.4049 66.2297 65.1676C66.6761 64.9581 67.0487 64.9395 67.1992 64.9395V70.9395ZM70.361 69.0565C70.6722 68.4342 70.7313 67.7946 70.7517 67.5839C70.7843 67.2465 70.7949 66.8758 70.7949 66.5039H64.7949C64.7949 66.6378 64.7929 66.7473 64.7897 66.8348C64.7864 66.9238 64.7822 66.9787 64.7796 67.0059C64.7783 67.0187 64.778 67.0196 64.7793 67.0104C64.7805 67.0019 64.7844 66.976 64.7926 66.9367C64.8006 66.8988 64.8158 66.8327 64.8425 66.7474C64.8681 66.6657 64.9147 66.5326 64.9945 66.3732L70.361 69.0565ZM70.7949 66.5039V63.8379H64.7949V66.5039H70.7949ZM77.2578 55.3125H80.2578C80.2578 53.6556 78.9147 52.3125 77.2578 52.3125V55.3125ZM77.2578 57.3535H74.2578C74.2578 59.0104 75.601 60.3535 77.2578 60.3535V57.3535ZM78.3223 57.3535H81.3223C81.3223 55.6967 79.9791 54.3535 78.3223 54.3535V57.3535ZM78.3223 59.4043V62.4043C79.9791 62.4043 81.3223 61.0612 81.3223 59.4043H78.3223ZM77.2578 59.4043V56.4043C75.601 56.4043 74.2578 57.7474 74.2578 59.4043H77.2578ZM77.3848 67.7637L75.1177 69.7285C75.1418 69.7563 75.1665 69.7837 75.1916 69.8106L77.3848 67.7637ZM78.4883 67.9102H81.4883C81.4883 66.2533 80.1451 64.9102 78.4883 64.9102V67.9102ZM78.4883 70V73C80.1451 73 81.4883 71.6569 81.4883 70H78.4883ZM74.9727 69.8926L74.3747 72.8324C74.3907 72.8356 74.4068 72.8388 74.4228 72.8418L74.9727 69.8926ZM73.957 69.375L71.9101 71.5682C71.9189 71.5764 71.9277 71.5845 71.9366 71.5926L73.957 69.375ZM73.4102 68.4473L70.4705 69.0461L70.4728 69.0569L73.4102 68.4473ZM73.3027 59.4043H76.3027C76.3027 57.7474 74.9596 56.4043 73.3027 56.4043V59.4043ZM72.4531 59.4043H69.4531C69.4531 61.0612 70.7963 62.4043 72.4531 62.4043V59.4043ZM72.4531 57.3535V54.3535C70.7963 54.3535 69.4531 55.6967 69.4531 57.3535H72.4531ZM73.3027 57.3535V60.3535C74.9596 60.3535 76.3027 59.0104 76.3027 57.3535H73.3027ZM73.3027 55.3125V52.3125C71.6459 52.3125 70.3027 53.6556 70.3027 55.3125H73.3027ZM74.2578 55.3125V57.3535H80.2578V55.3125H74.2578ZM77.2578 60.3535H78.3223V54.3535H77.2578V60.3535ZM75.3223 57.3535V59.4043H81.3223V57.3535H75.3223ZM78.3223 56.4043H77.2578V62.4043H78.3223V56.4043ZM74.2578 59.4043V66.3379H80.2578V59.4043H74.2578ZM74.2578 66.3379C74.2578 66.7958 74.2685 67.231 74.3014 67.6001C74.3173 67.7787 74.3446 68.0176 74.4003 68.2687C74.4197 68.3563 74.5567 69.0812 75.1177 69.7285L79.6518 65.7989C79.8184 65.9911 79.9298 66.1707 80.0005 66.2997C80.0728 66.4317 80.122 66.5466 80.1541 66.63C80.2162 66.791 80.2461 66.9161 80.2582 66.9706C80.2821 67.0784 80.283 67.1269 80.2777 67.0679C80.2683 66.9617 80.2578 66.7329 80.2578 66.3379H74.2578ZM75.1916 69.8106C75.7453 70.4039 76.3821 70.6185 76.5929 70.6857C76.8834 70.7785 77.1498 70.823 77.3342 70.8474C77.7102 70.8974 78.1149 70.9102 78.4883 70.9102V64.9102C78.2171 64.9102 78.1156 64.8985 78.1238 64.8996C78.1243 64.8997 78.2413 64.9137 78.4171 64.9698C78.5088 64.999 78.6615 65.0539 78.843 65.1506C79.0171 65.2434 79.2986 65.4174 79.5779 65.7167L75.1916 69.8106ZM75.4883 67.9102V70H81.4883V67.9102H75.4883ZM78.4883 67H76.8965V73H78.4883V67ZM76.8965 67C76.4829 67 76.1569 66.9917 75.909 66.9778C75.7859 66.9709 75.6914 66.9632 75.6215 66.9559C75.5494 66.9484 75.5198 66.9429 75.5225 66.9434L74.4228 72.8418C75.1036 72.9687 75.9885 73 76.8965 73V67ZM75.5706 66.9528C75.6357 66.966 75.713 66.991 75.7928 67.0317C75.8724 67.0722 75.9344 67.1182 75.9775 67.1574L71.9366 71.5926C72.6251 72.22 73.4538 72.6451 74.3747 72.8324L75.5706 66.9528ZM76.004 67.1818C76.0437 67.2189 76.1142 67.2944 76.185 67.4146C76.2576 67.5378 76.3153 67.6822 76.3476 67.8376L70.4728 69.0569C70.6872 70.0902 71.2283 70.9319 71.9101 71.5682L76.004 67.1818ZM76.3498 67.8485C76.3631 67.9138 76.3595 67.9187 76.3506 67.8219C76.3429 67.7374 76.3344 67.6119 76.3267 67.4375C76.3115 67.0882 76.3027 66.6087 76.3027 65.9863H70.3027C70.3027 67.1836 70.326 68.3367 70.4705 69.0461L76.3498 67.8485ZM76.3027 65.9863V59.4043H70.3027V65.9863H76.3027ZM73.3027 56.4043H72.4531V62.4043H73.3027V56.4043ZM75.4531 59.4043V57.3535H69.4531V59.4043H75.4531ZM72.4531 60.3535H73.3027V54.3535H72.4531V60.3535ZM76.3027 57.3535V55.3125H70.3027V57.3535H76.3027ZM73.3027 58.3125H77.2578V52.3125H73.3027V58.3125ZM88.127 63.75V66.75C89.7838 66.75 91.127 65.4069 91.127 63.75H88.127ZM83.0195 63.75V60.75C81.3627 60.75 80.0195 62.0931 80.0195 63.75H83.0195ZM84.2305 67.6074L81.502 66.3601C81.4965 66.3722 81.4911 66.3843 81.4857 66.3965L84.2305 67.6074ZM84.3867 64.5898V61.5898C82.7299 61.5898 81.3867 62.933 81.3867 64.5898H84.3867ZM88.127 64.5898H91.127C91.127 62.933 89.7838 61.5898 88.127 61.5898V64.5898ZM87.9707 67.3926L85.0552 66.6858C85.0518 66.6997 85.0485 66.7137 85.0453 66.7277L87.9707 67.3926ZM85.8516 69.873L87.0257 72.6338C87.0307 72.6316 87.0358 72.6294 87.0409 72.6272L85.8516 69.873ZM80.0117 68.8867L77.7041 70.8038C77.7148 70.8166 77.7256 70.8294 77.7365 70.842L80.0117 68.8867ZM79.2793 67.5L76.3824 68.2799L76.385 68.2894L79.2793 67.5ZM79.5332 58.8379L82.2483 60.114L82.2531 60.1036L79.5332 58.8379ZM81.0371 57.334L82.3687 60.0223C82.3754 60.019 82.3821 60.0156 82.3888 60.0122L81.0371 57.334ZM86.1738 57.4414L84.6476 60.0242C84.6568 60.0296 84.6661 60.035 84.6753 60.0404L86.1738 57.4414ZM87.6875 59.1113L84.9129 60.2523C84.9172 60.2628 84.9216 60.2732 84.926 60.2836L87.6875 59.1113ZM84.1719 61.6406V64.6406C85.8287 64.6406 87.1719 63.2975 87.1719 61.6406H84.1719ZM83.1172 59.3555L85.9026 60.4696C85.9076 60.4573 85.9124 60.4448 85.9172 60.4324L83.1172 59.3555ZM83.0195 61.6406H80.0195C80.0195 63.2975 81.3627 64.6406 83.0195 64.6406V61.6406ZM88.127 60.75H83.0195V66.75H88.127V60.75ZM80.0195 63.75V66.5527H86.0195V63.75H80.0195ZM80.0195 66.5527C80.0195 66.9045 80.0316 67.2674 80.0699 67.6095C80.099 67.8687 80.173 68.4469 80.4632 69.0272L85.8298 66.3439C85.8947 66.4738 85.9362 66.5841 85.9617 66.6605C85.9878 66.7385 86.0039 66.8008 86.0132 66.8411C86.0311 66.9179 86.0344 66.9574 86.0326 66.9413C86.0313 66.9292 86.0276 66.8913 86.0246 66.8215C86.0216 66.753 86.0195 66.6643 86.0195 66.5527H80.0195ZM80.4632 69.0272C81.2023 70.5053 82.6263 70.9395 83.6348 70.9395V64.9395C83.8508 64.9395 84.2573 64.9758 84.7161 65.2143C85.2149 65.4737 85.5986 65.8817 85.8298 66.3439L80.4632 69.0272ZM83.6348 70.9395C84.1387 70.9395 84.8034 70.8478 85.4689 70.4769C86.176 70.0828 86.6811 69.4851 86.9752 68.8183L81.4857 66.3965C81.6822 65.9511 82.0392 65.5194 82.5477 65.236C83.0146 64.9758 83.4303 64.9395 83.6348 64.9395V70.9395ZM86.9589 68.8547C87.2021 68.3226 87.2869 67.7964 87.3265 67.4651C87.3715 67.0883 87.3867 66.6906 87.3867 66.2988H81.3867C81.3867 66.4206 81.3842 66.5198 81.3804 66.5988C81.3766 66.6787 81.3718 66.7287 81.3688 66.7537C81.3655 66.7811 81.3663 66.7625 81.3786 66.7103C81.3851 66.6828 81.3963 66.6393 81.4145 66.5834C81.4325 66.5282 81.4603 66.4515 81.502 66.3601L86.9589 68.8547ZM87.3867 66.2988V64.5898H81.3867V66.2988H87.3867ZM84.3867 67.5898H88.127V61.5898H84.3867V67.5898ZM85.127 64.5898V65.5469H91.127V64.5898H85.127ZM85.127 65.5469C85.127 66.2684 85.0752 66.6029 85.0552 66.6858L90.8863 68.0994C91.0745 67.3228 91.127 66.4269 91.127 65.5469H85.127ZM85.0453 66.7277C85.06 66.6629 85.0724 66.6506 85.0499 66.6947C85.0271 66.7394 84.9766 66.826 84.8791 66.9543L89.6561 70.5848C90.1912 69.8807 90.6741 69.0344 90.8961 68.0574L85.0453 66.7277ZM84.8791 66.9543C84.826 67.0242 84.77 67.0723 84.6623 67.1189L87.0409 72.6272C88.0789 72.179 88.967 71.4915 89.6561 70.5848L84.8791 66.9543ZM84.6775 67.1123C84.5984 67.146 84.3176 67.2344 83.7129 67.2344V73.2344C84.8269 73.2344 85.9719 73.0819 87.0257 72.6338L84.6775 67.1123ZM83.7129 67.2344C83.1637 67.2344 82.799 67.1546 82.5655 67.0664L80.4462 72.6797C81.4888 73.0733 82.5954 73.2344 83.7129 73.2344V67.2344ZM82.5655 67.0664C82.2858 66.9608 82.2476 66.8856 82.287 66.9314L77.7365 70.842C78.492 71.7212 79.4499 72.3035 80.4462 72.6797L82.5655 67.0664ZM82.3193 66.9697C82.2252 66.8564 82.191 66.7744 82.1736 66.7106L76.385 68.2894C76.6411 69.2282 77.0951 70.0707 77.7041 70.8038L82.3193 66.9697ZM82.1761 66.7201C82.1426 66.5957 82.0742 66.1728 82.0742 65.293H76.0742C76.0742 66.3402 76.1425 67.3887 76.3825 68.2799L82.1761 66.7201ZM82.0742 65.293V61.5137H76.0742V65.293H82.0742ZM82.0742 61.5137C82.0742 60.5952 82.207 60.2017 82.2483 60.114L76.8181 57.5618C76.2474 58.7761 76.0742 60.1665 76.0742 61.5137H82.0742ZM82.2531 60.1036C82.2586 60.0918 82.2615 60.0879 82.2609 60.0888C82.2602 60.0898 82.2594 60.0907 82.26 60.0901C82.2607 60.0893 82.267 60.0831 82.2824 60.0722C82.298 60.0612 82.3254 60.0437 82.3687 60.0223L79.7055 54.6457C78.445 55.2701 77.4283 56.2504 76.8133 57.5722L82.2531 60.1036ZM82.3888 60.0122C82.604 59.9036 82.929 59.8066 83.4395 59.8066V53.8066C82.14 53.8066 80.8635 54.0612 79.6855 54.6557L82.3888 60.0122ZM83.4395 59.8066C84.1814 59.8066 84.5222 59.9501 84.6476 60.0242L87.7 54.8586C86.3931 54.0864 84.9111 53.8066 83.4395 53.8066V59.8066ZM84.6753 60.0404C84.8884 60.1632 84.9061 60.2357 84.9129 60.2523L90.4621 57.9704C89.896 56.5937 88.9046 55.5529 87.6723 54.8425L84.6753 60.0404ZM84.926 60.2836C84.99 60.4344 85.127 60.9416 85.127 62.0312H91.127C91.127 60.6079 90.9709 59.1684 90.449 57.939L84.926 60.2836ZM85.127 62.0312V63.75H91.127V62.0312H85.127ZM87.1719 61.6406V60.6934H81.1719V61.6406H87.1719ZM87.1719 60.6934C87.1719 60.3146 87.1621 59.9486 87.1348 59.6184C87.1133 59.3588 87.0641 58.861 86.8811 58.3618L81.2478 60.4273C81.2105 60.3256 81.1885 60.2446 81.1765 60.1956C81.164 60.1447 81.1573 60.1083 81.1544 60.0912C81.149 60.0598 81.1511 60.0626 81.1552 60.113C81.1591 60.1601 81.1635 60.2317 81.1667 60.3323C81.17 60.4318 81.1719 60.5516 81.1719 60.6934H87.1719ZM86.8811 58.3618C86.6671 57.7782 86.2591 57.1414 85.565 56.6787C84.8858 56.2259 84.1756 56.1016 83.625 56.1016V62.1016C83.2958 62.1016 82.7695 62.0261 82.2368 61.671C81.6891 61.3058 81.3902 60.8155 81.2478 60.4273L86.8811 58.3618ZM83.625 56.1016C82.8459 56.1016 81.0436 56.3898 80.3172 58.2785L85.9172 60.4324C85.6685 61.0791 85.1875 61.5719 84.6346 61.8483C84.1593 62.086 83.7616 62.1016 83.625 62.1016V56.1016ZM80.3318 58.2413C80.1053 58.8074 80.0664 59.3954 80.0519 59.5936C80.0281 59.92 80.0195 60.2951 80.0195 60.6934H86.0195C86.0195 60.5325 86.0213 60.3962 86.0245 60.2827C86.0277 60.1678 86.032 60.0854 86.036 60.0304C86.0404 59.9703 86.0426 59.9683 86.0366 60.0058C86.0333 60.0261 86.0252 60.0739 86.0089 60.1406C86.0005 60.175 85.9887 60.2198 85.9724 60.2724C85.9564 60.3245 85.9338 60.3917 85.9026 60.4696L80.3318 58.2413ZM80.0195 60.6934V61.6406H86.0195V60.6934H80.0195ZM83.0195 64.6406H84.1719V58.6406H83.0195V64.6406ZM96.9746 57.041L99.9697 57.2129C100.017 56.3887 99.7226 55.5815 99.1558 54.9813C98.5891 54.3812 97.8001 54.041 96.9746 54.041V57.041ZM96.9062 58.2324L93.9112 58.0606C93.8322 59.4376 94.7023 60.6911 96.0201 61.0985C97.3378 61.506 98.7636 60.9624 99.4756 59.7811L96.9062 58.2324ZM97.9512 57.168L99.4396 59.7727C99.444 59.7702 99.4483 59.7677 99.4527 59.7652L97.9512 57.168ZM101.877 58.4961L98.9688 59.2328L98.9712 59.2422L101.877 58.4961ZM102.062 70V73C103.719 73 105.062 71.6569 105.062 70H102.062ZM98.1172 70H95.1172C95.1172 71.6569 96.4603 73 98.1172 73V70ZM97.0137 59.4434L99.868 60.3668C99.8706 60.3588 99.8731 60.3508 99.8757 60.3428L97.0137 59.4434ZM96.9062 70V73C98.5631 73 99.9062 71.6569 99.9062 70H96.9062ZM92.9609 70H89.9609C89.9609 71.6569 91.3041 73 92.9609 73V70ZM92.9609 57.041V54.041C91.3041 54.041 89.9609 55.3842 89.9609 57.041H92.9609ZM93.9795 56.8692L93.9112 58.0606L99.9013 58.4043L99.9697 57.2129L93.9795 56.8692ZM99.4756 59.7811C99.5118 59.721 99.5306 59.7039 99.5232 59.7115C99.5195 59.7152 99.5105 59.7239 99.4956 59.7355C99.4806 59.7471 99.4618 59.76 99.4396 59.7727L96.4628 54.5632C95.5361 55.0928 94.8413 55.847 94.3369 56.6838L99.4756 59.7811ZM99.4527 59.7652C99.4348 59.7755 99.4163 59.7845 99.3982 59.7918C99.3801 59.7991 99.3652 59.8036 99.3548 59.8062C99.3332 59.8117 99.3402 59.8066 99.3867 59.8066V53.8066C98.3852 53.8066 97.3768 54.0348 96.4497 54.5708L99.4527 59.7652ZM99.3867 59.8066C99.4921 59.8066 99.5146 59.8193 99.4787 59.8089C99.4601 59.8036 99.4286 59.7928 99.3884 59.7732C99.3479 59.7535 99.3035 59.7272 99.2586 59.6939L102.835 54.8764C101.765 54.082 100.535 53.8066 99.3867 53.8066V59.8066ZM99.2586 59.6939C99.2317 59.6739 99.1683 59.6198 99.1022 59.5233C99.0347 59.4249 98.9913 59.3214 98.9688 59.2328L104.785 57.7594C104.481 56.5577 103.782 55.5795 102.835 54.8764L99.2586 59.6939ZM98.9712 59.2422C98.9711 59.2419 99.0001 59.369 99.0249 59.6921C99.0482 59.9962 99.0625 60.4004 99.0625 60.918H105.062C105.062 59.7704 105.009 58.6302 104.783 57.75L98.9712 59.2422ZM99.0625 60.918V70H105.062V60.918H99.0625ZM102.062 67H98.1172V73H102.062V67ZM101.117 70V61.0254H95.1172V70H101.117ZM101.117 61.0254C101.117 60.5548 101.11 60.1357 101.091 59.7873C101.078 59.5457 101.049 59.0197 100.903 58.5325L95.1558 60.2566C95.121 60.1405 95.1044 60.0543 95.0982 60.02C95.0944 59.9991 95.092 59.9837 95.0907 59.9747C95.0893 59.9656 95.0888 59.9607 95.0887 59.9607C95.0887 59.9605 95.0891 59.9638 95.0898 59.9709C95.0905 59.978 95.0914 59.9879 95.0925 60.0011C95.0946 60.0277 95.0971 60.0637 95.0996 60.1102C95.1101 60.3053 95.1172 60.604 95.1172 61.0254H101.117ZM100.903 58.5325C100.676 57.7769 100.179 57.0658 99.4068 56.6023C98.7069 56.1824 98.0079 56.1016 97.541 56.1016V62.1016C97.341 62.1016 96.8569 62.0695 96.3198 61.7473C95.7101 61.3815 95.3239 60.8168 95.1558 60.2566L100.903 58.5325ZM97.541 56.1016C97.0122 56.1016 96.2796 56.2081 95.5675 56.6696C94.8124 57.159 94.3658 57.8627 94.1517 58.5439L99.8757 60.3428C99.7332 60.7962 99.4103 61.3289 98.8309 61.7045C98.2947 62.052 97.7899 62.1016 97.541 62.1016V56.1016ZM94.1593 58.5199C93.9912 59.0395 93.955 59.6024 93.9385 59.8796C93.9155 60.2637 93.9062 60.7242 93.9062 61.2402H99.9062C99.9062 60.7797 99.9149 60.4524 99.9278 60.2376C99.9342 60.13 99.9401 60.079 99.9413 60.0697C99.9417 60.0663 99.9391 60.088 99.9311 60.128C99.9241 60.1633 99.9058 60.2501 99.868 60.3668L94.1593 58.5199ZM93.9062 61.2402V70H99.9062V61.2402H93.9062ZM96.9062 67H92.9609V73H96.9062V67ZM95.9609 70V57.041H89.9609V70H95.9609ZM92.9609 60.041H96.9746V54.041H92.9609V60.041ZM112.365 63.75V66.75C114.022 66.75 115.365 65.4069 115.365 63.75H112.365ZM107.258 63.75V60.75C105.601 60.75 104.258 62.0931 104.258 63.75H107.258ZM108.469 67.6074L105.74 66.3601C105.735 66.3722 105.729 66.3843 105.724 66.3965L108.469 67.6074ZM108.625 64.5898V61.5898C106.968 61.5898 105.625 62.933 105.625 64.5898H108.625ZM112.365 64.5898H115.365C115.365 62.933 114.022 61.5898 112.365 61.5898V64.5898ZM112.209 67.3926L109.293 66.6858C109.29 66.6997 109.287 66.7137 109.284 66.7277L112.209 67.3926ZM110.09 69.873L111.264 72.6338C111.269 72.6316 111.274 72.6294 111.279 72.6272L110.09 69.873ZM104.25 68.8867L101.942 70.8038C101.953 70.8166 101.964 70.8294 101.975 70.842L104.25 68.8867ZM103.518 67.5L100.621 68.2799L100.623 68.2894L103.518 67.5ZM103.771 58.8379L106.487 60.114L106.491 60.1036L103.771 58.8379ZM105.275 57.334L106.607 60.0223C106.614 60.019 106.62 60.0156 106.627 60.0122L105.275 57.334ZM110.412 57.4414L108.886 60.0242C108.895 60.0296 108.904 60.035 108.914 60.0404L110.412 57.4414ZM111.926 59.1113L109.151 60.2523C109.156 60.2628 109.16 60.2732 109.164 60.2836L111.926 59.1113ZM108.41 61.6406V64.6406C110.067 64.6406 111.41 63.2975 111.41 61.6406H108.41ZM107.355 59.3555L110.141 60.4696C110.146 60.4573 110.151 60.4448 110.156 60.4324L107.355 59.3555ZM107.258 61.6406H104.258C104.258 63.2975 105.601 64.6406 107.258 64.6406V61.6406ZM112.365 60.75H107.258V66.75H112.365V60.75ZM104.258 63.75V66.5527H110.258V63.75H104.258ZM104.258 66.5527C104.258 66.9045 104.27 67.2674 104.308 67.6095C104.337 67.8687 104.411 68.4469 104.701 69.0272L110.068 66.3439C110.133 66.4738 110.174 66.5841 110.2 66.6605C110.226 66.7385 110.242 66.8008 110.252 66.8411C110.269 66.9179 110.273 66.9574 110.271 66.9413C110.27 66.9292 110.266 66.8913 110.263 66.8215C110.26 66.753 110.258 66.6643 110.258 66.5527H104.258ZM104.701 69.0272C105.441 70.5053 106.865 70.9395 107.873 70.9395V64.9395C108.089 64.9395 108.496 64.9758 108.954 65.2143C109.453 65.4737 109.837 65.8817 110.068 66.3439L104.701 69.0272ZM107.873 70.9395C108.377 70.9395 109.042 70.8478 109.707 70.4769C110.414 70.0828 110.919 69.4851 111.214 68.8183L105.724 66.3965C105.921 65.9511 106.277 65.5194 106.786 65.236C107.253 64.9758 107.669 64.9395 107.873 64.9395V70.9395ZM111.197 68.8547C111.44 68.3226 111.525 67.7964 111.565 67.4651C111.61 67.0883 111.625 66.6906 111.625 66.2988H105.625C105.625 66.4206 105.623 66.5198 105.619 66.5988C105.615 66.6787 105.61 66.7287 105.607 66.7537C105.604 66.7811 105.605 66.7625 105.617 66.7103C105.623 66.6828 105.635 66.6393 105.653 66.5834C105.671 66.5282 105.699 66.4515 105.74 66.3601L111.197 68.8547ZM111.625 66.2988V64.5898H105.625V66.2988H111.625ZM108.625 67.5898H112.365V61.5898H108.625V67.5898ZM109.365 64.5898V65.5469H115.365V64.5898H109.365ZM109.365 65.5469C109.365 66.2684 109.314 66.6029 109.293 66.6858L115.125 68.0994C115.313 67.3228 115.365 66.4269 115.365 65.5469H109.365ZM109.284 66.7277C109.298 66.6629 109.311 66.6506 109.288 66.6947C109.265 66.7394 109.215 66.826 109.117 66.9543L113.894 70.5848C114.429 69.8807 114.912 69.0344 115.134 68.0574L109.284 66.7277ZM109.117 66.9543C109.064 67.0242 109.008 67.0723 108.901 67.1189L111.279 72.6272C112.317 72.179 113.205 71.4915 113.894 70.5848L109.117 66.9543ZM108.916 67.1123C108.837 67.146 108.556 67.2344 107.951 67.2344V73.2344C109.065 73.2344 110.21 73.0819 111.264 72.6338L108.916 67.1123ZM107.951 67.2344C107.402 67.2344 107.037 67.1546 106.804 67.0664L104.684 72.6797C105.727 73.0733 106.834 73.2344 107.951 73.2344V67.2344ZM106.804 67.0664C106.524 66.9608 106.486 66.8856 106.525 66.9314L101.975 70.842C102.73 71.7212 103.688 72.3035 104.684 72.6797L106.804 67.0664ZM106.558 66.9697C106.463 66.8564 106.429 66.7744 106.412 66.7106L100.623 68.2894C100.879 69.2282 101.333 70.0707 101.942 70.8038L106.558 66.9697ZM106.414 66.7201C106.381 66.5957 106.312 66.1728 106.312 65.293H100.312C100.312 66.3402 100.381 67.3887 100.621 68.2799L106.414 66.7201ZM106.312 65.293V61.5137H100.312V65.293H106.312ZM106.312 61.5137C106.312 60.5952 106.445 60.2017 106.487 60.114L101.056 57.5618C100.486 58.7761 100.312 60.1665 100.312 61.5137H106.312ZM106.491 60.1036C106.497 60.0918 106.5 60.0879 106.499 60.0888C106.498 60.0898 106.498 60.0907 106.498 60.0901C106.499 60.0893 106.505 60.0831 106.521 60.0722C106.536 60.0612 106.564 60.0437 106.607 60.0223L103.944 54.6457C102.683 55.2701 101.667 56.2504 101.052 57.5722L106.491 60.1036ZM106.627 60.0122C106.842 59.9036 107.167 59.8066 107.678 59.8066V53.8066C106.378 53.8066 105.102 54.0612 103.924 54.6557L106.627 60.0122ZM107.678 59.8066C108.42 59.8066 108.761 59.9501 108.886 60.0242L111.938 54.8586C110.631 54.0864 109.149 53.8066 107.678 53.8066V59.8066ZM108.914 60.0404C109.127 60.1632 109.144 60.2357 109.151 60.2523L114.7 57.9704C114.134 56.5937 113.143 55.5529 111.911 54.8425L108.914 60.0404ZM109.164 60.2836C109.228 60.4344 109.365 60.9416 109.365 62.0312H115.365C115.365 60.6079 115.209 59.1684 114.687 57.939L109.164 60.2836ZM109.365 62.0312V63.75H115.365V62.0312H109.365ZM111.41 61.6406V60.6934H105.41V61.6406H111.41ZM111.41 60.6934C111.41 60.3146 111.4 59.9486 111.373 59.6184C111.352 59.3588 111.302 58.861 111.119 58.3618L105.486 60.4273C105.449 60.3256 105.427 60.2446 105.415 60.1956C105.402 60.1447 105.396 60.1083 105.393 60.0912C105.387 60.0598 105.389 60.0626 105.394 60.113C105.397 60.1601 105.402 60.2317 105.405 60.3323C105.408 60.4318 105.41 60.5516 105.41 60.6934H111.41ZM111.119 58.3618C110.905 57.7782 110.497 57.1414 109.803 56.6787C109.124 56.2259 108.414 56.1016 107.863 56.1016V62.1016C107.534 62.1016 107.008 62.0261 106.475 61.671C105.927 61.3058 105.628 60.8155 105.486 60.4273L111.119 58.3618ZM107.863 56.1016C107.084 56.1016 105.282 56.3898 104.555 58.2785L110.156 60.4324C109.907 61.0791 109.426 61.5719 108.873 61.8483C108.398 62.086 108 62.1016 107.863 62.1016V56.1016ZM104.57 58.2413C104.344 58.8074 104.305 59.3954 104.29 59.5936C104.266 59.92 104.258 60.2951 104.258 60.6934H110.258C110.258 60.5325 110.26 60.3962 110.263 60.2827C110.266 60.1678 110.27 60.0854 110.274 60.0304C110.279 59.9703 110.281 59.9683 110.275 60.0058C110.272 60.0261 110.263 60.0739 110.247 60.1406C110.239 60.175 110.227 60.2198 110.211 60.2724C110.195 60.3245 110.172 60.3917 110.141 60.4696L104.57 58.2413ZM104.258 60.6934V61.6406H110.258V60.6934H104.258ZM107.258 64.6406H108.41V58.6406H107.258V64.6406ZM126.408 57.041L129.386 57.4023C129.49 56.55 129.223 55.6942 128.654 55.0515C128.084 54.4089 127.267 54.041 126.408 54.041V57.041ZM124.836 70V73C126.353 73 127.631 71.8674 127.814 70.3613L124.836 70ZM120.549 70L117.581 70.4396C117.799 71.9106 119.062 73 120.549 73V70ZM119.738 63.75L122.717 63.3973C122.537 61.8725 121.234 60.7302 119.699 60.7503C118.164 60.7703 116.891 61.9463 116.751 63.4753L119.738 63.75ZM119.299 67.1875L116.338 66.7051C116.337 66.7115 116.336 66.7179 116.335 66.7244L119.299 67.1875ZM118.859 70V73C120.337 73 121.595 71.9235 121.823 70.4631L118.859 70ZM114.572 70L111.597 70.3834C111.79 71.8797 113.064 73 114.572 73V70ZM112.902 57.041V54.041C112.04 54.041 111.219 54.4122 110.65 55.0599C110.08 55.7076 109.817 56.569 109.927 57.4244L112.902 57.041ZM116.301 57.041L119.292 56.8109C119.172 55.2479 117.868 54.041 116.301 54.041V57.041ZM117.16 64.4531L114.181 64.8071C114.363 66.3364 115.673 67.4797 117.213 67.4527C118.753 67.4256 120.022 66.237 120.15 64.7023L117.16 64.4531ZM118.039 57.041V54.041C116.523 54.041 115.245 55.1721 115.061 56.6769L118.039 57.041ZM121.311 57.041L124.293 56.7188C124.129 55.1955 122.843 54.041 121.311 54.041V57.041ZM122.111 64.4531L119.129 64.7754C119.296 66.3275 120.626 67.4915 122.187 67.4522C123.748 67.4128 125.017 66.1831 125.106 64.6245L122.111 64.4531ZM123.01 57.041V54.041C121.548 54.041 120.299 55.0946 120.053 56.5355L123.01 57.041ZM123.43 56.6797L121.858 69.6387L127.814 70.3613L129.386 57.4023L123.43 56.6797ZM124.836 67H120.549V73H124.836V67ZM123.516 69.5604C123.288 68.0194 123.022 65.9684 122.717 63.3973L116.759 64.1027C117.067 66.7008 117.341 68.8165 117.581 70.4396L123.516 69.5604ZM116.751 63.4753C116.653 64.5364 116.516 65.6129 116.338 66.7051L122.26 67.6699C122.459 66.4443 122.615 65.2292 122.726 64.0247L116.751 63.4753ZM116.335 66.7244L115.895 69.5369L121.823 70.4631L122.263 67.6506L116.335 66.7244ZM118.859 67H114.572V73H118.859V67ZM117.548 69.6166L115.878 56.6576L109.927 57.4244L111.597 70.3834L117.548 69.6166ZM112.902 60.041H116.301V54.041H112.902V60.041ZM113.31 57.2711C113.342 57.6916 113.641 60.2649 114.181 64.8071L120.139 64.0992C119.866 61.7986 119.658 60.0335 119.515 58.8024C119.444 58.1865 119.389 57.7074 119.351 57.363C119.332 57.1906 119.317 57.0556 119.306 56.9559C119.295 56.8448 119.292 56.8071 119.292 56.8109L113.31 57.2711ZM120.15 64.7023C120.183 64.3089 120.464 61.9267 121.017 57.4051L115.061 56.6769C114.52 61.1006 114.216 63.6598 114.171 64.204L120.15 64.7023ZM118.039 60.041H121.311V54.041H118.039V60.041ZM118.328 57.3633L119.129 64.7754L125.094 64.1309L124.293 56.7188L118.328 57.3633ZM125.106 64.6245C125.222 62.6026 125.505 60.247 125.967 57.5466L120.053 56.5355C119.564 59.3949 119.248 61.9807 119.116 64.2817L125.106 64.6245ZM123.01 60.041H126.408V54.041H123.01V60.041ZM139.318 61.9336V64.9336C140.975 64.9336 142.318 63.5904 142.318 61.9336H139.318ZM135.598 61.9336H132.598C132.598 63.5904 133.941 64.9336 135.598 64.9336V61.9336ZM135.471 59.3848L132.733 60.6119C132.739 60.624 132.744 60.6361 132.75 60.6481L135.471 59.3848ZM134.602 67.5977L131.918 68.9393C131.923 68.9495 131.929 68.9596 131.934 68.9697L134.602 67.5977ZM135.656 67.5781L132.876 66.451C132.867 66.4727 132.859 66.4945 132.85 66.5164L135.656 67.5781ZM135.803 64.668V61.668C134.146 61.668 132.803 63.0111 132.803 64.668H135.803ZM139.318 64.668L142.318 64.6868C142.323 63.8879 142.009 63.12 141.446 62.5533C140.883 61.9866 140.117 61.668 139.318 61.668V64.668ZM139.201 67.002L136.229 66.5933C136.228 66.6039 136.226 66.6146 136.225 66.6252L139.201 67.002ZM138.547 68.5938L136.064 66.9092L136.06 66.9158L138.547 68.5938ZM137.111 69.8242L138.368 72.5481C138.377 72.5443 138.385 72.5405 138.393 72.5366L137.111 69.8242ZM132.268 69.668L130.743 72.2518C130.75 72.2556 130.756 72.2593 130.762 72.2631L132.268 69.668ZM130.881 68.0664L128.083 69.1486C128.087 69.1593 128.091 69.17 128.095 69.1806L130.881 68.0664ZM132.229 57.4707L133.779 60.0391C133.784 60.0357 133.79 60.0323 133.796 60.0288L132.229 57.4707ZM139.318 58.9336H135.598V64.9336H139.318V58.9336ZM138.598 61.9336V60.4395H132.598V61.9336H138.598ZM138.598 60.4395C138.598 60.1094 138.585 59.7625 138.544 59.4266C138.51 59.1378 138.431 58.6373 138.192 58.1214L132.75 60.6481C132.704 60.549 132.672 60.464 132.651 60.4004C132.63 60.3362 132.616 60.2839 132.608 60.2473C132.591 60.177 132.587 60.1381 132.587 60.1437C132.588 60.1467 132.591 60.1724 132.593 60.2259C132.596 60.2784 132.598 60.3488 132.598 60.4395H138.598ZM138.208 58.1576C137.951 57.5831 137.51 57.0086 136.841 56.6046C136.192 56.2123 135.528 56.1016 135.002 56.1016V62.1016C134.704 62.1016 134.232 62.0381 133.739 61.7401C133.226 61.4305 132.906 60.9976 132.733 60.6119L138.208 58.1576ZM135.002 56.1016C134.546 56.1016 133.933 56.1814 133.307 56.514C132.641 56.8683 132.142 57.4151 131.838 58.0475L137.248 60.6439C137.022 61.1135 136.638 61.5383 136.125 61.8112C135.653 62.0624 135.23 62.1016 135.002 62.1016V56.1016ZM131.838 58.0475C131.566 58.6143 131.499 59.1755 131.472 59.4216C131.437 59.7507 131.426 60.1002 131.426 60.4395H137.426C137.426 60.3312 137.428 60.245 137.43 60.1783C137.433 60.1103 137.437 60.0731 137.438 60.0608C137.44 60.0446 137.437 60.0823 137.42 60.1564C137.412 60.1953 137.397 60.256 137.372 60.3321C137.348 60.4066 137.309 60.5152 137.248 60.6439L131.838 58.0475ZM131.426 60.4395V66.5527H137.426V60.4395H131.426ZM131.426 66.5527C131.426 67.1761 131.49 68.082 131.918 68.9393L137.285 66.256C137.343 66.3722 137.377 66.4689 137.397 66.5341C137.417 66.5996 137.425 66.6447 137.428 66.663C137.433 66.6945 137.426 66.6649 137.426 66.5527H131.426ZM131.934 68.9697C132.172 69.4332 132.558 69.9563 133.166 70.3574C133.792 70.7711 134.48 70.9395 135.119 70.9395V64.9395C135.531 64.9395 136.018 65.0509 136.472 65.3506C136.907 65.6378 137.148 65.9899 137.269 66.2256L131.934 68.9697ZM135.119 70.9395C135.707 70.9395 136.437 70.8029 137.128 70.3383C137.827 69.868 138.24 69.2266 138.462 68.6398L132.85 66.5164C132.981 66.1705 133.259 65.7098 133.779 65.36C134.291 65.0158 134.798 64.9395 135.119 64.9395V70.9395ZM138.436 68.7052C138.782 67.8538 138.803 66.8415 138.803 66.2109H132.803C132.803 66.3431 132.8 66.4533 132.796 66.5436C132.792 66.6348 132.787 66.6975 132.783 66.7361C132.779 66.7768 132.777 66.7744 132.785 66.7398C132.788 66.7212 132.796 66.6876 132.809 66.642C132.822 66.5971 132.843 66.5314 132.876 66.451L138.436 68.7052ZM138.803 66.2109V64.668H132.803V66.2109H138.803ZM135.803 67.668H139.318V61.668H135.803V67.668ZM136.318 64.6491C136.312 65.6532 136.273 66.2724 136.229 66.5933L142.173 67.4106C142.272 66.6898 142.312 65.7531 142.318 64.6868L136.318 64.6491ZM136.225 66.6252C136.233 66.5599 136.241 66.6489 136.064 66.9092L141.029 70.2783C141.595 69.4448 142.039 68.4727 142.177 67.3787L136.225 66.6252ZM136.06 66.9158C135.999 67.0069 135.937 67.0609 135.83 67.1118L138.393 72.5366C139.47 72.0277 140.366 71.2613 141.034 70.2717L136.06 66.9158ZM135.854 67.1003C135.765 67.1415 135.491 67.2344 134.914 67.2344V73.2344C136.082 73.2344 137.273 73.0539 138.368 72.5481L135.854 67.1003ZM134.914 67.2344C134.094 67.2344 133.798 67.0878 133.773 67.0729L130.762 72.2631C132.039 73.0034 133.508 73.2344 134.914 73.2344V67.2344ZM133.792 67.0842C133.727 67.0455 133.705 67.0203 133.701 67.0158C133.697 67.0119 133.684 66.9974 133.666 66.9522L128.095 69.1806C128.622 70.4975 129.537 71.5403 130.743 72.2518L133.792 67.0842ZM133.679 66.9842C133.608 66.7999 133.48 66.2536 133.48 65.1367H127.48C127.48 66.5459 127.62 67.9527 128.083 69.1486L133.679 66.9842ZM133.48 65.1367V61.4551H127.48V65.1367H133.48ZM133.48 61.4551C133.48 60.999 133.504 60.6541 133.537 60.4038C133.572 60.1443 133.609 60.0517 133.602 60.0678L128.023 57.8619C127.591 58.9529 127.48 60.237 127.48 61.4551H133.48ZM133.602 60.0678C133.554 60.1905 133.501 60.2444 133.51 60.235C133.524 60.2205 133.597 60.1485 133.779 60.0391L130.678 54.9023C129.614 55.5447 128.566 56.4879 128.023 57.8619L133.602 60.0678ZM133.796 60.0288C133.952 59.933 134.261 59.8066 134.865 59.8066V53.8066C133.4 53.8066 131.95 54.123 130.661 54.9126L133.796 60.0288ZM134.865 59.8066C135.466 59.8066 135.787 59.9311 135.962 60.0354L139.042 54.8864C137.758 54.1184 136.322 53.8066 134.865 53.8066V59.8066ZM135.962 60.0354C136.102 60.1192 136.154 60.1754 136.162 60.1847C136.166 60.1893 136.163 60.1858 136.156 60.1741C136.149 60.1621 136.142 60.1481 136.137 60.1343L141.777 58.0883C141.256 56.6505 140.239 55.6024 139.042 54.8864L135.962 60.0354ZM136.137 60.1343C136.203 60.316 136.318 60.8504 136.318 61.9336H142.318C142.318 60.5818 142.193 59.2348 141.777 58.0883L136.137 60.1343ZM149.25 67.334L152.182 67.9698L152.183 67.9626L149.25 67.334ZM148.498 68.8574L150.818 70.7589C150.823 70.7537 150.827 70.7484 150.831 70.7432L148.498 68.8574ZM147.014 69.9023L148.054 72.7163C148.059 72.7143 148.065 72.7122 148.07 72.7101L147.014 69.9023ZM142.727 69.9512L141.806 72.8063C141.815 72.8093 141.824 72.8123 141.833 72.8152L142.727 69.9512ZM141.311 69.082L139.025 71.025C139.036 71.0386 139.048 71.0522 139.06 71.0656L141.311 69.082ZM140.598 67.6758L137.693 68.4275L137.696 68.4359L140.598 67.6758ZM147.053 57.207L145.885 59.9703C145.896 59.9751 145.908 59.9799 145.919 59.9846L147.053 57.207ZM149.23 59.541L146.338 60.3375C146.342 60.3504 146.345 60.3633 146.349 60.3762L149.23 59.541ZM145.373 59.3652L142.595 60.4971C142.6 60.5095 142.605 60.5218 142.61 60.5342L145.373 59.3652ZM144.445 59.3652L147.169 60.6224C147.175 60.6095 147.181 60.5966 147.187 60.5836L144.445 59.3652ZM144.445 67.666L141.673 68.8131C141.678 68.8247 141.683 68.8362 141.688 68.8478L144.445 67.666ZM145.363 67.6855L142.639 66.4284C142.626 66.4576 142.613 66.487 142.6 66.5166L145.363 67.6855ZM146.426 61.5918V64.7656H152.426V61.5918H146.426ZM146.426 64.7656C146.426 65.8956 146.364 66.4857 146.317 66.7054L152.183 67.9626C152.371 67.0885 152.426 65.9663 152.426 64.7656H146.426ZM146.318 66.6982C146.31 66.7344 146.286 66.8218 146.165 66.9717L150.831 70.7432C151.478 69.9426 151.955 69.0143 152.182 67.9698L146.318 66.6982ZM146.178 66.956C146.15 66.9892 146.103 67.0395 145.957 67.0946L148.07 72.7101C149.135 72.3095 150.077 71.6632 150.818 70.7589L146.178 66.956ZM145.974 67.0884C145.773 67.1626 145.446 67.2344 144.943 67.2344V73.2344C146.003 73.2344 147.057 73.0848 148.054 72.7163L145.974 67.0884ZM144.943 67.2344C144.269 67.2344 143.85 67.1591 143.62 67.0872L141.833 72.8152C142.814 73.1208 143.873 73.2344 144.943 73.2344V67.2344ZM143.648 67.096C143.539 67.0611 143.493 67.0337 143.488 67.0306C143.486 67.0293 143.493 67.0337 143.507 67.0455C143.522 67.0574 143.54 67.0749 143.561 67.0984L139.06 71.0656C139.832 71.942 140.81 72.4852 141.806 72.8063L143.648 67.096ZM143.596 67.1391C143.585 67.1255 143.541 67.0723 143.5 66.9157L137.696 68.4359C137.941 69.373 138.372 70.2573 139.025 71.025L143.596 67.1391ZM143.502 66.9241C143.456 66.7484 143.383 66.2298 143.383 65.1953H137.383C137.383 66.3614 137.452 67.4964 137.693 68.4275L143.502 66.9241ZM143.383 65.1953V61.875H137.383V65.1953H143.383ZM143.383 61.875C143.383 60.8283 143.504 60.31 143.573 60.1297L137.973 57.9758C137.522 59.1497 137.383 60.5129 137.383 61.875H143.383ZM143.573 60.1297C143.581 60.1099 143.586 60.1038 143.592 60.0963C143.601 60.0864 143.638 60.0462 143.734 59.9878L140.625 54.856C139.435 55.5773 138.495 56.6205 137.973 57.9758L143.573 60.1297ZM143.734 59.9878C143.811 59.9411 144.094 59.8066 144.777 59.8066V53.8066C143.351 53.8066 141.902 54.0824 140.625 54.856L143.734 59.9878ZM144.777 59.8066C145.373 59.8066 145.714 59.898 145.885 59.9703L148.221 54.4437C147.129 53.9823 145.952 53.8066 144.777 53.8066V59.8066ZM145.919 59.9846C146.212 60.1041 146.247 60.183 146.202 60.1282L150.852 56.3366C150.118 55.4355 149.17 54.8308 148.186 54.4295L145.919 59.9846ZM146.202 60.1282C146.329 60.2833 146.342 60.3532 146.338 60.3375L152.123 58.7446C151.871 57.8304 151.416 57.0279 150.852 56.3366L146.202 60.1282ZM146.349 60.3762C146.344 60.3587 146.368 60.4418 146.39 60.6751C146.412 60.897 146.426 61.1984 146.426 61.5918H152.426C152.426 60.6077 152.364 59.5763 152.112 58.7058L146.349 60.3762ZM148.48 60.6152C148.48 60.2409 148.471 59.876 148.443 59.5478C148.423 59.3225 148.373 58.7564 148.136 58.1963L142.61 60.5342C142.581 60.4647 142.558 60.4035 142.542 60.3538C142.525 60.3037 142.512 60.2603 142.503 60.2253C142.484 60.1571 142.474 60.1062 142.469 60.0796C142.464 60.0517 142.462 60.036 142.462 60.0355C142.462 60.0345 142.463 60.0427 142.465 60.0616C142.468 60.1008 142.472 60.1661 142.475 60.2629C142.479 60.3585 142.48 60.4752 142.48 60.6152H148.48ZM148.151 58.2333C147.884 57.5763 147.4 56.9691 146.699 56.5662C146.042 56.1889 145.389 56.1016 144.914 56.1016V62.1016C144.673 62.1016 144.214 62.0581 143.71 61.7688C143.162 61.4537 142.791 60.9784 142.595 60.4971L148.151 58.2333ZM144.914 56.1016C144.435 56.1016 143.795 56.1902 143.15 56.5528C142.467 56.937 141.985 57.5146 141.704 58.1468L147.187 60.5836C146.984 61.0401 146.619 61.4859 146.092 61.7822C145.604 62.0568 145.158 62.1016 144.914 62.1016V56.1016ZM141.721 58.1081C141.45 58.6963 141.392 59.2934 141.371 59.5247C141.339 59.8636 141.328 60.237 141.328 60.6152H147.328C147.328 60.4776 147.33 60.3639 147.333 60.2719C147.337 60.1786 147.341 60.1181 147.344 60.0847C147.346 60.0688 147.347 60.0641 147.346 60.069C147.345 60.0734 147.342 60.0938 147.336 60.1269C147.329 60.1588 147.317 60.216 147.295 60.2912C147.283 60.3297 147.268 60.3768 147.248 60.4306C147.229 60.4842 147.203 60.5492 147.169 60.6224L141.721 58.1081ZM141.328 60.6152V66.4648H147.328V60.6152H141.328ZM141.328 66.4648C141.328 66.8237 141.339 67.1825 141.372 67.5154C141.398 67.7831 141.458 68.294 141.673 68.8131L147.217 66.519C147.261 66.6243 147.288 66.7111 147.305 66.7688C147.321 66.828 147.331 66.8731 147.336 66.8995C147.342 66.9266 147.344 66.9432 147.345 66.9469C147.345 66.9509 147.345 66.9467 147.343 66.9328C147.34 66.9038 147.336 66.8506 147.333 66.7685C147.33 66.6874 147.328 66.5869 147.328 66.4648H141.328ZM141.688 68.8478C141.947 69.4521 142.401 70.0418 143.083 70.4484C143.737 70.8379 144.398 70.9395 144.904 70.9395V64.9395C145.182 64.9395 145.653 64.9955 146.154 65.2938C146.684 65.6092 147.022 66.0622 147.203 66.4843L141.688 68.8478ZM144.904 70.9395C145.363 70.9395 146 70.8589 146.647 70.5011C147.343 70.1163 147.843 69.5235 148.126 68.8545L142.6 66.5166C142.812 66.0169 143.2 65.551 143.743 65.2509C144.236 64.9777 144.68 64.9395 144.904 64.9395V70.9395ZM148.087 68.9427C148.339 68.397 148.407 67.861 148.434 67.6048C148.469 67.2766 148.48 66.9292 148.48 66.5918H142.48C142.48 66.698 142.479 66.7827 142.476 66.8484C142.473 66.9153 142.47 66.9526 142.468 66.9656C142.466 66.9821 142.469 66.9478 142.484 66.8787C142.492 66.8425 142.506 66.7863 142.528 66.7157C142.55 66.6464 142.585 66.5467 142.639 66.4284L148.087 68.9427ZM148.48 66.5918V60.6152H142.48V66.5918H148.48ZM154.797 54.1895H157.797C157.797 52.5326 156.454 51.1895 154.797 51.1895V54.1895ZM154.797 56.25V59.25C156.454 59.25 157.797 57.9069 157.797 56.25H154.797ZM150.734 56.25H147.734C147.734 57.9069 149.078 59.25 150.734 59.25V56.25ZM150.734 54.1895V51.1895C149.078 51.1895 147.734 52.5326 147.734 54.1895H150.734ZM154.797 57.041H157.797C157.797 55.3842 156.454 54.041 154.797 54.041V57.041ZM154.797 70V73C156.454 73 157.797 71.6569 157.797 70H154.797ZM150.734 70H147.734C147.734 71.6569 149.078 73 150.734 73V70ZM150.734 57.041V54.041C149.078 54.041 147.734 55.3842 147.734 57.041H150.734ZM151.797 54.1895V56.25H157.797V54.1895H151.797ZM154.797 53.25H150.734V59.25H154.797V53.25ZM153.734 56.25V54.1895H147.734V56.25H153.734ZM150.734 57.1895H154.797V51.1895H150.734V57.1895ZM151.797 57.041V70H157.797V57.041H151.797ZM154.797 67H150.734V73H154.797V67ZM153.734 70V57.041H147.734V70H153.734ZM150.734 60.041H154.797V54.041H150.734V60.041ZM160.236 57.041L163.231 57.2129C163.279 56.3887 162.984 55.5815 162.418 54.9813C161.851 54.3812 161.062 54.041 160.236 54.041V57.041ZM160.168 58.2324L157.173 58.0606C157.094 59.4376 157.964 60.6911 159.282 61.0985C160.6 61.506 162.025 60.9624 162.737 59.7811L160.168 58.2324ZM161.213 57.168L162.701 59.7727C162.706 59.7702 162.71 59.7677 162.714 59.7652L161.213 57.168ZM165.139 58.4961L162.231 59.2328L162.233 59.2422L165.139 58.4961ZM165.324 70V73C166.981 73 168.324 71.6569 168.324 70H165.324ZM161.379 70H158.379C158.379 71.6569 159.722 73 161.379 73V70ZM160.275 59.4434L163.13 60.3668C163.132 60.3588 163.135 60.3508 163.137 60.3428L160.275 59.4434ZM160.168 70V73C161.825 73 163.168 71.6569 163.168 70H160.168ZM156.223 70H153.223C153.223 71.6569 154.566 73 156.223 73V70ZM156.223 57.041V54.041C154.566 54.041 153.223 55.3842 153.223 57.041H156.223ZM157.241 56.8692L157.173 58.0606L163.163 58.4043L163.231 57.2129L157.241 56.8692ZM162.737 59.7811C162.774 59.721 162.792 59.7039 162.785 59.7115C162.781 59.7152 162.772 59.7239 162.757 59.7355C162.742 59.7471 162.724 59.76 162.701 59.7727L159.724 54.5632C158.798 55.0928 158.103 55.847 157.599 56.6838L162.737 59.7811ZM162.714 59.7652C162.696 59.7755 162.678 59.7845 162.66 59.7918C162.642 59.7991 162.627 59.8036 162.617 59.8062C162.595 59.8117 162.602 59.8066 162.648 59.8066V53.8066C161.647 53.8066 160.638 54.0348 159.711 54.5708L162.714 59.7652ZM162.648 59.8066C162.754 59.8066 162.776 59.8193 162.74 59.8089C162.722 59.8036 162.69 59.7928 162.65 59.7732C162.61 59.7535 162.565 59.7272 162.52 59.6939L166.097 54.8764C165.027 54.082 163.797 53.8066 162.648 53.8066V59.8066ZM162.52 59.6939C162.493 59.6739 162.43 59.6198 162.364 59.5233C162.296 59.4249 162.253 59.3214 162.231 59.2328L168.047 57.7594C167.742 56.5577 167.044 55.5795 166.097 54.8764L162.52 59.6939ZM162.233 59.2422C162.233 59.2419 162.262 59.369 162.287 59.6921C162.31 59.9962 162.324 60.4004 162.324 60.918H168.324C168.324 59.7704 168.27 58.6302 168.044 57.75L162.233 59.2422ZM162.324 60.918V70H168.324V60.918H162.324ZM165.324 67H161.379V73H165.324V67ZM164.379 70V61.0254H158.379V70H164.379ZM164.379 61.0254C164.379 60.5548 164.371 60.1357 164.353 59.7873C164.34 59.5457 164.311 59.0197 164.164 58.5325L158.418 60.2566C158.383 60.1405 158.366 60.0543 158.36 60.02C158.356 59.9991 158.354 59.9837 158.352 59.9747C158.351 59.9656 158.35 59.9607 158.35 59.9607C158.35 59.9605 158.351 59.9638 158.352 59.9709C158.352 59.978 158.353 59.9879 158.354 60.0011C158.356 60.0277 158.359 60.0637 158.361 60.1102C158.372 60.3053 158.379 60.604 158.379 61.0254H164.379ZM164.164 58.5325C163.938 57.7769 163.441 57.0658 162.668 56.6023C161.969 56.1824 161.27 56.1016 160.803 56.1016V62.1016C160.603 62.1016 160.119 62.0695 159.582 61.7473C158.972 61.3815 158.586 60.8168 158.418 60.2566L164.164 58.5325ZM160.803 56.1016C160.274 56.1016 159.541 56.2081 158.829 56.6696C158.074 57.159 157.627 57.8627 157.413 58.5439L163.137 60.3428C162.995 60.7962 162.672 61.3289 162.093 61.7045C161.556 62.052 161.052 62.1016 160.803 62.1016V56.1016ZM157.421 58.5199C157.253 59.0395 157.217 59.6024 157.2 59.8796C157.177 60.2637 157.168 60.7242 157.168 61.2402H163.168C163.168 60.7797 163.177 60.4524 163.189 60.2376C163.196 60.13 163.202 60.079 163.203 60.0697C163.203 60.0663 163.201 60.088 163.193 60.128C163.186 60.1633 163.167 60.2501 163.13 60.3668L157.421 58.5199ZM157.168 61.2402V70H163.168V61.2402H157.168ZM160.168 67H156.223V73H160.168V67ZM159.223 70V57.041H153.223V70H159.223ZM156.223 60.041H160.236V54.041H156.223V60.041Z" fill="#5A0703" mask="url(#path-3-outside-1_227_1944)"/>
<rect x="62" y="105" width="77" height="137" rx="19" fill="#0E0E0E" stroke="#A58C08" stroke-width="2" stroke-linecap="round" stroke-linejoin="round"/>
<path d="M93.8571 154.143C93.8571 150.198 97.0551 147 101 147C104.945 147 108.143 150.198 108.143 154.143V218.429C108.143 222.373 104.945 225.571 101 225.571C97.0551 225.571 93.8571 222.373 93.8571 218.429V154.143Z" fill="#656565"/>
<path d="M93.8571 205.929C93.8571 201.984 97.0551 198.786 101 198.786C104.945 198.786 108.143 201.984 108.143 205.929V218.429C108.143 222.373 104.945 225.571 101 225.571C97.0551 225.571 93.8571 222.373 93.8571 218.429V205.929Z" fill="#252525"/>
<path d="M126 147C126 160.807 114.807 172 101 172C87.1929 172 76 160.807 76 147C76 133.193 87.1929 122 101 122C114.807 122 126 133.193 126 147Z" fill="#FF2626"/>
<path d="M92.1561 137.899C90.2287 140.206 87.918 141.452 86.9949 140.681C86.0719 139.91 86.8861 137.415 88.8135 135.107C90.7409 132.799 93.0516 131.554 93.9746 132.325C94.8977 133.095 94.0835 135.591 92.1561 137.899Z" fill="white"/>
<path d="M87.8815 146.28C87.1105 147.203 85.7372 147.326 84.8142 146.555C83.8911 145.784 83.7678 144.411 84.5388 143.488C85.3098 142.565 86.683 142.441 87.6061 143.212C88.5291 143.983 88.6524 145.357 87.8815 146.28Z" fill="white"/>
</g>
<defs>
<filter id="filter0_i_227_1944" x="0" y="0" width="201" height="293" filterUnits="userSpaceOnUse" color-interpolation-filters="sRGB">
<feFlood flood-opacity="0" result="BackgroundImageFix"/>
<feBlend mode="normal" in="SourceGraphic" in2="BackgroundImageFix" result="shape"/>
<feColorMatrix in="SourceAlpha" type="matrix" values="0 0 0 0 0 0 0 0 0 0 0 0 0 0 0 0 0 0 127 0" result="hardAlpha"/>
<feOffset/>
<feGaussianBlur stdDeviation="15"/>
<feComposite in2="hardAlpha" operator="arithmetic" k2="-1" k3="1"/>
<feColorMatrix type="matrix" values="0 0 0 0 0 0 0 0 0 0 0 0 0 0 0 0 0 0 0.5 0"/>
<feBlend mode="normal" in2="shape" result="effect1_innerShadow_227_1944"/>
</filter>
<radialGradient id="paint0_radial_227_1944" cx="0" cy="0" r="1" gradientUnits="userSpaceOnUse" gradientTransform="translate(100.5 146.5) rotate(90) scale(146.5 100.5)">
<stop stop-color="#D0140C"/>
<stop offset="1" stop-color="#6A0A06"/>
</radialGradient>
</defs>
</svg>
