<svg width="138" height="44" viewBox="0 0 138 44" fill="none" xmlns="http://www.w3.org/2000/svg">
<g filter="url(#filter0_ddd_376_6282)">
<g filter="url(#filter1_ii_376_6282)">
<path d="M9.97171 18.5258C10.5558 12.8305 15.3532 8.5 21.0784 8.5V8.5C26.7371 8.5 31.501 12.7334 32.166 18.3528L33.4181 28.9331C33.7179 31.4663 31.6095 33.6327 29.0692 33.4017L28.654 33.364C27.4829 33.2575 26.3089 33.5334 25.3079 34.1504L23.5587 35.2283C22.0872 36.1352 20.3151 36.4186 18.6341 36.0159L16.4122 35.4836C15.5046 35.2661 14.5528 35.3231 13.6775 35.6472V35.6472C11.0598 36.6168 8.33291 34.5041 8.61772 31.7272L9.97171 18.5258Z" fill="url(#paint0_linear_376_6282)"/>
</g>
<path d="M31.1978 18.4674L32.4499 29.0477C32.6768 30.9655 31.0806 32.6056 29.1574 32.4307L28.7423 32.393C27.3613 32.2675 25.9768 32.5928 24.7964 33.3203L23.0472 34.3983C21.7964 35.1691 20.2901 35.41 18.8613 35.0677L16.6394 34.5354C15.5439 34.2729 14.3952 34.3417 13.3389 34.7329C11.3981 35.4517 9.37648 33.8855 9.58763 31.8267L10.9416 18.6253C11.4747 13.4274 15.8532 9.475 21.0784 9.475C26.2429 9.475 30.5908 13.3387 31.1978 18.4674Z" stroke="url(#paint1_linear_376_6282)" stroke-width="1.95"/>
<g filter="url(#filter2_i_376_6282)">
<circle cx="15.7998" cy="22.0199" r="1.625" fill="url(#paint2_linear_376_6282)"/>
</g>
<mask id="mask0_376_6282" style="mask-type:alpha" maskUnits="userSpaceOnUse" x="14" y="20" width="4" height="4">
<circle cx="15.7988" cy="22.0199" r="1.625" fill="url(#paint3_linear_376_6282)"/>
</mask>
<g mask="url(#mask0_376_6282)">
<g style="mix-blend-mode:plus-lighter" opacity="0.3">
<circle cx="16.1884" cy="23.8399" r="1.04" fill="white"/>
</g>
</g>
<g filter="url(#filter3_i_376_6282)">
<circle cx="24.3799" cy="19.2899" r="2.21" fill="url(#paint4_linear_376_6282)"/>
</g>
<g filter="url(#filter4_i_376_6282)">
<path d="M18.0286 24.1728H23.218V27.6325C23.218 29.0655 22.0563 30.2272 20.6233 30.2272C19.1903 30.2272 18.0286 29.0655 18.0286 27.6325V24.1728Z" fill="url(#paint5_linear_376_6282)"/>
<path d="M15.803 24.902C15.7106 24.7075 15.8413 24.4931 16.0503 24.441L24.7538 22.271C24.9628 22.2188 25.1789 22.3468 25.1886 22.5619C25.2299 23.4702 24.6281 24.312 23.7119 24.5404L18.0357 25.9557C17.1195 26.1841 16.193 25.7234 15.803 24.902Z" fill="url(#paint6_linear_376_6282)"/>
</g>
<mask id="mask1_376_6282" style="mask-type:alpha" maskUnits="userSpaceOnUse" x="22" y="17" width="5" height="5">
<circle cx="24.3799" cy="19.29" r="2.21" fill="url(#paint7_linear_376_6282)"/>
</mask>
<g mask="url(#mask1_376_6282)">
<g style="mix-blend-mode:plus-lighter" opacity="0.3">
<circle cx="24.9" cy="22.0199" r="1.69" fill="white"/>
</g>
</g>
</g>
<mask id="path-10-outside-1_376_6282" maskUnits="userSpaceOnUse" x="43" y="13.5" width="96" height="19" fill="black">
<rect fill="white" x="43" y="13.5" width="96" height="19"/>
<path d="M44.7713 17.1H48.3913L50.3513 24.66C50.3913 24.82 50.5113 24.82 50.5513 24.66L52.5313 17.1H56.1113V30.5H53.1713V23.36L52.0913 27.24C51.7713 28.4 51.2513 28.74 50.4313 28.74C49.5713 28.74 49.0713 28.4 48.7513 27.24L47.6713 23.36V30.5H44.7713V17.1ZM66.8834 24.96C66.8834 26.52 66.7034 26.58 65.7434 26.58H60.3634C60.5634 27.72 61.2234 28.1 62.6234 28.1C63.5434 28.1 65.3634 27.88 66.1834 27.76V30.22C64.6434 30.52 63.3634 30.68 62.3034 30.68C58.7634 30.68 57.1634 29.28 57.1634 25.62V25.38C57.1634 21.8 58.8034 20.32 62.1234 20.32C65.4034 20.32 66.8834 22.06 66.8834 24.96ZM60.3634 24.34H63.7234C63.6834 23.48 63.1434 22.9 62.1234 22.9C61.0634 22.9 60.5434 23.3 60.3634 24.34ZM68.2356 23.3C68.2356 21.22 69.1356 20.32 71.2556 20.32C72.4556 20.32 72.9556 20.64 73.5556 21.38H73.6756C74.2556 20.64 74.7556 20.32 75.9956 20.32C78.0956 20.32 78.9956 21.22 78.9956 23.3V30.5H76.2756V23.8C76.2756 23.2 76.0956 22.94 75.6356 22.94C75.1556 22.94 74.9756 23.2 74.9756 23.8V30.5H72.2556V23.8C72.2556 23.2 72.0756 22.94 71.5956 22.94C71.1356 22.94 70.9356 23.2 70.9356 23.8V30.5H68.2356V23.3ZM90.0678 24.96C90.0678 26.52 89.8878 26.58 88.9278 26.58H83.5478C83.7478 27.72 84.4078 28.1 85.8078 28.1C86.7278 28.1 88.5478 27.88 89.3678 27.76V30.22C87.8278 30.52 86.5478 30.68 85.4878 30.68C81.9478 30.68 80.3478 29.28 80.3478 25.62V25.38C80.3478 21.8 81.9878 20.32 85.3078 20.32C88.5878 20.32 90.0678 22.06 90.0678 24.96ZM83.5478 24.34H86.9078C86.8678 23.48 86.3278 22.9 85.3078 22.9C84.2478 22.9 83.7278 23.3 83.5478 24.34ZM96.68 26.94C95.26 26.74 92.2 26.6 92.2 23.58C92.2 21.34 93.74 20.32 96.9 20.32C98.4 20.32 99.42 20.48 100.76 20.78V23.28C99.72 23.08 98.62 22.94 97.22 22.94C95.62 22.94 95.32 23.08 95.32 23.44C95.32 23.84 95.86 24 97.06 24.12C98.86 24.3 101.5 24.64 101.5 27.3C101.5 29.66 99.72 30.68 96.48 30.68C94.96 30.68 93.92 30.54 92.46 30.3V27.78C93.66 27.92 94.82 28.04 96.28 28.04C97.72 28.04 98.36 27.9 98.36 27.54C98.36 27.18 98 27.12 96.68 26.94ZM111.152 27.98C111.912 27.98 112.472 27.9 113.332 27.72V30.22C112.412 30.5 111.452 30.68 110.472 30.68C107.612 30.68 106.592 29.8 106.592 26.82V23.18H103.232V20.5H109.892V26.66C109.892 27.54 110.252 27.98 111.152 27.98ZM105.792 17.68V17.62C105.792 16.56 106.612 15.9 108.172 15.9C109.652 15.9 110.492 16.56 110.492 17.62V17.68C110.492 18.7 109.652 19.36 108.172 19.36C106.612 19.36 105.792 18.7 105.792 17.68ZM115.244 24.6C115.244 21.62 116.644 20.32 120.004 20.32C123.324 20.32 124.724 21.62 124.724 24.6V30.5H121.604V24.68C121.604 23.54 121.164 23.04 120.004 23.04C118.824 23.04 118.364 23.54 118.364 24.68V30.5H115.244V24.6ZM126.637 25.38C126.637 21.8 128.257 20.32 131.577 20.32C134.937 20.32 136.537 21.8 136.537 25.38V25.62C136.537 29.2 134.937 30.68 131.577 30.68C128.257 30.68 126.637 29.2 126.637 25.62V25.38ZM129.717 25.54C129.717 27.42 130.277 27.96 131.577 27.96C132.917 27.96 133.437 27.42 133.437 25.54V25.46C133.437 23.58 132.917 23.04 131.577 23.04C130.277 23.04 129.717 23.58 129.717 25.46V25.54Z"/>
</mask>
<path d="M44.7713 17.1H48.3913L50.3513 24.66C50.3913 24.82 50.5113 24.82 50.5513 24.66L52.5313 17.1H56.1113V30.5H53.1713V23.36L52.0913 27.24C51.7713 28.4 51.2513 28.74 50.4313 28.74C49.5713 28.74 49.0713 28.4 48.7513 27.24L47.6713 23.36V30.5H44.7713V17.1ZM66.8834 24.96C66.8834 26.52 66.7034 26.58 65.7434 26.58H60.3634C60.5634 27.72 61.2234 28.1 62.6234 28.1C63.5434 28.1 65.3634 27.88 66.1834 27.76V30.22C64.6434 30.52 63.3634 30.68 62.3034 30.68C58.7634 30.68 57.1634 29.28 57.1634 25.62V25.38C57.1634 21.8 58.8034 20.32 62.1234 20.32C65.4034 20.32 66.8834 22.06 66.8834 24.96ZM60.3634 24.34H63.7234C63.6834 23.48 63.1434 22.9 62.1234 22.9C61.0634 22.9 60.5434 23.3 60.3634 24.34ZM68.2356 23.3C68.2356 21.22 69.1356 20.32 71.2556 20.32C72.4556 20.32 72.9556 20.64 73.5556 21.38H73.6756C74.2556 20.64 74.7556 20.32 75.9956 20.32C78.0956 20.32 78.9956 21.22 78.9956 23.3V30.5H76.2756V23.8C76.2756 23.2 76.0956 22.94 75.6356 22.94C75.1556 22.94 74.9756 23.2 74.9756 23.8V30.5H72.2556V23.8C72.2556 23.2 72.0756 22.94 71.5956 22.94C71.1356 22.94 70.9356 23.2 70.9356 23.8V30.5H68.2356V23.3ZM90.0678 24.96C90.0678 26.52 89.8878 26.58 88.9278 26.58H83.5478C83.7478 27.72 84.4078 28.1 85.8078 28.1C86.7278 28.1 88.5478 27.88 89.3678 27.76V30.22C87.8278 30.52 86.5478 30.68 85.4878 30.68C81.9478 30.68 80.3478 29.28 80.3478 25.62V25.38C80.3478 21.8 81.9878 20.32 85.3078 20.32C88.5878 20.32 90.0678 22.06 90.0678 24.96ZM83.5478 24.34H86.9078C86.8678 23.48 86.3278 22.9 85.3078 22.9C84.2478 22.9 83.7278 23.3 83.5478 24.34ZM96.68 26.94C95.26 26.74 92.2 26.6 92.2 23.58C92.2 21.34 93.74 20.32 96.9 20.32C98.4 20.32 99.42 20.48 100.76 20.78V23.28C99.72 23.08 98.62 22.94 97.22 22.94C95.62 22.94 95.32 23.08 95.32 23.44C95.32 23.84 95.86 24 97.06 24.12C98.86 24.3 101.5 24.64 101.5 27.3C101.5 29.66 99.72 30.68 96.48 30.68C94.96 30.68 93.92 30.54 92.46 30.3V27.78C93.66 27.92 94.82 28.04 96.28 28.04C97.72 28.04 98.36 27.9 98.36 27.54C98.36 27.18 98 27.12 96.68 26.94ZM111.152 27.98C111.912 27.98 112.472 27.9 113.332 27.72V30.22C112.412 30.5 111.452 30.68 110.472 30.68C107.612 30.68 106.592 29.8 106.592 26.82V23.18H103.232V20.5H109.892V26.66C109.892 27.54 110.252 27.98 111.152 27.98ZM105.792 17.68V17.62C105.792 16.56 106.612 15.9 108.172 15.9C109.652 15.9 110.492 16.56 110.492 17.62V17.68C110.492 18.7 109.652 19.36 108.172 19.36C106.612 19.36 105.792 18.7 105.792 17.68ZM115.244 24.6C115.244 21.62 116.644 20.32 120.004 20.32C123.324 20.32 124.724 21.62 124.724 24.6V30.5H121.604V24.68C121.604 23.54 121.164 23.04 120.004 23.04C118.824 23.04 118.364 23.54 118.364 24.68V30.5H115.244V24.6ZM126.637 25.38C126.637 21.8 128.257 20.32 131.577 20.32C134.937 20.32 136.537 21.8 136.537 25.38V25.62C136.537 29.2 134.937 30.68 131.577 30.68C128.257 30.68 126.637 29.2 126.637 25.62V25.38ZM129.717 25.54C129.717 27.42 130.277 27.96 131.577 27.96C132.917 27.96 133.437 27.42 133.437 25.54V25.46C133.437 23.58 132.917 23.04 131.577 23.04C130.277 23.04 129.717 23.58 129.717 25.46V25.54Z" fill="#FAFF00"/>
<path d="M44.7713 17.1V15.6H43.2713V17.1H44.7713ZM48.3913 17.1L49.8432 16.7236L49.552 15.6H48.3913V17.1ZM50.3513 24.66L51.8065 24.2962L51.8032 24.2836L50.3513 24.66ZM50.5513 24.66L49.1002 24.28L49.0981 24.2881L49.096 24.2962L50.5513 24.66ZM52.5313 17.1V15.6H51.3735L51.0802 16.72L52.5313 17.1ZM56.1113 17.1H57.6113V15.6H56.1113V17.1ZM56.1113 30.5V32H57.6113V30.5H56.1113ZM53.1713 30.5H51.6713V32H53.1713V30.5ZM53.1713 23.36H54.6713L51.7262 22.9578L53.1713 23.36ZM52.0913 27.24L50.6462 26.8378L50.6453 26.8411L52.0913 27.24ZM48.7513 27.24L50.1972 26.8411L50.1963 26.8378L48.7513 27.24ZM47.6713 23.36L49.1163 22.9578L46.1713 23.36H47.6713ZM47.6713 30.5V32H49.1713V30.5H47.6713ZM44.7713 30.5H43.2713V32H44.7713V30.5ZM44.7713 18.6H48.3913V15.6H44.7713V18.6ZM46.9393 17.4764L48.8993 25.0364L51.8032 24.2836L49.8432 16.7236L46.9393 17.4764ZM48.896 25.0238C48.945 25.2197 49.0466 25.4883 49.2649 25.7378C49.4902 25.9952 49.894 26.28 50.4513 26.28C51.0085 26.28 51.4123 25.9952 51.6376 25.7378C51.8559 25.4883 51.9575 25.2197 52.0065 25.0238L49.096 24.2962C49.125 24.1803 49.1966 23.9717 49.3799 23.7622C49.5702 23.5448 49.934 23.28 50.4513 23.28C50.9685 23.28 51.3323 23.5448 51.5226 23.7622C51.7059 23.9717 51.7775 24.1803 51.8065 24.2962L48.896 25.0238ZM52.0023 25.04L53.9823 17.48L51.0802 16.72L49.1002 24.28L52.0023 25.04ZM52.5313 18.6H56.1113V15.6H52.5313V18.6ZM54.6113 17.1V30.5H57.6113V17.1H54.6113ZM56.1113 29H53.1713V32H56.1113V29ZM54.6713 30.5V23.36H51.6713V30.5H54.6713ZM51.7262 22.9578L50.6462 26.8378L53.5363 27.6422L54.6163 23.7622L51.7262 22.9578ZM50.6453 26.8411C50.5228 27.2849 50.4241 27.327 50.4813 27.2787C50.5148 27.2504 50.5509 27.2349 50.5662 27.2303C50.5721 27.2286 50.5366 27.24 50.4313 27.24V30.24C51.0499 30.24 51.7796 30.1087 52.4163 29.5713C53.0184 29.063 53.3397 28.3551 53.5372 27.6389L50.6453 26.8411ZM50.4313 27.24C50.3101 27.24 50.2663 27.2274 50.2678 27.2278C50.28 27.2314 50.3185 27.2469 50.3562 27.2787C50.3895 27.3067 50.3813 27.3134 50.3476 27.251C50.3113 27.1836 50.257 27.0579 50.1972 26.8411L47.3053 27.6389C47.4994 28.3428 47.813 29.0579 48.4213 29.5713C49.0658 30.1153 49.8075 30.24 50.4313 30.24V27.24ZM50.1963 26.8378L49.1163 22.9578L46.2262 23.7622L47.3062 27.6422L50.1963 26.8378ZM46.1713 23.36V30.5H49.1713V23.36H46.1713ZM47.6713 29H44.7713V32H47.6713V29ZM46.2713 30.5V17.1H43.2713V30.5H46.2713ZM60.3634 26.58V25.08H58.5774L58.886 26.8392L60.3634 26.58ZM66.1834 27.76H67.6834V26.0245L65.9662 26.2758L66.1834 27.76ZM66.1834 30.22L66.4703 31.6923L67.6834 31.456V30.22H66.1834ZM60.3634 24.34L58.8854 24.0842L58.5815 25.84H60.3634V24.34ZM63.7234 24.34V25.84H65.2948L65.2218 24.2703L63.7234 24.34ZM65.3834 24.96C65.3834 25.1423 65.3808 25.2896 65.3753 25.41C65.3699 25.5317 65.3622 25.6112 65.3551 25.6609C65.3479 25.7123 65.3445 25.7077 65.3575 25.67C65.3716 25.629 65.4095 25.5358 65.494 25.4283C65.5838 25.314 65.696 25.2221 65.8145 25.1582C65.9238 25.0993 66.0094 25.0799 66.0359 25.0747C66.0598 25.07 66.0543 25.0733 65.9955 25.0761C65.9375 25.0789 65.8607 25.08 65.7434 25.08V28.08C65.9576 28.08 66.2971 28.081 66.6172 28.0178C66.9957 27.9431 67.4809 27.7552 67.8529 27.2817C68.1783 26.8677 68.2802 26.4011 68.3255 26.0816C68.3731 25.7457 68.3834 25.3604 68.3834 24.96H65.3834ZM65.7434 25.08H60.3634V28.08H65.7434V25.08ZM58.886 26.8392C59.0316 27.669 59.4018 28.4889 60.2254 29.0248C60.9636 29.5051 61.8412 29.6 62.6234 29.6V26.6C62.3346 26.6 62.1385 26.5798 62.0077 26.5531C61.8804 26.5271 61.8484 26.5017 61.8615 26.5102C61.8685 26.5148 61.88 26.5236 61.8917 26.5361C61.9032 26.5484 61.9077 26.5565 61.9067 26.5547C61.9029 26.5481 61.8699 26.4862 61.8409 26.3208L58.886 26.8392ZM62.6234 29.6C63.6651 29.6 65.5835 29.3638 66.4006 29.2442L65.9662 26.2758C65.1434 26.3962 63.4218 26.6 62.6234 26.6V29.6ZM64.6834 27.76V30.22H67.6834V27.76H64.6834ZM65.8966 28.7477C64.3994 29.0393 63.2259 29.18 62.3034 29.18V32.18C63.501 32.18 64.8875 32.0007 66.4703 31.6923L65.8966 28.7477ZM62.3034 29.18C60.6809 29.18 59.8722 28.8502 59.4439 28.4396C59.0295 28.0425 58.6634 27.2718 58.6634 25.62H55.6634C55.6634 27.6282 56.0973 29.3875 57.368 30.6054C58.6246 31.8098 60.386 32.18 62.3034 32.18V29.18ZM58.6634 25.62V25.38H55.6634V25.62H58.6634ZM58.6634 25.38C58.6634 23.7872 59.031 22.9924 59.4542 22.573C59.8797 22.1515 60.6526 21.82 62.1234 21.82V18.82C60.2743 18.82 58.5672 19.2285 57.3426 20.442C56.1159 21.6576 55.6634 23.3928 55.6634 25.38H58.6634ZM62.1234 21.82C63.5089 21.82 64.2528 22.1839 64.6611 22.6013C65.0755 23.0251 65.3834 23.7483 65.3834 24.96H68.3834C68.3834 23.2717 67.9513 21.6749 66.8058 20.5037C65.6541 19.3261 64.018 18.82 62.1234 18.82V21.82ZM60.3634 25.84H63.7234V22.84H60.3634V25.84ZM65.2218 24.2703C65.1879 23.5419 64.93 22.7819 64.3206 22.2067C63.7109 21.6312 62.9185 21.4 62.1234 21.4V24.4C62.2376 24.4 62.2924 24.4163 62.3047 24.4206C62.3106 24.4227 62.3073 24.4221 62.2978 24.4164C62.2881 24.4106 62.2751 24.4014 62.2613 24.3883C62.2475 24.3752 62.2359 24.3614 62.2271 24.3483C62.2184 24.3355 62.2142 24.3263 62.213 24.3233C62.2107 24.3177 62.2219 24.3422 62.2251 24.4097L65.2218 24.2703ZM62.1234 21.4C61.4335 21.4 60.6372 21.5254 59.9714 22.0627C59.293 22.6102 59.0082 23.3748 58.8854 24.0842L61.8415 24.5958C61.8694 24.4343 61.9003 24.3606 61.9106 24.3397C61.9167 24.3275 61.9018 24.3599 61.8555 24.3973C61.8106 24.4335 61.7837 24.436 61.8147 24.4277C61.8535 24.4173 61.9471 24.4 62.1234 24.4V21.4ZM73.5556 21.38L72.3905 22.3247L72.8407 22.88H73.5556V21.38ZM73.6756 21.38V22.88H74.4058L74.8562 22.3053L73.6756 21.38ZM78.9956 30.5V32H80.4956V30.5H78.9956ZM76.2756 30.5H74.7756V32H76.2756V30.5ZM74.9756 30.5V32H76.4756V30.5H74.9756ZM72.2556 30.5H70.7556V32H72.2556V30.5ZM70.9356 30.5V32H72.4356V30.5H70.9356ZM68.2356 30.5H66.7356V32H68.2356V30.5ZM69.7356 23.3C69.7356 22.4367 69.9276 22.1735 70.0058 22.0961C70.0877 22.015 70.3657 21.82 71.2556 21.82V18.82C70.0256 18.82 68.7935 19.075 67.8954 19.9639C66.9937 20.8565 66.7356 22.0833 66.7356 23.3H69.7356ZM71.2556 21.82C71.7301 21.82 71.9006 21.885 71.9675 21.918C72.034 21.9507 72.1461 22.0233 72.3905 22.3247L74.7208 20.4353C74.3651 19.9967 73.9272 19.5393 73.2937 19.227C72.6607 18.915 71.9811 18.82 71.2556 18.82V21.82ZM73.5556 22.88H73.6756V19.88H73.5556V22.88ZM74.8562 22.3053C75.0862 22.0119 75.189 21.9484 75.2475 21.9198C75.3139 21.8873 75.4929 21.82 75.9956 21.82V18.82C75.2583 18.82 74.5674 18.9127 73.9288 19.2252C73.2822 19.5416 72.8451 20.0081 72.495 20.4547L74.8562 22.3053ZM75.9956 21.82C76.8722 21.82 77.1449 22.0135 77.2252 22.0934C77.3037 22.1714 77.4956 22.4368 77.4956 23.3H80.4956C80.4956 22.0832 80.2376 20.8586 79.3411 19.9666C78.4463 19.0765 77.2191 18.82 75.9956 18.82V21.82ZM77.4956 23.3V30.5H80.4956V23.3H77.4956ZM78.9956 29H76.2756V32H78.9956V29ZM77.7756 30.5V23.8H74.7756V30.5H77.7756ZM77.7756 23.8C77.7756 23.4187 77.7327 22.7975 77.3384 22.2589C76.8592 21.6043 76.1581 21.44 75.6356 21.44V24.44C75.6162 24.44 75.5064 24.4382 75.3562 24.376C75.1885 24.3066 75.0321 24.1871 74.9178 24.0311C74.8141 23.8895 74.7831 23.7699 74.7757 23.7366C74.7687 23.7049 74.7756 23.7176 74.7756 23.8H77.7756ZM75.6356 21.44C75.1246 21.44 74.4161 21.5911 73.9256 22.245C73.5175 22.7892 73.4756 23.4209 73.4756 23.8H76.4756C76.4756 23.7172 76.4826 23.7064 76.4749 23.7406C76.4667 23.7772 76.4337 23.9009 76.3256 24.045C76.207 24.2032 76.0486 24.3181 75.8871 24.3827C75.7438 24.44 75.6433 24.44 75.6356 24.44V21.44ZM73.4756 23.8V30.5H76.4756V23.8H73.4756ZM74.9756 29H72.2556V32H74.9756V29ZM73.7556 30.5V23.8H70.7556V30.5H73.7556ZM73.7556 23.8C73.7556 23.4209 73.7138 22.7892 73.3056 22.245C72.8152 21.5911 72.1066 21.44 71.5956 21.44V24.44C71.5879 24.44 71.4874 24.44 71.3442 24.3827C71.1827 24.3181 71.0243 24.2032 70.9056 24.045C70.7976 23.9009 70.7645 23.7772 70.7563 23.7406C70.7487 23.7064 70.7556 23.7172 70.7556 23.8H73.7556ZM71.5956 21.44C71.0757 21.44 70.3872 21.6014 69.9034 22.2315C69.4913 22.7681 69.4356 23.3934 69.4356 23.8H72.4356C72.4356 23.7265 72.4424 23.7215 72.4331 23.7605C72.4232 23.8022 72.3881 23.9215 72.2829 24.0585C72.1688 24.207 72.0177 24.3171 71.8609 24.3805C71.7192 24.4379 71.616 24.44 71.5956 24.44V21.44ZM69.4356 23.8V30.5H72.4356V23.8H69.4356ZM70.9356 29H68.2356V32H70.9356V29ZM69.7356 30.5V23.3H66.7356V30.5H69.7356ZM83.5478 26.58V25.08H81.7617L82.0704 26.8392L83.5478 26.58ZM89.3678 27.76H90.8678V26.0245L89.1506 26.2758L89.3678 27.76ZM89.3678 30.22L89.6546 31.6923L90.8678 31.456V30.22H89.3678ZM83.5478 24.34L82.0698 24.0842L81.7659 25.84H83.5478V24.34ZM86.9078 24.34V25.84H88.4792L88.4062 24.2703L86.9078 24.34ZM88.5678 24.96C88.5678 25.1423 88.5651 25.2896 88.5597 25.41C88.5542 25.5317 88.5466 25.6112 88.5395 25.6609C88.5322 25.7123 88.5289 25.7077 88.5419 25.67C88.556 25.629 88.5939 25.5358 88.6783 25.4283C88.7682 25.314 88.8804 25.2221 88.9989 25.1582C89.1082 25.0993 89.1937 25.0799 89.2203 25.0747C89.2442 25.07 89.2387 25.0733 89.1799 25.0761C89.1219 25.0789 89.045 25.08 88.9278 25.08V28.08C89.1419 28.08 89.4815 28.081 89.8016 28.0178C90.18 27.9431 90.6653 27.7552 91.0373 27.2817C91.3626 26.8677 91.4646 26.4011 91.5099 26.0816C91.5575 25.7457 91.5678 25.3604 91.5678 24.96H88.5678ZM88.9278 25.08H83.5478V28.08H88.9278V25.08ZM82.0704 26.8392C82.2159 27.669 82.5862 28.4889 83.4097 29.0248C84.148 29.5051 85.0256 29.6 85.8078 29.6V26.6C85.519 26.6 85.3229 26.5798 85.1921 26.5531C85.0648 26.5271 85.0328 26.5017 85.0459 26.5102C85.0529 26.5148 85.0643 26.5236 85.076 26.5361C85.0876 26.5484 85.0921 26.5565 85.0911 26.5547C85.0873 26.5481 85.0543 26.4862 85.0252 26.3208L82.0704 26.8392ZM85.8078 29.6C86.8495 29.6 88.7679 29.3638 89.585 29.2442L89.1506 26.2758C88.3278 26.3962 86.6061 26.6 85.8078 26.6V29.6ZM87.8678 27.76V30.22H90.8678V27.76H87.8678ZM89.081 28.7477C87.5838 29.0393 86.4103 29.18 85.4878 29.18V32.18C86.6854 32.18 88.0718 32.0007 89.6546 31.6923L89.081 28.7477ZM85.4878 29.18C83.8653 29.18 83.0566 28.8502 82.6282 28.4396C82.2139 28.0425 81.8478 27.2718 81.8478 25.62H78.8478C78.8478 27.6282 79.2817 29.3875 80.5524 30.6054C81.809 31.8098 83.5704 32.18 85.4878 32.18V29.18ZM81.8478 25.62V25.38H78.8478V25.62H81.8478ZM81.8478 25.38C81.8478 23.7872 82.2154 22.9924 82.6386 22.573C83.064 22.1515 83.8369 21.82 85.3078 21.82V18.82C83.4587 18.82 81.7516 19.2285 80.527 20.442C79.3003 21.6576 78.8478 23.3928 78.8478 25.38H81.8478ZM85.3078 21.82C86.6933 21.82 87.4372 22.1839 87.8455 22.6013C88.2599 23.0251 88.5678 23.7483 88.5678 24.96H91.5678C91.5678 23.2717 91.1357 21.6749 89.9902 20.5037C88.8385 19.3261 87.2023 18.82 85.3078 18.82V21.82ZM83.5478 25.84H86.9078V22.84H83.5478V25.84ZM88.4062 24.2703C88.3723 23.5419 88.1144 22.7819 87.5049 22.2067C86.8952 21.6312 86.1029 21.4 85.3078 21.4V24.4C85.4219 24.4 85.4768 24.4163 85.4891 24.4206C85.495 24.4227 85.4917 24.4221 85.4822 24.4164C85.4725 24.4106 85.4595 24.4014 85.4457 24.3883C85.4318 24.3752 85.4203 24.3614 85.4115 24.3483C85.4028 24.3355 85.3986 24.3263 85.3974 24.3233C85.395 24.3177 85.4063 24.3422 85.4094 24.4097L88.4062 24.2703ZM85.3078 21.4C84.6179 21.4 83.8216 21.5254 83.1558 22.0627C82.4773 22.6102 82.1926 23.3748 82.0698 24.0842L85.0258 24.5958C85.0538 24.4343 85.0847 24.3606 85.095 24.3397C85.101 24.3275 85.0862 24.3599 85.0398 24.3973C84.995 24.4335 84.9681 24.436 84.9991 24.4277C85.0379 24.4173 85.1315 24.4 85.3078 24.4V21.4ZM96.68 26.94L96.4708 28.4254L96.4773 28.4262L96.68 26.94ZM100.76 20.78H102.26V19.5787L101.088 19.3162L100.76 20.78ZM100.76 23.28L100.477 24.753L102.26 25.0959V23.28H100.76ZM97.06 24.12L96.9107 25.6126L96.9107 25.6126L97.06 24.12ZM92.46 30.3H90.96V31.5736L92.2167 31.7801L92.46 30.3ZM92.46 27.78L92.6338 26.2901L90.96 26.0948V27.78H92.46ZM96.8892 25.4547C96.0328 25.334 95.2223 25.2741 94.5391 24.9569C94.2372 24.8168 94.0473 24.6593 93.9286 24.49C93.8186 24.333 93.7 24.068 93.7 23.58H90.7C90.7 24.602 90.9639 25.487 91.472 26.2119C91.9715 26.9245 92.6354 27.3807 93.2759 27.6781C94.4777 28.2359 95.9072 28.346 96.4708 28.4253L96.8892 25.4547ZM93.7 23.58C93.7 22.8511 93.9197 22.5485 94.2134 22.347C94.6206 22.0677 95.428 21.82 96.9 21.82V18.82C95.212 18.82 93.6694 19.0823 92.5166 19.873C91.2503 20.7415 90.7 22.0689 90.7 23.58H93.7ZM96.9 21.82C98.2595 21.82 99.1656 21.9602 100.432 22.2438L101.088 19.3162C99.6744 18.9998 98.5405 18.82 96.9 18.82V21.82ZM99.26 20.78V23.28H102.26V20.78H99.26ZM101.043 21.807C99.9266 21.5922 98.7306 21.44 97.22 21.44V24.44C98.5094 24.44 99.5135 24.5678 100.477 24.753L101.043 21.807ZM97.22 21.44C96.4471 21.44 95.7621 21.466 95.251 21.6147C94.9734 21.6955 94.5626 21.8621 94.2395 22.2497C93.8873 22.6724 93.82 23.1364 93.82 23.44H96.82C96.82 23.5636 96.7902 23.8751 96.5442 24.1703C96.3274 24.4304 96.0916 24.4945 96.089 24.4953C96.0794 24.4981 96.147 24.4791 96.3589 24.4634C96.5596 24.4485 96.837 24.44 97.22 24.44V21.44ZM93.82 23.44C93.82 23.9242 94.0012 24.3787 94.3349 24.7305C94.6267 25.0381 94.971 25.2003 95.2214 25.2925C95.7062 25.4711 96.3165 25.5531 96.9107 25.6126L97.2093 22.6274C96.9272 22.5992 96.7081 22.571 96.5387 22.5415C96.3631 22.511 96.2817 22.486 96.2586 22.4775C96.224 22.4647 96.3583 22.5044 96.5113 22.6657C96.5955 22.7544 96.6791 22.8738 96.7388 23.0234C96.7985 23.173 96.82 23.3173 96.82 23.44H93.82ZM96.9107 25.6126C97.8443 25.7059 98.684 25.8232 99.2872 26.1232C99.5603 26.2589 99.72 26.4029 99.8157 26.5449C99.9043 26.6762 100 26.896 100 27.3H103C103 26.374 102.766 25.5538 102.303 24.8676C101.848 24.1921 101.235 23.7411 100.623 23.4368C99.456 22.8568 98.0757 22.7141 97.2093 22.6274L96.9107 25.6126ZM100 27.3C100 28.0356 99.7615 28.3753 99.3901 28.6156C98.9006 28.9324 97.9933 29.18 96.48 29.18V32.18C98.2067 32.18 99.8095 31.9176 101.02 31.1344C102.348 30.2747 103 28.9244 103 27.3H100ZM96.48 29.18C95.0781 29.18 94.1297 29.0543 92.7033 28.8199L92.2167 31.7801C93.7103 32.0257 94.8419 32.18 96.48 32.18V29.18ZM93.96 30.3V27.78H90.96V30.3H93.96ZM92.2862 29.2699C93.5023 29.4118 94.7313 29.54 96.28 29.54V26.54C94.9087 26.54 93.8177 26.4282 92.6338 26.2901L92.2862 29.2699ZM96.28 29.54C97.0097 29.54 97.6808 29.5081 98.2036 29.3851C98.4587 29.3251 98.8249 29.2117 99.1547 28.9569C99.5477 28.6532 99.86 28.1622 99.86 27.54H96.86C96.86 27.3529 96.9041 27.1513 97.0047 26.9618C97.1019 26.7785 97.2252 26.6566 97.3203 26.5831C97.4851 26.4558 97.6014 26.4449 97.5164 26.4649C97.4543 26.4795 97.3266 26.5005 97.1056 26.5163C96.8905 26.5317 96.6185 26.54 96.28 26.54V29.54ZM99.86 27.54C99.86 27.1723 99.7558 26.7046 99.3867 26.3037C99.0737 25.9637 98.6971 25.8166 98.4767 25.7453C98.062 25.6112 97.4741 25.5344 96.8827 25.4538L96.4773 28.4262C96.8116 28.4718 97.0592 28.5064 97.2528 28.5387C97.3476 28.5545 97.4188 28.568 97.4724 28.5797C97.4987 28.5854 97.5183 28.5901 97.5324 28.5938C97.5393 28.5956 97.5445 28.5971 97.548 28.5981C97.5516 28.5991 97.5533 28.5997 97.5533 28.5997C97.5533 28.5997 97.5512 28.599 97.5473 28.5976C97.5434 28.5962 97.5374 28.5939 97.5294 28.5906C97.514 28.5842 97.4885 28.5728 97.456 28.5551C97.3919 28.52 97.2869 28.4522 97.1796 28.3357C97.0663 28.2126 96.9774 28.0642 96.9222 27.9022C96.8696 27.7481 96.86 27.6184 96.86 27.54H99.86ZM113.332 27.72H114.832V25.8735L113.025 26.2518L113.332 27.72ZM113.332 30.22L113.769 31.655L114.832 31.3314V30.22H113.332ZM106.592 23.18H108.092V21.68H106.592V23.18ZM103.232 23.18H101.732V24.68H103.232V23.18ZM103.232 20.5V19H101.732V20.5H103.232ZM109.892 20.5H111.392V19H109.892V20.5ZM111.152 29.48C112.052 29.48 112.722 29.3802 113.639 29.1882L113.025 26.2518C112.222 26.4198 111.772 26.48 111.152 26.48V29.48ZM111.832 27.72V30.22H114.832V27.72H111.832ZM112.895 28.785C112.08 29.0333 111.27 29.18 110.472 29.18V32.18C111.635 32.18 112.745 31.9667 113.769 31.655L112.895 28.785ZM110.472 29.18C109.105 29.18 108.666 28.9474 108.503 28.7894C108.352 28.6434 108.092 28.2234 108.092 26.82H105.092C105.092 28.3966 105.343 29.9066 106.417 30.9456C107.478 31.9726 108.98 32.18 110.472 32.18V29.18ZM108.092 26.82V23.18H105.092V26.82H108.092ZM106.592 21.68H103.232V24.68H106.592V21.68ZM104.732 23.18V20.5H101.732V23.18H104.732ZM103.232 22H109.892V19H103.232V22ZM108.392 20.5V26.66H111.392V20.5H108.392ZM108.392 26.66C108.392 27.2612 108.508 28.0434 109.081 28.6659C109.678 29.3149 110.481 29.48 111.152 29.48V26.48C111.043 26.48 111.025 26.4659 111.062 26.4787C111.111 26.4954 111.202 26.5408 111.288 26.6341C111.371 26.7242 111.399 26.8039 111.403 26.82C111.406 26.8285 111.392 26.7845 111.392 26.66H108.392ZM107.292 17.68V17.62H104.292V17.68H107.292ZM107.292 17.62C107.292 17.5506 107.305 17.5368 107.297 17.5532C107.288 17.5725 107.277 17.5773 107.292 17.5661C107.34 17.5306 107.575 17.4 108.172 17.4V14.4C107.21 14.4 106.254 14.5994 105.502 15.1589C104.689 15.7632 104.292 16.6571 104.292 17.62H107.292ZM108.172 17.4C108.714 17.4 108.936 17.524 108.985 17.5607C109.002 17.5737 108.995 17.5721 108.987 17.5564C108.98 17.5426 108.992 17.556 108.992 17.62H111.992C111.992 16.6477 111.583 15.7621 110.79 15.1643C110.048 14.606 109.11 14.4 108.172 14.4V17.4ZM108.992 17.62V17.68H111.992V17.62H108.992ZM108.992 17.68C108.992 17.7254 108.984 17.7266 108.994 17.7061C109.005 17.6847 109.014 17.6826 108.995 17.697C108.941 17.7363 108.713 17.86 108.172 17.86V20.86C109.111 20.86 110.043 20.6537 110.78 20.108C111.568 19.5245 111.992 18.6516 111.992 17.68H108.992ZM108.172 17.86C107.576 17.86 107.335 17.7298 107.283 17.6917C107.265 17.679 107.278 17.6843 107.29 17.7094C107.301 17.7325 107.292 17.7309 107.292 17.68H104.292C104.292 18.6423 104.705 19.5232 105.512 20.1133C106.26 20.6602 107.209 20.86 108.172 20.86V17.86ZM124.724 30.5V32H126.224V30.5H124.724ZM121.604 30.5H120.104V32H121.604V30.5ZM118.364 30.5V32H119.864V30.5H118.364ZM115.244 30.5H113.744V32H115.244V30.5ZM116.744 24.6C116.744 23.3171 117.046 22.7488 117.371 22.4542C117.732 22.1273 118.466 21.82 120.004 21.82V18.82C118.183 18.82 116.536 19.1627 115.357 20.2308C114.143 21.3312 113.744 22.9029 113.744 24.6H116.744ZM120.004 21.82C121.519 21.82 122.242 22.1258 122.599 22.4509C122.922 22.7461 123.224 23.3171 123.224 24.6H126.224C126.224 22.9029 125.826 21.3339 124.62 20.2341C123.447 19.1642 121.809 18.82 120.004 18.82V21.82ZM123.224 24.6V30.5H126.224V24.6H123.224ZM124.724 29H121.604V32H124.724V29ZM123.104 30.5V24.68H120.104V30.5H123.104ZM123.104 24.68C123.104 23.971 122.978 23.0821 122.325 22.3975C121.657 21.6965 120.757 21.54 120.004 21.54V24.54C120.096 24.54 120.165 24.545 120.214 24.5513C120.263 24.5577 120.286 24.5645 120.291 24.566C120.295 24.5672 120.278 24.5624 120.25 24.5454C120.22 24.5277 120.186 24.5018 120.154 24.4675C120.121 24.4334 120.099 24.4006 120.086 24.3764C120.073 24.3533 120.072 24.3438 120.076 24.356C120.079 24.3689 120.087 24.4002 120.093 24.4557C120.1 24.5112 120.104 24.5848 120.104 24.68H123.104ZM120.004 21.54C119.247 21.54 118.346 21.6939 117.671 22.3819C117.002 23.064 116.864 23.9569 116.864 24.68H119.864C119.864 24.4877 119.885 24.3963 119.893 24.3701C119.896 24.36 119.893 24.3708 119.88 24.3944C119.866 24.4191 119.844 24.4509 119.812 24.4831C119.781 24.5154 119.749 24.5388 119.723 24.554C119.698 24.5685 119.685 24.5715 119.694 24.5689C119.716 24.5619 119.807 24.54 120.004 24.54V21.54ZM116.864 24.68V30.5H119.864V24.68H116.864ZM118.364 29H115.244V32H118.364V29ZM116.744 30.5V24.6H113.744V30.5H116.744ZM128.137 25.38C128.137 23.7827 128.501 22.9879 128.921 22.5698C129.34 22.1515 130.105 21.82 131.577 21.82V18.82C129.728 18.82 128.023 19.2285 126.803 20.4452C125.582 21.6621 125.137 23.3973 125.137 25.38H128.137ZM131.577 21.82C133.072 21.82 133.84 22.1536 134.258 22.5698C134.675 22.9857 135.037 23.7781 135.037 25.38H138.037C138.037 23.4019 137.598 21.6643 136.376 20.4452C135.153 19.2264 133.441 18.82 131.577 18.82V21.82ZM135.037 25.38V25.62H138.037V25.38H135.037ZM135.037 25.62C135.037 27.2219 134.675 28.0143 134.258 28.4302C133.84 28.8464 133.072 29.18 131.577 29.18V32.18C133.441 32.18 135.153 31.7736 136.376 30.5548C137.598 29.3357 138.037 27.5981 138.037 25.62H135.037ZM131.577 29.18C130.105 29.18 129.34 28.8485 128.921 28.4302C128.501 28.0121 128.137 27.2173 128.137 25.62H125.137C125.137 27.6027 125.582 29.3379 126.803 30.5548C128.023 31.7715 129.728 32.18 131.577 32.18V29.18ZM128.137 25.62V25.38H125.137V25.62H128.137ZM128.217 25.54C128.217 26.5416 128.346 27.6077 128.998 28.4044C129.726 29.2956 130.761 29.46 131.577 29.46V26.46C131.343 26.46 131.244 26.434 131.22 26.4261C131.214 26.4238 131.228 26.428 131.253 26.4449C131.279 26.4625 131.303 26.4844 131.32 26.5056C131.354 26.5469 131.323 26.5341 131.286 26.3734C131.248 26.2084 131.217 25.9452 131.217 25.54H128.217ZM131.577 29.46C132.398 29.46 133.449 29.3019 134.178 28.3949C134.822 27.5935 134.937 26.5222 134.937 25.54H131.937C131.937 25.9512 131.907 26.2184 131.87 26.3872C131.833 26.5522 131.803 26.5616 131.84 26.5151C131.86 26.4909 131.886 26.4662 131.915 26.4465C131.943 26.4276 131.96 26.4227 131.953 26.4249C131.929 26.4331 131.824 26.46 131.577 26.46V29.46ZM134.937 25.54V25.46H131.937V25.54H134.937ZM134.937 25.46C134.937 24.4778 134.822 23.4065 134.178 22.6051C133.449 21.6981 132.398 21.54 131.577 21.54V24.54C131.824 24.54 131.929 24.5669 131.953 24.5751C131.96 24.5773 131.943 24.5724 131.915 24.5535C131.886 24.5338 131.86 24.5091 131.84 24.4849C131.803 24.4384 131.833 24.4478 131.87 24.6128C131.907 24.7816 131.937 25.0488 131.937 25.46H134.937ZM131.577 21.54C130.761 21.54 129.726 21.7044 128.998 22.5956C128.346 23.3923 128.217 24.4584 128.217 25.46H131.217C131.217 25.0548 131.248 24.7916 131.286 24.6266C131.323 24.4659 131.354 24.4531 131.32 24.4944C131.303 24.5156 131.279 24.5375 131.253 24.5551C131.228 24.572 131.214 24.5762 131.22 24.5739C131.244 24.566 131.343 24.54 131.577 24.54V21.54ZM128.217 25.46V25.54H131.217V25.46H128.217Z" fill="#FF2626" mask="url(#path-10-outside-1_376_6282)"/>
<defs>
<filter id="filter0_ddd_376_6282" x="0.2" y="0.7" width="41.6" height="44.6" filterUnits="userSpaceOnUse" color-interpolation-filters="sRGB">
<feFlood flood-opacity="0" result="BackgroundImageFix"/>
<feColorMatrix in="SourceAlpha" type="matrix" values="0 0 0 0 0 0 0 0 0 0 0 0 0 0 0 0 0 0 127 0" result="hardAlpha"/>
<feOffset/>
<feGaussianBlur stdDeviation="3.9"/>
<feComposite in2="hardAlpha" operator="out"/>
<feColorMatrix type="matrix" values="0 0 0 0 1 0 0 0 0 0 0 0 0 0 0.111111 0 0 0 1 0"/>
<feBlend mode="lighten" in2="BackgroundImageFix" result="effect1_dropShadow_376_6282"/>
<feColorMatrix in="SourceAlpha" type="matrix" values="0 0 0 0 0 0 0 0 0 0 0 0 0 0 0 0 0 0 127 0" result="hardAlpha"/>
<feOffset dy="1.04"/>
<feGaussianBlur stdDeviation="1.3"/>
<feComposite in2="hardAlpha" operator="out"/>
<feColorMatrix type="matrix" values="0 0 0 0 0 0 0 0 0 0 0 0 0 0 0 0 0 0 0.4 0"/>
<feBlend mode="normal" in2="effect1_dropShadow_376_6282" result="effect2_dropShadow_376_6282"/>
<feColorMatrix in="SourceAlpha" type="matrix" values="0 0 0 0 0 0 0 0 0 0 0 0 0 0 0 0 0 0 127 0" result="hardAlpha"/>
<feOffset dx="0.39" dy="0.39"/>
<feComposite in2="hardAlpha" operator="out"/>
<feColorMatrix type="matrix" values="0 0 0 0 0.844962 0 0 0 0 0.0220812 0 0 0 0 0.0916204 0 0 0 1 0"/>
<feBlend mode="normal" in2="effect2_dropShadow_376_6282" result="effect3_dropShadow_376_6282"/>
<feBlend mode="normal" in="SourceGraphic" in2="effect3_dropShadow_376_6282" result="shape"/>
</filter>
<filter id="filter1_ii_376_6282" x="8.59766" y="8.5" width="24.8486" height="27.6948" filterUnits="userSpaceOnUse" color-interpolation-filters="sRGB">
<feFlood flood-opacity="0" result="BackgroundImageFix"/>
<feBlend mode="normal" in="SourceGraphic" in2="BackgroundImageFix" result="shape"/>
<feColorMatrix in="SourceAlpha" type="matrix" values="0 0 0 0 0 0 0 0 0 0 0 0 0 0 0 0 0 0 127 0" result="hardAlpha"/>
<feOffset dx="-3.25" dy="-1.95"/>
<feComposite in2="hardAlpha" operator="arithmetic" k2="-1" k3="1"/>
<feColorMatrix type="matrix" values="0 0 0 0 0.0495516 0 0 0 0 0.0495516 0 0 0 0 0.0495516 0 0 0 0.3 0"/>
<feBlend mode="color-burn" in2="shape" result="effect1_innerShadow_376_6282"/>
<feColorMatrix in="SourceAlpha" type="matrix" values="0 0 0 0 0 0 0 0 0 0 0 0 0 0 0 0 0 0 127 0" result="hardAlpha"/>
<feOffset dx="2.34" dy="0.52"/>
<feComposite in2="hardAlpha" operator="arithmetic" k2="-1" k3="1"/>
<feColorMatrix type="matrix" values="0 0 0 0 0.919236 0 0 0 0 0.0427755 0 0 0 0 0.118689 0 0 0 1 0"/>
<feBlend mode="normal" in2="effect1_innerShadow_376_6282" result="effect2_innerShadow_376_6282"/>
</filter>
<filter id="filter2_i_376_6282" x="14.1748" y="20.3949" width="3.25" height="3.25" filterUnits="userSpaceOnUse" color-interpolation-filters="sRGB">
<feFlood flood-opacity="0" result="BackgroundImageFix"/>
<feBlend mode="normal" in="SourceGraphic" in2="BackgroundImageFix" result="shape"/>
<feColorMatrix in="SourceAlpha" type="matrix" values="0 0 0 0 0 0 0 0 0 0 0 0 0 0 0 0 0 0 127 0" result="hardAlpha"/>
<feOffset dx="0.75" dy="0.625"/>
<feComposite in2="hardAlpha" operator="arithmetic" k2="-1" k3="1"/>
<feColorMatrix type="matrix" values="0 0 0 0 0.913725 0 0 0 0 0.435294 0 0 0 0 0.494118 0 0 0 1 0"/>
<feBlend mode="multiply" in2="shape" result="effect1_innerShadow_376_6282"/>
</filter>
<filter id="filter3_i_376_6282" x="22.1699" y="17.0799" width="4.41992" height="4.42001" filterUnits="userSpaceOnUse" color-interpolation-filters="sRGB">
<feFlood flood-opacity="0" result="BackgroundImageFix"/>
<feBlend mode="normal" in="SourceGraphic" in2="BackgroundImageFix" result="shape"/>
<feColorMatrix in="SourceAlpha" type="matrix" values="0 0 0 0 0 0 0 0 0 0 0 0 0 0 0 0 0 0 127 0" result="hardAlpha"/>
<feOffset dx="0.78" dy="0.65"/>
<feComposite in2="hardAlpha" operator="arithmetic" k2="-1" k3="1"/>
<feColorMatrix type="matrix" values="0 0 0 0 0.913725 0 0 0 0 0.435294 0 0 0 0 0.494118 0 0 0 1 0"/>
<feBlend mode="multiply" in2="shape" result="effect1_innerShadow_376_6282"/>
</filter>
<filter id="filter4_i_376_6282" x="15.7725" y="22.2593" width="9.41797" height="7.9679" filterUnits="userSpaceOnUse" color-interpolation-filters="sRGB">
<feFlood flood-opacity="0" result="BackgroundImageFix"/>
<feBlend mode="normal" in="SourceGraphic" in2="BackgroundImageFix" result="shape"/>
<feColorMatrix in="SourceAlpha" type="matrix" values="0 0 0 0 0 0 0 0 0 0 0 0 0 0 0 0 0 0 127 0" result="hardAlpha"/>
<feOffset dx="0.78" dy="0.52"/>
<feComposite in2="hardAlpha" operator="arithmetic" k2="-1" k3="1"/>
<feColorMatrix type="matrix" values="0 0 0 0 0.913725 0 0 0 0 0.435294 0 0 0 0 0.494118 0 0 0 1 0"/>
<feBlend mode="multiply" in2="shape" result="effect1_innerShadow_376_6282"/>
</filter>
<linearGradient id="paint0_linear_376_6282" x1="24.77" y1="9.54" x2="9.885" y2="37.75" gradientUnits="userSpaceOnUse">
<stop stop-color="white"/>
<stop offset="1" stop-color="#FFEAEE"/>
</linearGradient>
<linearGradient id="paint1_linear_376_6282" x1="23.08" y1="6.03" x2="8" y2="40.34" gradientUnits="userSpaceOnUse">
<stop stop-color="#FF57F8"/>
<stop offset="0.48" stop-color="#FF0000"/>
<stop offset="1" stop-color="#FF002E"/>
</linearGradient>
<linearGradient id="paint2_linear_376_6282" x1="15.7998" y1="20.3949" x2="15.7998" y2="23.6449" gradientUnits="userSpaceOnUse">
<stop stop-color="#FF57F8"/>
<stop offset="1" stop-color="#FF0000"/>
</linearGradient>
<linearGradient id="paint3_linear_376_6282" x1="15.7988" y1="20.3949" x2="15.7988" y2="23.6449" gradientUnits="userSpaceOnUse">
<stop stop-color="#FF57F8"/>
<stop offset="1" stop-color="#FF0000"/>
</linearGradient>
<linearGradient id="paint4_linear_376_6282" x1="24.3799" y1="17.0799" x2="24.3799" y2="21.4999" gradientUnits="userSpaceOnUse">
<stop stop-color="#FF57F8"/>
<stop offset="1" stop-color="#FF0000"/>
</linearGradient>
<linearGradient id="paint5_linear_376_6282" x1="20.4313" y1="22.1766" x2="20.4313" y2="30.2272" gradientUnits="userSpaceOnUse">
<stop stop-color="#FF57F8"/>
<stop offset="1" stop-color="#FF0000"/>
</linearGradient>
<linearGradient id="paint6_linear_376_6282" x1="20.4313" y1="22.1766" x2="20.4313" y2="30.2272" gradientUnits="userSpaceOnUse">
<stop stop-color="#FF57F8"/>
<stop offset="1" stop-color="#FF0000"/>
</linearGradient>
<linearGradient id="paint7_linear_376_6282" x1="24.3799" y1="17.08" x2="24.3799" y2="21.5" gradientUnits="userSpaceOnUse">
<stop stop-color="#FF57F8"/>
<stop offset="1" stop-color="#FF0000"/>
</linearGradient>
</defs>
</svg>
