<svg width="109" height="50" viewBox="0 0 109 50" fill="none" xmlns="http://www.w3.org/2000/svg">
<g filter="url(#filter0_d_151_100)">
<mask id="path-1-outside-1_151_100" maskUnits="userSpaceOnUse" x="13.5" y="13" width="83" height="24" fill="black">
<rect fill="white" x="13.5" y="13" width="83" height="24"/>
<path d="M15.7969 15.0273H20.7656C22.1094 15.0273 23.1406 15.1328 23.8594 15.3438C24.5859 15.5547 25.1289 15.8594 25.4883 16.2578C25.8555 16.6562 26.1016 17.1406 26.2266 17.7109C26.3594 18.2734 26.4258 19.1484 26.4258 20.3359V21.9883C26.4258 23.1992 26.3008 24.082 26.0508 24.6367C25.8008 25.1914 25.3398 25.6172 24.668 25.9141C24.0039 26.2109 23.1328 26.3594 22.0547 26.3594H20.7305V34H15.7969V15.0273ZM20.7305 18.2734V23.1016C20.8711 23.1094 20.9922 23.1133 21.0938 23.1133C21.5469 23.1133 21.8594 23.0039 22.0312 22.7852C22.2109 22.5586 22.3008 22.0938 22.3008 21.3906V19.832C22.3008 19.1836 22.1992 18.7617 21.9961 18.5664C21.793 18.3711 21.3711 18.2734 20.7305 18.2734ZM32.4375 18.4492L32.25 20.4883C32.9375 19.0273 33.9336 18.2539 35.2383 18.168V23.6406C34.3711 23.6406 33.7344 23.7578 33.3281 23.9922C32.9219 24.2266 32.6719 24.5547 32.5781 24.9766C32.4844 25.3906 32.4375 26.3516 32.4375 27.8594V34H27.7031V18.4492H32.4375ZM47.0273 26.5H40.8984V29.8633C40.8984 30.5664 40.9492 31.0195 41.0508 31.2227C41.1523 31.4258 41.3477 31.5273 41.6367 31.5273C41.9961 31.5273 42.2344 31.3945 42.3516 31.1289C42.4766 30.8555 42.5391 30.332 42.5391 29.5586V27.5078H47.0273V28.6562C47.0273 29.6172 46.9648 30.3555 46.8398 30.8711C46.7227 31.3867 46.4414 31.9375 45.9961 32.5234C45.5508 33.1094 44.9844 33.5508 44.2969 33.8477C43.6172 34.1367 42.7617 34.2812 41.7305 34.2812C40.7305 34.2812 39.8477 34.1367 39.082 33.8477C38.3164 33.5586 37.7188 33.1641 37.2891 32.6641C36.8672 32.1562 36.5742 31.6016 36.4102 31C36.2461 30.3906 36.1641 29.5078 36.1641 28.3516V23.8164C36.1641 22.457 36.3477 21.3867 36.7148 20.6055C37.082 19.8164 37.6836 19.2148 38.5195 18.8008C39.3555 18.3789 40.3164 18.168 41.4023 18.168C42.7305 18.168 43.8242 18.4219 44.6836 18.9297C45.5508 19.4297 46.1562 20.0977 46.5 20.9336C46.8516 21.7617 47.0273 22.9297 47.0273 24.4375V26.5ZM42.2812 23.9688V22.832C42.2812 22.0273 42.2383 21.5078 42.1523 21.2734C42.0664 21.0391 41.8906 20.9219 41.625 20.9219C41.2969 20.9219 41.0938 21.0234 41.0156 21.2266C40.9375 21.4219 40.8984 21.957 40.8984 22.832V23.9688H42.2812ZM58.3711 18.4492L56.1562 34H49.9805L47.6016 18.4492H51.832L53.1562 29.793C53.2578 28.9648 53.4297 26.9336 53.6719 23.6992C53.8125 21.8945 53.9688 20.1445 54.1406 18.4492H58.3711ZM63.9609 15.0273V17.5H59.0859V15.0273H63.9609ZM63.9609 18.4492V34H59.0859V18.4492H63.9609ZM76.3945 26.5H70.2656V29.8633C70.2656 30.5664 70.3164 31.0195 70.418 31.2227C70.5195 31.4258 70.7148 31.5273 71.0039 31.5273C71.3633 31.5273 71.6016 31.3945 71.7188 31.1289C71.8438 30.8555 71.9062 30.332 71.9062 29.5586V27.5078H76.3945V28.6562C76.3945 29.6172 76.332 30.3555 76.207 30.8711C76.0898 31.3867 75.8086 31.9375 75.3633 32.5234C74.918 33.1094 74.3516 33.5508 73.6641 33.8477C72.9844 34.1367 72.1289 34.2812 71.0977 34.2812C70.0977 34.2812 69.2148 34.1367 68.4492 33.8477C67.6836 33.5586 67.0859 33.1641 66.6562 32.6641C66.2344 32.1562 65.9414 31.6016 65.7773 31C65.6133 30.3906 65.5312 29.5078 65.5312 28.3516V23.8164C65.5312 22.457 65.7148 21.3867 66.082 20.6055C66.4492 19.8164 67.0508 19.2148 67.8867 18.8008C68.7227 18.3789 69.6836 18.168 70.7695 18.168C72.0977 18.168 73.1914 18.4219 74.0508 18.9297C74.918 19.4297 75.5234 20.0977 75.8672 20.9336C76.2188 21.7617 76.3945 22.9297 76.3945 24.4375V26.5ZM71.6484 23.9688V22.832C71.6484 22.0273 71.6055 21.5078 71.5195 21.2734C71.4336 21.0391 71.2578 20.9219 70.9922 20.9219C70.6641 20.9219 70.4609 21.0234 70.3828 21.2266C70.3047 21.4219 70.2656 21.957 70.2656 22.832V23.9688H71.6484ZM93.2461 18.4492L91.3594 34H86.2148C85.9336 32.1016 85.6094 29.6016 85.2422 26.5C85.1172 27.8594 84.9414 29.2344 84.7148 30.625L84.1875 34H79.043L77.0391 18.4492H81.1172C81.1484 18.8555 81.4922 21.8203 82.1484 27.3438C82.1953 26.7812 82.5469 23.8164 83.2031 18.4492H87.1289L88.0898 27.3438C88.2383 24.75 88.5977 21.7852 89.168 18.4492H93.2461Z"/>
</mask>
<path d="M15.7969 15.0273H20.7656C22.1094 15.0273 23.1406 15.1328 23.8594 15.3438C24.5859 15.5547 25.1289 15.8594 25.4883 16.2578C25.8555 16.6562 26.1016 17.1406 26.2266 17.7109C26.3594 18.2734 26.4258 19.1484 26.4258 20.3359V21.9883C26.4258 23.1992 26.3008 24.082 26.0508 24.6367C25.8008 25.1914 25.3398 25.6172 24.668 25.9141C24.0039 26.2109 23.1328 26.3594 22.0547 26.3594H20.7305V34H15.7969V15.0273ZM20.7305 18.2734V23.1016C20.8711 23.1094 20.9922 23.1133 21.0938 23.1133C21.5469 23.1133 21.8594 23.0039 22.0312 22.7852C22.2109 22.5586 22.3008 22.0938 22.3008 21.3906V19.832C22.3008 19.1836 22.1992 18.7617 21.9961 18.5664C21.793 18.3711 21.3711 18.2734 20.7305 18.2734ZM32.4375 18.4492L32.25 20.4883C32.9375 19.0273 33.9336 18.2539 35.2383 18.168V23.6406C34.3711 23.6406 33.7344 23.7578 33.3281 23.9922C32.9219 24.2266 32.6719 24.5547 32.5781 24.9766C32.4844 25.3906 32.4375 26.3516 32.4375 27.8594V34H27.7031V18.4492H32.4375ZM47.0273 26.5H40.8984V29.8633C40.8984 30.5664 40.9492 31.0195 41.0508 31.2227C41.1523 31.4258 41.3477 31.5273 41.6367 31.5273C41.9961 31.5273 42.2344 31.3945 42.3516 31.1289C42.4766 30.8555 42.5391 30.332 42.5391 29.5586V27.5078H47.0273V28.6562C47.0273 29.6172 46.9648 30.3555 46.8398 30.8711C46.7227 31.3867 46.4414 31.9375 45.9961 32.5234C45.5508 33.1094 44.9844 33.5508 44.2969 33.8477C43.6172 34.1367 42.7617 34.2812 41.7305 34.2812C40.7305 34.2812 39.8477 34.1367 39.082 33.8477C38.3164 33.5586 37.7188 33.1641 37.2891 32.6641C36.8672 32.1562 36.5742 31.6016 36.4102 31C36.2461 30.3906 36.1641 29.5078 36.1641 28.3516V23.8164C36.1641 22.457 36.3477 21.3867 36.7148 20.6055C37.082 19.8164 37.6836 19.2148 38.5195 18.8008C39.3555 18.3789 40.3164 18.168 41.4023 18.168C42.7305 18.168 43.8242 18.4219 44.6836 18.9297C45.5508 19.4297 46.1562 20.0977 46.5 20.9336C46.8516 21.7617 47.0273 22.9297 47.0273 24.4375V26.5ZM42.2812 23.9688V22.832C42.2812 22.0273 42.2383 21.5078 42.1523 21.2734C42.0664 21.0391 41.8906 20.9219 41.625 20.9219C41.2969 20.9219 41.0938 21.0234 41.0156 21.2266C40.9375 21.4219 40.8984 21.957 40.8984 22.832V23.9688H42.2812ZM58.3711 18.4492L56.1562 34H49.9805L47.6016 18.4492H51.832L53.1562 29.793C53.2578 28.9648 53.4297 26.9336 53.6719 23.6992C53.8125 21.8945 53.9688 20.1445 54.1406 18.4492H58.3711ZM63.9609 15.0273V17.5H59.0859V15.0273H63.9609ZM63.9609 18.4492V34H59.0859V18.4492H63.9609ZM76.3945 26.5H70.2656V29.8633C70.2656 30.5664 70.3164 31.0195 70.418 31.2227C70.5195 31.4258 70.7148 31.5273 71.0039 31.5273C71.3633 31.5273 71.6016 31.3945 71.7188 31.1289C71.8438 30.8555 71.9062 30.332 71.9062 29.5586V27.5078H76.3945V28.6562C76.3945 29.6172 76.332 30.3555 76.207 30.8711C76.0898 31.3867 75.8086 31.9375 75.3633 32.5234C74.918 33.1094 74.3516 33.5508 73.6641 33.8477C72.9844 34.1367 72.1289 34.2812 71.0977 34.2812C70.0977 34.2812 69.2148 34.1367 68.4492 33.8477C67.6836 33.5586 67.0859 33.1641 66.6562 32.6641C66.2344 32.1562 65.9414 31.6016 65.7773 31C65.6133 30.3906 65.5312 29.5078 65.5312 28.3516V23.8164C65.5312 22.457 65.7148 21.3867 66.082 20.6055C66.4492 19.8164 67.0508 19.2148 67.8867 18.8008C68.7227 18.3789 69.6836 18.168 70.7695 18.168C72.0977 18.168 73.1914 18.4219 74.0508 18.9297C74.918 19.4297 75.5234 20.0977 75.8672 20.9336C76.2188 21.7617 76.3945 22.9297 76.3945 24.4375V26.5ZM71.6484 23.9688V22.832C71.6484 22.0273 71.6055 21.5078 71.5195 21.2734C71.4336 21.0391 71.2578 20.9219 70.9922 20.9219C70.6641 20.9219 70.4609 21.0234 70.3828 21.2266C70.3047 21.4219 70.2656 21.957 70.2656 22.832V23.9688H71.6484ZM93.2461 18.4492L91.3594 34H86.2148C85.9336 32.1016 85.6094 29.6016 85.2422 26.5C85.1172 27.8594 84.9414 29.2344 84.7148 30.625L84.1875 34H79.043L77.0391 18.4492H81.1172C81.1484 18.8555 81.4922 21.8203 82.1484 27.3438C82.1953 26.7812 82.5469 23.8164 83.2031 18.4492H87.1289L88.0898 27.3438C88.2383 24.75 88.5977 21.7852 89.168 18.4492H93.2461Z" fill="#FAFF00"/>
<path d="M15.7969 15.0273V13.0273H13.7969V15.0273H15.7969ZM23.8594 15.3438L23.2962 17.2628L23.3018 17.2644L23.8594 15.3438ZM25.4883 16.2578L24.0031 17.5974L24.0103 17.6053L24.0176 17.6132L25.4883 16.2578ZM26.2266 17.7109L24.2729 18.1391L24.2764 18.1549L24.2801 18.1705L26.2266 17.7109ZM24.668 25.9141L23.8596 24.0847L23.8517 24.0882L24.668 25.9141ZM20.7305 26.3594V24.3594H18.7305V26.3594H20.7305ZM20.7305 34V36H22.7305V34H20.7305ZM15.7969 34H13.7969V36H15.7969V34ZM20.7305 18.2734V16.2734H18.7305V18.2734H20.7305ZM20.7305 23.1016H18.7305V24.9935L20.6195 25.0985L20.7305 23.1016ZM22.0312 22.7852L20.4642 21.5424L20.4586 21.5495L22.0312 22.7852ZM15.7969 17.0273H20.7656V13.0273H15.7969V17.0273ZM20.7656 17.0273C22.0443 17.0273 22.8508 17.1321 23.2962 17.2628L24.4226 13.4247C23.4304 13.1335 22.1745 13.0273 20.7656 13.0273V17.0273ZM23.3018 17.2644C23.8108 17.4122 23.975 17.5662 24.0031 17.5974L26.9734 14.9183C26.2828 14.1526 25.3611 13.6972 24.417 13.4231L23.3018 17.2644ZM24.0176 17.6132C24.1259 17.7307 24.2178 17.8874 24.2729 18.1391L28.1802 17.2827C27.9854 16.3938 27.5851 15.5818 26.959 14.9025L24.0176 17.6132ZM24.2801 18.1705C24.3568 18.4956 24.4258 19.1767 24.4258 20.3359H28.4258C28.4258 19.1202 28.3619 18.0513 28.173 17.2514L24.2801 18.1705ZM24.4258 20.3359V21.9883H28.4258V20.3359H24.4258ZM24.4258 21.9883C24.4258 23.1416 24.2946 23.6659 24.2274 23.8149L27.8741 25.4585C28.307 24.4981 28.4258 23.2569 28.4258 21.9883H24.4258ZM24.2274 23.8149C24.2202 23.831 24.1788 23.9437 23.8596 24.0847L25.4763 27.7434C26.5009 27.2907 27.3814 26.5518 27.8741 25.4585L24.2274 23.8149ZM23.8517 24.0882C23.5375 24.2287 22.9754 24.3594 22.0547 24.3594V28.3594C23.2902 28.3594 24.4703 28.1932 25.4842 27.7399L23.8517 24.0882ZM22.0547 24.3594H20.7305V28.3594H22.0547V24.3594ZM18.7305 26.3594V34H22.7305V26.3594H18.7305ZM20.7305 32H15.7969V36H20.7305V32ZM17.7969 34V15.0273H13.7969V34H17.7969ZM18.7305 18.2734V23.1016H22.7305V18.2734H18.7305ZM20.6195 25.0985C20.7841 25.1076 20.9442 25.1133 21.0938 25.1133V21.1133C21.0402 21.1133 20.958 21.1111 20.8414 21.1046L20.6195 25.0985ZM21.0938 25.1133C21.7774 25.1133 22.8665 24.9593 23.6039 24.0208L20.4586 21.5495C20.6499 21.3061 20.8729 21.1906 21.0073 21.1435C21.1256 21.1021 21.1724 21.1133 21.0938 21.1133V25.1133ZM23.5982 24.0279C23.9762 23.5514 24.1256 23.0158 24.1971 22.6461C24.2747 22.2443 24.3008 21.8146 24.3008 21.3906H20.3008C20.3008 21.525 20.2964 21.6338 20.2898 21.7199C20.2831 21.807 20.2748 21.8606 20.2697 21.8871C20.2642 21.9155 20.2656 21.8958 20.2858 21.8441C20.3051 21.7944 20.3558 21.6791 20.4643 21.5424L23.5982 24.0279ZM24.3008 21.3906V19.832H20.3008V21.3906H24.3008ZM24.3008 19.832C24.3008 19.4195 24.2701 18.9807 24.1691 18.5612C24.0735 18.1644 23.8701 17.5937 23.3823 17.1247L20.6099 20.0081C20.4614 19.8653 20.3785 19.7268 20.336 19.6407C20.294 19.5556 20.2809 19.5007 20.2802 19.4974C20.279 19.4924 20.2849 19.5162 20.2907 19.5771C20.2964 19.6369 20.3008 19.7206 20.3008 19.832H24.3008ZM23.3823 17.1247C22.9166 16.6769 22.3675 16.4883 21.9784 16.3982C21.5674 16.3031 21.1376 16.2734 20.7305 16.2734V20.2734C20.8412 20.2734 20.9255 20.2777 20.9869 20.2834C21.0493 20.2891 21.0765 20.2952 21.0763 20.2952C21.0753 20.2949 21.0641 20.2923 21.0444 20.2857C21.0247 20.2792 20.9936 20.2678 20.9539 20.2492C20.8768 20.213 20.7477 20.1406 20.6099 20.0081L23.3823 17.1247ZM32.4375 18.4492L34.4291 18.6324L34.6298 16.4492H32.4375V18.4492ZM32.25 20.4883L30.2584 20.3051L34.0596 21.3399L32.25 20.4883ZM35.2383 18.168H37.2383V16.0319L35.1068 16.1723L35.2383 18.168ZM35.2383 23.6406V25.6406H37.2383V23.6406H35.2383ZM32.5781 24.9766L34.5288 25.4182L34.5305 25.4104L32.5781 24.9766ZM32.4375 34V36H34.4375V34H32.4375ZM27.7031 34H25.7031V36H27.7031V34ZM27.7031 18.4492V16.4492H25.7031V18.4492H27.7031ZM30.4459 18.2661L30.2584 20.3051L34.2416 20.6714L34.4291 18.6324L30.4459 18.2661ZM34.0596 21.3399C34.5232 20.3549 34.9718 20.1899 35.3697 20.1636L35.1068 16.1723C32.8954 16.318 31.3518 17.6998 30.4404 19.6367L34.0596 21.3399ZM33.2383 18.168V23.6406H37.2383V18.168H33.2383ZM35.2383 21.6406C34.2725 21.6406 33.2007 21.7567 32.3287 22.2598L34.3276 25.7246C34.2738 25.7556 34.2992 25.7273 34.4724 25.6955C34.639 25.6648 34.8881 25.6406 35.2383 25.6406V21.6406ZM32.3287 22.2598C31.4831 22.7476 30.8522 23.5235 30.6258 24.5427L34.5305 25.4104C34.5177 25.4682 34.4855 25.549 34.4268 25.6261C34.3706 25.7 34.3228 25.7273 34.3276 25.7246L32.3287 22.2598ZM30.6275 24.5349C30.4743 25.2118 30.4375 26.4178 30.4375 27.8594H34.4375C34.4375 27.122 34.449 26.5405 34.4703 26.1053C34.4809 25.8879 34.4933 25.7191 34.5062 25.5931C34.52 25.4584 34.5306 25.4101 34.5288 25.4182L30.6275 24.5349ZM30.4375 27.8594V34H34.4375V27.8594H30.4375ZM32.4375 32H27.7031V36H32.4375V32ZM29.7031 34V18.4492H25.7031V34H29.7031ZM27.7031 20.4492H32.4375V16.4492H27.7031V20.4492ZM47.0273 26.5V28.5H49.0273V26.5H47.0273ZM40.8984 26.5V24.5H38.8984V26.5H40.8984ZM42.3516 31.1289L40.5326 30.2974L40.5271 30.3095L40.5217 30.3216L42.3516 31.1289ZM42.5391 27.5078V25.5078H40.5391V27.5078H42.5391ZM47.0273 27.5078H49.0273V25.5078H47.0273V27.5078ZM46.8398 30.8711L44.8961 30.3999L44.8928 30.4138L44.8896 30.4279L46.8398 30.8711ZM44.2969 33.8477L45.0796 35.6882L45.0897 35.6838L44.2969 33.8477ZM37.2891 32.6641L35.7507 33.9421L35.7613 33.9549L35.7722 33.9676L37.2891 32.6641ZM36.4102 31L34.4789 31.5199L34.4806 31.5262L36.4102 31ZM36.7148 20.6055L38.5249 21.4562L38.5281 21.4493L36.7148 20.6055ZM38.5195 18.8008L39.4073 20.593L39.414 20.5897L39.4206 20.5863L38.5195 18.8008ZM44.6836 18.9297L43.6661 20.6515L43.6753 20.657L43.6846 20.6623L44.6836 18.9297ZM46.5 20.9336L44.6503 21.6942L44.6546 21.7047L44.659 21.7151L46.5 20.9336ZM42.2812 23.9688V25.9688H44.2812V23.9688H42.2812ZM41.0156 21.2266L42.8726 21.9693L42.8775 21.957L42.8823 21.9445L41.0156 21.2266ZM40.8984 23.9688H38.8984V25.9688H40.8984V23.9688ZM47.0273 24.5H40.8984V28.5H47.0273V24.5ZM38.8984 26.5V29.8633H42.8984V26.5H38.8984ZM38.8984 29.8633C38.8984 30.2541 38.9121 30.6244 38.949 30.9532C38.9796 31.2267 39.0459 31.6851 39.2619 32.1171L42.8396 30.3282C42.9095 30.468 42.9312 30.5661 42.9323 30.5712C42.9357 30.5859 42.9309 30.5688 42.9241 30.5077C42.9101 30.3834 42.8984 30.1756 42.8984 29.8633H38.8984ZM39.2619 32.1171C39.7998 33.1928 40.836 33.5273 41.6367 33.5273V29.5273C41.7165 29.5273 41.9337 29.5403 42.1961 29.6767C42.4853 29.8271 42.7081 30.0652 42.8396 30.3282L39.2619 32.1171ZM41.6367 33.5273C42.0525 33.5273 42.5621 33.4515 43.0587 33.1747C43.583 32.8824 43.9592 32.4397 44.1814 31.9362L40.5217 30.3216C40.6267 30.0837 40.8252 29.8402 41.1112 29.6808C41.3696 29.5368 41.5803 29.5273 41.6367 29.5273V33.5273ZM44.1705 31.9604C44.3605 31.5449 44.4378 31.1056 44.4781 30.7684C44.522 30.4009 44.5391 29.9916 44.5391 29.5586H40.5391C40.5391 29.899 40.5249 30.1382 40.5063 30.2941C40.4972 30.3706 40.489 30.4094 40.4868 30.4189C40.4835 30.4327 40.4934 30.3831 40.5326 30.2974L44.1705 31.9604ZM44.5391 29.5586V27.5078H40.5391V29.5586H44.5391ZM42.5391 29.5078H47.0273V25.5078H42.5391V29.5078ZM45.0273 27.5078V28.6562H49.0273V27.5078H45.0273ZM45.0273 28.6562C45.0273 29.5643 44.9651 30.1155 44.8961 30.3999L48.7835 31.3423C48.9646 30.5954 49.0273 29.67 49.0273 28.6562H45.0273ZM44.8896 30.4279C44.8553 30.5787 44.7397 30.8712 44.4038 31.3133L47.5884 33.7336C48.1431 33.0038 48.59 32.1948 48.7901 31.3143L44.8896 30.4279ZM44.4038 31.3133C44.1704 31.6203 43.8814 31.8486 43.504 32.0115L45.0897 35.6838C46.0873 35.253 46.9311 34.5985 47.5884 33.7336L44.4038 31.3133ZM43.5141 32.0072C43.1594 32.1581 42.592 32.2812 41.7305 32.2812V36.2812C42.9315 36.2812 44.075 36.1154 45.0796 35.6881L43.5141 32.0072ZM41.7305 32.2812C40.9199 32.2812 40.2844 32.1638 39.7885 31.9766L38.3756 35.7187C39.4109 36.1096 40.541 36.2812 41.7305 36.2812V32.2812ZM39.7885 31.9766C39.2617 31.7777 38.9706 31.5522 38.8059 31.3605L35.7722 33.9676C36.4669 34.7759 37.3711 35.3395 38.3756 35.7187L39.7885 31.9766ZM38.8274 31.386C38.5772 31.0848 38.4242 30.7836 38.3397 30.4738L34.4806 31.5262C34.7243 32.4195 35.1572 33.2277 35.7507 33.9421L38.8274 31.386ZM38.3414 30.4801C38.2461 30.1263 38.1641 29.452 38.1641 28.3516H34.1641C34.1641 29.5636 34.246 30.655 34.4789 31.5199L38.3414 30.4801ZM38.1641 28.3516V23.8164H34.1641V28.3516H38.1641ZM38.1641 23.8164C38.1641 22.5999 38.3342 21.8619 38.5249 21.4562L34.9048 19.7547C34.3611 20.9115 34.1641 22.3141 34.1641 23.8164H38.1641ZM38.5281 21.4493C38.6893 21.103 38.9473 20.8208 39.4073 20.593L37.6318 17.0086C36.4199 17.6089 35.4748 18.5298 34.9016 19.7617L38.5281 21.4493ZM39.4206 20.5863C39.9356 20.3264 40.5794 20.168 41.4023 20.168V16.168C40.0534 16.168 38.7753 16.4314 37.6184 17.0153L39.4206 20.5863ZM41.4023 20.168C42.4872 20.168 43.2006 20.3764 43.6661 20.6515L45.7011 17.2078C44.4479 16.4673 42.9737 16.168 41.4023 16.168V20.168ZM43.6846 20.6623C44.2121 20.9664 44.493 21.3116 44.6503 21.6942L48.3497 20.173C47.8195 18.8837 46.8895 17.8929 45.6826 17.1971L43.6846 20.6623ZM44.659 21.7151C44.8579 22.1837 45.0273 23.0409 45.0273 24.4375H49.0273C49.0273 22.8185 48.8452 21.3397 48.341 20.152L44.659 21.7151ZM45.0273 24.4375V26.5H49.0273V24.4375H45.0273ZM44.2812 23.9688V22.832H40.2812V23.9688H44.2812ZM44.2812 22.832C44.2812 22.4007 44.27 22.0096 44.2422 21.674C44.2184 21.3855 44.1712 20.9698 44.0301 20.5849L40.2746 21.9619C40.2384 21.8633 40.2321 21.8093 40.2374 21.8398C40.2409 21.8607 40.2483 21.9124 40.2558 22.0037C40.271 22.1877 40.2812 22.4586 40.2812 22.832H44.2812ZM44.0301 20.5849C43.8684 20.1438 43.5673 19.6802 43.0655 19.3457C42.5736 19.0178 42.0511 18.9219 41.625 18.9219V22.9219C41.4645 22.9219 41.1627 22.8846 40.8467 22.6739C40.5206 22.4565 40.3504 22.1687 40.2746 21.9619L44.0301 20.5849ZM41.625 18.9219C40.9598 18.9219 39.668 19.1591 39.1489 20.5086L42.8823 21.9445C42.7339 22.3305 42.4444 22.6252 42.121 22.7869C41.8492 22.9228 41.6432 22.9219 41.625 22.9219V18.9219ZM39.1587 20.4838C38.9903 20.9046 38.9514 21.3778 38.933 21.6288C38.9085 21.9653 38.8984 22.3721 38.8984 22.832H42.8984C42.8984 22.417 42.9079 22.1187 42.9224 21.92C42.9297 21.8205 42.9366 21.7691 42.9391 21.7536C42.9451 21.7161 42.9342 21.8153 42.8726 21.9693L39.1587 20.4838ZM38.8984 22.832V23.9688H42.8984V22.832H38.8984ZM40.8984 25.9688H42.2812V21.9688H40.8984V25.9688ZM58.3711 18.4492L60.3511 18.7312L60.6761 16.4492H58.3711V18.4492ZM56.1562 34V36H57.8916L58.1363 34.282L56.1562 34ZM49.9805 34L48.0035 34.3024L48.2632 36H49.9805V34ZM47.6016 18.4492V16.4492H45.2723L45.6246 18.7517L47.6016 18.4492ZM51.832 18.4492L53.8185 18.2173L53.6121 16.4492H51.832V18.4492ZM53.1562 29.793L51.1697 30.0249L55.1414 30.0364L53.1562 29.793ZM53.6719 23.6992L51.6779 23.5438L51.6775 23.5499L53.6719 23.6992ZM54.1406 18.4492V16.4492H52.3331L52.1508 18.2475L54.1406 18.4492ZM56.3911 18.1672L54.1762 33.718L58.1363 34.282L60.3511 18.7312L56.3911 18.1672ZM56.1562 32H49.9805V36H56.1562V32ZM51.9575 33.6976L49.5786 18.1468L45.6246 18.7517L48.0035 34.3024L51.9575 33.6976ZM47.6016 20.4492H51.832V16.4492H47.6016V20.4492ZM49.8455 18.6811L51.1697 30.0249L55.1428 29.5611L53.8185 18.2173L49.8455 18.6811ZM55.1414 30.0364C55.25 29.1509 55.4254 27.0662 55.6663 23.8486L51.6775 23.5499C51.434 26.801 51.2657 28.7787 51.1711 29.5495L55.1414 30.0364ZM55.6658 23.8546C55.8053 22.0644 55.9602 20.3299 56.1304 18.6509L52.1508 18.2475C51.9773 19.9592 51.8197 21.7246 51.6779 23.5438L55.6658 23.8546ZM54.1406 20.4492H58.3711V16.4492H54.1406V20.4492ZM63.9609 15.0273H65.9609V13.0273H63.9609V15.0273ZM63.9609 17.5V19.5H65.9609V17.5H63.9609ZM59.0859 17.5H57.0859V19.5H59.0859V17.5ZM59.0859 15.0273V13.0273H57.0859V15.0273H59.0859ZM63.9609 18.4492H65.9609V16.4492H63.9609V18.4492ZM63.9609 34V36H65.9609V34H63.9609ZM59.0859 34H57.0859V36H59.0859V34ZM59.0859 18.4492V16.4492H57.0859V18.4492H59.0859ZM61.9609 15.0273V17.5H65.9609V15.0273H61.9609ZM63.9609 15.5H59.0859V19.5H63.9609V15.5ZM61.0859 17.5V15.0273H57.0859V17.5H61.0859ZM59.0859 17.0273H63.9609V13.0273H59.0859V17.0273ZM61.9609 18.4492V34H65.9609V18.4492H61.9609ZM63.9609 32H59.0859V36H63.9609V32ZM61.0859 34V18.4492H57.0859V34H61.0859ZM59.0859 20.4492H63.9609V16.4492H59.0859V20.4492ZM76.3945 26.5V28.5H78.3945V26.5H76.3945ZM70.2656 26.5V24.5H68.2656V26.5H70.2656ZM71.7188 31.1289L69.8998 30.2974L69.8943 30.3095L69.8889 30.3216L71.7188 31.1289ZM71.9062 27.5078V25.5078H69.9062V27.5078H71.9062ZM76.3945 27.5078H78.3945V25.5078H76.3945V27.5078ZM76.207 30.8711L74.2633 30.3999L74.2599 30.4138L74.2568 30.4279L76.207 30.8711ZM73.6641 33.8477L74.4468 35.6882L74.4569 35.6838L73.6641 33.8477ZM66.6562 32.6641L65.1179 33.9421L65.1285 33.9549L65.1394 33.9676L66.6562 32.6641ZM65.7773 31L63.8461 31.5199L63.8478 31.5262L65.7773 31ZM66.082 20.6055L67.8921 21.4562L67.8953 21.4493L66.082 20.6055ZM67.8867 18.8008L68.7744 20.593L68.7811 20.5897L68.7878 20.5863L67.8867 18.8008ZM74.0508 18.9297L73.0333 20.6515L73.0425 20.657L73.0518 20.6623L74.0508 18.9297ZM75.8672 20.9336L74.0175 21.6942L74.0218 21.7047L74.0262 21.7151L75.8672 20.9336ZM71.6484 23.9688V25.9688H73.6484V23.9688H71.6484ZM70.3828 21.2266L72.2398 21.9693L72.2447 21.957L72.2495 21.9445L70.3828 21.2266ZM70.2656 23.9688H68.2656V25.9688H70.2656V23.9688ZM76.3945 24.5H70.2656V28.5H76.3945V24.5ZM68.2656 26.5V29.8633H72.2656V26.5H68.2656ZM68.2656 29.8633C68.2656 30.2541 68.2793 30.6244 68.3162 30.9532C68.3468 31.2267 68.4131 31.6851 68.6291 32.1171L72.2068 30.3282C72.2767 30.468 72.2983 30.5661 72.2995 30.5712C72.3029 30.5859 72.2981 30.5688 72.2913 30.5077C72.2773 30.3834 72.2656 30.1756 72.2656 29.8633H68.2656ZM68.6291 32.1171C69.167 33.1928 70.2031 33.5273 71.0039 33.5273V29.5273C71.0837 29.5273 71.3009 29.5403 71.5633 29.6767C71.8524 29.8271 72.0753 30.0652 72.2068 30.3282L68.6291 32.1171ZM71.0039 33.5273C71.4197 33.5273 71.9293 33.4515 72.4259 33.1747C72.9502 32.8824 73.3264 32.4397 73.5486 31.9362L69.8889 30.3216C69.9939 30.0837 70.1924 29.8402 70.4784 29.6808C70.7367 29.5368 70.9475 29.5273 71.0039 29.5273V33.5273ZM73.5377 31.9604C73.7276 31.5449 73.805 31.1056 73.8453 30.7684C73.8891 30.4009 73.9062 29.9916 73.9062 29.5586H69.9062C69.9062 29.899 69.8921 30.1382 69.8735 30.2941C69.8644 30.3706 69.8562 30.4094 69.8539 30.4189C69.8507 30.4327 69.8606 30.3831 69.8998 30.2974L73.5377 31.9604ZM73.9062 29.5586V27.5078H69.9062V29.5586H73.9062ZM71.9062 29.5078H76.3945V25.5078H71.9062V29.5078ZM74.3945 27.5078V28.6562H78.3945V27.5078H74.3945ZM74.3945 28.6562C74.3945 29.5643 74.3323 30.1155 74.2633 30.3999L78.1507 31.3423C78.3318 30.5954 78.3945 29.67 78.3945 28.6562H74.3945ZM74.2568 30.4279C74.2225 30.5787 74.1069 30.8712 73.771 31.3133L76.9556 33.7336C77.5103 33.0038 77.9572 32.1948 78.1573 31.3143L74.2568 30.4279ZM73.771 31.3133C73.5376 31.6203 73.2486 31.8486 72.8712 32.0115L74.4569 35.6838C75.4545 35.253 76.2983 34.5985 76.9556 33.7336L73.771 31.3133ZM72.8813 32.0072C72.5266 32.1581 71.9592 32.2812 71.0977 32.2812V36.2812C72.2986 36.2812 73.4422 36.1154 74.4468 35.6881L72.8813 32.0072ZM71.0977 32.2812C70.2871 32.2812 69.6516 32.1638 69.1556 31.9766L67.7428 35.7187C68.7781 36.1096 69.9082 36.2812 71.0977 36.2812V32.2812ZM69.1556 31.9766C68.6289 31.7777 68.3378 31.5522 68.1731 31.3605L65.1394 33.9676C65.8341 34.7759 66.7383 35.3395 67.7428 35.7187L69.1556 31.9766ZM68.1946 31.386C67.9444 31.0848 67.7914 30.7836 67.7069 30.4738L63.8478 31.5262C64.0914 32.4195 64.5244 33.2277 65.1179 33.9421L68.1946 31.386ZM67.7086 30.4801C67.6133 30.1263 67.5312 29.452 67.5312 28.3516H63.5312C63.5312 29.5636 63.6132 30.655 63.8461 31.5199L67.7086 30.4801ZM67.5312 28.3516V23.8164H63.5312V28.3516H67.5312ZM67.5312 23.8164C67.5312 22.5999 67.7014 21.8619 67.8921 21.4562L64.272 19.7547C63.7283 20.9115 63.5312 22.3141 63.5312 23.8164H67.5312ZM67.8953 21.4493C68.0564 21.103 68.3145 20.8208 68.7744 20.593L66.999 17.0086C65.7871 17.6089 64.842 18.5298 64.2687 19.7617L67.8953 21.4493ZM68.7878 20.5863C69.3028 20.3264 69.9466 20.168 70.7695 20.168V16.168C69.4206 16.168 68.1425 16.4314 66.9856 17.0153L68.7878 20.5863ZM70.7695 20.168C71.8544 20.168 72.5678 20.3764 73.0333 20.6515L75.0682 17.2078C73.815 16.4673 72.3409 16.168 70.7695 16.168V20.168ZM73.0518 20.6623C73.5793 20.9664 73.8602 21.3116 74.0175 21.6942L77.7169 20.173C77.1867 18.8837 76.2567 17.8929 75.0498 17.1971L73.0518 20.6623ZM74.0262 21.7151C74.2251 22.1837 74.3945 23.0409 74.3945 24.4375H78.3945C78.3945 22.8185 78.2124 21.3397 77.7082 20.152L74.0262 21.7151ZM74.3945 24.4375V26.5H78.3945V24.4375H74.3945ZM73.6484 23.9688V22.832H69.6484V23.9688H73.6484ZM73.6484 22.832C73.6484 22.4007 73.6372 22.0096 73.6094 21.674C73.5855 21.3855 73.5384 20.9698 73.3973 20.5849L69.6418 21.9619C69.6056 21.8633 69.5993 21.8093 69.6045 21.8398C69.6081 21.8607 69.6155 21.9124 69.623 22.0037C69.6382 22.1877 69.6484 22.4586 69.6484 22.832H73.6484ZM73.3973 20.5849C73.2355 20.1438 72.9345 19.6802 72.4326 19.3457C71.9408 19.0178 71.4183 18.9219 70.9922 18.9219V22.9219C70.8317 22.9219 70.5299 22.8846 70.2138 22.6739C69.8878 22.4565 69.7176 22.1687 69.6418 21.9619L73.3973 20.5849ZM70.9922 18.9219C70.3269 18.9219 69.0351 19.1591 68.5161 20.5086L72.2495 21.9445C72.101 22.3305 71.8116 22.6252 71.4882 22.7869C71.2164 22.9228 71.0103 22.9219 70.9922 22.9219V18.9219ZM68.5259 20.4838C68.3575 20.9046 68.3186 21.3778 68.3002 21.6288C68.2757 21.9653 68.2656 22.3721 68.2656 22.832H72.2656C72.2656 22.417 72.2751 22.1187 72.2896 21.92C72.2969 21.8205 72.3038 21.7691 72.3063 21.7536C72.3123 21.7161 72.3014 21.8153 72.2398 21.9693L68.5259 20.4838ZM68.2656 22.832V23.9688H72.2656V22.832H68.2656ZM70.2656 25.9688H71.6484V21.9688H70.2656V25.9688ZM93.2461 18.4492L95.2315 18.6901L95.5034 16.4492H93.2461V18.4492ZM91.3594 34V36H93.1314L93.3448 34.2409L91.3594 34ZM86.2148 34L84.2364 34.2931L84.4893 36H86.2148V34ZM85.2422 26.5L87.2283 26.2649L83.2506 26.3169L85.2422 26.5ZM84.7148 30.625L82.7408 30.3034L82.7388 30.3162L84.7148 30.625ZM84.1875 34V36H85.8993L86.1635 34.3088L84.1875 34ZM79.043 34L77.0594 34.2556L77.2842 36H79.043V34ZM77.0391 18.4492V16.4492H74.7648L75.0555 18.7048L77.0391 18.4492ZM81.1172 18.4492L83.1113 18.2958L82.9693 16.4492H81.1172V18.4492ZM82.1484 27.3438L80.1624 27.5797L84.1415 27.5098L82.1484 27.3438ZM83.2031 18.4492V16.4492H81.4328L81.2179 18.2065L83.2031 18.4492ZM87.1289 18.4492L89.1173 18.2344L88.9245 16.4492H87.1289V18.4492ZM88.0898 27.3438L86.1014 27.5586L90.0866 27.458L88.0898 27.3438ZM89.168 18.4492V16.4492H87.4809L87.1966 18.1122L89.168 18.4492ZM91.2607 18.2083L89.3739 33.7591L93.3448 34.2409L95.2315 18.6901L91.2607 18.2083ZM91.3594 32H86.2148V36H91.3594V32ZM88.1933 33.7069C87.9161 31.8359 87.5944 29.3574 87.2283 26.2649L83.2561 26.7351C83.6243 29.8457 83.9511 32.3673 84.2364 34.2931L88.1933 33.7069ZM83.2506 26.3169C83.13 27.6284 82.9602 28.9572 82.7409 30.3034L86.6888 30.9466C86.9226 29.5115 87.1044 28.0903 87.2338 26.6831L83.2506 26.3169ZM82.7388 30.3162L82.2115 33.6912L86.1635 34.3088L86.6909 30.9338L82.7388 30.3162ZM84.1875 32H79.043V36H84.1875V32ZM81.0266 33.7444L79.0227 18.1936L75.0555 18.7048L77.0594 34.2556L81.0266 33.7444ZM77.0391 20.4492H81.1172V16.4492H77.0391V20.4492ZM79.1231 18.6026C79.1585 19.0635 79.511 22.0967 80.1624 27.5797L84.1345 27.1078C83.4734 21.5439 83.1383 18.6474 83.1113 18.2958L79.1231 18.6026ZM84.1415 27.5098C84.1842 26.9976 84.5281 24.0918 85.1883 18.692L81.2179 18.2065C80.5657 23.541 80.2064 26.5649 80.1553 27.1777L84.1415 27.5098ZM83.2031 20.4492H87.1289V16.4492H83.2031V20.4492ZM85.1405 18.664L86.1014 27.5586L90.0783 27.1289L89.1173 18.2344L85.1405 18.664ZM90.0866 27.458C90.2297 24.9573 90.5781 22.0692 91.1394 18.7862L87.1966 18.1122C86.6172 21.5011 86.2469 24.5427 86.0931 27.2295L90.0866 27.458ZM89.168 20.4492H93.2461V16.4492H89.168V20.4492Z" fill="#FF2626" mask="url(#path-1-outside-1_151_100)"/>
</g>
<defs>
<filter id="filter0_d_151_100" x="0.796875" y="0.0273438" width="107.449" height="49.2539" filterUnits="userSpaceOnUse" color-interpolation-filters="sRGB">
<feFlood flood-opacity="0" result="BackgroundImageFix"/>
<feColorMatrix in="SourceAlpha" type="matrix" values="0 0 0 0 0 0 0 0 0 0 0 0 0 0 0 0 0 0 127 0" result="hardAlpha"/>
<feOffset/>
<feGaussianBlur stdDeviation="7.5"/>
<feComposite in2="hardAlpha" operator="out"/>
<feColorMatrix type="matrix" values="0 0 0 0 0.98 0 0 0 0 1 0 0 0 0 0 0 0 0 0.5 0"/>
<feBlend mode="normal" in2="BackgroundImageFix" result="effect1_dropShadow_151_100"/>
<feBlend mode="normal" in="SourceGraphic" in2="effect1_dropShadow_151_100" result="shape"/>
</filter>
</defs>
</svg>
