<svg width="123" height="22" viewBox="0 0 123 22" fill="none" xmlns="http://www.w3.org/2000/svg">
<path fill-rule="evenodd" clip-rule="evenodd" d="M1.03629 9.65918C5.05717 7.89601 7.74492 6.75641 9.09954 6.19735C12.9269 4.6062 13.7225 4.32668 14.2385 4.30518C14.346 4.30518 14.6041 4.32668 14.7761 4.45569C14.9051 4.5632 14.9481 4.71371 14.9696 4.82122C14.9911 4.92873 15.0126 5.16526 14.9911 5.35877C14.7761 7.53048 13.8945 12.8415 13.4214 15.2712C13.2279 16.3033 12.8409 16.6473 12.4754 16.6903C11.6798 16.7548 11.0562 16.1528 10.2822 15.6582C9.07804 14.8627 8.38998 14.3681 7.20737 13.594C5.85274 12.691 6.73432 12.1964 7.50839 11.4008C7.70191 11.1858 11.2497 7.98202 11.3143 7.68099C11.3143 7.63799 11.3358 7.50898 11.2497 7.44447C11.1637 7.37996 11.0562 7.40146 10.9702 7.42297C10.8412 7.44447 8.90602 8.73459 5.14317 11.2718C4.58412 11.6589 4.08958 11.8309 3.63803 11.8309C3.14349 11.8309 2.1974 11.5514 1.48783 11.3148C0.627752 11.0353 -0.0603123 10.8848 0.00419369 10.4117C0.0471977 10.1752 0.39123 9.9172 1.03629 9.65918Z" fill="#00FFF0"/>
<path d="M26.2832 20.6299V4.11523H30.6602V6.05762H28.6299V18.6875H30.6602V20.6299H26.2832ZM41.5762 7.66602V9.63477H39.8887V13.3965C39.8887 14.1582 39.9033 14.6035 39.9326 14.7324C39.9678 14.8555 40.041 14.958 40.1523 15.04C40.2695 15.1221 40.4102 15.1631 40.5742 15.1631C40.8027 15.1631 41.1338 15.084 41.5674 14.9258L41.7783 16.8418C41.2041 17.0879 40.5537 17.2109 39.8271 17.2109C39.3818 17.2109 38.9805 17.1377 38.623 16.9912C38.2656 16.8389 38.002 16.6455 37.832 16.4111C37.668 16.1709 37.5537 15.8486 37.4893 15.4443C37.4365 15.1572 37.4102 14.5771 37.4102 13.7041V9.63477H36.2764V7.66602H37.4102V5.81152L39.8887 4.37012V7.66602H41.5762ZM48.6953 14.0293L51.1562 14.4424C50.8398 15.3447 50.3389 16.0332 49.6533 16.5078C48.9736 16.9766 48.1211 17.2109 47.0957 17.2109C45.4727 17.2109 44.2715 16.6807 43.4922 15.6201C42.877 14.7705 42.5693 13.6982 42.5693 12.4033C42.5693 10.8564 42.9736 9.64648 43.7822 8.77344C44.5908 7.89453 45.6133 7.45508 46.8496 7.45508C48.2383 7.45508 49.334 7.91504 50.1367 8.83496C50.9395 9.74902 51.3232 11.1523 51.2881 13.0449H45.1006C45.1182 13.7773 45.3174 14.3486 45.6982 14.7588C46.0791 15.1631 46.5537 15.3652 47.1221 15.3652C47.5088 15.3652 47.834 15.2598 48.0977 15.0488C48.3613 14.8379 48.5605 14.498 48.6953 14.0293ZM48.8359 11.5332C48.8184 10.8184 48.6338 10.2764 48.2822 9.90723C47.9307 9.53223 47.5029 9.34473 46.999 9.34473C46.46 9.34473 46.0146 9.54102 45.6631 9.93359C45.3115 10.3262 45.1387 10.8594 45.1445 11.5332H48.8359ZM53.3096 17V4.11523H55.7793V17H53.3096ZM63.7246 14.0293L66.1855 14.4424C65.8691 15.3447 65.3682 16.0332 64.6826 16.5078C64.0029 16.9766 63.1504 17.2109 62.125 17.2109C60.502 17.2109 59.3008 16.6807 58.5215 15.6201C57.9062 14.7705 57.5986 13.6982 57.5986 12.4033C57.5986 10.8564 58.0029 9.64648 58.8115 8.77344C59.6201 7.89453 60.6426 7.45508 61.8789 7.45508C63.2676 7.45508 64.3633 7.91504 65.166 8.83496C65.9688 9.74902 66.3525 11.1523 66.3174 13.0449H60.1299C60.1475 13.7773 60.3467 14.3486 60.7275 14.7588C61.1084 15.1631 61.583 15.3652 62.1514 15.3652C62.5381 15.3652 62.8633 15.2598 63.127 15.0488C63.3906 14.8379 63.5898 14.498 63.7246 14.0293ZM63.8652 11.5332C63.8477 10.8184 63.6631 10.2764 63.3115 9.90723C62.96 9.53223 62.5322 9.34473 62.0283 9.34473C61.4893 9.34473 61.0439 9.54102 60.6924 9.93359C60.3408 10.3262 60.168 10.8594 60.1738 11.5332H63.8652ZM68.1104 17.6152L70.9316 17.958C70.9785 18.2861 71.0869 18.5117 71.2568 18.6348C71.4912 18.8105 71.8604 18.8984 72.3643 18.8984C73.0088 18.8984 73.4922 18.8018 73.8145 18.6084C74.0312 18.4795 74.1953 18.2715 74.3066 17.9844C74.3828 17.7793 74.4209 17.4014 74.4209 16.8506V15.4883C73.6826 16.4961 72.751 17 71.626 17C70.3721 17 69.3789 16.4697 68.6465 15.4092C68.0723 14.5713 67.7852 13.5283 67.7852 12.2803C67.7852 10.7158 68.1602 9.52051 68.9102 8.69434C69.666 7.86816 70.6035 7.45508 71.7227 7.45508C72.877 7.45508 73.8291 7.96191 74.5791 8.97559V7.66602H76.8906V16.042C76.8906 17.1436 76.7998 17.9668 76.6182 18.5117C76.4365 19.0566 76.1816 19.4844 75.8535 19.7949C75.5254 20.1055 75.0859 20.3486 74.5352 20.5244C73.9902 20.7002 73.2988 20.7881 72.4609 20.7881C70.8789 20.7881 69.7568 20.5156 69.0947 19.9707C68.4326 19.4316 68.1016 18.7461 68.1016 17.9141C68.1016 17.832 68.1045 17.7324 68.1104 17.6152ZM70.3164 12.1396C70.3164 13.1299 70.5068 13.8564 70.8877 14.3193C71.2744 14.7764 71.749 15.0049 72.3115 15.0049C72.915 15.0049 73.4248 14.7705 73.8408 14.3018C74.2568 13.8271 74.4648 13.127 74.4648 12.2012C74.4648 11.2344 74.2656 10.5166 73.8672 10.0479C73.4688 9.5791 72.9648 9.34473 72.3555 9.34473C71.7637 9.34473 71.2744 9.57617 70.8877 10.0391C70.5068 10.4961 70.3164 11.1963 70.3164 12.1396ZM81.707 17H79.2373V7.66602H81.5312V8.99316C81.9238 8.36621 82.2754 7.95313 82.5859 7.75391C82.9023 7.55469 83.2598 7.45508 83.6582 7.45508C84.2207 7.45508 84.7627 7.61035 85.2842 7.9209L84.5195 10.0742C84.1035 9.80469 83.7168 9.66992 83.3594 9.66992C83.0137 9.66992 82.7207 9.7666 82.4805 9.95996C82.2402 10.1475 82.0498 10.4902 81.9092 10.9883C81.7744 11.4863 81.707 12.5293 81.707 14.1172V17ZM88.2021 10.5137L85.9609 10.1094C86.2129 9.20703 86.6465 8.53906 87.2617 8.10547C87.877 7.67188 88.791 7.45508 90.0039 7.45508C91.1055 7.45508 91.9258 7.58691 92.4648 7.85059C93.0039 8.1084 93.3818 8.43945 93.5986 8.84375C93.8213 9.24219 93.9326 9.97754 93.9326 11.0498L93.9062 13.9326C93.9062 14.7529 93.9443 15.3594 94.0205 15.752C94.1025 16.1387 94.252 16.5547 94.4688 17H92.0254C91.9609 16.8359 91.8818 16.5928 91.7881 16.2705C91.7471 16.124 91.7178 16.0273 91.7002 15.9805C91.2783 16.3906 90.8271 16.6982 90.3467 16.9033C89.8662 17.1084 89.3535 17.2109 88.8086 17.2109C87.8477 17.2109 87.0889 16.9502 86.5322 16.4287C85.9814 15.9072 85.7061 15.248 85.7061 14.4512C85.7061 13.9238 85.832 13.4551 86.084 13.0449C86.3359 12.6289 86.6875 12.3125 87.1387 12.0957C87.5957 11.873 88.252 11.6797 89.1074 11.5156C90.2617 11.2988 91.0615 11.0967 91.5068 10.9092V10.6631C91.5068 10.1885 91.3896 9.85156 91.1553 9.65234C90.9209 9.44727 90.4785 9.34473 89.8281 9.34473C89.3887 9.34473 89.0459 9.43262 88.7998 9.6084C88.5537 9.77832 88.3545 10.0801 88.2021 10.5137ZM91.5068 12.5176C91.1904 12.623 90.6895 12.749 90.0039 12.8955C89.3184 13.042 88.8701 13.1855 88.6592 13.3262C88.3369 13.5547 88.1758 13.8447 88.1758 14.1963C88.1758 14.542 88.3047 14.8408 88.5625 15.0928C88.8203 15.3447 89.1484 15.4707 89.5469 15.4707C89.9922 15.4707 90.417 15.3242 90.8213 15.0312C91.1201 14.8086 91.3164 14.5361 91.4102 14.2139C91.4746 14.0029 91.5068 13.6016 91.5068 13.0098V12.5176ZM96.1914 7.66602H98.4678V8.94043C99.2822 7.9502 100.252 7.45508 101.377 7.45508C101.975 7.45508 102.493 7.57812 102.933 7.82422C103.372 8.07031 103.732 8.44238 104.014 8.94043C104.424 8.44238 104.866 8.07031 105.341 7.82422C105.815 7.57812 106.322 7.45508 106.861 7.45508C107.547 7.45508 108.127 7.5957 108.602 7.87695C109.076 8.15234 109.431 8.55957 109.665 9.09863C109.835 9.49707 109.92 10.1416 109.92 11.0322V17H107.45V11.665C107.45 10.7393 107.365 10.1416 107.195 9.87207C106.967 9.52051 106.615 9.34473 106.141 9.34473C105.795 9.34473 105.47 9.4502 105.165 9.66113C104.86 9.87207 104.641 10.1826 104.506 10.5928C104.371 10.9971 104.304 11.6387 104.304 12.5176V17H101.834V11.8848C101.834 10.9766 101.79 10.3906 101.702 10.127C101.614 9.86328 101.477 9.66699 101.289 9.53809C101.107 9.40918 100.858 9.34473 100.542 9.34473C100.161 9.34473 99.8184 9.44727 99.5137 9.65234C99.209 9.85742 98.9893 10.1533 98.8545 10.54C98.7256 10.9268 98.6611 11.5684 98.6611 12.4648V17H96.1914V7.66602ZM120.818 4.11523V20.6299H116.441V18.6875H118.472V6.04004H116.441V4.11523H120.818Z" fill="#00FFF0"/>
<path d="M25 19.8477H122.102V21.7373H25V19.8477Z" fill="#00FFF0"/>
</svg>
