<svg width="116" height="21" viewBox="0 0 116 21" fill="none" xmlns="http://www.w3.org/2000/svg">
<path fill-rule="evenodd" clip-rule="evenodd" d="M1.03629 9.65918C5.05717 7.89601 7.74492 6.75641 9.09954 6.19735C12.9269 4.6062 13.7225 4.32668 14.2385 4.30518C14.346 4.30518 14.6041 4.32668 14.7761 4.45569C14.9051 4.5632 14.9481 4.71371 14.9696 4.82122C14.9911 4.92873 15.0126 5.16526 14.9911 5.35877C14.7761 7.53048 13.8945 12.8415 13.4214 15.2712C13.2279 16.3033 12.8409 16.6473 12.4754 16.6903C11.6798 16.7548 11.0562 16.1528 10.2822 15.6582C9.07804 14.8627 8.38998 14.3681 7.20737 13.594C5.85274 12.691 6.73432 12.1964 7.50839 11.4008C7.70191 11.1858 11.2497 7.98202 11.3143 7.68099C11.3143 7.63799 11.3358 7.50898 11.2497 7.44447C11.1637 7.37996 11.0562 7.40146 10.9702 7.42297C10.8412 7.44447 8.90602 8.73459 5.14317 11.2718C4.58412 11.6589 4.08958 11.8309 3.63803 11.8309C3.14349 11.8309 2.1974 11.5514 1.48783 11.3148C0.627752 11.0353 -0.0603123 10.8848 0.00419369 10.4117C0.0471977 10.1752 0.39123 9.9172 1.03629 9.65918Z" fill="#3E3E3E"/>
<path d="M26.2217 20.5771V4.11523H29.7109V5.4248H27.8037V19.2676H29.7109V20.5771H26.2217ZM39.6602 15.585L39.8887 16.9824C39.4434 17.0762 39.0449 17.123 38.6934 17.123C38.1191 17.123 37.6738 17.0322 37.3574 16.8506C37.041 16.6689 36.8184 16.4316 36.6895 16.1387C36.5605 15.8398 36.4961 15.2158 36.4961 14.2666V8.89648H35.3359V7.66602H36.4961V5.35449L38.0693 4.40527V7.66602H39.6602V8.89648H38.0693V14.3545C38.0693 14.8057 38.0957 15.0957 38.1484 15.2246C38.207 15.3535 38.2979 15.4561 38.4209 15.5322C38.5498 15.6084 38.7314 15.6465 38.9658 15.6465C39.1416 15.6465 39.373 15.626 39.6602 15.585ZM47.6055 13.9941L49.2402 14.1963C48.9824 15.1514 48.5049 15.8926 47.8076 16.4199C47.1104 16.9473 46.2197 17.2109 45.1357 17.2109C43.7705 17.2109 42.6865 16.792 41.8838 15.9541C41.0869 15.1104 40.6885 13.9297 40.6885 12.4121C40.6885 10.8418 41.0928 9.62305 41.9014 8.75586C42.71 7.88867 43.7588 7.45508 45.0479 7.45508C46.2959 7.45508 47.3154 7.87988 48.1064 8.72949C48.8975 9.5791 49.293 10.7744 49.293 12.3154C49.293 12.4092 49.29 12.5498 49.2842 12.7373H42.3232C42.3818 13.7627 42.6719 14.5479 43.1934 15.0928C43.7148 15.6377 44.3652 15.9102 45.1445 15.9102C45.7246 15.9102 46.2197 15.7578 46.6299 15.4531C47.04 15.1484 47.3652 14.6621 47.6055 13.9941ZM42.4111 11.4365H47.623C47.5527 10.6514 47.3535 10.0625 47.0254 9.66992C46.5215 9.06055 45.8682 8.75586 45.0654 8.75586C44.3389 8.75586 43.7266 8.99902 43.2285 9.48535C42.7363 9.97168 42.4639 10.6221 42.4111 11.4365ZM51.2002 17V4.11523H52.7822V17H51.2002ZM61.6328 13.9941L63.2676 14.1963C63.0098 15.1514 62.5322 15.8926 61.835 16.4199C61.1377 16.9473 60.2471 17.2109 59.1631 17.2109C57.7979 17.2109 56.7139 16.792 55.9111 15.9541C55.1143 15.1104 54.7158 13.9297 54.7158 12.4121C54.7158 10.8418 55.1201 9.62305 55.9287 8.75586C56.7373 7.88867 57.7861 7.45508 59.0752 7.45508C60.3232 7.45508 61.3428 7.87988 62.1338 8.72949C62.9248 9.5791 63.3203 10.7744 63.3203 12.3154C63.3203 12.4092 63.3174 12.5498 63.3115 12.7373H56.3506C56.4092 13.7627 56.6992 14.5479 57.2207 15.0928C57.7422 15.6377 58.3926 15.9102 59.1719 15.9102C59.752 15.9102 60.2471 15.7578 60.6572 15.4531C61.0674 15.1484 61.3926 14.6621 61.6328 13.9941ZM56.4385 11.4365H61.6504C61.5801 10.6514 61.3809 10.0625 61.0527 9.66992C60.5488 9.06055 59.8955 8.75586 59.0928 8.75586C58.3662 8.75586 57.7539 8.99902 57.2559 9.48535C56.7637 9.97168 56.4912 10.6221 56.4385 11.4365ZM64.9727 17.7734L66.5107 18.002C66.5752 18.4766 66.7539 18.8223 67.0469 19.0391C67.4395 19.332 67.9756 19.4785 68.6553 19.4785C69.3877 19.4785 69.9531 19.332 70.3516 19.0391C70.75 18.7461 71.0195 18.3359 71.1602 17.8086C71.2422 17.4863 71.2803 16.8096 71.2744 15.7783C70.583 16.5928 69.7217 17 68.6904 17C67.4072 17 66.4141 16.5371 65.7109 15.6113C65.0078 14.6855 64.6562 13.5752 64.6562 12.2803C64.6562 11.3896 64.8174 10.5693 65.1396 9.81934C65.4619 9.06348 65.9277 8.48047 66.5371 8.07031C67.1523 7.66016 67.873 7.45508 68.6992 7.45508C69.8008 7.45508 70.709 7.90039 71.4238 8.79102V7.66602H72.8828V15.7344C72.8828 17.1875 72.7334 18.2158 72.4346 18.8193C72.1416 19.4287 71.6729 19.9092 71.0283 20.2607C70.3896 20.6123 69.6016 20.7881 68.6641 20.7881C67.5508 20.7881 66.6514 20.5361 65.9658 20.0322C65.2803 19.5342 64.9492 18.7812 64.9727 17.7734ZM66.2822 12.166C66.2822 13.3906 66.5254 14.2842 67.0117 14.8467C67.498 15.4092 68.1074 15.6904 68.8398 15.6904C69.5664 15.6904 70.1758 15.4121 70.668 14.8555C71.1602 14.293 71.4062 13.4141 71.4062 12.2188C71.4062 11.0762 71.1514 10.2148 70.6416 9.63477C70.1377 9.05469 69.5283 8.76465 68.8135 8.76465C68.1104 8.76465 67.5127 9.05176 67.0205 9.62598C66.5283 10.1943 66.2822 11.041 66.2822 12.166ZM75.2646 17V7.66602H76.6885V9.08105C77.0518 8.41895 77.3857 7.98242 77.6904 7.77148C78.001 7.56055 78.3408 7.45508 78.71 7.45508C79.2432 7.45508 79.7852 7.625 80.3359 7.96484L79.791 9.43262C79.4043 9.2041 79.0176 9.08984 78.6309 9.08984C78.2852 9.08984 77.9746 9.19531 77.6992 9.40625C77.4238 9.61133 77.2275 9.89844 77.1104 10.2676C76.9346 10.8301 76.8467 11.4453 76.8467 12.1133V17H75.2646ZM87.3672 15.8486C86.7812 16.3467 86.2158 16.6982 85.6709 16.9033C85.1318 17.1084 84.5518 17.2109 83.9307 17.2109C82.9053 17.2109 82.1172 16.9619 81.5664 16.4639C81.0156 15.96 80.7402 15.3184 80.7402 14.5391C80.7402 14.082 80.8428 13.666 81.0479 13.291C81.2588 12.9102 81.5312 12.6055 81.8652 12.377C82.2051 12.1484 82.5859 11.9756 83.0078 11.8584C83.3184 11.7764 83.7871 11.6973 84.4141 11.6211C85.6914 11.4688 86.6318 11.2871 87.2354 11.0762C87.2412 10.8594 87.2441 10.7217 87.2441 10.6631C87.2441 10.0186 87.0947 9.56445 86.7959 9.30078C86.3916 8.94336 85.791 8.76465 84.9941 8.76465C84.25 8.76465 83.6992 8.89648 83.3418 9.16016C82.9902 9.41797 82.7295 9.87793 82.5596 10.54L81.0127 10.3291C81.1533 9.66699 81.3848 9.13379 81.707 8.72949C82.0293 8.31934 82.4951 8.00586 83.1045 7.78906C83.7139 7.56641 84.4199 7.45508 85.2227 7.45508C86.0195 7.45508 86.667 7.54883 87.165 7.73633C87.6631 7.92383 88.0293 8.16113 88.2637 8.44824C88.498 8.72949 88.6621 9.08691 88.7559 9.52051C88.8086 9.79004 88.835 10.2764 88.835 10.9795V13.0889C88.835 14.5596 88.8672 15.4912 88.9316 15.8838C89.002 16.2705 89.1367 16.6426 89.3359 17H87.6836C87.5195 16.6719 87.4141 16.2881 87.3672 15.8486ZM87.2354 12.3154C86.6611 12.5498 85.7998 12.749 84.6514 12.9131C84.001 13.0068 83.541 13.1123 83.2715 13.2295C83.002 13.3467 82.7939 13.5195 82.6475 13.748C82.501 13.9707 82.4277 14.2197 82.4277 14.4951C82.4277 14.917 82.5859 15.2686 82.9023 15.5498C83.2246 15.8311 83.6934 15.9717 84.3086 15.9717C84.918 15.9717 85.46 15.8398 85.9346 15.5762C86.4092 15.3066 86.7578 14.9404 86.9805 14.4775C87.1504 14.1201 87.2354 13.5928 87.2354 12.8955V12.3154ZM91.2959 17V7.66602H92.7109V8.97559C93.0039 8.51855 93.3936 8.15234 93.8799 7.87695C94.3662 7.5957 94.9199 7.45508 95.541 7.45508C96.2324 7.45508 96.7979 7.59863 97.2373 7.88574C97.6826 8.17285 97.9961 8.57422 98.1777 9.08984C98.916 8 99.877 7.45508 101.061 7.45508C101.986 7.45508 102.698 7.71289 103.196 8.22852C103.694 8.73828 103.943 9.52637 103.943 10.5928V17H102.37V11.1201C102.37 10.4873 102.317 10.0332 102.212 9.75781C102.112 9.47656 101.928 9.25098 101.658 9.08105C101.389 8.91113 101.072 8.82617 100.709 8.82617C100.053 8.82617 99.5078 9.0459 99.0742 9.48535C98.6406 9.91895 98.4238 10.6162 98.4238 11.5771V17H96.8418V10.9355C96.8418 10.2324 96.7129 9.70508 96.4551 9.35352C96.1973 9.00195 95.7754 8.82617 95.1895 8.82617C94.7441 8.82617 94.3311 8.94336 93.9502 9.17773C93.5752 9.41211 93.3027 9.75488 93.1328 10.2061C92.9629 10.6572 92.8779 11.3076 92.8779 12.1572V17H91.2959ZM113.945 20.5771H110.456V19.2676H112.363V5.4248H110.456V4.11523H113.945V20.5771Z" fill="#3E3E3E"/>
</svg>
