<svg width="263" height="57" viewBox="0 0 263 57" fill="none" xmlns="http://www.w3.org/2000/svg">
<g filter="url(#filter0_i_273_3437)">
<mask id="path-1-inside-1_273_3437" fill="white">
<path d="M0 5C0 2.23858 2.23858 0 5 0H258C260.761 0 263 2.23858 263 5V52C263 54.7614 260.761 57 258 57H4.99999C2.23857 57 0 54.7614 0 52V5Z"/>
</mask>
<path d="M0 5C0 2.23858 2.23858 0 5 0H258C260.761 0 263 2.23858 263 5V52C263 54.7614 260.761 57 258 57H4.99999C2.23857 57 0 54.7614 0 52V5Z" fill="url(#paint0_linear_273_3437)"/>
<path d="M5 2H258V-2H5V2ZM261 5V52H265V5H261ZM258 55H4.99999V59H258V55ZM2 52V5H-2V52H2ZM4.99999 55C3.34314 55 2 53.6569 2 52H-2C-2 55.866 1.134 59 4.99999 59V55ZM261 52C261 53.6569 259.657 55 258 55V59C261.866 59 265 55.866 265 52H261ZM258 2C259.657 2 261 3.34314 261 5H265C265 1.13401 261.866 -2 258 -2V2ZM5 -2C1.13401 -2 -2 1.13401 -2 5H2C2 3.34315 3.34315 2 5 2V-2Z" fill="url(#paint1_linear_273_3437)" mask="url(#path-1-inside-1_273_3437)"/>
<g filter="url(#filter1_d_273_3437)">
<mask id="path-3-outside-2_273_3437" maskUnits="userSpaceOnUse" x="43" y="15" width="182" height="25" fill="black">
<rect fill="white" x="43" y="15" width="182" height="25"/>
<path d="M61.2745 17.9L60.4045 22.1H54.7345L51.3745 38H46.7845L50.1445 22.1H44.5345L45.4045 17.9H61.2745ZM59.7627 30.32C60.9027 24.95 63.8127 22.73 68.7927 22.73C73.8327 22.73 75.7527 24.95 74.6127 30.32L74.5527 30.68C73.4127 36.05 70.5327 38.27 65.4927 38.27C60.5127 38.27 58.5627 36.05 59.7027 30.68L59.7627 30.32ZM64.3527 30.56C63.7527 33.38 64.4127 34.19 66.3627 34.19C68.3727 34.19 69.3327 33.38 69.9327 30.56L69.9627 30.44C70.5627 27.62 69.9327 26.81 67.9227 26.81C65.9727 26.81 64.9827 27.62 64.3827 30.44L64.3527 30.56ZM102.279 34.22C103.629 34.22 104.649 34.1 106.239 33.83L105.429 37.58C103.779 38 102.069 38.27 100.389 38.27C95.6493 38.27 94.2393 36.95 95.1993 32.48L96.3693 27.02H94.0293L94.8693 23H97.2093L98.0493 19.1H102.999L102.159 23H108.399L107.559 27.02H101.319L100.209 32.24C99.9093 33.56 100.509 34.22 102.279 34.22ZM112.678 16.7H117.328L115.738 24.11H115.978C117.208 23.33 118.588 22.73 120.328 22.73C123.628 22.73 125.008 24.74 124.078 29.15L122.188 38H117.508L119.368 29.27C119.728 27.56 119.218 26.81 117.538 26.81C115.798 26.81 115.018 27.56 114.658 29.27L112.798 38H108.148L112.678 16.7ZM140.566 29.69C140.056 32.03 139.786 32.12 138.346 32.12H130.276C130.216 33.83 131.086 34.4 133.186 34.4C134.566 34.4 137.356 34.07 138.616 33.89L137.836 37.58C135.436 38.03 133.456 38.27 131.866 38.27C126.556 38.27 124.606 36.17 125.776 30.68L125.836 30.32C126.976 24.95 129.916 22.73 134.896 22.73C139.816 22.73 141.496 25.34 140.566 29.69ZM130.996 28.76H136.036C136.246 27.47 135.616 26.6 134.086 26.6C132.496 26.6 131.596 27.2 130.996 28.76ZM160.252 17.9H165.682L166.222 29.24C166.222 29.48 166.402 29.48 166.522 29.24L171.892 17.9H177.262L173.002 38H168.592L170.872 27.29L168.022 33.11C167.152 34.85 166.282 35.36 165.052 35.36C163.762 35.36 163.102 34.85 163.012 33.11L162.622 27.29L160.342 38H155.992L160.252 17.9ZM175.181 30.32C176.321 24.95 179.231 22.73 184.211 22.73C189.251 22.73 191.171 24.95 190.031 30.32L189.971 30.68C188.831 36.05 185.951 38.27 180.911 38.27C175.931 38.27 173.981 36.05 175.121 30.68L175.181 30.32ZM179.771 30.56C179.171 33.38 179.831 34.19 181.781 34.19C183.791 34.19 184.751 33.38 185.351 30.56L185.381 30.44C185.981 27.62 185.351 26.81 183.341 26.81C181.391 26.81 180.401 27.62 179.801 30.44L179.771 30.56ZM191.669 30.32C192.809 24.95 195.719 22.73 200.699 22.73C205.739 22.73 207.659 24.95 206.519 30.32L206.459 30.68C205.319 36.05 202.439 38.27 197.399 38.27C192.419 38.27 190.469 36.05 191.609 30.68L191.669 30.32ZM196.259 30.56C195.659 33.38 196.319 34.19 198.269 34.19C200.279 34.19 201.239 33.38 201.839 30.56L201.869 30.44C202.469 27.62 201.839 26.81 199.829 26.81C197.879 26.81 196.889 27.62 196.289 30.44L196.259 30.56ZM208.727 29.15C209.657 24.68 212.177 22.73 217.217 22.73C222.197 22.73 223.877 24.68 222.947 29.15L221.057 38H216.377L218.237 29.27C218.597 27.56 218.087 26.81 216.347 26.81C214.577 26.81 213.737 27.56 213.377 29.27L211.517 38H206.837L208.727 29.15Z"/>
</mask>
<path d="M61.2745 17.9L60.4045 22.1H54.7345L51.3745 38H46.7845L50.1445 22.1H44.5345L45.4045 17.9H61.2745ZM59.7627 30.32C60.9027 24.95 63.8127 22.73 68.7927 22.73C73.8327 22.73 75.7527 24.95 74.6127 30.32L74.5527 30.68C73.4127 36.05 70.5327 38.27 65.4927 38.27C60.5127 38.27 58.5627 36.05 59.7027 30.68L59.7627 30.32ZM64.3527 30.56C63.7527 33.38 64.4127 34.19 66.3627 34.19C68.3727 34.19 69.3327 33.38 69.9327 30.56L69.9627 30.44C70.5627 27.62 69.9327 26.81 67.9227 26.81C65.9727 26.81 64.9827 27.62 64.3827 30.44L64.3527 30.56ZM102.279 34.22C103.629 34.22 104.649 34.1 106.239 33.83L105.429 37.58C103.779 38 102.069 38.27 100.389 38.27C95.6493 38.27 94.2393 36.95 95.1993 32.48L96.3693 27.02H94.0293L94.8693 23H97.2093L98.0493 19.1H102.999L102.159 23H108.399L107.559 27.02H101.319L100.209 32.24C99.9093 33.56 100.509 34.22 102.279 34.22ZM112.678 16.7H117.328L115.738 24.11H115.978C117.208 23.33 118.588 22.73 120.328 22.73C123.628 22.73 125.008 24.74 124.078 29.15L122.188 38H117.508L119.368 29.27C119.728 27.56 119.218 26.81 117.538 26.81C115.798 26.81 115.018 27.56 114.658 29.27L112.798 38H108.148L112.678 16.7ZM140.566 29.69C140.056 32.03 139.786 32.12 138.346 32.12H130.276C130.216 33.83 131.086 34.4 133.186 34.4C134.566 34.4 137.356 34.07 138.616 33.89L137.836 37.58C135.436 38.03 133.456 38.27 131.866 38.27C126.556 38.27 124.606 36.17 125.776 30.68L125.836 30.32C126.976 24.95 129.916 22.73 134.896 22.73C139.816 22.73 141.496 25.34 140.566 29.69ZM130.996 28.76H136.036C136.246 27.47 135.616 26.6 134.086 26.6C132.496 26.6 131.596 27.2 130.996 28.76ZM160.252 17.9H165.682L166.222 29.24C166.222 29.48 166.402 29.48 166.522 29.24L171.892 17.9H177.262L173.002 38H168.592L170.872 27.29L168.022 33.11C167.152 34.85 166.282 35.36 165.052 35.36C163.762 35.36 163.102 34.85 163.012 33.11L162.622 27.29L160.342 38H155.992L160.252 17.9ZM175.181 30.32C176.321 24.95 179.231 22.73 184.211 22.73C189.251 22.73 191.171 24.95 190.031 30.32L189.971 30.68C188.831 36.05 185.951 38.27 180.911 38.27C175.931 38.27 173.981 36.05 175.121 30.68L175.181 30.32ZM179.771 30.56C179.171 33.38 179.831 34.19 181.781 34.19C183.791 34.19 184.751 33.38 185.351 30.56L185.381 30.44C185.981 27.62 185.351 26.81 183.341 26.81C181.391 26.81 180.401 27.62 179.801 30.44L179.771 30.56ZM191.669 30.32C192.809 24.95 195.719 22.73 200.699 22.73C205.739 22.73 207.659 24.95 206.519 30.32L206.459 30.68C205.319 36.05 202.439 38.27 197.399 38.27C192.419 38.27 190.469 36.05 191.609 30.68L191.669 30.32ZM196.259 30.56C195.659 33.38 196.319 34.19 198.269 34.19C200.279 34.19 201.239 33.38 201.839 30.56L201.869 30.44C202.469 27.62 201.839 26.81 199.829 26.81C197.879 26.81 196.889 27.62 196.289 30.44L196.259 30.56ZM208.727 29.15C209.657 24.68 212.177 22.73 217.217 22.73C222.197 22.73 223.877 24.68 222.947 29.15L221.057 38H216.377L218.237 29.27C218.597 27.56 218.087 26.81 216.347 26.81C214.577 26.81 213.737 27.56 213.377 29.27L211.517 38H206.837L208.727 29.15Z" fill="url(#paint2_linear_273_3437)"/>
<path d="M61.2745 17.9L62.2537 18.1028L62.5028 16.9H61.2745V17.9ZM60.4045 22.1V23.1H61.2185L61.3837 22.3028L60.4045 22.1ZM54.7345 22.1V21.1H53.9237L53.7561 21.8932L54.7345 22.1ZM51.3745 38V39H52.1852L52.3528 38.2068L51.3745 38ZM46.7845 38L45.8061 37.7932L45.551 39H46.7845V38ZM50.1445 22.1L51.1228 22.3068L51.3779 21.1H50.1445V22.1ZM44.5345 22.1L43.5552 21.8972L43.3061 23.1H44.5345V22.1ZM45.4045 17.9V16.9H44.5904L44.4252 17.6972L45.4045 17.9ZM60.2952 17.6972L59.4252 21.8972L61.3837 22.3028L62.2537 18.1028L60.2952 17.6972ZM60.4045 21.1H54.7345V23.1H60.4045V21.1ZM53.7561 21.8932L50.3961 37.7932L52.3528 38.2068L55.7128 22.3068L53.7561 21.8932ZM51.3745 37H46.7845V39H51.3745V37ZM47.7628 38.2068L51.1228 22.3068L49.1661 21.8932L45.8061 37.7932L47.7628 38.2068ZM50.1445 21.1H44.5345V23.1H50.1445V21.1ZM45.5137 22.3028L46.3837 18.1028L44.4252 17.6972L43.5552 21.8972L45.5137 22.3028ZM45.4045 18.9H61.2745V16.9H45.4045V18.9ZM59.7627 30.32L58.7845 30.1123L58.78 30.1339L58.7763 30.1556L59.7627 30.32ZM74.6127 30.32L73.6345 30.1123L73.63 30.1339L73.6263 30.1556L74.6127 30.32ZM74.5527 30.68L75.5309 30.8877L75.5355 30.8661L75.5391 30.8444L74.5527 30.68ZM59.7027 30.68L60.6809 30.8877L60.6855 30.8661L60.6891 30.8444L59.7027 30.68ZM64.3527 30.56L63.3826 30.3175L63.3783 30.3346L63.3746 30.3519L64.3527 30.56ZM69.9327 30.56L68.9626 30.3175L68.9583 30.3346L68.9546 30.3519L69.9327 30.56ZM69.9627 30.44L70.9329 30.6825L70.9372 30.6654L70.9408 30.6481L69.9627 30.44ZM64.3827 30.44L65.3529 30.6825L65.3572 30.6654L65.3608 30.6481L64.3827 30.44ZM60.7409 30.5277C61.2824 27.9771 62.2137 26.3182 63.4726 25.2839C64.7285 24.252 66.4467 23.73 68.7927 23.73V21.73C66.1588 21.73 63.932 22.318 62.2029 23.7386C60.4768 25.1568 59.3831 27.2929 58.7845 30.1123L60.7409 30.5277ZM68.7927 23.73C71.2205 23.73 72.5589 24.2735 73.2352 25.1307C73.9183 25.9965 74.187 27.5098 73.6345 30.1123L75.5909 30.5277C76.1784 27.7602 76.0571 25.4785 74.8053 23.8918C73.5466 22.2965 71.405 21.73 68.7927 21.73V23.73ZM73.6263 30.1556L73.5663 30.5156L75.5391 30.8444L75.5991 30.4844L73.6263 30.1556ZM73.5745 30.4723C73.0325 33.0254 72.1079 34.6829 70.8504 35.7161C69.5959 36.7468 67.8713 37.27 65.4927 37.27V39.27C68.1542 39.27 70.3896 38.6832 72.1201 37.2614C73.8476 35.8421 74.9329 33.7046 75.5309 30.8877L73.5745 30.4723ZM65.4927 37.27C63.0986 37.27 61.7654 36.7281 61.0878 35.8693C60.4034 35.0018 60.1292 33.4867 60.6809 30.8877L58.7245 30.4723C58.1363 33.2433 58.2671 35.5232 59.5177 37.1082C60.7751 38.7019 62.9069 39.27 65.4927 39.27V37.27ZM60.6891 30.8444L60.7491 30.4844L58.7763 30.1556L58.7163 30.5156L60.6891 30.8444ZM63.3746 30.3519C63.2166 31.0947 63.1299 31.756 63.1396 32.3337C63.1493 32.9106 63.2561 33.4683 63.5445 33.9478C64.1685 34.9855 65.3207 35.19 66.3627 35.19V33.19C65.4548 33.19 65.3019 32.9894 65.2585 32.9172C65.2131 32.8417 65.1455 32.6682 65.1393 32.3C65.1331 31.9327 65.1889 31.4353 65.3308 30.7681L63.3746 30.3519ZM66.3627 35.19C67.4974 35.19 68.5464 34.9602 69.3765 34.1467C70.1604 33.3783 70.6005 32.2266 70.9108 30.7681L68.9546 30.3519C68.6649 31.7134 68.325 32.3767 67.9765 32.7183C67.6741 33.0148 67.2381 33.19 66.3627 33.19V35.19ZM70.9029 30.8025L70.9329 30.6825L68.9926 30.1975L68.9626 30.3175L70.9029 30.8025ZM70.9408 30.6481C71.0985 29.9073 71.1871 29.247 71.1797 28.6702C71.1723 28.0947 71.0685 27.5345 70.7785 27.0522C70.1514 26.0094 68.984 25.81 67.9227 25.81V27.81C68.8715 27.81 69.024 28.0156 69.0645 28.0828C69.1082 28.1555 69.1751 28.3266 69.1798 28.696C69.1846 29.0643 69.127 29.5627 68.9846 30.2319L70.9408 30.6481ZM67.9227 25.81C66.8108 25.81 65.7731 26.0432 64.9465 26.8533C64.1648 27.6195 63.7162 28.7675 63.4046 30.2319L65.3608 30.6481C65.6493 29.2925 65.9956 28.6255 66.3465 28.2817C66.6524 27.9818 67.0847 27.81 67.9227 27.81V25.81ZM63.4126 30.1975L63.3826 30.3175L65.3229 30.8025L65.3529 30.6825L63.4126 30.1975ZM106.239 33.83L107.217 34.0411L107.529 32.5967L106.072 32.8441L106.239 33.83ZM105.429 37.58L105.676 38.5491L106.276 38.3964L106.407 37.7911L105.429 37.58ZM95.1993 32.48L96.177 32.69L96.1771 32.6895L95.1993 32.48ZM96.3693 27.02L97.3471 27.2295L97.6063 26.02H96.3693V27.02ZM94.0293 27.02L93.0504 26.8155L92.7987 28.02H94.0293V27.02ZM94.8693 23V22H94.0567L93.8904 22.7955L94.8693 23ZM97.2093 23V24H98.0168L98.1869 23.2106L97.2093 23ZM98.0493 19.1V18.1H97.2417L97.0717 18.8894L98.0493 19.1ZM102.999 19.1L103.977 19.3106L104.238 18.1H102.999V19.1ZM102.159 23L101.182 22.7894L100.921 24H102.159V23ZM108.399 23L109.378 23.2045L109.63 22H108.399V23ZM107.559 27.02V28.02H108.372L108.538 27.2245L107.559 27.02ZM101.319 27.02V26.02H100.51L100.341 26.812L101.319 27.02ZM100.209 32.24L101.185 32.4616L101.187 32.448L100.209 32.24ZM102.279 35.22C103.707 35.22 104.788 35.0908 106.407 34.8159L106.072 32.8441C104.511 33.1092 103.552 33.22 102.279 33.22V35.22ZM105.262 33.6189L104.452 37.3689L106.407 37.7911L107.217 34.0411L105.262 33.6189ZM105.183 36.6109C103.59 37.0163 101.965 37.27 100.389 37.27V39.27C102.173 39.27 103.968 38.9837 105.676 38.5491L105.183 36.6109ZM100.389 37.27C99.24 37.27 98.3546 37.1888 97.6835 37.0231C97.017 36.8584 96.6269 36.6265 96.3897 36.3709C95.9339 35.8799 95.7017 34.9029 96.177 32.69L94.2216 32.27C93.7369 34.5271 93.7297 36.4451 94.9239 37.7316C95.5117 38.3648 96.3029 38.7422 97.2039 38.9647C98.1003 39.1862 99.1686 39.27 100.389 39.27V37.27ZM96.1771 32.6895L97.3471 27.2295L95.3915 26.8105L94.2215 32.2705L96.1771 32.6895ZM96.3693 26.02H94.0293V28.02H96.3693V26.02ZM95.0082 27.2245L95.8482 23.2045L93.8904 22.7955L93.0504 26.8155L95.0082 27.2245ZM94.8693 24H97.2093V22H94.8693V24ZM98.1869 23.2106L99.0269 19.3106L97.0717 18.8894L96.2317 22.7894L98.1869 23.2106ZM98.0493 20.1H102.999V18.1H98.0493V20.1ZM102.022 18.8894L101.182 22.7894L103.137 23.2106L103.977 19.3106L102.022 18.8894ZM102.159 24H108.399V22H102.159V24ZM107.42 22.7955L106.58 26.8155L108.538 27.2245L109.378 23.2045L107.42 22.7955ZM107.559 26.02H101.319V28.02H107.559V26.02ZM100.341 26.812L99.2312 32.032L101.187 32.448L102.297 27.228L100.341 26.812ZM99.2342 32.0184C99.0511 32.8238 99.0723 33.7513 99.7649 34.4361C100.392 35.0561 101.332 35.22 102.279 35.22V33.22C101.456 33.22 101.212 33.0539 101.171 33.0139C101.168 33.0107 101.154 33.0018 101.143 32.94C101.13 32.8618 101.128 32.7116 101.184 32.4616L99.2342 32.0184ZM112.678 16.7V15.7H111.868L111.699 16.492L112.678 16.7ZM117.328 16.7L118.305 16.9098L118.565 15.7H117.328V16.7ZM115.738 24.11L114.76 23.9002L114.5 25.11H115.738V24.11ZM115.978 24.11V25.11H116.268L116.513 24.9545L115.978 24.11ZM124.078 29.15L125.056 29.3589L125.056 29.3563L124.078 29.15ZM122.188 38V39H122.997L123.166 38.2089L122.188 38ZM117.508 38L116.53 37.7916L116.272 39H117.508V38ZM119.368 29.27L120.346 29.4784L120.346 29.476L119.368 29.27ZM114.658 29.27L115.636 29.4784L115.636 29.476L114.658 29.27ZM112.798 38V39H113.607L113.776 38.2084L112.798 38ZM108.148 38L107.169 37.792L106.913 39H108.148V38ZM112.678 17.7H117.328V15.7H112.678V17.7ZM116.35 16.4902L114.76 23.9002L116.715 24.3198L118.305 16.9098L116.35 16.4902ZM115.738 25.11H115.978V23.11H115.738V25.11ZM116.513 24.9545C117.647 24.2356 118.841 23.73 120.328 23.73V21.73C118.334 21.73 116.768 22.4244 115.442 23.2655L116.513 24.9545ZM120.328 23.73C121.784 23.73 122.543 24.1626 122.935 24.8061C123.374 25.5288 123.548 26.8168 123.099 28.9437L125.056 29.3563C125.538 27.0732 125.486 25.1512 124.643 23.7664C123.752 22.3024 122.171 21.73 120.328 21.73V23.73ZM123.1 28.9411L121.21 37.7911L123.166 38.2089L125.056 29.3588L123.1 28.9411ZM122.188 37H117.508V39H122.188V37ZM118.486 38.2084L120.346 29.4784L118.39 29.0616L116.53 37.7916L118.486 38.2084ZM120.346 29.476C120.538 28.5669 120.584 27.5752 120.026 26.8097C119.442 26.009 118.469 25.81 117.538 25.81V27.81C118.286 27.81 118.408 27.986 118.409 27.9878C118.436 28.0248 118.558 28.2631 118.389 29.064L120.346 29.476ZM117.538 25.81C116.531 25.81 115.627 26.0272 114.921 26.6469C114.229 27.2539 113.879 28.1154 113.679 29.064L115.636 29.476C115.796 28.7146 116.016 28.3461 116.239 28.1506C116.448 27.9678 116.804 27.81 117.538 27.81V25.81ZM113.68 29.0616L111.82 37.7916L113.776 38.2084L115.636 29.4784L113.68 29.0616ZM112.798 37H108.148V39H112.798V37ZM109.126 38.208L113.656 16.908L111.699 16.492L107.169 37.792L109.126 38.208ZM140.566 29.69L141.543 29.903L141.544 29.8991L140.566 29.69ZM130.276 32.12V31.12H129.31L129.276 32.0849L130.276 32.12ZM138.616 33.89L139.594 34.0968L139.89 32.6978L138.474 32.9001L138.616 33.89ZM137.836 37.58L138.02 38.5629L138.676 38.4399L138.814 37.7868L137.836 37.58ZM125.776 30.68L126.754 30.8884L126.759 30.8665L126.762 30.8444L125.776 30.68ZM125.836 30.32L124.858 30.1123L124.853 30.1339L124.849 30.1556L125.836 30.32ZM130.996 28.76L130.063 28.401L129.54 29.76H130.996V28.76ZM136.036 28.76V29.76H136.886L137.023 28.9207L136.036 28.76ZM139.589 29.477C139.463 30.0558 139.361 30.4484 139.264 30.723C139.165 31.0018 139.099 31.0736 139.093 31.0796C139.093 31.08 139.095 31.0779 139.099 31.0749C139.103 31.0718 139.107 31.07 139.108 31.0694C139.11 31.0683 139.094 31.0771 139.041 31.0871C138.913 31.1115 138.72 31.12 138.346 31.12V33.12C138.962 33.12 139.86 33.1493 140.516 32.4854C140.821 32.1764 141.009 31.7869 141.149 31.3907C141.291 30.9904 141.414 30.4942 141.543 29.903L139.589 29.477ZM138.346 31.12H130.276V33.12H138.346V31.12ZM129.276 32.0849C129.241 33.1035 129.479 34.0662 130.319 34.6997C131.07 35.2661 132.104 35.4 133.186 35.4V33.4C132.168 33.4 131.717 33.2489 131.523 33.1028C131.418 33.0238 131.251 32.8465 131.275 32.1551L129.276 32.0849ZM133.186 35.4C134.645 35.4 137.5 35.0595 138.757 34.8799L138.474 32.9001C137.212 33.0805 134.486 33.4 133.186 33.4V35.4ZM137.637 33.6832L136.857 37.3732L138.814 37.7868L139.594 34.0968L137.637 33.6832ZM137.652 36.5971C135.277 37.0424 133.366 37.27 131.866 37.27V39.27C133.545 39.27 135.595 39.0176 138.02 38.5629L137.652 36.5971ZM131.866 37.27C129.275 37.27 127.865 36.7442 127.16 35.8952C126.462 35.0533 126.184 33.5604 126.754 30.8884L124.798 30.4716C124.197 33.2896 124.31 35.5917 125.621 37.1723C126.927 38.7458 129.146 39.27 131.866 39.27V37.27ZM126.762 30.8444L126.822 30.4844L124.849 30.1556L124.789 30.5156L126.762 30.8444ZM126.814 30.5277C127.355 27.9796 128.293 26.3206 129.559 25.2855C130.823 24.2521 132.55 23.73 134.896 23.73V21.73C132.262 21.73 130.029 22.3179 128.293 23.737C126.559 25.1544 125.457 27.2904 124.858 30.1123L126.814 30.5277ZM134.896 23.73C137.208 23.73 138.483 24.3434 139.132 25.1879C139.791 26.0463 140.026 27.4305 139.588 29.4809L141.544 29.8991C142.035 27.5995 141.896 25.5037 140.718 23.9696C139.529 22.4216 137.504 21.73 134.896 21.73V23.73ZM130.996 29.76H136.036V27.76H130.996V29.76ZM137.023 28.9207C137.157 28.0976 137.05 27.2239 136.475 26.5479C135.898 25.8704 135.027 25.6 134.086 25.6V27.6C134.674 27.6 134.884 27.7646 134.952 27.8446C135.021 27.9261 135.125 28.1324 135.049 28.5993L137.023 28.9207ZM134.086 25.6C133.169 25.6 132.323 25.7729 131.601 26.2726C130.88 26.7711 130.405 27.51 130.063 28.401L131.929 29.119C132.187 28.45 132.462 28.1089 132.738 27.9174C133.014 27.7271 133.413 27.6 134.086 27.6V25.6ZM160.252 17.9V16.9H159.442L159.274 17.6927L160.252 17.9ZM165.682 17.9L166.681 17.8524L166.636 16.9H165.682V17.9ZM166.222 29.24H167.222V29.2162L167.221 29.1924L166.222 29.24ZM166.522 29.24L167.417 29.6872L167.422 29.6776L167.426 29.668L166.522 29.24ZM171.892 17.9V16.9H171.26L170.989 17.472L171.892 17.9ZM177.262 17.9L178.241 18.1073L178.497 16.9H177.262V17.9ZM173.002 38V39H173.813L173.981 38.2073L173.002 38ZM168.592 38L167.614 37.7918L167.357 39H168.592V38ZM170.872 27.29L171.851 27.4982L169.974 26.8502L170.872 27.29ZM168.022 33.11L168.917 33.5572L168.921 33.5498L168.022 33.11ZM163.012 33.11L164.011 33.0583L164.011 33.0507L164.01 33.0431L163.012 33.11ZM162.622 27.29L163.62 27.2231L161.644 27.0818L162.622 27.29ZM160.342 38V39H161.152L161.321 38.2082L160.342 38ZM155.992 38L155.014 37.7927L154.758 39H155.992V38ZM160.252 18.9H165.682V16.9H160.252V18.9ZM164.684 17.9476L165.224 29.2876L167.221 29.1924L166.681 17.8524L164.684 17.9476ZM165.222 29.24C165.222 29.4055 165.25 29.6585 165.404 29.905C165.582 30.1891 165.91 30.42 166.327 30.42C166.688 30.42 166.948 30.2478 167.089 30.1224C167.241 29.9877 167.345 29.8302 167.417 29.6872L165.628 28.7928C165.64 28.7698 165.677 28.7023 165.761 28.6276C165.834 28.5622 166.027 28.42 166.327 28.42C166.685 28.42 166.96 28.6209 167.1 28.845C167.217 29.0315 167.222 29.1945 167.222 29.24H165.222ZM167.426 29.668L172.796 18.328L170.989 17.472L165.619 28.812L167.426 29.668ZM171.892 18.9H177.262V16.9H171.892V18.9ZM176.284 17.6927L172.024 37.7927L173.981 38.2073L178.241 18.1073L176.284 17.6927ZM173.002 37H168.592V39H173.002V37ZM169.571 38.2082L171.851 27.4982L169.894 27.0818L167.614 37.7918L169.571 38.2082ZM169.974 26.8502L167.124 32.6702L168.921 33.5498L171.771 27.7298L169.974 26.8502ZM167.128 32.6628C166.729 33.4613 166.384 33.8636 166.089 34.0755C165.82 34.2684 165.516 34.36 165.052 34.36V36.36C165.819 36.36 166.564 36.1966 167.256 35.6995C167.921 35.2214 168.446 34.4987 168.917 33.5572L167.128 32.6628ZM165.052 34.36C164.513 34.36 164.357 34.2493 164.297 34.1882C164.216 34.1055 164.052 33.846 164.011 33.0583L162.014 33.1617C162.063 34.114 162.273 34.9795 162.868 35.5868C163.483 36.2157 164.301 36.36 165.052 36.36V34.36ZM164.01 33.0431L163.62 27.2231L161.625 27.3569L162.015 33.1769L164.01 33.0431ZM161.644 27.0818L159.364 37.7918L161.321 38.2082L163.601 27.4982L161.644 27.0818ZM160.342 37H155.992V39H160.342V37ZM156.971 38.2073L161.231 18.1073L159.274 17.6927L155.014 37.7927L156.971 38.2073ZM175.181 30.32L174.202 30.1123L174.198 30.1339L174.194 30.1556L175.181 30.32ZM190.031 30.32L189.053 30.1123L189.048 30.1339L189.044 30.1556L190.031 30.32ZM189.971 30.68L190.949 30.8877L190.953 30.8661L190.957 30.8444L189.971 30.68ZM175.121 30.68L176.099 30.8877L176.103 30.8661L176.107 30.8444L175.121 30.68ZM179.771 30.56L178.801 30.3175L178.796 30.3346L178.793 30.3519L179.771 30.56ZM185.351 30.56L184.381 30.3175L184.376 30.3346L184.373 30.3519L185.351 30.56ZM185.381 30.44L186.351 30.6825L186.355 30.6654L186.359 30.6481L185.381 30.44ZM179.801 30.44L180.771 30.6825L180.775 30.6654L180.779 30.6481L179.801 30.44ZM176.159 30.5277C176.7 27.9771 177.632 26.3182 178.891 25.2839C180.146 24.252 181.865 23.73 184.211 23.73V21.73C181.577 21.73 179.35 22.318 177.621 23.7386C175.895 25.1568 174.801 27.2929 174.202 30.1123L176.159 30.5277ZM184.211 23.73C186.638 23.73 187.977 24.2735 188.653 25.1307C189.336 25.9965 189.605 27.5098 189.053 30.1123L191.009 30.5277C191.596 27.7602 191.475 25.4785 190.223 23.8918C188.965 22.2965 186.823 21.73 184.211 21.73V23.73ZM189.044 30.1556L188.984 30.5156L190.957 30.8444L191.017 30.4844L189.044 30.1556ZM188.993 30.4723C188.451 33.0254 187.526 34.6829 186.268 35.7161C185.014 36.7468 183.289 37.27 180.911 37.27V39.27C183.572 39.27 185.808 38.6832 187.538 37.2614C189.266 35.8421 190.351 33.7046 190.949 30.8877L188.993 30.4723ZM180.911 37.27C178.517 37.27 177.183 36.7281 176.506 35.8693C175.821 35.0018 175.547 33.4867 176.099 30.8877L174.143 30.4723C173.554 33.2433 173.685 35.5232 174.936 37.1082C176.193 38.7019 178.325 39.27 180.911 39.27V37.27ZM176.107 30.8444L176.167 30.4844L174.194 30.1556L174.134 30.5156L176.107 30.8444ZM178.793 30.3519C178.635 31.0947 178.548 31.756 178.558 32.3337C178.567 32.9106 178.674 33.4683 178.962 33.9478C179.587 34.9855 180.739 35.19 181.781 35.19V33.19C180.873 33.19 180.72 32.9894 180.676 32.9172C180.631 32.8417 180.563 32.6682 180.557 32.3C180.551 31.9327 180.607 31.4353 180.749 30.7681L178.793 30.3519ZM181.781 35.19C182.915 35.19 183.964 34.9602 184.794 34.1467C185.578 33.3783 186.018 32.2266 186.329 30.7681L184.373 30.3519C184.083 31.7134 183.743 32.3767 183.394 32.7183C183.092 33.0148 182.656 33.19 181.781 33.19V35.19ZM186.321 30.8025L186.351 30.6825L184.411 30.1975L184.381 30.3175L186.321 30.8025ZM186.359 30.6481C186.516 29.9073 186.605 29.247 186.598 28.6702C186.59 28.0947 186.486 27.5345 186.196 27.0522C185.569 26.0094 184.402 25.81 183.341 25.81V27.81C184.289 27.81 184.442 28.0156 184.482 28.0828C184.526 28.1555 184.593 28.3266 184.598 28.696C184.603 29.0643 184.545 29.5627 184.403 30.2319L186.359 30.6481ZM183.341 25.81C182.229 25.81 181.191 26.0432 180.364 26.8533C179.583 27.6195 179.134 28.7675 178.823 30.2319L180.779 30.6481C181.067 29.2925 181.414 28.6255 181.764 28.2817C182.07 27.9818 182.503 27.81 183.341 27.81V25.81ZM178.831 30.1975L178.801 30.3175L180.741 30.8025L180.771 30.6825L178.831 30.1975ZM191.669 30.32L190.691 30.1123L190.686 30.1339L190.683 30.1556L191.669 30.32ZM206.519 30.32L205.541 30.1123L205.536 30.1339L205.533 30.1556L206.519 30.32ZM206.459 30.68L207.437 30.8877L207.442 30.8661L207.445 30.8444L206.459 30.68ZM191.609 30.68L192.587 30.8877L192.592 30.8661L192.595 30.8444L191.609 30.68ZM196.259 30.56L195.289 30.3175L195.285 30.3346L195.281 30.3519L196.259 30.56ZM201.839 30.56L200.869 30.3175L200.865 30.3346L200.861 30.3519L201.839 30.56ZM201.869 30.44L202.839 30.6825L202.843 30.6654L202.847 30.6481L201.869 30.44ZM196.289 30.44L197.259 30.6825L197.263 30.6654L197.267 30.6481L196.289 30.44ZM192.647 30.5277C193.189 27.9771 194.12 26.3182 195.379 25.2839C196.635 24.252 198.353 23.73 200.699 23.73V21.73C198.065 21.73 195.838 22.318 194.109 23.7386C192.383 25.1568 191.289 27.2929 190.691 30.1123L192.647 30.5277ZM200.699 23.73C203.127 23.73 204.465 24.2735 205.141 25.1307C205.825 25.9965 206.093 27.5098 205.541 30.1123L207.497 30.5277C208.085 27.7602 207.963 25.4785 206.712 23.8918C205.453 22.2965 203.311 21.73 200.699 21.73V23.73ZM205.533 30.1556L205.473 30.5156L207.445 30.8444L207.505 30.4844L205.533 30.1556ZM205.481 30.4723C204.939 33.0254 204.014 34.6829 202.757 35.7161C201.502 36.7468 199.778 37.27 197.399 37.27V39.27C200.06 39.27 202.296 38.6832 204.026 37.2614C205.754 35.8421 206.839 33.7046 207.437 30.8877L205.481 30.4723ZM197.399 37.27C195.005 37.27 193.672 36.7281 192.994 35.8693C192.31 35.0018 192.035 33.4867 192.587 30.8877L190.631 30.4723C190.043 33.2433 190.173 35.5232 191.424 37.1082C192.681 38.7019 194.813 39.27 197.399 39.27V37.27ZM192.595 30.8444L192.655 30.4844L190.683 30.1556L190.623 30.5156L192.595 30.8444ZM195.281 30.3519C195.123 31.0947 195.036 31.756 195.046 32.3337C195.056 32.9106 195.162 33.4683 195.451 33.9478C196.075 34.9855 197.227 35.19 198.269 35.19V33.19C197.361 33.19 197.208 32.9894 197.165 32.9172C197.119 32.8417 197.052 32.6682 197.046 32.3C197.039 31.9327 197.095 31.4353 197.237 30.7681L195.281 30.3519ZM198.269 35.19C199.404 35.19 200.453 34.9602 201.283 34.1467C202.067 33.3783 202.507 32.2266 202.817 30.7681L200.861 30.3519C200.571 31.7134 200.231 32.3767 199.883 32.7183C199.58 33.0148 199.144 33.19 198.269 33.19V35.19ZM202.809 30.8025L202.839 30.6825L200.899 30.1975L200.869 30.3175L202.809 30.8025ZM202.847 30.6481C203.005 29.9073 203.093 29.247 203.086 28.6702C203.079 28.0947 202.975 27.5345 202.685 27.0522C202.058 26.0094 200.89 25.81 199.829 25.81V27.81C200.778 27.81 200.93 28.0156 200.971 28.0828C201.014 28.1555 201.081 28.3266 201.086 28.696C201.091 29.0643 201.033 29.5627 200.891 30.2319L202.847 30.6481ZM199.829 25.81C198.717 25.81 197.679 26.0432 196.853 26.8533C196.071 27.6195 195.622 28.7675 195.311 30.2319L197.267 30.6481C197.556 29.2925 197.902 28.6255 198.253 28.2817C198.559 27.9818 198.991 27.81 199.829 27.81V25.81ZM195.319 30.1975L195.289 30.3175L197.229 30.8025L197.259 30.6825L195.319 30.1975ZM208.727 29.15L209.705 29.3589L209.706 29.3537L208.727 29.15ZM222.947 29.15L223.925 29.3589L223.926 29.3537L222.947 29.15ZM221.057 38V39H221.866L222.035 38.2089L221.057 38ZM216.377 38L215.399 37.7916L215.142 39H216.377V38ZM218.237 29.27L219.215 29.4784L219.216 29.476L218.237 29.27ZM213.377 29.27L214.355 29.4784L214.356 29.476L213.377 29.27ZM211.517 38V39H212.327L212.495 38.2084L211.517 38ZM206.837 38L205.859 37.7911L205.601 39H206.837V38ZM209.706 29.3537C210.141 27.2636 210.915 25.9122 212.036 25.0598C213.17 24.1976 214.811 23.73 217.217 23.73V21.73C214.583 21.73 212.444 22.2374 210.826 23.4677C209.195 24.7078 208.243 26.5664 207.748 28.9463L209.706 29.3537ZM217.217 23.73C219.642 23.73 220.922 24.2177 221.55 24.9266C222.154 25.6092 222.414 26.8034 221.968 28.9463L223.926 29.3537C224.41 27.0265 224.295 25.0108 223.047 23.6009C221.822 22.2173 219.773 21.73 217.217 21.73V23.73ZM221.969 28.9411L220.079 37.7911L222.035 38.2089L223.925 29.3588L221.969 28.9411ZM221.057 37H216.377V39H221.057V37ZM217.355 38.2084L219.215 29.4784L217.259 29.0616L215.399 37.7916L217.355 38.2084ZM219.216 29.476C219.407 28.5686 219.456 27.5688 218.881 26.7999C218.286 26.0044 217.299 25.81 216.347 25.81V27.81C217.136 27.81 217.274 27.9906 217.279 27.9976C217.304 28.0312 217.428 28.2614 217.259 29.064L219.216 29.476ZM216.347 25.81C215.33 25.81 214.412 26.0254 213.689 26.634C212.974 27.237 212.602 28.099 212.399 29.064L214.356 29.476C214.513 28.731 214.741 28.363 214.978 28.1635C215.208 27.9696 215.595 27.81 216.347 27.81V25.81ZM212.399 29.0616L210.539 37.7916L212.495 38.2084L214.355 29.4784L212.399 29.0616ZM211.517 37H206.837V39H211.517V37ZM207.815 38.2089L209.705 29.3588L207.749 28.9411L205.859 37.7911L207.815 38.2089Z" fill="url(#paint3_linear_273_3437)" mask="url(#path-3-outside-2_273_3437)"/>
</g>
</g>
<defs>
<filter id="filter0_i_273_3437" x="0" y="0" width="263" height="61" filterUnits="userSpaceOnUse" color-interpolation-filters="sRGB">
<feFlood flood-opacity="0" result="BackgroundImageFix"/>
<feBlend mode="normal" in="SourceGraphic" in2="BackgroundImageFix" result="shape"/>
<feColorMatrix in="SourceAlpha" type="matrix" values="0 0 0 0 0 0 0 0 0 0 0 0 0 0 0 0 0 0 127 0" result="hardAlpha"/>
<feOffset dy="4"/>
<feGaussianBlur stdDeviation="4"/>
<feComposite in2="hardAlpha" operator="arithmetic" k2="-1" k3="1"/>
<feColorMatrix type="matrix" values="0 0 0 0 0 0 0 0 0 0 0 0 0 0 0 0 0 0 0.25 0"/>
<feBlend mode="normal" in2="shape" result="effect1_innerShadow_273_3437"/>
</filter>
<filter id="filter1_d_273_3437" x="44.5342" y="16.7" width="180.343" height="24.57" filterUnits="userSpaceOnUse" color-interpolation-filters="sRGB">
<feFlood flood-opacity="0" result="BackgroundImageFix"/>
<feColorMatrix in="SourceAlpha" type="matrix" values="0 0 0 0 0 0 0 0 0 0 0 0 0 0 0 0 0 0 127 0" result="hardAlpha"/>
<feOffset dx="1" dy="3"/>
<feComposite in2="hardAlpha" operator="out"/>
<feColorMatrix type="matrix" values="0 0 0 0 0 0 0 0 0 0 0 0 0 0 0 0 0 0 0.25 0"/>
<feBlend mode="normal" in2="BackgroundImageFix" result="effect1_dropShadow_273_3437"/>
<feBlend mode="normal" in="SourceGraphic" in2="effect1_dropShadow_273_3437" result="shape"/>
</filter>
<linearGradient id="paint0_linear_273_3437" x1="131.5" y1="0" x2="131.5" y2="57" gradientUnits="userSpaceOnUse">
<stop stop-color="#191919"/>
<stop offset="1" stop-color="#670C0C"/>
</linearGradient>
<linearGradient id="paint1_linear_273_3437" x1="131.5" y1="0" x2="131.5" y2="57" gradientUnits="userSpaceOnUse">
<stop stop-color="white"/>
<stop offset="1" stop-color="#FBFF4E"/>
</linearGradient>
<linearGradient id="paint2_linear_273_3437" x1="131.5" y1="47" x2="131.5" y2="5" gradientUnits="userSpaceOnUse">
<stop stop-color="white"/>
<stop offset="1" stop-color="#FAFF00"/>
</linearGradient>
<linearGradient id="paint3_linear_273_3437" x1="131.5" y1="5" x2="131.5" y2="47" gradientUnits="userSpaceOnUse">
<stop stop-color="#FFD600"/>
<stop offset="1" stop-color="#860000"/>
</linearGradient>
</defs>
</svg>
