<svg width="94" height="21" viewBox="0 0 94 21" fill="none" xmlns="http://www.w3.org/2000/svg">
<path d="M11.8072 3.72266H14.0964L9.09639 9.47567L15 17.2769H10.3614L6.74699 12.548L2.59036 17.2769H0.301205L5.66265 11.1323L0 3.72266H4.75904L8.04217 8.06001L11.8072 3.72266ZM10.994 15.8913H12.259L4.06627 5.01784H2.68072L10.994 15.8913Z" fill="#43FF4B"/>
<path d="M26.2217 20.5771V4.11523H29.7109V5.4248H27.8037V19.2676H29.7109V20.5771H26.2217ZM39.6602 15.585L39.8887 16.9824C39.4434 17.0762 39.0449 17.123 38.6934 17.123C38.1191 17.123 37.6738 17.0322 37.3574 16.8506C37.041 16.6689 36.8184 16.4316 36.6895 16.1387C36.5605 15.8398 36.4961 15.2158 36.4961 14.2666V8.89648H35.3359V7.66602H36.4961V5.35449L38.0693 4.40527V7.66602H39.6602V8.89648H38.0693V14.3545C38.0693 14.8057 38.0957 15.0957 38.1484 15.2246C38.207 15.3535 38.2979 15.4561 38.4209 15.5322C38.5498 15.6084 38.7314 15.6465 38.9658 15.6465C39.1416 15.6465 39.373 15.626 39.6602 15.585ZM42.9385 17L40.082 7.66602H41.7168L43.2021 13.0537L43.7559 15.0576C43.7793 14.958 43.9404 14.3164 44.2393 13.1328L45.7246 7.66602H47.3506L48.748 13.0801L49.2139 14.8643L49.75 13.0625L51.3496 7.66602H52.8877L49.9697 17H48.3262L46.8408 11.4102L46.4805 9.81934L44.5908 17H42.9385ZM54.2324 5.93457V4.11523H55.8145V5.93457H54.2324ZM54.2324 17V7.66602H55.8145V17H54.2324ZM61.6855 15.585L61.9141 16.9824C61.4688 17.0762 61.0703 17.123 60.7188 17.123C60.1445 17.123 59.6992 17.0322 59.3828 16.8506C59.0664 16.6689 58.8438 16.4316 58.7148 16.1387C58.5859 15.8398 58.5215 15.2158 58.5215 14.2666V8.89648H57.3613V7.66602H58.5215V5.35449L60.0947 4.40527V7.66602H61.6855V8.89648H60.0947V14.3545C60.0947 14.8057 60.1211 15.0957 60.1738 15.2246C60.2324 15.3535 60.3232 15.4561 60.4463 15.5322C60.5752 15.6084 60.7568 15.6465 60.9912 15.6465C61.167 15.6465 61.3984 15.626 61.6855 15.585ZM66.6953 15.585L66.9238 16.9824C66.4785 17.0762 66.0801 17.123 65.7285 17.123C65.1543 17.123 64.709 17.0322 64.3926 16.8506C64.0762 16.6689 63.8535 16.4316 63.7246 16.1387C63.5957 15.8398 63.5312 15.2158 63.5312 14.2666V8.89648H62.3711V7.66602H63.5312V5.35449L65.1045 4.40527V7.66602H66.6953V8.89648H65.1045V14.3545C65.1045 14.8057 65.1309 15.0957 65.1836 15.2246C65.2422 15.3535 65.333 15.4561 65.4561 15.5322C65.585 15.6084 65.7666 15.6465 66.001 15.6465C66.1768 15.6465 66.4082 15.626 66.6953 15.585ZM74.6406 13.9941L76.2754 14.1963C76.0176 15.1514 75.54 15.8926 74.8428 16.4199C74.1455 16.9473 73.2549 17.2109 72.1709 17.2109C70.8057 17.2109 69.7217 16.792 68.9189 15.9541C68.1221 15.1104 67.7236 13.9297 67.7236 12.4121C67.7236 10.8418 68.1279 9.62305 68.9365 8.75586C69.7451 7.88867 70.7939 7.45508 72.083 7.45508C73.3311 7.45508 74.3506 7.87988 75.1416 8.72949C75.9326 9.5791 76.3281 10.7744 76.3281 12.3154C76.3281 12.4092 76.3252 12.5498 76.3193 12.7373H69.3584C69.417 13.7627 69.707 14.5479 70.2285 15.0928C70.75 15.6377 71.4004 15.9102 72.1797 15.9102C72.7598 15.9102 73.2549 15.7578 73.665 15.4531C74.0752 15.1484 74.4004 14.6621 74.6406 13.9941ZM69.4463 11.4365H74.6582C74.5879 10.6514 74.3887 10.0625 74.0605 9.66992C73.5566 9.06055 72.9033 8.75586 72.1006 8.75586C71.374 8.75586 70.7617 8.99902 70.2637 9.48535C69.7715 9.97168 69.499 10.6221 69.4463 11.4365ZM78.2529 17V7.66602H79.6768V9.08105C80.04 8.41895 80.374 7.98242 80.6787 7.77148C80.9893 7.56055 81.3291 7.45508 81.6982 7.45508C82.2314 7.45508 82.7734 7.625 83.3242 7.96484L82.7793 9.43262C82.3926 9.2041 82.0059 9.08984 81.6191 9.08984C81.2734 9.08984 80.9629 9.19531 80.6875 9.40625C80.4121 9.61133 80.2158 9.89844 80.0986 10.2676C79.9229 10.8301 79.835 11.4453 79.835 12.1133V17H78.2529ZM91.9199 20.5771H88.4307V19.2676H90.3379V5.4248H88.4307V4.11523H91.9199V20.5771Z" fill="#43FF4B"/>
</svg>
