<svg width="102" height="22" viewBox="0 0 102 22" fill="none" xmlns="http://www.w3.org/2000/svg">
<path d="M11.8072 3.72266H14.0964L9.09639 9.47567L15 17.2769H10.3614L6.74699 12.548L2.59036 17.2769H0.301205L5.66265 11.1323L0 3.72266H4.75904L8.04217 8.06001L11.8072 3.72266ZM10.994 15.8913H12.259L4.06627 5.01784H2.68072L10.994 15.8913Z" fill="#43FF4B"/>
<path d="M26.2832 20.6299V4.11523H30.6602V6.05762H28.6299V18.6875H30.6602V20.6299H26.2832ZM41.5762 7.66602V9.63477H39.8887V13.3965C39.8887 14.1582 39.9033 14.6035 39.9326 14.7324C39.9678 14.8555 40.041 14.958 40.1523 15.04C40.2695 15.1221 40.4102 15.1631 40.5742 15.1631C40.8027 15.1631 41.1338 15.084 41.5674 14.9258L41.7783 16.8418C41.2041 17.0879 40.5537 17.2109 39.8271 17.2109C39.3818 17.2109 38.9805 17.1377 38.623 16.9912C38.2656 16.8389 38.002 16.6455 37.832 16.4111C37.668 16.1709 37.5537 15.8486 37.4893 15.4443C37.4365 15.1572 37.4102 14.5771 37.4102 13.7041V9.63477H36.2764V7.66602H37.4102V5.81152L39.8887 4.37012V7.66602H41.5762ZM45.0303 17L42.0771 7.66602H44.4766L46.2256 13.7832L47.834 7.66602H50.2158L51.7715 13.7832L53.5557 7.66602H55.9902L52.9932 17H50.6201L49.0117 10.9971L47.4297 17H45.0303ZM57.2998 6.40039V4.11523H59.7695V6.40039H57.2998ZM57.2998 17V7.66602H59.7695V17H57.2998ZM66.5898 7.66602V9.63477H64.9023V13.3965C64.9023 14.1582 64.917 14.6035 64.9463 14.7324C64.9814 14.8555 65.0547 14.958 65.166 15.04C65.2832 15.1221 65.4238 15.1631 65.5879 15.1631C65.8164 15.1631 66.1475 15.084 66.5811 14.9258L66.792 16.8418C66.2178 17.0879 65.5674 17.2109 64.8408 17.2109C64.3955 17.2109 63.9941 17.1377 63.6367 16.9912C63.2793 16.8389 63.0156 16.6455 62.8457 16.4111C62.6816 16.1709 62.5674 15.8486 62.5029 15.4443C62.4502 15.1572 62.4238 14.5771 62.4238 13.7041V9.63477H61.29V7.66602H62.4238V5.81152L64.9023 4.37012V7.66602H66.5898ZM72.584 7.66602V9.63477H70.8965V13.3965C70.8965 14.1582 70.9111 14.6035 70.9404 14.7324C70.9756 14.8555 71.0488 14.958 71.1602 15.04C71.2773 15.1221 71.418 15.1631 71.582 15.1631C71.8105 15.1631 72.1416 15.084 72.5752 14.9258L72.7861 16.8418C72.2119 17.0879 71.5615 17.2109 70.835 17.2109C70.3896 17.2109 69.9883 17.1377 69.6309 16.9912C69.2734 16.8389 69.0098 16.6455 68.8398 16.4111C68.6758 16.1709 68.5615 15.8486 68.4971 15.4443C68.4443 15.1572 68.418 14.5771 68.418 13.7041V9.63477H67.2842V7.66602H68.418V5.81152L70.8965 4.37012V7.66602H72.584ZM79.7031 14.0293L82.1641 14.4424C81.8477 15.3447 81.3467 16.0332 80.6611 16.5078C79.9814 16.9766 79.1289 17.2109 78.1035 17.2109C76.4805 17.2109 75.2793 16.6807 74.5 15.6201C73.8848 14.7705 73.5771 13.6982 73.5771 12.4033C73.5771 10.8564 73.9814 9.64648 74.79 8.77344C75.5986 7.89453 76.6211 7.45508 77.8574 7.45508C79.2461 7.45508 80.3418 7.91504 81.1445 8.83496C81.9473 9.74902 82.3311 11.1523 82.2959 13.0449H76.1084C76.126 13.7773 76.3252 14.3486 76.7061 14.7588C77.0869 15.1631 77.5615 15.3652 78.1299 15.3652C78.5166 15.3652 78.8418 15.2598 79.1055 15.0488C79.3691 14.8379 79.5684 14.498 79.7031 14.0293ZM79.8438 11.5332C79.8262 10.8184 79.6416 10.2764 79.29 9.90723C78.9385 9.53223 78.5107 9.34473 78.0068 9.34473C77.4678 9.34473 77.0225 9.54102 76.6709 9.93359C76.3193 10.3262 76.1465 10.8594 76.1523 11.5332H79.8438ZM86.6816 17H84.2119V7.66602H86.5059V8.99316C86.8984 8.36621 87.25 7.95313 87.5605 7.75391C87.877 7.55469 88.2344 7.45508 88.6328 7.45508C89.1953 7.45508 89.7373 7.61035 90.2588 7.9209L89.4941 10.0742C89.0781 9.80469 88.6914 9.66992 88.334 9.66992C87.9883 9.66992 87.6953 9.7666 87.4551 9.95996C87.2148 10.1475 87.0244 10.4902 86.8838 10.9883C86.749 11.4863 86.6816 12.5293 86.6816 14.1172V17ZM99.7598 4.11523V20.6299H95.3828V18.6875H97.4131V6.04004H95.3828V4.11523H99.7598Z" fill="#43FF4B"/>
<path d="M25 19.8477H101.043V21.7373H25V19.8477Z" fill="#43FF4B"/>
</svg>
