<svg width="107" height="21" viewBox="0 0 107 21" fill="none" xmlns="http://www.w3.org/2000/svg">
<path d="M7.5 3C3.3645 3 0 6.3645 0 10.5C0 14.6355 3.3645 18 7.5 18C11.6355 18 15 14.6355 15 10.5C15 6.3645 11.6355 3 7.5 3ZM9.75 12.75L3.75 14.25L5.25 8.25L11.25 6.75L9.75 12.75Z" fill="#3E3E3E"/>
<path d="M7.5 12C8.32843 12 9 11.3284 9 10.5C9 9.67157 8.32843 9 7.5 9C6.67157 9 6 9.67157 6 10.5C6 11.3284 6.67157 12 7.5 12Z" fill="#3E3E3E"/>
<path d="M26.2217 20.5771V4.11523H29.7109V5.4248H27.8037V19.2676H29.7109V20.5771H26.2217ZM37.9287 17L35.0723 7.66602H36.707L38.1924 13.0537L38.7461 15.0576C38.7695 14.958 38.9307 14.3164 39.2295 13.1328L40.7148 7.66602H42.3408L43.7383 13.0801L44.2041 14.8643L44.7402 13.0625L46.3398 7.66602H47.8779L44.96 17H43.3164L41.8311 11.4102L41.4707 9.81934L39.5811 17H37.9287ZM55.6035 13.9941L57.2383 14.1963C56.9805 15.1514 56.5029 15.8926 55.8057 16.4199C55.1084 16.9473 54.2178 17.2109 53.1338 17.2109C51.7686 17.2109 50.6846 16.792 49.8818 15.9541C49.085 15.1104 48.6865 13.9297 48.6865 12.4121C48.6865 10.8418 49.0908 9.62305 49.8994 8.75586C50.708 7.88867 51.7568 7.45508 53.0459 7.45508C54.2939 7.45508 55.3135 7.87988 56.1045 8.72949C56.8955 9.5791 57.291 10.7744 57.291 12.3154C57.291 12.4092 57.2881 12.5498 57.2822 12.7373H50.3213C50.3799 13.7627 50.6699 14.5479 51.1914 15.0928C51.7129 15.6377 52.3633 15.9102 53.1426 15.9102C53.7227 15.9102 54.2178 15.7578 54.6279 15.4531C55.0381 15.1484 55.3633 14.6621 55.6035 13.9941ZM50.4092 11.4365H55.6211C55.5508 10.6514 55.3516 10.0625 55.0234 9.66992C54.5195 9.06055 53.8662 8.75586 53.0635 8.75586C52.3369 8.75586 51.7246 8.99902 51.2266 9.48535C50.7344 9.97168 50.4619 10.6221 50.4092 11.4365ZM60.6924 17H59.2246V4.11523H60.8066V8.71191C61.4746 7.87402 62.3271 7.45508 63.3643 7.45508C63.9385 7.45508 64.4805 7.57227 64.9902 7.80664C65.5059 8.03516 65.9277 8.36035 66.2559 8.78223C66.5898 9.19824 66.8506 9.70215 67.0381 10.2939C67.2256 10.8857 67.3193 11.5186 67.3193 12.1924C67.3193 13.792 66.9238 15.0283 66.1328 15.9014C65.3418 16.7744 64.3926 17.2109 63.2852 17.2109C62.1836 17.2109 61.3193 16.751 60.6924 15.8311V17ZM60.6748 12.2627C60.6748 13.3818 60.8271 14.1904 61.1318 14.6885C61.6299 15.5029 62.3037 15.9102 63.1533 15.9102C63.8447 15.9102 64.4424 15.6113 64.9463 15.0137C65.4502 14.4102 65.7021 13.5137 65.7021 12.3242C65.7021 11.1055 65.459 10.2061 64.9727 9.62598C64.4922 9.0459 63.9092 8.75586 63.2236 8.75586C62.5322 8.75586 61.9346 9.05762 61.4307 9.66113C60.9268 10.2588 60.6748 11.126 60.6748 12.2627ZM68.6201 14.2139L70.1846 13.9678C70.2725 14.5947 70.5156 15.0752 70.9141 15.4092C71.3184 15.7432 71.8809 15.9102 72.6016 15.9102C73.3281 15.9102 73.8672 15.7637 74.2188 15.4707C74.5703 15.1719 74.7461 14.8232 74.7461 14.4248C74.7461 14.0674 74.5908 13.7861 74.2803 13.5811C74.0635 13.4404 73.5244 13.2617 72.6631 13.0449C71.5029 12.752 70.6973 12.5 70.2461 12.2891C69.8008 12.0723 69.4609 11.7764 69.2266 11.4014C68.998 11.0205 68.8838 10.6016 68.8838 10.1445C68.8838 9.72852 68.9775 9.34473 69.165 8.99316C69.3584 8.63574 69.6191 8.33984 69.9473 8.10547C70.1934 7.92383 70.5273 7.77148 70.9492 7.64844C71.377 7.51953 71.834 7.45508 72.3203 7.45508C73.0527 7.45508 73.6943 7.56055 74.2451 7.77148C74.8018 7.98242 75.2119 8.26953 75.4756 8.63281C75.7393 8.99023 75.9209 9.4707 76.0205 10.0742L74.4736 10.2852C74.4033 9.80469 74.1982 9.42969 73.8584 9.16016C73.5244 8.89062 73.0498 8.75586 72.4346 8.75586C71.708 8.75586 71.1895 8.87598 70.8789 9.11621C70.5684 9.35645 70.4131 9.6377 70.4131 9.95996C70.4131 10.165 70.4775 10.3496 70.6064 10.5137C70.7354 10.6836 70.9375 10.8242 71.2129 10.9355C71.3711 10.9941 71.8369 11.1289 72.6104 11.3398C73.7295 11.6387 74.5088 11.8848 74.9482 12.0781C75.3936 12.2656 75.7422 12.541 75.9941 12.9043C76.2461 13.2676 76.3721 13.7188 76.3721 14.2578C76.3721 14.7852 76.2168 15.2832 75.9062 15.752C75.6016 16.2148 75.1592 16.5752 74.5791 16.833C73.999 17.085 73.3428 17.2109 72.6104 17.2109C71.3975 17.2109 70.4717 16.959 69.833 16.4551C69.2002 15.9512 68.7959 15.2041 68.6201 14.2139ZM78.2617 5.93457V4.11523H79.8438V5.93457H78.2617ZM78.2617 17V7.66602H79.8438V17H78.2617ZM85.7148 15.585L85.9434 16.9824C85.498 17.0762 85.0996 17.123 84.748 17.123C84.1738 17.123 83.7285 17.0322 83.4121 16.8506C83.0957 16.6689 82.873 16.4316 82.7441 16.1387C82.6152 15.8398 82.5508 15.2158 82.5508 14.2666V8.89648H81.3906V7.66602H82.5508V5.35449L84.124 4.40527V7.66602H85.7148V8.89648H84.124V14.3545C84.124 14.8057 84.1504 15.0957 84.2031 15.2246C84.2617 15.3535 84.3525 15.4561 84.4756 15.5322C84.6045 15.6084 84.7861 15.6465 85.0205 15.6465C85.1963 15.6465 85.4277 15.626 85.7148 15.585ZM93.6602 13.9941L95.2949 14.1963C95.0371 15.1514 94.5596 15.8926 93.8623 16.4199C93.165 16.9473 92.2744 17.2109 91.1904 17.2109C89.8252 17.2109 88.7412 16.792 87.9385 15.9541C87.1416 15.1104 86.7432 13.9297 86.7432 12.4121C86.7432 10.8418 87.1475 9.62305 87.9561 8.75586C88.7646 7.88867 89.8135 7.45508 91.1025 7.45508C92.3506 7.45508 93.3701 7.87988 94.1611 8.72949C94.9521 9.5791 95.3477 10.7744 95.3477 12.3154C95.3477 12.4092 95.3447 12.5498 95.3389 12.7373H88.3779C88.4365 13.7627 88.7266 14.5479 89.248 15.0928C89.7695 15.6377 90.4199 15.9102 91.1992 15.9102C91.7793 15.9102 92.2744 15.7578 92.6846 15.4531C93.0947 15.1484 93.4199 14.6621 93.6602 13.9941ZM88.4658 11.4365H93.6777C93.6074 10.6514 93.4082 10.0625 93.0801 9.66992C92.5762 9.06055 91.9229 8.75586 91.1201 8.75586C90.3936 8.75586 89.7812 8.99902 89.2832 9.48535C88.791 9.97168 88.5186 10.6221 88.4658 11.4365ZM104.945 20.5771H101.456V19.2676H103.363V5.4248H101.456V4.11523H104.945V20.5771Z" fill="#3E3E3E"/>
</svg>
