<svg width="114" height="22" viewBox="0 0 114 22" fill="none" xmlns="http://www.w3.org/2000/svg">
<path d="M7.5 3C3.3645 3 0 6.3645 0 10.5C0 14.6355 3.3645 18 7.5 18C11.6355 18 15 14.6355 15 10.5C15 6.3645 11.6355 3 7.5 3ZM9.75 12.75L3.75 14.25L5.25 8.25L11.25 6.75L9.75 12.75Z" fill="#FB30FF"/>
<path d="M7.5 12C8.32843 12 9 11.3284 9 10.5C9 9.67157 8.32843 9 7.5 9C6.67157 9 6 9.67157 6 10.5C6 11.3284 6.67157 12 7.5 12Z" fill="#FB30FF"/>
<path d="M26.2832 20.6299V4.11523H30.6602V6.05762H28.6299V18.6875H30.6602V20.6299H26.2832ZM39.0361 17L36.083 7.66602H38.4824L40.2314 13.7832L41.8398 7.66602H44.2217L45.7773 13.7832L47.5615 7.66602H49.9961L46.999 17H44.626L43.0176 10.9971L41.4355 17H39.0361ZM56.7109 14.0293L59.1719 14.4424C58.8555 15.3447 58.3545 16.0332 57.6689 16.5078C56.9893 16.9766 56.1367 17.2109 55.1113 17.2109C53.4883 17.2109 52.2871 16.6807 51.5078 15.6201C50.8926 14.7705 50.585 13.6982 50.585 12.4033C50.585 10.8564 50.9893 9.64648 51.7979 8.77344C52.6064 7.89453 53.6289 7.45508 54.8652 7.45508C56.2539 7.45508 57.3496 7.91504 58.1523 8.83496C58.9551 9.74902 59.3389 11.1523 59.3037 13.0449H53.1162C53.1338 13.7773 53.333 14.3486 53.7139 14.7588C54.0947 15.1631 54.5693 15.3652 55.1377 15.3652C55.5244 15.3652 55.8496 15.2598 56.1133 15.0488C56.377 14.8379 56.5762 14.498 56.7109 14.0293ZM56.8516 11.5332C56.834 10.8184 56.6494 10.2764 56.2979 9.90723C55.9463 9.53223 55.5186 9.34473 55.0146 9.34473C54.4756 9.34473 54.0303 9.54102 53.6787 9.93359C53.3271 10.3262 53.1543 10.8594 53.1602 11.5332H56.8516ZM61.2197 17V4.11523H63.6895V8.75586C64.4512 7.88867 65.3535 7.45508 66.3965 7.45508C67.5332 7.45508 68.4736 7.86816 69.2178 8.69434C69.9619 9.51465 70.334 10.6953 70.334 12.2363C70.334 13.8301 69.9531 15.0576 69.1914 15.9189C68.4355 16.7803 67.5156 17.2109 66.4316 17.2109C65.8984 17.2109 65.3711 17.0791 64.8496 16.8154C64.334 16.5459 63.8887 16.1504 63.5137 15.6289V17H61.2197ZM63.6719 12.1309C63.6719 13.0977 63.8242 13.8125 64.1289 14.2754C64.5566 14.9316 65.125 15.2598 65.834 15.2598C66.3789 15.2598 66.8418 15.0283 67.2227 14.5654C67.6094 14.0967 67.8027 13.3613 67.8027 12.3594C67.8027 11.293 67.6094 10.5254 67.2227 10.0566C66.8359 9.58203 66.3408 9.34473 65.7373 9.34473C65.1455 9.34473 64.6533 9.57617 64.2607 10.0391C63.8682 10.4961 63.6719 11.1934 63.6719 12.1309ZM71.459 14.3369L73.9375 13.959C74.043 14.4395 74.2568 14.8057 74.5791 15.0576C74.9014 15.3037 75.3525 15.4268 75.9326 15.4268C76.5713 15.4268 77.0518 15.3096 77.374 15.0752C77.5908 14.9111 77.6992 14.6914 77.6992 14.416C77.6992 14.2285 77.6406 14.0732 77.5234 13.9502C77.4004 13.833 77.125 13.7246 76.6973 13.625C74.7051 13.1855 73.4424 12.7842 72.9092 12.4209C72.1709 11.917 71.8018 11.2168 71.8018 10.3203C71.8018 9.51172 72.1211 8.83203 72.7598 8.28125C73.3984 7.73047 74.3887 7.45508 75.7305 7.45508C77.0078 7.45508 77.957 7.66309 78.5781 8.0791C79.1992 8.49512 79.627 9.11035 79.8613 9.9248L77.5322 10.3555C77.4326 9.99219 77.2422 9.71387 76.9609 9.52051C76.6855 9.32715 76.29 9.23047 75.7744 9.23047C75.124 9.23047 74.6582 9.32129 74.377 9.50293C74.1895 9.63184 74.0957 9.79883 74.0957 10.0039C74.0957 10.1797 74.1777 10.3291 74.3418 10.4521C74.5645 10.6162 75.332 10.8477 76.6445 11.1465C77.9629 11.4453 78.8828 11.8115 79.4043 12.2451C79.9199 12.6846 80.1777 13.2969 80.1777 14.082C80.1777 14.9375 79.8203 15.6729 79.1055 16.2881C78.3906 16.9033 77.333 17.2109 75.9326 17.2109C74.6611 17.2109 73.6533 16.9531 72.9092 16.4375C72.1709 15.9219 71.6875 15.2217 71.459 14.3369ZM82.3486 6.40039V4.11523H84.8184V6.40039H82.3486ZM82.3486 17V7.66602H84.8184V17H82.3486ZM91.6387 7.66602V9.63477H89.9512V13.3965C89.9512 14.1582 89.9658 14.6035 89.9951 14.7324C90.0303 14.8555 90.1035 14.958 90.2148 15.04C90.332 15.1221 90.4727 15.1631 90.6367 15.1631C90.8652 15.1631 91.1963 15.084 91.6299 14.9258L91.8408 16.8418C91.2666 17.0879 90.6162 17.2109 89.8896 17.2109C89.4443 17.2109 89.043 17.1377 88.6855 16.9912C88.3281 16.8389 88.0645 16.6455 87.8945 16.4111C87.7305 16.1709 87.6162 15.8486 87.5518 15.4443C87.499 15.1572 87.4727 14.5771 87.4727 13.7041V9.63477H86.3389V7.66602H87.4727V5.81152L89.9512 4.37012V7.66602H91.6387ZM98.7578 14.0293L101.219 14.4424C100.902 15.3447 100.401 16.0332 99.7158 16.5078C99.0361 16.9766 98.1836 17.2109 97.1582 17.2109C95.5352 17.2109 94.334 16.6807 93.5547 15.6201C92.9395 14.7705 92.6318 13.6982 92.6318 12.4033C92.6318 10.8564 93.0361 9.64648 93.8447 8.77344C94.6533 7.89453 95.6758 7.45508 96.9121 7.45508C98.3008 7.45508 99.3965 7.91504 100.199 8.83496C101.002 9.74902 101.386 11.1523 101.351 13.0449H95.1631C95.1807 13.7773 95.3799 14.3486 95.7607 14.7588C96.1416 15.1631 96.6162 15.3652 97.1846 15.3652C97.5713 15.3652 97.8965 15.2598 98.1602 15.0488C98.4238 14.8379 98.623 14.498 98.7578 14.0293ZM98.8984 11.5332C98.8809 10.8184 98.6963 10.2764 98.3447 9.90723C97.9932 9.53223 97.5654 9.34473 97.0615 9.34473C96.5225 9.34473 96.0771 9.54102 95.7256 9.93359C95.374 10.3262 95.2012 10.8594 95.207 11.5332H98.8984ZM111.801 4.11523V20.6299H107.424V18.6875H109.454V6.04004H107.424V4.11523H111.801Z" fill="#FB30FF"/>
<path d="M25 19.8477H113.084V21.7373H25V19.8477Z" fill="#FB30FF"/>
</svg>
