<svg width="79" height="139" viewBox="0 0 79 139" fill="none" xmlns="http://www.w3.org/2000/svg">
<g id="Group 4960">
<rect id="Rectangle 98" x="1" y="1" width="77" height="137" rx="19" fill="#0E0E0E" stroke="#A58C08" stroke-width="2" stroke-linecap="round" stroke-linejoin="round"/>
<g id="Vector">
<path d="M32.8571 50.1429C32.8571 46.198 36.0551 43 40 43C43.9449 43 47.1429 46.198 47.1429 50.1429V114.429C47.1429 118.373 43.9449 121.571 40 121.571C36.0551 121.571 32.8571 118.373 32.8571 114.429V50.1429Z" fill="#656565"/>
<path d="M32.8571 101.929C32.8571 97.9837 36.0551 94.7857 40 94.7857C43.9449 94.7857 47.1429 97.9837 47.1429 101.929V114.429C47.1429 118.373 43.9449 121.571 40 121.571C36.0551 121.571 32.8571 118.373 32.8571 114.429V101.929Z" fill="#252525"/>
<path d="M65 43C65 56.8071 53.8071 68 40 68C26.1929 68 15 56.8071 15 43C15 29.1929 26.1929 18 40 18C53.8071 18 65 29.1929 65 43Z" fill="#FAFF00"/>
<path d="M31.1561 33.8988C29.2287 36.2064 26.918 37.4521 25.9949 36.6811C25.0719 35.9102 25.8861 33.4145 27.8135 31.1069C29.7409 28.7993 32.0516 27.5536 32.9746 28.3245C33.8977 29.0955 33.0835 31.5912 31.1561 33.8988Z" fill="white"/>
<path d="M26.8815 42.2796C26.1105 43.2026 24.7372 43.3259 23.8142 42.555C22.8911 41.784 22.7678 40.4107 23.5388 39.4877C24.3098 38.5646 25.683 38.4414 26.6061 39.2123C27.5291 39.9833 27.6524 41.3565 26.8815 42.2796Z" fill="white"/>
</g>
</g>
</svg>
