<svg width="24" height="24" viewBox="0 0 24 24" fill="none" xmlns="http://www.w3.org/2000/svg">
<g id="arrow-left-contained-01">
<path id="Icon" d="M12.2958 16.4173C12.6494 16.8416 13.2799 16.8989 13.7042 16.5453C14.1285 16.1918 14.1858 15.5612 13.8323 15.1369L12.2958 16.4173ZM9.74945 11.7996L8.98123 11.1594C8.67219 11.5303 8.67219 12.0689 8.98123 12.4398L9.74945 11.7996ZM13.8323 8.46228C14.1858 8.038 14.1285 7.40744 13.7042 7.05387C13.2799 6.70031 12.6494 6.75763 12.2958 7.18191L13.8323 8.46228ZM13.8323 15.1369L10.5177 11.1594L8.98123 12.4398L12.2958 16.4173L13.8323 15.1369ZM10.5177 12.4398L13.8323 8.46228L12.2958 7.18191L8.98123 11.1594L10.5177 12.4398ZM12 4C16.4183 4 20 7.58172 20 12H22C22 6.47715 17.5228 2 12 2V4ZM20 12C20 16.4183 16.4183 20 12 20V22C17.5228 22 22 17.5228 22 12H20ZM12 20C7.58172 20 4 16.4183 4 12H2C2 17.5228 6.47715 22 12 22V20ZM4 12C4 7.58172 7.58172 4 12 4V2C6.47715 2 2 6.47715 2 12H4Z" fill="white"/>
</g>
</svg>
