<svg width="25" height="24" viewBox="0 0 25 24" fill="none" xmlns="http://www.w3.org/2000/svg">
<g id="Frame 1321315026" clip-path="url(#clip0_1116_890)">
<g id="Group 27302">
<g id="Group">
<g id="Group_2">
<path id="Vector" d="M14.3775 7.83912L14.3595 7.84628C14.3595 7.84628 14.3319 7.87068 14.2755 7.91071C14.219 7.95075 14.1352 8.00643 14.0249 8.06646C13.9144 8.12649 13.7768 8.19087 13.6149 8.25084C13.4531 8.31075 13.2655 8.36677 13.0547 8.40652C12.9493 8.4264 12.8389 8.44204 12.7218 8.45309C12.6046 8.46415 12.4816 8.46942 12.353 8.46919C12.2244 8.46919 12.09 8.46357 11.9503 8.44948C11.8106 8.43539 11.6658 8.41368 11.5153 8.38327C11.3648 8.35285 11.2091 8.31264 11.0481 8.26333C10.8871 8.21407 10.7199 8.15501 10.5487 8.08433C10.3775 8.0137 10.2017 7.93185 10.0207 7.83734C9.83965 7.74283 9.65464 7.636 9.46402 7.51514C9.44832 7.50518 9.44007 7.49813 9.42461 7.48828C9.20924 7.53113 4.54368 8.51942 2.84094 14.1722C1.09822 19.9579 7.09375 22.6077 10.7185 23.5837C14.3434 24.5596 20.1982 21.3522 20.1982 16.7515C20.1982 12.1612 19.6415 9.16828 14.3775 7.8394L14.3775 7.83912Z" fill="#FA00FF"/>
<path id="Vector_2" d="M14.4815 7.14089C14.3518 7.18362 14.2226 7.22102 14.0931 7.25184C13.9515 7.28557 13.8092 7.31324 13.6688 7.3342C13.5285 7.35517 13.3897 7.3692 13.2517 7.37894C13.1138 7.38868 12.9762 7.39326 12.8418 7.39326C12.5731 7.39326 12.3143 7.37487 12.0668 7.34491C11.8194 7.31501 11.5837 7.27291 11.3669 7.22503C11.1502 7.17709 10.9511 7.12319 10.7744 7.06929C10.5978 7.01539 10.4433 6.96149 10.3162 6.91354C10.0619 6.81772 9.917 6.74709 9.917 6.74709L9.87943 6.71484L9.46415 7.4774C9.46415 7.4774 9.42985 7.48531 9.4248 7.48634C9.44021 7.49619 9.44852 7.50323 9.46415 7.51314C9.65478 7.63406 9.83979 7.74083 10.0208 7.83534C10.2019 7.92991 10.3777 8.01176 10.5489 8.08238C10.7201 8.15301 10.8873 8.21212 11.0483 8.26138C11.2093 8.31064 11.365 8.35085 11.5155 8.38132C11.666 8.41174 11.8108 8.43345 11.9505 8.44754C12.0902 8.46163 12.2246 8.46695 12.3532 8.46724C12.4818 8.46724 12.6048 8.4622 12.7219 8.45109C12.839 8.44003 12.9495 8.42445 13.0549 8.40458C13.2656 8.36483 13.4532 8.30881 13.6151 8.24884C13.777 8.18892 13.9146 8.12454 14.025 8.06446C14.1354 8.00443 14.2191 7.94881 14.2756 7.90877C14.3321 7.86867 14.3597 7.84433 14.3597 7.84433L14.3776 7.83717C14.3656 7.83414 14.3557 7.82944 14.3437 7.8264C14.4777 7.29027 14.4812 7.15165 14.4815 7.14089Z" fill="url(#paint0_linear_1116_890)"/>
<path id="Vector_3" d="M13.0728 1.24789C13.0692 1.25001 13.019 1.2783 13.019 1.2783C13.019 1.2783 13.1847 0.759353 13.071 0.517578C13.0032 0.578237 12.937 0.639755 12.8365 0.703735C12.7008 0.790055 12.5349 0.877978 12.3388 0.965099C12.1428 1.05222 11.9366 1.14216 11.7571 1.22825C11.5777 1.31428 11.4243 1.39658 11.3383 1.46629C11.2953 1.50112 11.2702 1.53325 11.2649 1.56115C11.2623 1.57512 11.2635 1.58865 11.2721 1.60056C11.2807 1.61242 11.2958 1.62324 11.3168 1.63275C11.3588 1.65182 11.4272 1.66562 11.5262 1.67393C11.6253 1.68223 11.7545 1.68367 11.92 1.67932C12.0856 1.67497 12.2361 1.65371 12.3729 1.61843C12.5096 1.5832 12.6331 1.53423 12.7434 1.47707C12.8537 1.41984 12.9509 1.35386 13.037 1.28375C13.0509 1.27241 13.0595 1.25946 13.0728 1.24795V1.24789Z" fill="#FA00FF"/>
<path id="Vector_4" d="M15.8757 2.31766C15.8763 2.31457 16.0392 1.40406 15.8417 0.855268C15.8274 0.815516 15.8094 0.780175 15.7898 0.746094C15.778 0.780347 15.7715 0.813454 15.7522 0.848108C15.7168 0.911803 15.6701 0.976471 15.6126 1.04143C15.5551 1.10638 15.4874 1.17231 15.4121 1.23835C15.2615 1.37038 15.0801 1.50424 14.884 1.6393C14.786 1.70678 14.7141 1.76973 14.6657 1.82901C14.6172 1.8883 14.5908 1.94455 14.5833 1.99547C14.5759 2.04639 14.5872 2.09267 14.612 2.13511C14.6368 2.1775 14.6763 2.21588 14.7247 2.24967C14.7732 2.28341 14.8313 2.31239 14.8948 2.33737C14.9583 2.36234 15.0272 2.38216 15.0971 2.39825C15.2368 2.43033 15.3794 2.44557 15.4926 2.44121C15.5493 2.43904 15.6163 2.42328 15.6895 2.39825C15.7472 2.37849 15.8112 2.34802 15.8757 2.31766Z" fill="#FA00FF"/>
<path id="Vector_5" d="M7.86552 1.61138C7.73005 3.0114 9.88106 6.71816 9.88106 6.71816L9.87928 6.72172L9.91686 6.75396C9.91686 6.75391 10.0617 6.82453 10.316 6.92042C10.4432 6.9683 10.5976 7.0222 10.7743 7.0761C10.9509 7.13006 11.15 7.18396 11.3668 7.23184C11.5835 7.27979 11.8192 7.32183 12.0667 7.35179C12.3141 7.38174 12.5729 7.40013 12.8417 7.40013C12.9761 7.40013 13.1137 7.39555 13.2516 7.38581C13.3895 7.37607 13.5283 7.36204 13.6686 7.34102C13.809 7.32005 13.9513 7.29239 14.0928 7.25871C14.2224 7.22783 14.3516 7.19043 14.4813 7.1477C14.4813 7.14713 14.4831 7.13699 14.4831 7.13699C14.4831 7.13699 17.2099 4.63704 17.6818 3.30106C17.634 3.31281 17.5895 3.33119 17.5404 3.34041C17.4012 3.36671 17.2562 3.3824 17.109 3.39414C16.9617 3.40588 16.8129 3.41253 16.6615 3.4174C16.3587 3.42719 16.0515 3.43177 15.7558 3.46036C15.6079 3.47468 15.4628 3.49427 15.3226 3.5248C15.1825 3.55533 15.0466 3.59743 14.9181 3.6519C14.6611 3.76079 14.4107 3.86612 14.1681 3.95977C13.9255 4.05342 13.6909 4.13402 13.461 4.19067C13.3461 4.21902 13.233 4.24193 13.1209 4.25688C13.0089 4.27189 12.8973 4.27945 12.788 4.27836C12.6787 4.27727 12.5708 4.26782 12.464 4.24794C12.3572 4.22807 12.2517 4.19806 12.1472 4.15664C12.0949 4.13596 12.0498 4.1138 12.0129 4.09043C11.9761 4.06706 11.9482 4.04277 11.9252 4.01705C11.9023 3.99133 11.8858 3.96418 11.8751 3.93652C11.8644 3.90879 11.859 3.87993 11.859 3.8506C11.8591 3.79189 11.8789 3.73112 11.9127 3.66799C11.9465 3.60487 11.9937 3.53952 12.0487 3.47468C12.1588 3.34505 12.2992 3.21474 12.4193 3.0952C12.4793 3.03546 12.5347 2.97824 12.5786 2.92514C12.6224 2.8721 12.6546 2.82376 12.6699 2.78017C12.6851 2.73663 12.6922 2.69734 12.6896 2.66206C12.6869 2.62672 12.674 2.59412 12.6538 2.56715C12.6335 2.54022 12.6056 2.5176 12.5678 2.49915C12.5301 2.48071 12.4832 2.46777 12.4282 2.45797C12.3182 2.43838 12.1746 2.435 11.9968 2.45081C11.819 2.46662 11.6072 2.50059 11.3632 2.55283C11.1193 2.60512 10.8785 2.65203 10.6383 2.6817C10.5182 2.69654 10.3986 2.70656 10.2785 2.71218C10.1583 2.71779 10.0378 2.71813 9.91691 2.71218C9.79605 2.70616 9.67411 2.69453 9.55176 2.67454C9.42947 2.65461 9.30569 2.62677 9.18127 2.59046C9.05681 2.55409 8.93257 2.50769 8.80535 2.45259C8.67814 2.39749 8.54765 2.33373 8.41694 2.25749C8.35159 2.2194 8.2931 2.17811 8.23972 2.13578C8.18639 2.09345 8.13891 2.04894 8.09652 2.00335C8.01169 1.91204 7.94702 1.81616 7.89965 1.71695C7.88299 1.68207 7.87835 1.64661 7.86563 1.61133L7.86552 1.61138Z" fill="#FA00FF"/>
<path id="Vector_6" d="M7.86523 1.60932C7.87795 1.6446 7.88259 1.68006 7.89926 1.71494C7.94663 1.81415 8.0113 1.91003 8.09613 2.00134C8.13857 2.04693 8.186 2.09144 8.23932 2.13377C8.29271 2.17609 8.35119 2.21739 8.41655 2.25548C8.54726 2.33172 8.67774 2.39547 8.80496 2.45058C8.93223 2.50568 9.05641 2.55207 9.18088 2.58845C9.30529 2.62476 9.42907 2.6526 9.55142 2.67253C9.67371 2.69252 9.79566 2.70415 9.91658 2.71016C10.0374 2.71612 10.1579 2.71578 10.2781 2.71016C10.3983 2.70455 10.5178 2.69453 10.6379 2.67969C10.8781 2.65002 11.1189 2.60311 11.3628 2.55082C11.6068 2.49858 11.8186 2.46461 11.9964 2.4488C12.1742 2.43305 12.3178 2.43637 12.4278 2.45596C12.4829 2.46576 12.5297 2.4787 12.5675 2.49714C12.6052 2.51559 12.6331 2.53821 12.6534 2.56514C12.6736 2.59211 12.6865 2.6247 12.6892 2.66005C12.6918 2.69539 12.6847 2.73462 12.6695 2.77816C12.6542 2.82175 12.622 2.87009 12.5782 2.92313C12.5343 2.97623 12.4789 3.03345 12.4189 3.09319C12.2988 3.21273 12.1584 3.34304 12.0483 3.47267C11.9933 3.53751 11.9461 3.60286 11.9123 3.66598C11.8785 3.72916 11.8587 3.78988 11.8586 3.84859C11.8586 3.87791 11.8641 3.90678 11.8747 3.93451C11.8854 3.96217 11.9019 3.98932 11.9248 4.01504C11.9479 4.04076 11.9757 4.06505 12.0125 4.08842C12.0494 4.11179 12.0945 4.13395 12.1468 4.15463C12.2514 4.19604 12.3568 4.22606 12.4636 4.24593C12.5705 4.26581 12.6783 4.27526 12.7876 4.27635C12.8969 4.27744 13.0085 4.26988 13.1205 4.25487C13.2326 4.23992 13.3457 4.21701 13.4607 4.18865C13.6905 4.13201 13.9251 4.05141 14.1677 3.95776C14.4103 3.86411 14.6607 3.75883 14.9177 3.64989C15.0462 3.59541 15.1821 3.55331 15.3222 3.52278C15.4624 3.49225 15.6075 3.47267 15.7554 3.45835C16.0511 3.42976 16.3584 3.42518 16.6611 3.41539C16.8125 3.41046 16.9613 3.40387 17.1086 3.39213C17.2559 3.38039 17.4008 3.36469 17.54 3.3384C17.5891 3.32918 17.6336 3.31079 17.6814 3.29905C17.726 3.17292 17.7584 3.05407 17.7584 2.95177C17.7584 1.76672 15.8753 2.32531 15.8753 2.32531V2.32353C15.8108 2.35389 15.7468 2.38436 15.6892 2.40412C15.616 2.42915 15.5489 2.4449 15.4922 2.44708C15.379 2.45143 15.2364 2.43625 15.0967 2.40412C15.0268 2.38803 14.9579 2.36821 14.8944 2.34323C14.831 2.31826 14.7728 2.28928 14.7244 2.25554C14.6759 2.22174 14.6364 2.18337 14.6116 2.14098C14.5868 2.09859 14.5755 2.05226 14.5829 2.00134C14.5904 1.95041 14.6168 1.89417 14.6653 1.83488C14.7137 1.7756 14.7856 1.7127 14.8836 1.64517C15.0797 1.51011 15.2611 1.37625 15.4117 1.24422C15.487 1.17818 15.5547 1.11231 15.6122 1.04729C15.6697 0.982339 15.7164 0.917728 15.7518 0.853976C15.7711 0.819323 15.7777 0.786215 15.7894 0.751962C15.605 0.432058 15.2057 0.35244 14.9356 0.406511C14.2655 0.540487 13.1607 1.19513 13.0723 1.24777C13.059 1.25928 13.0503 1.27223 13.0365 1.28357C12.9504 1.35368 12.8532 1.41967 12.7429 1.47689C12.6326 1.53405 12.5091 1.58303 12.3724 1.61831C12.2356 1.65354 12.085 1.67479 11.9195 1.67914C11.754 1.68349 11.6248 1.68206 11.5257 1.67376C11.4267 1.66545 11.3583 1.65165 11.3163 1.63257C11.2952 1.62306 11.2802 1.61224 11.2715 1.60038C11.2629 1.58852 11.2617 1.57495 11.2644 1.56097C11.2697 1.53308 11.2948 1.501 11.3378 1.46612C11.4238 1.39641 11.5772 1.3141 11.7566 1.22807C11.9361 1.14203 12.1423 1.05205 12.3383 0.964927C12.5344 0.877805 12.7003 0.789882 12.836 0.703563C12.9364 0.639639 13.0026 0.578121 13.0704 0.517406C13.0568 0.48848 13.041 0.461844 13.0185 0.442255C12.5054 -0.00486645 12.1809 0.303238 10.9959 0.72149C9.81084 1.13974 8.14733 0.617014 7.89565 1.41778C7.87812 1.47368 7.87171 1.54207 7.86523 1.60932Z" fill="url(#paint1_linear_1116_890)"/>
</g>
</g>
<path id="Vector_7" d="M11.0148 13.8691H9.9082V15.7135H11.0148V13.8691Z" fill="#000001"/>
<path id="Vector_8" d="M8.43279 13.8691H7.32617V15.7135H8.43279V13.8691Z" fill="#000001"/>
<g id="Union">
<path d="M6.21875 17.5566H7.32537V18.6633H6.21875V17.5566Z" fill="#000001"/>
<path d="M11.0141 18.6633V19.7699H10.2764V20.5076H8.06311V19.7699H7.32537V18.6633H8.43199V19.401H9.90748V18.6633L11.0141 18.6633Z" fill="#000001"/>
<path d="M11.0141 18.6633V17.5566H12.1207V18.6633H11.0141Z" fill="#000001"/>
</g>
<path id="Union_2" d="M13.0709 0.516199C13.1747 0.736932 13.0457 1.18869 13.0224 1.26566L13.0295 1.27097L13.0698 1.24814L13.0724 1.24582C13.1609 1.19318 14.2657 0.538534 14.9358 0.404558C15.2054 0.350579 15.6038 0.429833 15.7886 0.748368L15.7451 0.682748C15.7648 0.716829 15.827 0.815489 15.8413 0.855241C16.0155 1.33905 15.9094 2.10399 15.8815 2.28048L15.894 2.31809C16.0891 2.26403 17.7585 1.83401 17.7585 2.94982C17.7585 3.05211 17.7261 3.17096 17.6816 3.29708C17.2096 4.63306 14.483 7.13298 14.483 7.13298L14.4812 7.1437C14.4802 7.16849 14.4697 7.31912 14.3456 7.81688L14.3775 7.83935C19.6414 9.16822 20.1982 12.1614 20.1982 16.7517C20.1982 21.3524 14.3434 24.5599 10.7185 23.5839C7.09375 22.6079 1.09822 19.9582 2.84094 14.1724C4.54368 8.51965 9.20924 7.53136 9.4246 7.48851L9.46384 7.47705L9.87911 6.7145L9.88028 6.7155L9.88095 6.71416C9.88095 6.71416 7.72994 3.00738 7.86541 1.60736L7.86567 1.60467C7.87205 1.53829 7.87853 1.47098 7.89582 1.41582C8.04365 0.9455 8.67851 0.931746 9.41741 0.915738C9.93655 0.904491 10.507 0.892131 10.9961 0.719537C11.253 0.628834 11.4696 0.543312 11.6563 0.469548C12.3307 0.20317 12.6169 0.0901439 13.0187 0.440301C13.0412 0.459891 13.057 0.486526 13.0706 0.515452" stroke="url(#paint2_linear_1116_890)" stroke-width="0.666667"/>
</g>
</g>
<defs>
<linearGradient id="paint0_linear_1116_890" x1="11.8873" y1="6.71484" x2="11.8597" y2="8.46668" gradientUnits="userSpaceOnUse">
<stop stop-color="#E00900"/>
<stop offset="1" stop-color="#A60D07"/>
</linearGradient>
<linearGradient id="paint1_linear_1116_890" x1="17.3665" y1="-2.66716" x2="13.3665" y2="3.99951" gradientUnits="userSpaceOnUse">
<stop stop-color="white"/>
<stop offset="1" stop-color="#3D3D3D"/>
</linearGradient>
<linearGradient id="paint2_linear_1116_890" x1="11.1342" y1="0.220703" x2="9.7133" y2="23.6716" gradientUnits="userSpaceOnUse">
<stop stop-color="#E00900"/>
<stop offset="1" stop-color="#A60D07"/>
</linearGradient>
<clipPath id="clip0_1116_890">
<rect width="24" height="24" fill="white" transform="translate(0.697266)"/>
</clipPath>
</defs>
</svg>
