<svg width="24" height="24" viewBox="0 0 24 24" fill="none" xmlns="http://www.w3.org/2000/svg">
<g id="Frame 1321315026" clip-path="url(#clip0_884_6399)">
<g id="Group 27302">
<g id="Group">
<g id="Group_2">
<path id="Vector" d="M13.6753 7.83326L13.6574 7.84042C13.6574 7.84042 13.6298 7.86482 13.5733 7.90486C13.5168 7.94489 13.4331 8.00057 13.3227 8.0606C13.2123 8.12063 13.0746 8.18501 12.9128 8.24498C12.751 8.30489 12.5633 8.36091 12.3525 8.40066C12.2471 8.42054 12.1368 8.43618 12.0196 8.44723C11.9025 8.45829 11.7794 8.46356 11.6509 8.46333C11.5223 8.46333 11.3878 8.45771 11.2481 8.44362C11.1084 8.42953 10.9637 8.40782 10.8131 8.37741C10.6627 8.34699 10.507 8.30678 10.346 8.25747C10.185 8.20821 10.0178 8.14915 9.84656 8.07847C9.67535 8.00784 9.49956 7.92599 9.3185 7.83148C9.1375 7.73697 8.95249 7.63014 8.76187 7.50929C8.74617 7.49932 8.73792 7.49227 8.72246 7.48242C8.50709 7.52527 3.84153 8.51356 2.13879 14.1663C0.396073 19.9521 6.3916 22.6018 10.0164 23.5779C13.6412 24.5538 19.4961 21.3463 19.4961 16.7456C19.4961 12.1553 18.9393 9.16242 13.6754 7.83354L13.6753 7.83326Z" fill="#FA00FF"/>
<path id="Vector_2" d="M13.7793 7.13503C13.6497 7.17776 13.5205 7.21516 13.3909 7.24598C13.2493 7.27971 13.107 7.30738 12.9667 7.32834C12.8264 7.34931 12.6876 7.36334 12.5496 7.37308C12.4117 7.38282 12.2741 7.3874 12.1397 7.3874C11.8709 7.3874 11.6121 7.36901 11.3647 7.33905C11.1172 7.30916 10.8816 7.26705 10.6648 7.21917C10.448 7.17123 10.249 7.11733 10.0723 7.06343C9.89562 7.00953 9.74119 6.95563 9.61403 6.90769C9.35971 6.81186 9.21485 6.74123 9.21485 6.74123L9.17728 6.70898L8.762 7.47154C8.762 7.47154 8.7277 7.47945 8.72266 7.48048C8.73806 7.49033 8.74637 7.49738 8.762 7.50728C8.95263 7.6282 9.13764 7.73497 9.3187 7.82948C9.49976 7.92405 9.67555 8.0059 9.84676 8.07652C10.018 8.14715 10.1852 8.20626 10.3462 8.25552C10.5072 8.30478 10.6628 8.34499 10.8133 8.37546C10.9638 8.40588 11.1086 8.42759 11.2483 8.44168C11.388 8.45577 11.5225 8.4611 11.6511 8.46138C11.7796 8.46138 11.9026 8.45634 12.0198 8.44523C12.1369 8.43418 12.2473 8.41859 12.3527 8.39872C12.5635 8.35897 12.7511 8.30295 12.913 8.24298C13.0748 8.18306 13.2124 8.11868 13.3229 8.0586C13.4333 7.99857 13.517 7.94295 13.5735 7.90291C13.6299 7.86281 13.6576 7.83847 13.6576 7.83847L13.6755 7.83131C13.6634 7.82828 13.6536 7.82358 13.6415 7.82054C13.7755 7.28441 13.7791 7.14579 13.7793 7.13503Z" fill="#0E0E0E"/>
<path id="Vector_3" d="M12.3716 1.24203C12.368 1.24415 12.3179 1.27244 12.3179 1.27244C12.3179 1.27244 12.4836 0.753494 12.3698 0.511719C12.302 0.572377 12.2358 0.633895 12.1353 0.697876C11.9997 0.784196 11.8337 0.872119 11.6377 0.95924C11.4417 1.04636 11.2354 1.1363 11.0559 1.22239C10.8765 1.30842 10.7231 1.39072 10.6371 1.46043C10.5941 1.49526 10.569 1.52739 10.5637 1.55529C10.5611 1.56926 10.5623 1.58279 10.5709 1.5947C10.5795 1.60656 10.5946 1.61738 10.6156 1.62689C10.6577 1.64596 10.7261 1.65976 10.825 1.66807C10.9241 1.67638 11.0533 1.67781 11.2188 1.67346C11.3844 1.66911 11.535 1.64785 11.6717 1.61257C11.8085 1.57734 11.932 1.52837 12.0422 1.47121C12.1525 1.41399 12.2497 1.348 12.3358 1.27789C12.3497 1.26655 12.3583 1.2536 12.3716 1.24209V1.24203Z" fill="#FA00FF"/>
<path id="Vector_4" d="M15.1736 2.3118C15.1741 2.30871 15.3371 1.3982 15.1395 0.849409C15.1252 0.809657 15.1073 0.774315 15.0876 0.740234C15.0759 0.774487 15.0693 0.807595 15.0501 0.842249C15.0147 0.905943 14.9679 0.970611 14.9104 1.03557C14.853 1.10052 14.7853 1.16645 14.7099 1.23249C14.5594 1.36452 14.378 1.49838 14.1819 1.63345C14.0839 1.70092 14.012 1.76387 13.9635 1.82315C13.9151 1.88244 13.8887 1.93869 13.8812 1.98961C13.8737 2.04053 13.885 2.08681 13.9098 2.12925C13.9347 2.17164 13.9741 2.21002 14.0226 2.24381C14.071 2.27755 14.1292 2.30653 14.1927 2.33151C14.2561 2.35648 14.3251 2.3763 14.3949 2.39239C14.5346 2.42447 14.6772 2.43971 14.7905 2.43535C14.8471 2.43318 14.9142 2.41742 14.9874 2.39239C15.0451 2.37263 15.109 2.34216 15.1736 2.3118Z" fill="#FA00FF"/>
<path id="Vector_5" d="M7.16239 1.60552C7.02692 3.00554 9.17793 6.7123 9.17793 6.7123L9.17616 6.71586L9.21373 6.7481C9.21373 6.74805 9.35859 6.81867 9.61291 6.91456C9.74007 6.96244 9.89449 7.01634 10.0711 7.07024C10.2478 7.1242 10.4468 7.1781 10.6636 7.22599C10.8804 7.27393 11.116 7.31597 11.3635 7.34593C11.611 7.37588 11.8698 7.39427 12.1386 7.39427C12.273 7.39427 12.4105 7.38969 12.5485 7.37995C12.6864 7.37021 12.8252 7.35618 12.9655 7.33516C13.1058 7.3142 13.2482 7.28653 13.3897 7.25285C13.5193 7.22198 13.6485 7.18457 13.7782 7.14184C13.7782 7.14127 13.78 7.13113 13.78 7.13113C13.78 7.13113 16.5067 4.63118 16.9787 3.2952C16.9309 3.30695 16.8863 3.32533 16.8372 3.33456C16.6981 3.36085 16.5531 3.37654 16.4059 3.38828C16.2586 3.40002 16.1098 3.40667 15.9584 3.41154C15.6556 3.42133 15.3483 3.42591 15.0527 3.4545C14.9048 3.46882 14.7597 3.48841 14.6195 3.51894C14.4793 3.54947 14.3435 3.59157 14.2149 3.64604C13.9579 3.75493 13.7076 3.86026 13.4649 3.95391C13.2224 4.04757 12.9877 4.12816 12.7579 4.18481C12.643 4.21316 12.5298 4.23607 12.4178 4.25102C12.3058 4.26603 12.1942 4.27359 12.0848 4.2725C11.9756 4.27141 11.8677 4.26196 11.7609 4.24209C11.6541 4.22221 11.5486 4.1922 11.4441 4.15078C11.3918 4.13011 11.3467 4.10794 11.3098 4.08457C11.273 4.0612 11.2451 4.03691 11.2221 4.01119C11.1991 3.98547 11.1826 3.95832 11.172 3.93066C11.1613 3.90294 11.1558 3.87407 11.1559 3.84474C11.156 3.78603 11.1758 3.72526 11.2096 3.66213C11.2434 3.59901 11.2906 3.53366 11.3456 3.46882C11.4556 3.33919 11.596 3.20888 11.7161 3.08934C11.7762 3.0296 11.8316 2.97238 11.8754 2.91928C11.9193 2.86624 11.9515 2.8179 11.9667 2.77431C11.982 2.73078 11.9891 2.69148 11.9864 2.6562C11.9838 2.62086 11.9709 2.58827 11.9506 2.56129C11.9304 2.53437 11.9025 2.51174 11.8647 2.4933C11.827 2.47485 11.7801 2.46191 11.7251 2.45211C11.6151 2.43252 11.4715 2.42914 11.2937 2.44495C11.1159 2.46076 10.904 2.49473 10.6601 2.54697C10.4161 2.59926 10.1753 2.64617 9.93516 2.67584C9.8151 2.69068 9.6955 2.7007 9.57539 2.70632C9.45522 2.71193 9.3347 2.71227 9.21379 2.70632C9.09293 2.7003 8.97098 2.68868 8.84863 2.66868C8.72634 2.64875 8.60256 2.62091 8.47815 2.5846C8.35368 2.54823 8.22944 2.50183 8.10223 2.44673C7.97501 2.39163 7.84453 2.32787 7.71382 2.25164C7.64846 2.21354 7.58998 2.17225 7.5366 2.12992C7.48327 2.08759 7.43578 2.04308 7.3934 1.99749C7.30857 1.90618 7.2439 1.8103 7.19653 1.71109C7.17986 1.67621 7.17522 1.64075 7.16251 1.60547L7.16239 1.60552Z" fill="#FA00FF"/>
<path id="Vector_6" d="M7.16797 1.60346C7.18068 1.63874 7.18533 1.6742 7.202 1.70908C7.24937 1.80829 7.31403 1.90417 7.39886 1.99548C7.44131 2.04107 7.48873 2.08558 7.54206 2.12791C7.59544 2.17024 7.65393 2.21153 7.71928 2.24962C7.84999 2.32586 7.98047 2.38961 8.10769 2.44472C8.23497 2.49982 8.35915 2.54622 8.48362 2.58259C8.60803 2.6189 8.73181 2.64674 8.85416 2.66667C8.97645 2.68666 9.09839 2.69829 9.21931 2.70431C9.34017 2.71026 9.46068 2.70992 9.58085 2.70431C9.70102 2.69869 9.82057 2.68867 9.94062 2.67383C10.1808 2.64416 10.4216 2.59725 10.6655 2.54496C10.9096 2.49272 11.1214 2.45875 11.2992 2.44294C11.477 2.42719 11.6206 2.43051 11.7305 2.4501C11.7856 2.4599 11.8324 2.47284 11.8702 2.49128C11.9079 2.50973 11.9358 2.53235 11.9561 2.55928C11.9764 2.58625 11.9893 2.61884 11.9919 2.65419C11.9945 2.68953 11.9874 2.72876 11.9722 2.7723C11.957 2.81589 11.9248 2.86423 11.8809 2.91727C11.837 2.97037 11.7816 3.02759 11.7216 3.08733C11.6015 3.20687 11.4611 3.33718 11.3511 3.46681C11.2961 3.53165 11.2489 3.597 11.215 3.66012C11.1812 3.7233 11.1615 3.78402 11.1614 3.84273C11.1613 3.87206 11.1668 3.90092 11.1775 3.92865C11.1882 3.95631 11.2046 3.98346 11.2276 4.00918C11.2506 4.0349 11.2784 4.05919 11.3153 4.08256C11.3522 4.10593 11.3972 4.12809 11.4495 4.14877C11.5541 4.19018 11.6595 4.2202 11.7663 4.24007C11.8732 4.25995 11.981 4.2694 12.0904 4.27049C12.1997 4.27158 12.3112 4.26402 12.4233 4.24901C12.5353 4.23406 12.6484 4.21115 12.7634 4.1828C12.9932 4.12615 13.2278 4.04555 13.4705 3.9519C13.713 3.85825 13.9634 3.75297 14.2205 3.64403C14.3489 3.58956 14.4848 3.54746 14.625 3.51693C14.7651 3.4864 14.9103 3.46681 15.0582 3.45249C15.3538 3.4239 15.6611 3.41932 15.9639 3.40953C16.1153 3.4046 16.2641 3.39801 16.4113 3.38627C16.5586 3.37453 16.7036 3.35884 16.8427 3.33254C16.8918 3.32332 16.9364 3.30493 16.9841 3.29319C17.0287 3.16706 17.0611 3.04821 17.0611 2.94591C17.0611 1.76086 15.1781 2.31945 15.1781 2.31945V2.31767C15.1135 2.34803 15.0496 2.3785 14.9919 2.39826C14.9187 2.42329 14.8516 2.43904 14.795 2.44122C14.6817 2.44557 14.5391 2.4304 14.3994 2.39826C14.3296 2.38217 14.2606 2.36235 14.1972 2.33737C14.1337 2.3124 14.0755 2.28342 14.0271 2.24968C13.9786 2.21589 13.9392 2.17751 13.9143 2.13512C13.8895 2.09274 13.8782 2.0464 13.8857 1.99548C13.8932 1.94455 13.9196 1.88831 13.968 1.82902C14.0164 1.76974 14.0884 1.70685 14.1864 1.63931C14.3825 1.50425 14.5639 1.37039 14.7144 1.23836C14.7898 1.17232 14.8574 1.10645 14.9149 1.04143C14.9724 0.97648 15.0192 0.911869 15.0546 0.848117C15.0738 0.813463 15.0804 0.780356 15.0921 0.746103C14.9077 0.426199 14.5085 0.34658 14.2383 0.400652C13.5683 0.534628 12.4635 1.18927 12.375 1.24191C12.3617 1.25342 12.353 1.26637 12.3392 1.27771C12.2531 1.34782 12.1559 1.41381 12.0456 1.47103C11.9354 1.52819 11.8119 1.57717 11.6751 1.61245C11.5383 1.64768 11.3878 1.66893 11.2222 1.67328C11.0567 1.67763 10.9275 1.6762 10.8285 1.6679C10.7294 1.65959 10.6611 1.64579 10.619 1.62671C10.598 1.61721 10.5829 1.60638 10.5742 1.59452C10.5657 1.58267 10.5645 1.56909 10.5671 1.55511C10.5724 1.52722 10.5975 1.49514 10.6405 1.46026C10.7266 1.39055 10.8799 1.30824 11.0593 1.22221C11.2388 1.13617 11.4451 1.04619 11.6411 0.959067C11.8371 0.871946 12.0031 0.784023 12.1387 0.697703C12.2392 0.63378 12.3053 0.572262 12.3732 0.511546C12.3596 0.48262 12.3438 0.455985 12.3213 0.436395C11.8082 -0.0107258 11.4837 0.297379 10.2986 0.715631C9.11357 1.13388 7.45007 0.611154 7.19838 1.41192C7.18086 1.46782 7.17444 1.53621 7.16797 1.60346Z" fill="url(#paint0_linear_884_6399)"/>
</g>
</g>
<path id="Vector_7" d="M10.3136 13.8672H9.20703V15.7116H10.3136V13.8672Z" fill="#0E0E0E"/>
<path id="Vector_8" d="M7.73162 13.8672H6.625V15.7116H7.73162V13.8672Z" fill="#0E0E0E"/>
<g id="Union">
<path d="M5.51953 17.5547H6.62615V18.6613H5.51953V17.5547Z" fill="#0E0E0E"/>
<path d="M10.3149 18.6613V19.7679H9.57713V20.5057H7.3639V19.7679H6.62615V18.6613H7.73277V19.3991H9.20826V18.6613L10.3149 18.6613Z" fill="#0E0E0E"/>
<path d="M10.3149 18.6613V17.5547H11.4215V18.6613H10.3149Z" fill="#0E0E0E"/>
</g>
<path id="Union_2" d="M12.3726 0.514246C12.4765 0.734978 12.3474 1.18674 12.3242 1.2637L12.3312 1.26901L12.3716 1.24619L12.3742 1.24386C12.4627 1.19122 13.5675 0.536581 14.2375 0.402605C14.5072 0.348626 14.9055 0.427879 15.0904 0.746415L15.0469 0.680795C15.0665 0.714876 15.1287 0.813536 15.1431 0.853288C15.3172 1.3371 15.2112 2.10203 15.1833 2.27852L15.1958 2.31614C15.3909 2.26208 17.0603 1.83206 17.0603 2.94786C17.0603 3.05016 17.0279 3.16901 16.9833 3.29513C16.5114 4.63111 13.7847 7.13103 13.7847 7.13103L13.783 7.14174C13.782 7.16654 13.7715 7.31717 13.6474 7.81493L13.6792 7.83739C18.9432 9.16627 19.5 12.1594 19.5 16.7497C19.5 21.3505 13.6452 24.5579 10.0203 23.582C6.3955 22.606 0.399979 19.9562 2.1427 14.1705C3.84543 8.51769 8.51099 7.5294 8.72636 7.48656L8.7656 7.4751L9.18087 6.71254L9.18204 6.71354L9.18271 6.7122C9.18271 6.7122 7.0317 3.00543 7.16717 1.60541L7.16743 1.60271C7.17381 1.53634 7.18029 1.46903 7.19758 1.41387C7.34541 0.943547 7.98027 0.929792 8.71917 0.913784C9.23831 0.902538 9.8088 0.890178 10.2978 0.717584C10.5548 0.626881 10.7713 0.541358 10.9581 0.467595C11.6325 0.201217 11.9186 0.0881907 12.3205 0.438348C12.343 0.457938 12.3588 0.484573 12.3724 0.513499" stroke="#0E0E0E" stroke-width="0.666667"/>
</g>
</g>
<defs>
<linearGradient id="paint0_linear_884_6399" x1="12.906" y1="-0.125524" x2="12.0204" y2="5.40636" gradientUnits="userSpaceOnUse">
<stop stop-color="#FF57F8"/>
<stop offset="0.48" stop-color="#FF0000"/>
<stop offset="1" stop-color="#FF002E"/>
</linearGradient>
<clipPath id="clip0_884_6399">
<rect width="24" height="24" fill="white"/>
</clipPath>
</defs>
</svg>
