<svg width="18" height="18" viewBox="0 0 18 18" fill="none" xmlns="http://www.w3.org/2000/svg">
<g clip-path="url(#clip0_671_13348)">
<path d="M10.2584 5.88031L10.245 5.88568C10.245 5.88568 10.2243 5.90398 10.1819 5.93401C10.1396 5.96404 10.0768 6.0058 9.99399 6.05082C9.91117 6.09584 9.80793 6.14413 9.68653 6.1891C9.56517 6.23404 9.42444 6.27606 9.26635 6.30587C9.1873 6.32078 9.10452 6.3325 9.01667 6.34079C8.92882 6.34909 8.83654 6.35304 8.74009 6.35287C8.64365 6.35287 8.54282 6.34866 8.43805 6.33809C8.33327 6.32752 8.22471 6.31124 8.11181 6.28843C7.99896 6.26562 7.88219 6.23546 7.76144 6.19847C7.64068 6.16153 7.51528 6.11723 7.38687 6.06422C7.25847 6.01125 7.12663 5.94986 6.99083 5.87898C6.85508 5.8081 6.71632 5.72798 6.57335 5.63734C6.56158 5.62986 6.5554 5.62458 6.5438 5.61719C6.38227 5.64932 2.8831 6.39054 1.60605 10.6301C0.299008 14.9694 4.79565 16.9567 7.51425 17.6888C10.2329 18.4207 14.624 16.0151 14.624 12.5646C14.624 9.12185 14.2065 6.87719 10.2585 5.88053L10.2584 5.88031Z" fill="#FAFF00"/>
<path d="M10.3364 5.35664C10.2392 5.38869 10.1423 5.41674 10.0451 5.43985C9.93894 5.46516 9.83223 5.48591 9.72698 5.50163C9.62173 5.51735 9.51763 5.52788 9.41414 5.53518C9.3107 5.54248 9.20751 5.54592 9.10673 5.54592C8.90516 5.54592 8.71103 5.53213 8.52545 5.50966C8.33986 5.48724 8.16312 5.45566 8.00052 5.41975C7.83796 5.38379 7.68868 5.34337 7.55615 5.30294C7.42366 5.26252 7.30785 5.22209 7.21248 5.18614C7.02174 5.11426 6.91309 5.06129 6.91309 5.06129L6.88491 5.03711L6.57346 5.60903C6.57346 5.60903 6.54773 5.61496 6.54395 5.61573C6.5555 5.62312 6.56173 5.6284 6.57346 5.63583C6.71643 5.72652 6.85518 5.8066 6.99098 5.87748C7.12677 5.94841 7.25862 6.0098 7.38702 6.06276C7.51543 6.11573 7.64083 6.16007 7.76159 6.19701C7.88234 6.23396 7.99906 6.26411 8.11196 6.28697C8.22482 6.30978 8.33342 6.32606 8.4382 6.33663C8.54297 6.3472 8.6438 6.35119 8.74024 6.35141C8.83669 6.35141 8.92892 6.34763 9.01677 6.33929C9.10462 6.331 9.18745 6.31932 9.26649 6.30441C9.42454 6.2746 9.56527 6.23258 9.68668 6.1876C9.80808 6.14267 9.91127 6.09438 9.9941 6.04932C10.0769 6.0043 10.1397 5.96258 10.182 5.93255C10.2244 5.90248 10.2451 5.88422 10.2451 5.88422L10.2586 5.87885C10.2495 5.87658 10.2421 5.87306 10.2331 5.87078C10.3336 5.46868 10.3363 5.36472 10.3364 5.35664Z" fill="#FF2626"/>
<path d="M9.27966 0.936404C9.277 0.937993 9.23937 0.959215 9.23937 0.959215C9.23937 0.959215 9.36365 0.570003 9.27833 0.388672C9.22747 0.434166 9.17785 0.480304 9.10246 0.52829C9.00073 0.59303 8.87628 0.658972 8.72923 0.724313C8.58222 0.789654 8.42752 0.857105 8.29293 0.921673C8.15838 0.986198 8.04334 1.04793 7.97881 1.10021C7.94655 1.12633 7.92773 1.15043 7.92378 1.17135C7.9218 1.18183 7.92271 1.19197 7.92915 1.20091C7.93559 1.2098 7.94694 1.21792 7.9627 1.22505C7.99423 1.23935 8.04553 1.24971 8.11976 1.25593C8.19404 1.26216 8.29096 1.26324 8.41511 1.25998C8.5393 1.25671 8.6522 1.24077 8.75474 1.21431C8.85733 1.18789 8.94995 1.15116 9.03265 1.10829C9.11539 1.06537 9.18825 1.01588 9.25282 0.963301C9.26325 0.954795 9.2697 0.945086 9.27966 0.936451V0.936404Z" fill="#FAFF00"/>
<path d="M11.3821 1.73922C11.3826 1.7369 11.5048 1.05402 11.3566 0.642428C11.3459 0.612614 11.3324 0.586108 11.3177 0.560547C11.3089 0.586237 11.3039 0.611067 11.2895 0.637058C11.263 0.684829 11.2279 0.73333 11.1848 0.782046C11.1417 0.830761 11.0909 0.880207 11.0344 0.929739C10.9215 1.02876 10.7854 1.12916 10.6384 1.23045C10.5649 1.28106 10.5109 1.32827 10.4746 1.37274C10.4383 1.4172 10.4185 1.45939 10.4128 1.49758C10.4072 1.53577 10.4157 1.57048 10.4343 1.60231C10.453 1.6341 10.4826 1.66288 10.5189 1.68823C10.5552 1.71353 10.5988 1.73527 10.6464 1.754C10.694 1.77273 10.7458 1.78759 10.7981 1.79967C10.9029 1.82372 11.0099 1.83515 11.0948 1.83189C11.1373 1.83025 11.1876 1.81844 11.2425 1.79967C11.2858 1.78485 11.3337 1.76199 11.3821 1.73922Z" fill="#FAFF00"/>
<path d="M5.37472 1.20903C5.27312 2.25904 6.88638 5.03911 6.88638 5.03911L6.88505 5.04178L6.91323 5.06596C6.91323 5.06592 7.02187 5.11889 7.21261 5.1908C7.30798 5.22672 7.4238 5.26714 7.55629 5.30757C7.68877 5.34803 7.83806 5.38846 8.00066 5.42437C8.16322 5.46033 8.33995 5.49186 8.52558 5.51433C8.71116 5.5368 8.9053 5.55059 9.10686 5.55059C9.20764 5.55059 9.31083 5.54715 9.41428 5.53985C9.51772 5.53254 9.62182 5.52202 9.72707 5.50625C9.83232 5.49053 9.93907 5.46978 10.0452 5.44452C10.1424 5.42136 10.2393 5.39331 10.3366 5.36126C10.3366 5.36084 10.3379 5.35323 10.3379 5.35323C10.3379 5.35323 12.383 3.47827 12.7369 2.47629C12.7011 2.48509 12.6677 2.49888 12.6309 2.5058C12.5265 2.52552 12.4177 2.53729 12.3073 2.54609C12.1969 2.5549 12.0853 2.55988 11.9717 2.56354C11.7446 2.57088 11.5142 2.57432 11.2924 2.59576C11.1815 2.6065 11.0727 2.62119 10.9676 2.64409C10.8624 2.66698 10.7605 2.69856 10.6641 2.73941C10.4714 2.82108 10.2836 2.90008 10.1016 2.97032C9.9197 3.04056 9.74373 3.101 9.57134 3.14349C9.48516 3.16475 9.40032 3.18194 9.31629 3.19315C9.23226 3.2044 9.14858 3.21007 9.06657 3.20926C8.9846 3.20844 8.90371 3.20135 8.82359 3.18645C8.74347 3.17154 8.66438 3.14903 8.58598 3.11797C8.54676 3.10246 8.51295 3.08584 8.48528 3.06831C8.45766 3.05078 8.43674 3.03257 8.41951 3.01328C8.40228 2.99399 8.38991 2.97363 8.38192 2.95288C8.37389 2.93208 8.36981 2.91043 8.36985 2.88844C8.36994 2.8444 8.38476 2.79882 8.4101 2.75148C8.43545 2.70414 8.47089 2.65513 8.51213 2.6065C8.59466 2.50928 8.69995 2.41155 8.79004 2.32189C8.83506 2.27708 8.8766 2.23417 8.90951 2.19434C8.94241 2.15456 8.96656 2.11831 8.97798 2.08561C8.98941 2.05296 8.99474 2.02349 8.99276 1.99703C8.99078 1.97052 8.98112 1.94608 8.96591 1.92585C8.9507 1.90566 8.92978 1.88869 8.90147 1.87485C8.87316 1.86102 8.83802 1.85131 8.79674 1.84397C8.71426 1.82927 8.60656 1.82674 8.47321 1.8386C8.33986 1.85045 8.18096 1.87593 7.99799 1.91511C7.81503 1.95433 7.63443 1.98951 7.4543 2.01177C7.36426 2.02289 7.27456 2.03041 7.18447 2.03462C7.09434 2.03883 7.00396 2.03909 6.91327 2.03462C6.82263 2.03011 6.73117 2.02139 6.6394 2.0064C6.54769 1.99145 6.45485 1.97057 6.36154 1.94333C6.26819 1.91605 6.17501 1.88126 6.0796 1.83993C5.98419 1.7986 5.88633 1.75079 5.78829 1.69361C5.73928 1.66504 5.69541 1.63407 5.65538 1.60232C5.61538 1.57057 5.57977 1.53719 5.54798 1.503C5.48436 1.43452 5.43585 1.36261 5.40033 1.2882C5.38783 1.26204 5.38435 1.23545 5.37481 1.20898L5.37472 1.20903Z" fill="#FAFF00"/>
<path d="M5.37402 1.20796C5.38356 1.23443 5.38704 1.26102 5.39954 1.28718C5.43507 1.36159 5.48357 1.4335 5.54719 1.50198C5.57903 1.53617 5.6146 1.56955 5.65459 1.6013C5.69463 1.63305 5.73849 1.66402 5.78751 1.69259C5.88554 1.74977 5.9834 1.79758 6.07881 1.83891C6.17427 1.88024 6.26741 1.91503 6.36076 1.94231C6.45407 1.96955 6.5469 1.99043 6.63866 2.00538C6.73038 2.02037 6.82184 2.02909 6.91253 2.0336C7.00317 2.03807 7.09356 2.03781 7.18369 2.0336C7.27382 2.02939 7.36347 2.02187 7.45351 2.01075C7.63364 1.98849 7.81424 1.95331 7.99721 1.91409C8.18022 1.87491 8.33908 1.84943 8.47243 1.83758C8.60577 1.82576 8.71347 1.82825 8.79595 1.84295C8.83724 1.85029 8.87238 1.86 8.90069 1.87383C8.929 1.88767 8.94992 1.90464 8.96513 1.92483C8.98033 1.94506 8.99 1.9695 8.99198 1.99601C8.99395 2.02252 8.98863 2.05194 8.9772 2.08459C8.96577 2.11729 8.94163 2.15354 8.90872 2.19332C8.87581 2.23315 8.83427 2.27606 8.78925 2.32087C8.69921 2.41053 8.59387 2.50826 8.51135 2.60548C8.47011 2.65411 8.43471 2.70312 8.40932 2.75046C8.38397 2.79785 8.36915 2.84338 8.36907 2.88742C8.36902 2.90941 8.37315 2.93106 8.38114 2.95186C8.38917 2.97261 8.4015 2.99297 8.41873 3.01226C8.436 3.03155 8.45687 3.04976 8.4845 3.06729C8.51216 3.08482 8.54597 3.10144 8.58519 3.11695C8.66364 3.14801 8.74268 3.17052 8.8228 3.18543C8.90296 3.20033 8.98381 3.20742 9.06582 3.20824C9.14779 3.20905 9.23147 3.20338 9.3155 3.19213C9.39953 3.18092 9.48438 3.16373 9.5706 3.14247C9.74295 3.09998 9.91891 3.03954 10.1009 2.9693C10.2828 2.89906 10.4706 2.8201 10.6634 2.73839C10.7598 2.69754 10.8617 2.66596 10.9668 2.64306C11.0719 2.62017 11.1808 2.60548 11.2917 2.59474C11.5134 2.5733 11.7439 2.56986 11.9709 2.56252C12.0845 2.55882 12.1961 2.55388 12.3065 2.54507C12.417 2.53627 12.5257 2.5245 12.6301 2.50478C12.6669 2.49786 12.7003 2.48407 12.7361 2.47527C12.7696 2.38067 12.7939 2.29153 12.7939 2.2148C12.7939 1.32602 11.3816 1.74496 11.3816 1.74496V1.74362C11.3332 1.76639 11.2852 1.78925 11.242 1.80407C11.1871 1.82284 11.1368 1.83465 11.0943 1.83629C11.0093 1.83955 10.9024 1.82817 10.7976 1.80407C10.7452 1.792 10.6935 1.77713 10.6459 1.7584C10.5983 1.73967 10.5547 1.71793 10.5184 1.69263C10.482 1.66729 10.4524 1.6385 10.4338 1.60671C10.4152 1.57492 10.4067 1.54017 10.4123 1.50198C10.4179 1.46379 10.4377 1.4216 10.4741 1.37714C10.5104 1.33267 10.5643 1.28551 10.6378 1.23486C10.7849 1.13356 10.9209 1.03316 11.0339 0.934141C11.0904 0.884608 11.1411 0.835206 11.1842 0.786447C11.2274 0.737731 11.2624 0.689273 11.289 0.641459C11.3034 0.615468 11.3083 0.590638 11.3172 0.564948C11.1788 0.32502 10.8794 0.265306 10.6768 0.30586C10.1743 0.406342 9.34566 0.897325 9.27929 0.936804C9.26932 0.945439 9.26283 0.955148 9.25244 0.963654C9.18787 1.01624 9.11497 1.06573 9.03227 1.10864C8.94957 1.15152 8.85695 1.18825 8.75437 1.21471C8.65178 1.24113 8.53888 1.25707 8.41473 1.26033C8.29058 1.2636 8.19366 1.26252 8.11938 1.25629C8.04511 1.25006 7.99386 1.23971 7.96233 1.22541C7.94652 1.21827 7.93522 1.21016 7.92873 1.20126C7.92229 1.19237 7.92139 1.18219 7.92336 1.17171C7.92736 1.15079 7.94617 1.12673 7.97843 1.10057C8.04296 1.04828 8.15796 0.986552 8.29255 0.922027C8.42715 0.857502 8.58184 0.790013 8.72885 0.724672C8.8759 0.65933 9.00035 0.593388 9.10208 0.528649C9.17743 0.480706 9.22705 0.434568 9.27791 0.389031C9.26773 0.367336 9.25588 0.34736 9.23899 0.332667C8.85416 -0.00267327 8.6108 0.228405 7.72201 0.542094C6.83322 0.855784 5.5856 0.463737 5.39684 1.06431C5.38369 1.10624 5.37888 1.15753 5.37402 1.20796Z" fill="url(#paint0_linear_671_13348)"/>
<path d="M7.73719 10.4023H6.90723V11.7856H7.73719V10.4023Z" fill="#FF2626"/>
<path d="M5.80067 10.4023H4.9707V11.7856H5.80067V10.4023Z" fill="#FF2626"/>
<path d="M4.14062 13.168H4.97059V13.9979H4.14062V13.168Z" fill="#FF2626"/>
<path d="M7.73713 13.9979V14.8279H7.18383V15.3812H5.5239V14.8279H4.97059V13.9979H5.80055V14.5512H6.90717V13.9979L7.73713 13.9979Z" fill="#FF2626"/>
<path d="M7.73713 13.9979V13.168H8.5671V13.9979H7.73713Z" fill="#FF2626"/>
<path d="M9.27948 0.387637C9.35737 0.553187 9.26056 0.892007 9.24312 0.94973L9.24843 0.953714L9.27869 0.936593L9.28064 0.934851C9.34701 0.895372 10.1756 0.404389 10.6781 0.303907C10.8804 0.263422 11.1791 0.322863 11.3178 0.561765L11.2852 0.512549C11.2999 0.53811 11.3466 0.612105 11.3573 0.641919C11.4879 1.00478 11.4084 1.57848 11.3874 1.71084L11.3968 1.73906C11.5432 1.69851 12.7952 1.376 12.7952 2.21285C12.7952 2.28957 12.7709 2.37871 12.7375 2.4733C12.3836 3.47529 10.3386 5.35023 10.3386 5.35023L10.3372 5.35826C10.3365 5.37686 10.3286 5.48983 10.2355 5.86315L10.2594 5.88C14.2074 6.87666 14.625 9.12154 14.625 12.5643C14.625 16.0148 10.2339 18.4204 7.51523 17.6884C4.79663 16.9564 0.299984 14.9691 1.60702 10.6298C2.88408 6.39022 6.38324 5.64901 6.54477 5.61687L6.5742 5.60828L6.88565 5.03636L6.88653 5.03711L6.88703 5.03611C6.88703 5.03611 5.27378 2.25602 5.37537 1.20601L5.37557 1.20399C5.38036 1.15421 5.38522 1.10372 5.39819 1.06236C5.50906 0.709613 5.9852 0.699297 6.53938 0.687291C6.92873 0.678856 7.3566 0.669587 7.72336 0.540141C7.9161 0.472114 8.07849 0.407972 8.21856 0.352649C8.72435 0.152866 8.93897 0.0680962 9.24034 0.330714C9.25723 0.345406 9.26908 0.365383 9.27926 0.387078" stroke="#FF2626" stroke-width="0.5"/>
</g>
<defs>
<linearGradient id="paint0_linear_671_13348" x1="9.67754" y1="-0.0887717" x2="9.01335" y2="4.06014" gradientUnits="userSpaceOnUse">
<stop stop-color="#FF57F8"/>
<stop offset="0.48" stop-color="#FF0000"/>
<stop offset="1" stop-color="#FF002E"/>
</linearGradient>
<clipPath id="clip0_671_13348">
<rect width="18" height="18" fill="white"/>
</clipPath>
</defs>
</svg>
