<svg width="25" height="24" viewBox="0 0 25 24" fill="none" xmlns="http://www.w3.org/2000/svg">
<g id="Frame 1321315026" clip-path="url(#clip0_1116_910)">
<g id="Group 27302">
<g id="Group">
<g id="Group_2">
<path id="Vector" d="M14.3736 7.84107L14.3556 7.84823C14.3556 7.84823 14.328 7.87263 14.2716 7.91267C14.2151 7.95271 14.1313 8.00838 14.021 8.06841C13.9105 8.12844 13.7729 8.19282 13.611 8.25279C13.4492 8.3127 13.2616 8.36872 13.0508 8.40848C12.9454 8.42835 12.835 8.44399 12.7179 8.45504C12.6007 8.4661 12.4777 8.47137 12.3491 8.47114C12.2205 8.47114 12.0861 8.46553 11.9464 8.45144C11.8067 8.43735 11.6619 8.41564 11.5114 8.38522C11.3609 8.35481 11.2052 8.3146 11.0442 8.26528C10.8832 8.21602 10.716 8.15696 10.5448 8.08628C10.3736 8.01566 10.1978 7.9338 10.0167 7.83929C9.83574 7.74478 9.65074 7.63796 9.46011 7.5171C9.44442 7.50713 9.43616 7.50009 9.4207 7.49023C9.20533 7.53308 4.53977 8.52137 2.83703 14.1741C1.09432 19.9599 7.08984 22.6096 10.7146 23.5857C14.3395 24.5616 20.1943 21.3541 20.1943 16.7534C20.1943 12.1631 19.6376 9.17023 14.3736 7.84136L14.3736 7.84107Z" fill="#09FFD3"/>
<path id="Vector_2" d="M14.4776 7.14284C14.3479 7.18557 14.2187 7.22297 14.0891 7.25379C13.9476 7.28753 13.8053 7.31519 13.6649 7.33616C13.5246 7.35712 13.3858 7.37115 13.2478 7.38089C13.1099 7.39063 12.9723 7.39521 12.8379 7.39521C12.5692 7.39521 12.3103 7.37682 12.0629 7.34687C11.8155 7.31697 11.5798 7.27487 11.363 7.22698C11.1463 7.17904 10.9472 7.12514 10.7705 7.07124C10.5939 7.01734 10.4394 6.96344 10.3123 6.9155C10.058 6.81967 9.9131 6.74904 9.9131 6.74904L9.87552 6.7168L9.46025 7.47935C9.46025 7.47935 9.42594 7.48726 9.4209 7.48829C9.43631 7.49814 9.44461 7.50519 9.46025 7.5151C9.65087 7.63601 9.83588 7.74278 10.0169 7.83729C10.198 7.93186 10.3738 8.01371 10.545 8.08434C10.7162 8.15496 10.8834 8.21407 11.0444 8.26333C11.2054 8.31259 11.3611 8.3528 11.5116 8.38328C11.6621 8.41369 11.8069 8.4354 11.9466 8.44949C12.0863 8.46358 12.2207 8.46891 12.3493 8.46919C12.4779 8.46919 12.6009 8.46415 12.718 8.45304C12.8351 8.44199 12.9456 8.42641 13.051 8.40653C13.2617 8.36678 13.4493 8.31076 13.6112 8.25079C13.7731 8.19088 13.9107 8.12649 14.0211 8.06641C14.1315 8.00638 14.2152 7.95076 14.2717 7.91072C14.3282 7.87063 14.3558 7.84628 14.3558 7.84628L14.3737 7.83912C14.3617 7.83609 14.3518 7.83139 14.3397 7.82836C14.4738 7.29222 14.4773 7.15361 14.4776 7.14284Z" fill="#8F8F8F"/>
<path id="Vector_3" d="M13.0688 1.24984C13.0653 1.25196 13.0151 1.28026 13.0151 1.28026C13.0151 1.28026 13.1808 0.761307 13.0671 0.519531C12.9993 0.58019 12.9331 0.641708 12.8326 0.705688C12.6969 0.792008 12.531 0.879931 12.3349 0.967053C12.1389 1.05417 11.9327 1.14411 11.7532 1.2302C11.5738 1.31623 11.4204 1.39854 11.3344 1.46825C11.2914 1.50307 11.2663 1.5352 11.261 1.5631C11.2584 1.57708 11.2596 1.5906 11.2682 1.60251C11.2768 1.61437 11.2919 1.62519 11.3129 1.6347C11.3549 1.65377 11.4233 1.66758 11.5223 1.67588C11.6213 1.68419 11.7506 1.68563 11.9161 1.68127C12.0817 1.67692 12.2322 1.65566 12.369 1.62038C12.5057 1.58515 12.6292 1.53618 12.7395 1.47902C12.8498 1.4218 12.947 1.35581 13.0331 1.2857C13.047 1.27436 13.0556 1.26142 13.0688 1.2499V1.24984Z" fill="#09FFD3"/>
<path id="Vector_4" d="M15.8718 2.31962C15.8724 2.31652 16.0353 1.40601 15.8378 0.857221C15.8235 0.81747 15.8055 0.782128 15.7859 0.748047C15.7741 0.7823 15.7676 0.815407 15.7483 0.850061C15.7129 0.913756 15.6662 0.978424 15.6087 1.04338C15.5512 1.10833 15.4835 1.17426 15.4082 1.2403C15.2576 1.37233 15.0762 1.50619 14.8801 1.64126C14.7821 1.70873 14.7102 1.77168 14.6618 1.83097C14.6133 1.89025 14.5869 1.9465 14.5794 1.99742C14.572 2.04834 14.5832 2.09462 14.6081 2.13707C14.6329 2.17945 14.6724 2.21783 14.7208 2.25162C14.7693 2.28536 14.8274 2.31435 14.8909 2.33932C14.9544 2.36429 15.0233 2.38411 15.0931 2.40021C15.2329 2.43228 15.3755 2.44752 15.4887 2.44317C15.5454 2.44099 15.6124 2.42524 15.6856 2.40021C15.7433 2.38044 15.8072 2.34997 15.8718 2.31962Z" fill="#09FFD3"/>
<path id="Vector_5" d="M7.86161 1.61334C7.72614 3.01335 9.87715 6.72012 9.87715 6.72012L9.87537 6.72367L9.91295 6.75592C9.91295 6.75586 10.0578 6.82648 10.3121 6.92237C10.4393 6.97026 10.5937 7.02416 10.7704 7.07806C10.947 7.13201 11.1461 7.18591 11.3629 7.2338C11.5796 7.28174 11.8152 7.32378 12.0627 7.35374C12.3102 7.3837 12.569 7.40208 12.8378 7.40208C12.9722 7.40208 13.1098 7.3975 13.2477 7.38776C13.3856 7.37803 13.5244 7.36399 13.6647 7.34297C13.8051 7.32201 13.9474 7.29434 14.0889 7.26066C14.2185 7.22979 14.3477 7.19239 14.4774 7.14965C14.4774 7.14908 14.4792 7.13894 14.4792 7.13894C14.4792 7.13894 17.206 4.63899 17.6779 3.30302C17.6301 3.31476 17.5855 3.33315 17.5365 3.34237C17.3973 3.36866 17.2523 3.38435 17.1051 3.39609C16.9578 3.40784 16.809 3.41448 16.6576 3.41935C16.3548 3.42915 16.0475 3.43373 15.7519 3.46231C15.604 3.47663 15.4589 3.49622 15.3187 3.52675C15.1786 3.55728 15.0427 3.59938 14.9142 3.65385C14.6572 3.76274 14.4068 3.86807 14.1641 3.96173C13.9216 4.05538 13.687 4.13597 13.4571 4.19262C13.3422 4.22097 13.2291 4.24388 13.117 4.25883C13.005 4.27384 12.8934 4.2814 12.7841 4.28031C12.6748 4.27923 12.5669 4.26977 12.4601 4.2499C12.3533 4.23002 12.2478 4.20001 12.1433 4.1586C12.091 4.13792 12.0459 4.11575 12.009 4.09238C11.9722 4.06901 11.9443 4.04472 11.9213 4.01901C11.8984 3.99329 11.8819 3.96614 11.8712 3.93847C11.8605 3.91075 11.8551 3.88188 11.8551 3.85255C11.8552 3.79384 11.875 3.73307 11.9088 3.66995C11.9426 3.60682 11.9898 3.54147 12.0448 3.47663C12.1549 3.34701 12.2952 3.2167 12.4154 3.09716C12.4754 3.03741 12.5308 2.98019 12.5747 2.92709C12.6185 2.87405 12.6507 2.82571 12.666 2.78212C12.6812 2.73859 12.6883 2.69929 12.6857 2.66401C12.683 2.62867 12.6701 2.59608 12.6499 2.5691C12.6296 2.54218 12.6017 2.51955 12.5639 2.50111C12.5262 2.48266 12.4793 2.46972 12.4243 2.45992C12.3143 2.44034 12.1707 2.43696 11.9929 2.45276C11.8151 2.46857 11.6033 2.50254 11.3593 2.55478C11.1154 2.60708 10.8746 2.65399 10.6344 2.68366C10.5143 2.69849 10.3947 2.70852 10.2746 2.71413C10.1544 2.71974 10.0339 2.72009 9.91301 2.71413C9.79215 2.70811 9.6702 2.69649 9.54785 2.6765C9.42556 2.65656 9.30178 2.62873 9.17737 2.59241C9.0529 2.55604 8.92866 2.50964 8.80145 2.45454C8.67423 2.39944 8.54375 2.33569 8.41304 2.25945C8.34768 2.22136 8.2892 2.18006 8.23581 2.13773C8.18249 2.0954 8.135 2.05089 8.09262 2.0053C8.00779 1.914 7.94312 1.81811 7.89575 1.7189C7.87908 1.68402 7.87444 1.64857 7.86172 1.61328L7.86161 1.61334Z" fill="#09FFD3"/>
<path id="Vector_6" d="M7.86133 1.61127C7.87404 1.64655 7.87869 1.68201 7.89536 1.71689C7.94272 1.8161 8.00739 1.91199 8.09222 2.00329C8.13466 2.04888 8.18209 2.09339 8.23542 2.13572C8.2888 2.17805 8.34728 2.21935 8.41264 2.25744C8.54335 2.33368 8.67383 2.39743 8.80105 2.45253C8.92832 2.50763 9.05251 2.55403 9.17698 2.5904C9.30139 2.62671 9.42517 2.65455 9.54751 2.67449C9.66981 2.69448 9.79175 2.7061 9.91267 2.71212C10.0335 2.71808 10.154 2.71773 10.2742 2.71212C10.3944 2.7065 10.5139 2.69648 10.634 2.68165C10.8742 2.65198 11.115 2.60506 11.3589 2.55277C11.6029 2.50053 11.8147 2.46656 11.9925 2.45075C12.1703 2.435 12.3139 2.43832 12.4239 2.45791C12.4789 2.46771 12.5258 2.48065 12.5635 2.4991C12.6013 2.51754 12.6292 2.54017 12.6495 2.56709C12.6697 2.59407 12.6826 2.62666 12.6853 2.662C12.6879 2.69734 12.6808 2.73658 12.6656 2.78011C12.6503 2.8237 12.6181 2.87204 12.5743 2.92508C12.5304 2.97818 12.475 3.0354 12.415 3.09514C12.2949 3.21469 12.1545 3.345 12.0444 3.47462C11.9894 3.53946 11.9422 3.60481 11.9084 3.66794C11.8746 3.73111 11.8548 3.79183 11.8547 3.85054C11.8547 3.87987 11.8602 3.90874 11.8708 3.93646C11.8815 3.96413 11.898 3.99128 11.9209 4.01699C11.944 4.04271 11.9718 4.067 12.0086 4.09037C12.0455 4.11374 12.0906 4.13591 12.1429 4.15658C12.2475 4.198 12.3529 4.22801 12.4597 4.24789C12.5666 4.26776 12.6744 4.27721 12.7837 4.2783C12.893 4.27939 13.0046 4.27183 13.1166 4.25682C13.2287 4.24187 13.3418 4.21896 13.4568 4.19061C13.6866 4.13396 13.9212 4.05337 14.1638 3.95972C14.4064 3.86606 14.6568 3.76078 14.9138 3.65184C15.0423 3.59737 15.1782 3.55527 15.3183 3.52474C15.4585 3.49421 15.6036 3.47462 15.7515 3.4603C16.0472 3.43172 16.3545 3.42713 16.6572 3.41734C16.8086 3.41241 16.9574 3.40583 17.1047 3.39408C17.252 3.38234 17.3969 3.36665 17.5361 3.34036C17.5852 3.33113 17.6297 3.31275 17.6775 3.30101C17.722 3.17488 17.7545 3.05602 17.7545 2.95372C17.7545 1.76867 15.8714 2.32726 15.8714 2.32726V2.32548C15.8069 2.35584 15.7429 2.38631 15.6853 2.40607C15.6121 2.43111 15.545 2.44686 15.4883 2.44903C15.3751 2.45339 15.2325 2.43821 15.0928 2.40607C15.0229 2.38998 14.954 2.37016 14.8905 2.34519C14.827 2.32021 14.7689 2.29123 14.7204 2.25749C14.672 2.2237 14.6325 2.18532 14.6077 2.14293C14.5829 2.10055 14.5716 2.05421 14.579 2.00329C14.5865 1.95237 14.6129 1.89612 14.6614 1.83684C14.7098 1.77755 14.7817 1.71466 14.8797 1.64713C15.0758 1.51206 15.2572 1.3782 15.4078 1.24617C15.4831 1.18013 15.5508 1.11426 15.6083 1.04925C15.6658 0.984292 15.7125 0.919681 15.7479 0.85593C15.7672 0.821276 15.7738 0.788168 15.7855 0.753915C15.6011 0.434011 15.2018 0.354393 14.9317 0.408464C14.2616 0.54244 13.1568 1.19708 13.0683 1.24972C13.0551 1.26124 13.0464 1.27418 13.0325 1.28552C12.9465 1.35563 12.8493 1.42162 12.739 1.47884C12.6287 1.536 12.5052 1.58498 12.3685 1.62026C12.2317 1.65549 12.0811 1.67674 11.9156 1.68109C11.7501 1.68545 11.6208 1.68401 11.5218 1.67571C11.4228 1.6674 11.3544 1.6536 11.3124 1.63453C11.2913 1.62502 11.2763 1.61419 11.2676 1.60233C11.259 1.59048 11.2578 1.5769 11.2604 1.56293C11.2658 1.53503 11.2909 1.50296 11.3339 1.46807C11.4199 1.39836 11.5732 1.31605 11.7527 1.23002C11.9322 1.14399 12.1384 1.054 12.3344 0.96688C12.5305 0.879758 12.6964 0.791836 12.8321 0.705516C12.9325 0.641592 12.9987 0.580075 13.0665 0.519359C13.0529 0.490433 13.0371 0.463797 13.0146 0.444208C12.5015 -0.00291333 12.177 0.305191 10.992 0.723444C9.80693 1.1417 8.14343 0.618967 7.89174 1.41973C7.87422 1.47563 7.8678 1.54402 7.86133 1.61127Z" fill="url(#paint0_linear_1116_910)"/>
</g>
</g>
<path id="Vector_7" d="M11.0129 13.8691H9.90625V15.7135H11.0129V13.8691Z" fill="#000001"/>
<path id="Vector_8" d="M8.43084 13.8691H7.32422V15.7135H8.43084V13.8691Z" fill="#000001"/>
<g id="Union">
<path d="M6.21777 17.5566H7.32439V18.6633H6.21777V17.5566Z" fill="#000001"/>
<path d="M11.0131 18.6633V19.7699H10.2754V20.5076H8.06214V19.7699H7.32439V18.6633H8.43101V19.401H9.9065V18.6633L11.0131 18.6633Z" fill="#000001"/>
<path d="M11.0131 18.6633V17.5566H12.1197V18.6633H11.0131Z" fill="#000001"/>
</g>
<path id="Union_2" d="M13.0699 0.516199C13.1738 0.736932 13.0447 1.18869 13.0214 1.26566L13.0285 1.27097L13.0688 1.24814L13.0714 1.24582C13.1599 1.19318 14.2647 0.538534 14.9348 0.404558C15.2045 0.350579 15.6028 0.429833 15.7877 0.748368L15.7442 0.682748C15.7638 0.716829 15.826 0.815489 15.8403 0.855241C16.0145 1.33905 15.9085 2.10399 15.8805 2.28048L15.8931 2.31809C16.0881 2.26403 17.7576 1.83401 17.7576 2.94982C17.7576 3.05211 17.7252 3.17096 17.6806 3.29708C17.2087 4.63306 14.482 7.13298 14.482 7.13298L14.4802 7.1437C14.4793 7.16849 14.4688 7.31912 14.3447 7.81688L14.3765 7.83935C19.6405 9.16822 20.1973 12.1614 20.1973 16.7517C20.1973 21.3524 14.3424 24.5599 10.7176 23.5839C7.09277 22.6079 1.09724 19.9582 2.83996 14.1724C4.5427 8.51965 9.20826 7.53136 9.42363 7.48851L9.46286 7.47705L9.87814 6.7145L9.8793 6.7155L9.87997 6.71416C9.87997 6.71416 7.72897 3.00738 7.86443 1.60736L7.86469 1.60467C7.87108 1.53829 7.87755 1.47098 7.89485 1.41582C8.04267 0.9455 8.67754 0.931746 9.41644 0.915738C9.93557 0.904491 10.5061 0.892131 10.9951 0.719537C11.2521 0.628834 11.4686 0.543312 11.6553 0.469548C12.3297 0.20317 12.6159 0.0901439 13.0177 0.440301C13.0402 0.459891 13.056 0.486526 13.0696 0.515452" stroke="#8F8F8F" stroke-width="0.666667"/>
</g>
</g>
<defs>
<linearGradient id="paint0_linear_1116_910" x1="17.3626" y1="-2.6652" x2="13.3626" y2="4.00147" gradientUnits="userSpaceOnUse">
<stop stop-color="white"/>
<stop offset="1" stop-color="#3D3D3D"/>
</linearGradient>
<clipPath id="clip0_1116_910">
<rect width="24" height="24" fill="white" transform="translate(0.697266)"/>
</clipPath>
</defs>
</svg>
