<svg width="24" height="24" viewBox="0 0 24 24" fill="none" xmlns="http://www.w3.org/2000/svg">
<g id="Frame 1321315027" clip-path="url(#clip0_1097_7413)">
<g id="Group 27302">
<g id="Group">
<g id="Group_2">
<path id="Vector" d="M13.6763 7.84107L13.6584 7.84823C13.6584 7.84823 13.6308 7.87263 13.5743 7.91267C13.5178 7.95271 13.4341 8.00838 13.3237 8.06841C13.2133 8.12844 13.0756 8.19282 12.9137 8.25279C12.7519 8.3127 12.5643 8.36872 12.3535 8.40848C12.2481 8.42835 12.1377 8.44399 12.0206 8.45504C11.9035 8.4661 11.7804 8.47137 11.6518 8.47114C11.5232 8.47114 11.3888 8.46553 11.2491 8.45144C11.1094 8.43735 10.9647 8.41564 10.8141 8.38522C10.6637 8.35481 10.508 8.3146 10.347 8.26528C10.1859 8.21602 10.0187 8.15696 9.84754 8.08628C9.67633 8.01566 9.50054 7.9338 9.31948 7.83929C9.13848 7.74478 8.95347 7.63796 8.76284 7.5171C8.74715 7.50713 8.7389 7.50009 8.72343 7.49023C8.50806 7.53308 3.8425 8.52137 2.13977 14.1741C0.397049 19.9599 6.39257 22.6096 10.0174 23.5857C13.6422 24.5616 19.4971 21.3541 19.4971 16.7534C19.4971 12.1631 18.9403 9.17023 13.6764 7.84136L13.6763 7.84107Z" fill="#83FF80"/>
<path id="Vector_2" d="M13.7803 7.14284C13.6507 7.18557 13.5214 7.22297 13.3919 7.25379C13.2503 7.28753 13.108 7.31519 12.9677 7.33616C12.8273 7.35712 12.6885 7.37115 12.5506 7.38089C12.4126 7.39063 12.2751 7.39521 12.1407 7.39521C11.8719 7.39521 11.6131 7.37682 11.3656 7.34687C11.1182 7.31697 10.8825 7.27487 10.6657 7.22698C10.449 7.17904 10.2499 7.12514 10.0732 7.07124C9.89659 7.01734 9.74217 6.96344 9.61501 6.9155C9.36069 6.81967 9.21583 6.74904 9.21583 6.74904L9.17825 6.7168L8.76298 7.47935C8.76298 7.47935 8.72867 7.48726 8.72363 7.48829C8.73904 7.49814 8.74734 7.50519 8.76298 7.5151C8.95361 7.63601 9.13862 7.74278 9.31968 7.83729C9.50074 7.93186 9.67653 8.01371 9.84774 8.08434C10.0189 8.15496 10.1861 8.21407 10.3472 8.26333C10.5082 8.31259 10.6638 8.3528 10.8143 8.38328C10.9648 8.41369 11.1096 8.4354 11.2493 8.44949C11.389 8.46358 11.5234 8.46891 11.652 8.46919C11.7806 8.46919 11.9036 8.46415 12.0207 8.45304C12.1379 8.44199 12.2483 8.42641 12.3537 8.40653C12.5644 8.36678 12.7521 8.31076 12.9139 8.25079C13.0758 8.19088 13.2134 8.12649 13.3238 8.06641C13.4343 8.00638 13.518 7.95076 13.5744 7.91072C13.6309 7.87063 13.6586 7.84628 13.6586 7.84628L13.6764 7.83912C13.6644 7.83609 13.6546 7.83139 13.6425 7.82836C13.7765 7.29222 13.7801 7.15361 13.7803 7.14284Z" fill="#000001"/>
<path id="Vector_3" d="M12.3716 1.24984C12.368 1.25196 12.3179 1.28026 12.3179 1.28026C12.3179 1.28026 12.4836 0.761307 12.3698 0.519531C12.302 0.58019 12.2358 0.641708 12.1353 0.705688C11.9997 0.792008 11.8337 0.879931 11.6377 0.967053C11.4417 1.05417 11.2354 1.14411 11.0559 1.2302C10.8765 1.31623 10.7231 1.39854 10.6371 1.46825C10.5941 1.50307 10.569 1.5352 10.5637 1.5631C10.5611 1.57708 10.5623 1.5906 10.5709 1.60251C10.5795 1.61437 10.5946 1.62519 10.6156 1.6347C10.6577 1.65377 10.7261 1.66758 10.825 1.67588C10.9241 1.68419 11.0533 1.68563 11.2188 1.68127C11.3844 1.67692 11.535 1.65566 11.6717 1.62038C11.8085 1.58515 11.932 1.53618 12.0422 1.47902C12.1525 1.4218 12.2497 1.35581 12.3358 1.2857C12.3497 1.27436 12.3583 1.26142 12.3716 1.2499V1.24984Z" fill="#83FF80"/>
<path id="Vector_4" d="M15.1745 2.31962C15.1751 2.31652 15.3381 1.40601 15.1405 0.857221C15.1262 0.81747 15.1083 0.782128 15.0886 0.748047C15.0769 0.7823 15.0703 0.815407 15.051 0.850061C15.0156 0.913756 14.9689 0.978424 14.9114 1.04338C14.8539 1.10833 14.7862 1.17426 14.7109 1.2403C14.5603 1.37233 14.3789 1.50619 14.1829 1.64126C14.0849 1.70873 14.013 1.77168 13.9645 1.83097C13.9161 1.89025 13.8896 1.9465 13.8821 1.99742C13.8747 2.04834 13.886 2.09462 13.9108 2.13707C13.9356 2.17945 13.9751 2.21783 14.0236 2.25162C14.072 2.28536 14.1302 2.31435 14.1936 2.33932C14.2571 2.36429 14.3261 2.38411 14.3959 2.40021C14.5356 2.43228 14.6782 2.44752 14.7915 2.44317C14.8481 2.44099 14.9152 2.42524 14.9884 2.40021C15.0461 2.38044 15.11 2.34997 15.1745 2.31962Z" fill="#83FF80"/>
<path id="Vector_5" d="M7.16434 1.61334C7.02888 3.01335 9.17988 6.72012 9.17988 6.72012L9.17811 6.72367L9.21568 6.75592C9.21568 6.75586 9.36054 6.82648 9.61486 6.92237C9.74202 6.97026 9.89645 7.02416 10.0731 7.07806C10.2497 7.13201 10.4488 7.18591 10.6656 7.2338C10.8823 7.28174 11.118 7.32378 11.3655 7.35374C11.6129 7.3837 11.8718 7.40208 12.1405 7.40208C12.2749 7.40208 12.4125 7.3975 12.5504 7.38776C12.6883 7.37803 12.8271 7.36399 12.9675 7.34297C13.1078 7.32201 13.2501 7.29434 13.3917 7.26066C13.5212 7.22979 13.6505 7.19239 13.7801 7.14965C13.7801 7.14908 13.7819 7.13894 13.7819 7.13894C13.7819 7.13894 16.5087 4.63899 16.9806 3.30302C16.9328 3.31476 16.8883 3.33315 16.8392 3.34237C16.7001 3.36866 16.555 3.38435 16.4078 3.39609C16.2606 3.40784 16.1117 3.41448 15.9603 3.41935C15.6575 3.42915 15.3503 3.43373 15.0546 3.46231C14.9068 3.47663 14.7616 3.49622 14.6215 3.52675C14.4813 3.55728 14.3454 3.59938 14.2169 3.65385C13.9599 3.76274 13.7095 3.86807 13.4669 3.96173C13.2243 4.05538 12.9897 4.13597 12.7598 4.19262C12.6449 4.22097 12.5318 4.24388 12.4198 4.25883C12.3077 4.27384 12.1961 4.2814 12.0868 4.28031C11.9775 4.27923 11.8697 4.26977 11.7628 4.2499C11.656 4.23002 11.5506 4.20001 11.446 4.1586C11.3937 4.13792 11.3486 4.11575 11.3118 4.09238C11.2749 4.06901 11.247 4.04472 11.2241 4.01901C11.2011 3.99329 11.1846 3.96614 11.1739 3.93847C11.1632 3.91075 11.1578 3.88188 11.1578 3.85255C11.158 3.79384 11.1777 3.73307 11.2115 3.66995C11.2453 3.60682 11.2926 3.54147 11.3476 3.47663C11.4576 3.34701 11.598 3.2167 11.7181 3.09716C11.7781 3.03741 11.8335 2.98019 11.8774 2.92709C11.9213 2.87405 11.9535 2.82571 11.9687 2.78212C11.9839 2.73859 11.991 2.69929 11.9884 2.66401C11.9858 2.62867 11.9729 2.59608 11.9526 2.5691C11.9323 2.54218 11.9044 2.51955 11.8667 2.50111C11.8289 2.48266 11.7821 2.46972 11.727 2.45992C11.6171 2.44034 11.4735 2.43696 11.2957 2.45276C11.1179 2.46857 10.906 2.50254 10.662 2.55478C10.4181 2.60708 10.1773 2.65399 9.93711 2.68366C9.81706 2.69849 9.69746 2.70852 9.57734 2.71413C9.45717 2.71974 9.33666 2.72009 9.21574 2.71413C9.09488 2.70811 8.97293 2.69649 8.85059 2.6765C8.72829 2.65656 8.60451 2.62873 8.4801 2.59241C8.35564 2.55604 8.2314 2.50964 8.10418 2.45454C7.97696 2.39944 7.84648 2.33569 7.71577 2.25945C7.65041 2.22136 7.59193 2.18006 7.53855 2.13773C7.48522 2.0954 7.43774 2.05089 7.39535 2.0053C7.31052 1.914 7.24585 1.81811 7.19848 1.7189C7.18181 1.68402 7.17717 1.64857 7.16446 1.61328L7.16434 1.61334Z" fill="#83FF80"/>
<path id="Vector_6" d="M7.16406 1.61127C7.17678 1.64655 7.18142 1.68201 7.19809 1.71689C7.24546 1.8161 7.31012 1.91199 7.39496 2.00329C7.4374 2.04888 7.48483 2.09339 7.53815 2.13572C7.59154 2.17805 7.65002 2.21935 7.71537 2.25744C7.84609 2.33368 7.97657 2.39743 8.10378 2.45253C8.23106 2.50763 8.35524 2.55403 8.47971 2.5904C8.60412 2.62671 8.7279 2.65455 8.85025 2.67449C8.97254 2.69448 9.09449 2.7061 9.2154 2.71212C9.33626 2.71808 9.45677 2.71773 9.57695 2.71212C9.69712 2.7065 9.81666 2.69648 9.93672 2.68165C10.1769 2.65198 10.4177 2.60506 10.6616 2.55277C10.9057 2.50053 11.1175 2.46656 11.2953 2.45075C11.4731 2.435 11.6167 2.43832 11.7266 2.45791C11.7817 2.46771 11.8285 2.48065 11.8663 2.4991C11.904 2.51754 11.9319 2.54017 11.9522 2.56709C11.9725 2.59407 11.9854 2.62666 11.988 2.662C11.9906 2.69734 11.9835 2.73658 11.9683 2.78011C11.9531 2.8237 11.9209 2.87204 11.877 2.92508C11.8331 2.97818 11.7777 3.0354 11.7177 3.09514C11.5976 3.21469 11.4572 3.345 11.3472 3.47462C11.2922 3.53946 11.245 3.60481 11.2111 3.66794C11.1773 3.73111 11.1576 3.79183 11.1575 3.85054C11.1574 3.87987 11.1629 3.90874 11.1735 3.93646C11.1843 3.96413 11.2007 3.99128 11.2237 4.01699C11.2467 4.04271 11.2745 4.067 11.3114 4.09037C11.3482 4.11374 11.3933 4.13591 11.4456 4.15658C11.5502 4.198 11.6556 4.22801 11.7624 4.24789C11.8693 4.26776 11.9771 4.27721 12.0865 4.2783C12.1957 4.27939 12.3073 4.27183 12.4194 4.25682C12.5314 4.24187 12.6445 4.21896 12.7595 4.19061C12.9893 4.13396 13.2239 4.05337 13.4665 3.95972C13.7091 3.86606 13.9595 3.76078 14.2166 3.65184C14.345 3.59737 14.4809 3.55527 14.6211 3.52474C14.7612 3.49421 14.9064 3.47462 15.0543 3.4603C15.3499 3.43172 15.6572 3.42713 15.96 3.41734C16.1114 3.41241 16.2602 3.40583 16.4074 3.39408C16.5547 3.38234 16.6997 3.36665 16.8388 3.34036C16.8879 3.33113 16.9324 3.31275 16.9802 3.30101C17.0248 3.17488 17.0572 3.05602 17.0572 2.95372C17.0572 1.76867 15.1742 2.32726 15.1742 2.32726V2.32548C15.1096 2.35584 15.0457 2.38631 14.988 2.40607C14.9148 2.43111 14.8477 2.44686 14.7911 2.44903C14.6778 2.45339 14.5352 2.43821 14.3955 2.40607C14.3257 2.38998 14.2567 2.37016 14.1932 2.34519C14.1298 2.32021 14.0716 2.29123 14.0232 2.25749C13.9747 2.2237 13.9353 2.18532 13.9104 2.14293C13.8856 2.10055 13.8743 2.05421 13.8818 2.00329C13.8893 1.95237 13.9157 1.89612 13.9641 1.83684C14.0125 1.77755 14.0845 1.71466 14.1825 1.64713C14.3785 1.51206 14.5599 1.3782 14.7105 1.24617C14.7859 1.18013 14.8535 1.11426 14.911 1.04925C14.9685 0.984292 15.0153 0.919681 15.0507 0.85593C15.0699 0.821276 15.0765 0.788168 15.0882 0.753915C14.9038 0.434011 14.5046 0.354393 14.2344 0.408464C13.5644 0.54244 12.4596 1.19708 12.3711 1.24972C12.3578 1.26124 12.3491 1.27418 12.3353 1.28552C12.2492 1.35563 12.152 1.42162 12.0417 1.47884C11.9315 1.536 11.808 1.58498 11.6712 1.62026C11.5344 1.65549 11.3839 1.67674 11.2183 1.68109C11.0528 1.68545 10.9236 1.68401 10.8245 1.67571C10.7255 1.6674 10.6572 1.6536 10.6151 1.63453C10.5941 1.62502 10.579 1.61419 10.5703 1.60233C10.5617 1.59048 10.5605 1.5769 10.5632 1.56293C10.5685 1.53503 10.5936 1.50296 10.6366 1.46807C10.7226 1.39836 10.876 1.31605 11.0554 1.23002C11.2349 1.14399 11.4412 1.054 11.6372 0.96688C11.8332 0.879758 11.9992 0.791836 12.1348 0.705516C12.2353 0.641592 12.3014 0.580075 12.3692 0.519359C12.3557 0.490433 12.3399 0.463797 12.3174 0.444208C11.8042 -0.00291333 11.4798 0.305191 10.2947 0.723444C9.10966 1.1417 7.44616 0.618967 7.19448 1.41973C7.17695 1.47563 7.17054 1.54402 7.16406 1.61127Z" fill="url(#paint0_linear_1097_7413)"/>
</g>
</g>
<path id="Vector_7" d="M10.3156 13.8711H9.20898V15.7155H10.3156V13.8711Z" fill="#000001"/>
<path id="Vector_8" d="M7.73357 13.8711H6.62695V15.7155H7.73357V13.8711Z" fill="#000001"/>
<g id="Union">
<path d="M5.52051 17.5586H6.62713V18.6652H5.52051V17.5586Z" fill="#000001"/>
<path d="M10.3159 18.6652V19.7718H9.57811V20.5096H7.36487V19.7718H6.62713V18.6652H7.73374V19.403H9.20924V18.6652L10.3159 18.6652Z" fill="#000001"/>
<path d="M10.3159 18.6652V17.5586H11.4225V18.6652H10.3159Z" fill="#000001"/>
</g>
<path id="Union_2" d="M12.3726 0.518152C12.4765 0.738885 12.3474 1.19064 12.3242 1.26761L12.3312 1.27292L12.3716 1.25009L12.3742 1.24777C12.4627 1.19513 13.5675 0.540487 14.2375 0.406511C14.5072 0.352532 14.9055 0.431786 15.0904 0.750321L15.0469 0.684701C15.0665 0.718782 15.1287 0.817442 15.1431 0.857194C15.3172 1.341 15.2112 2.10594 15.1833 2.28243L15.1958 2.32004C15.3909 2.26598 17.0603 1.83596 17.0603 2.95177C17.0603 3.05407 17.0279 3.17291 16.9833 3.29904C16.5114 4.63502 13.7847 7.13494 13.7847 7.13494L13.783 7.14565C13.782 7.17044 13.7715 7.32108 13.6474 7.81884L13.6792 7.8413C18.9432 9.17018 19.5 12.1634 19.5 16.7536C19.5 21.3544 13.6452 24.5618 10.0203 23.5859C6.3955 22.6099 0.399979 19.9601 2.1427 14.1744C3.84543 8.5216 8.51099 7.53331 8.72636 7.49047L8.7656 7.47901L9.18087 6.71645L9.18204 6.71745L9.18271 6.71611C9.18271 6.71611 7.0317 3.00933 7.16717 1.60932L7.16743 1.60662C7.17381 1.54025 7.18029 1.47293 7.19758 1.41778C7.34541 0.947453 7.98027 0.933699 8.71917 0.917691C9.23831 0.906444 9.8088 0.894084 10.2978 0.72149C10.5548 0.630787 10.7713 0.545265 10.9581 0.471501C11.6325 0.205123 11.9186 0.092097 12.3205 0.442255C12.343 0.461844 12.3588 0.488479 12.3724 0.517405" stroke="#000001" stroke-width="0.666667"/>
</g>
</g>
<defs>
<linearGradient id="paint0_linear_1097_7413" x1="16.6654" y1="-2.6652" x2="12.6654" y2="4.00147" gradientUnits="userSpaceOnUse">
<stop stop-color="white"/>
<stop offset="1" stop-color="#3D3D3D"/>
</linearGradient>
<clipPath id="clip0_1097_7413">
<rect width="24" height="24" fill="white"/>
</clipPath>
</defs>
</svg>
