<svg width="24" height="24" viewBox="0 0 24 24" fill="none" xmlns="http://www.w3.org/2000/svg">
<g clip-path="url(#clip0_1097_5570)">
<path d="M13.6783 7.83912L13.6603 7.84628C13.6603 7.84628 13.6327 7.87068 13.5762 7.91071C13.5198 7.95075 13.436 8.00643 13.3257 8.06646C13.2152 8.12649 13.0776 8.19087 12.9157 8.25084C12.7539 8.31075 12.5662 8.36677 12.3555 8.40652C12.2501 8.4264 12.1397 8.44204 12.0225 8.45309C11.9054 8.46415 11.7824 8.46942 11.6538 8.46919C11.5252 8.46919 11.3908 8.46357 11.2511 8.44948C11.1114 8.43539 10.9666 8.41368 10.8161 8.38327C10.6656 8.35285 10.5099 8.31264 10.3489 8.26333C10.1879 8.21407 10.0207 8.15501 9.84949 8.08433C9.67828 8.0137 9.50249 7.93185 9.32143 7.83734C9.14043 7.74283 8.95542 7.636 8.7648 7.51514C8.7491 7.50518 8.74085 7.49813 8.72539 7.48828C8.51002 7.53113 3.84446 8.51942 2.14172 14.1722C0.399003 19.9579 6.39453 22.6077 10.0193 23.5837C13.6442 24.5596 19.499 21.3522 19.499 16.7515C19.499 12.1612 18.9423 9.16828 13.6783 7.8394L13.6783 7.83912Z" fill="#FAFF00"/>
<path d="M13.7813 7.14089C13.6516 7.18362 13.5224 7.22102 13.3929 7.25184C13.2513 7.28557 13.109 7.31324 12.9687 7.3342C12.8283 7.35517 12.6895 7.3692 12.5515 7.37894C12.4136 7.38868 12.276 7.39326 12.1417 7.39326C11.8729 7.39326 11.6141 7.37487 11.3666 7.34491C11.1192 7.31501 10.8835 7.27291 10.6667 7.22503C10.45 7.17709 10.2509 7.12319 10.0742 7.06929C9.89757 7.01539 9.74314 6.96149 9.61598 6.91354C9.36167 6.81772 9.21681 6.74709 9.21681 6.74709L9.17923 6.71484L8.76396 7.4774C8.76396 7.4774 8.72965 7.48531 8.72461 7.48634C8.74002 7.49619 8.74832 7.50323 8.76396 7.51314C8.95458 7.63406 9.13959 7.74083 9.32065 7.83534C9.50171 7.92991 9.67751 8.01176 9.84871 8.08238C10.0199 8.15301 10.1871 8.21212 10.3481 8.26138C10.5091 8.31064 10.6648 8.35085 10.8153 8.38132C10.9658 8.41174 11.1106 8.43345 11.2503 8.44754C11.39 8.46163 11.5244 8.46695 11.653 8.46724C11.7816 8.46724 11.9046 8.4622 12.0217 8.45109C12.1388 8.44003 12.2493 8.42445 12.3547 8.40458C12.5654 8.36483 12.753 8.30881 12.9149 8.24884C13.0768 8.18892 13.2144 8.12454 13.3248 8.06446C13.4352 8.00443 13.5189 7.94881 13.5754 7.90877C13.6319 7.86867 13.6595 7.84433 13.6595 7.84433L13.6774 7.83717C13.6654 7.83414 13.6555 7.82944 13.6435 7.8264C13.7775 7.29027 13.781 7.15165 13.7813 7.14089Z" fill="#FF2626"/>
<path d="M12.3735 1.24789C12.37 1.25001 12.3198 1.2783 12.3198 1.2783C12.3198 1.2783 12.4855 0.759353 12.3718 0.517578C12.3039 0.578237 12.2378 0.639755 12.1373 0.703735C12.0016 0.790055 11.8357 0.877978 11.6396 0.965099C11.4436 1.05222 11.2373 1.14216 11.0579 1.22825C10.8785 1.31428 10.7251 1.39658 10.6391 1.46629C10.5961 1.50112 10.571 1.53325 10.5657 1.56115C10.5631 1.57512 10.5643 1.58865 10.5729 1.60056C10.5814 1.61242 10.5966 1.62324 10.6176 1.63275C10.6596 1.65182 10.728 1.66562 10.827 1.67393C10.926 1.68223 11.0553 1.68367 11.2208 1.67932C11.3864 1.67497 11.5369 1.65371 11.6736 1.61843C11.8104 1.5832 11.9339 1.53423 12.0442 1.47707C12.1545 1.41984 12.2516 1.35386 12.3377 1.28375C12.3517 1.27241 12.3602 1.25946 12.3735 1.24795V1.24789Z" fill="#FAFF00"/>
<path d="M15.1765 2.31766C15.1771 2.31457 15.34 1.40406 15.1425 0.855268C15.1281 0.815516 15.1102 0.780175 15.0906 0.746094C15.0788 0.780347 15.0722 0.813454 15.053 0.848108C15.0176 0.911803 14.9709 0.976471 14.9133 1.04143C14.8559 1.10638 14.7882 1.17231 14.7129 1.23835C14.5623 1.37038 14.3809 1.50424 14.1848 1.6393C14.0868 1.70678 14.0149 1.76973 13.9665 1.82901C13.918 1.8883 13.8916 1.94455 13.8841 1.99547C13.8767 2.04639 13.8879 2.09267 13.9127 2.13511C13.9376 2.1775 13.9771 2.21588 14.0255 2.24967C14.074 2.28341 14.1321 2.31239 14.1956 2.33737C14.259 2.36234 14.328 2.38216 14.3978 2.39825C14.5375 2.43033 14.6802 2.44557 14.7934 2.44121C14.8501 2.43904 14.9171 2.42328 14.9903 2.39825C15.048 2.37849 15.1119 2.34802 15.1765 2.31766Z" fill="#FAFF00"/>
<path d="M7.16727 1.61138C7.03181 3.0114 9.18281 6.71816 9.18281 6.71816L9.18104 6.72172L9.21861 6.75396C9.21861 6.75391 9.36347 6.82453 9.61779 6.92042C9.74495 6.9683 9.89938 7.0222 10.076 7.0761C10.2527 7.13006 10.4517 7.18396 10.6685 7.23184C10.8853 7.27979 11.1209 7.32183 11.3684 7.35179C11.6159 7.38174 11.8747 7.40013 12.1435 7.40013C12.2778 7.40013 12.4154 7.39555 12.5533 7.38581C12.6913 7.37607 12.8301 7.36204 12.9704 7.34102C13.1107 7.32005 13.2531 7.29239 13.3946 7.25871C13.5242 7.22783 13.6534 7.19043 13.7831 7.1477C13.7831 7.14713 13.7848 7.13699 13.7848 7.13699C13.7848 7.13699 16.5116 4.63704 16.9835 3.30106C16.9358 3.31281 16.8912 3.33119 16.8421 3.34041C16.703 3.36671 16.558 3.3824 16.4108 3.39414C16.2635 3.40588 16.1147 3.41253 15.9632 3.4174C15.6605 3.42719 15.3532 3.43177 15.0575 3.46036C14.9097 3.47468 14.7646 3.49427 14.6244 3.5248C14.4842 3.55533 14.3484 3.59743 14.2198 3.6519C13.9628 3.76079 13.7124 3.86612 13.4698 3.95977C13.2272 4.05342 12.9926 4.13402 12.7628 4.19067C12.6479 4.21902 12.5347 4.24193 12.4227 4.25688C12.3107 4.27189 12.1991 4.27945 12.0897 4.27836C11.9804 4.27727 11.8726 4.26782 11.7658 4.24794C11.6589 4.22807 11.5535 4.19806 11.4489 4.15664C11.3967 4.13596 11.3516 4.1138 11.3147 4.09043C11.2779 4.06706 11.25 4.04277 11.227 4.01705C11.204 3.99133 11.1875 3.96418 11.1769 3.93652C11.1662 3.90879 11.1607 3.87993 11.1608 3.8506C11.1609 3.79189 11.1807 3.73112 11.2144 3.66799C11.2482 3.60487 11.2955 3.53952 11.3505 3.47468C11.4605 3.34505 11.6009 3.21474 11.721 3.0952C11.7811 3.03546 11.8364 2.97824 11.8803 2.92514C11.9242 2.8721 11.9564 2.82376 11.9716 2.78017C11.9869 2.73663 11.994 2.69734 11.9913 2.66206C11.9887 2.62672 11.9758 2.59412 11.9555 2.56715C11.9352 2.54022 11.9074 2.5176 11.8696 2.49915C11.8319 2.48071 11.785 2.46777 11.73 2.45797C11.62 2.43838 11.4764 2.435 11.2986 2.45081C11.1208 2.46662 10.9089 2.50059 10.665 2.55283C10.421 2.60512 10.1802 2.65203 9.94004 2.6817C9.81999 2.69654 9.70039 2.70656 9.58027 2.71218C9.4601 2.71779 9.33959 2.71813 9.21867 2.71218C9.09781 2.70616 8.97586 2.69453 8.85352 2.67454C8.73122 2.65461 8.60744 2.62677 8.48303 2.59046C8.35856 2.55409 8.23433 2.50769 8.10711 2.45259C7.97989 2.39749 7.84941 2.33373 7.7187 2.25749C7.65334 2.2194 7.59486 2.17811 7.54148 2.13578C7.48815 2.09345 7.44067 2.04894 7.39828 2.00335C7.31345 1.91204 7.24878 1.81616 7.20141 1.71695C7.18474 1.68207 7.1801 1.64661 7.16739 1.61133L7.16727 1.61138Z" fill="#FAFF00"/>
<path d="M7.16602 1.60932C7.17873 1.6446 7.18337 1.68006 7.20004 1.71494C7.24741 1.81415 7.31208 1.91003 7.39691 2.00134C7.43935 2.04693 7.48678 2.09144 7.54011 2.13377C7.59349 2.17609 7.65197 2.21739 7.71733 2.25548C7.84804 2.33172 7.97852 2.39547 8.10574 2.45058C8.23301 2.50568 8.3572 2.55207 8.48166 2.58845C8.60607 2.62476 8.72985 2.6526 8.8522 2.67253C8.97449 2.69252 9.09644 2.70415 9.21736 2.71016C9.33822 2.71612 9.45873 2.71578 9.5789 2.71016C9.69907 2.70455 9.81861 2.69453 9.93867 2.67969C10.1788 2.65002 10.4196 2.60311 10.6636 2.55082C10.9076 2.49858 11.1194 2.46461 11.2972 2.4488C11.475 2.43305 11.6186 2.43637 11.7286 2.45596C11.7836 2.46576 11.8305 2.4787 11.8682 2.49714C11.906 2.51559 11.9339 2.53821 11.9542 2.56514C11.9744 2.59211 11.9873 2.6247 11.99 2.66005C11.9926 2.69539 11.9855 2.73462 11.9702 2.77816C11.955 2.82175 11.9228 2.87009 11.8789 2.92313C11.8351 2.97623 11.7797 3.03345 11.7197 3.09319C11.5996 3.21273 11.4591 3.34304 11.3491 3.47267C11.2941 3.53751 11.2469 3.60286 11.2131 3.66598C11.1793 3.72916 11.1595 3.78988 11.1594 3.84859C11.1593 3.87791 11.1648 3.90678 11.1755 3.93451C11.1862 3.96217 11.2027 3.98932 11.2256 4.01504C11.2486 4.04076 11.2765 4.06505 11.3133 4.08842C11.3502 4.11179 11.3953 4.13395 11.4476 4.15463C11.5522 4.19604 11.6576 4.22606 11.7644 4.24593C11.8713 4.26581 11.9791 4.27526 12.0884 4.27635C12.1977 4.27744 12.3093 4.26988 12.4213 4.25487C12.5334 4.23992 12.6465 4.21701 12.7614 4.18865C12.9912 4.13201 13.2259 4.05141 13.4685 3.95776C13.7111 3.86411 13.9614 3.75883 14.2185 3.64989C14.347 3.59541 14.4829 3.55331 14.623 3.52278C14.7632 3.49225 14.9083 3.47267 15.0562 3.45835C15.3519 3.42976 15.6591 3.42518 15.9619 3.41539C16.1133 3.41046 16.2621 3.40387 16.4094 3.39213C16.5566 3.38039 16.7016 3.36469 16.8408 3.3384C16.8898 3.32918 16.9344 3.31079 16.9822 3.29905C17.0267 3.17292 17.0592 3.05407 17.0592 2.95177C17.0592 1.76672 15.1761 2.32531 15.1761 2.32531V2.32353C15.1116 2.35389 15.0476 2.38436 14.9899 2.40412C14.9167 2.42915 14.8497 2.4449 14.793 2.44708C14.6798 2.45143 14.5372 2.43625 14.3975 2.40412C14.3276 2.38803 14.2587 2.36821 14.1952 2.34323C14.1317 2.31826 14.0736 2.28928 14.0251 2.25554C13.9767 2.22174 13.9372 2.18337 13.9124 2.14098C13.8876 2.09859 13.8763 2.05226 13.8837 2.00134C13.8912 1.95041 13.9176 1.89417 13.9661 1.83488C14.0145 1.7756 14.0864 1.7127 14.1844 1.64517C14.3805 1.51011 14.5619 1.37625 14.7125 1.24422C14.7878 1.17818 14.8555 1.11231 14.913 1.04729C14.9705 0.982339 15.0172 0.917728 15.0526 0.853976C15.0719 0.819323 15.0784 0.786215 15.0902 0.751962C14.9057 0.432058 14.5065 0.35244 14.2364 0.406511C13.5663 0.540487 12.4615 1.19513 12.373 1.24777C12.3597 1.25928 12.3511 1.27223 12.3372 1.28357C12.2511 1.35368 12.1539 1.41967 12.0437 1.47689C11.9334 1.53405 11.8099 1.58303 11.6731 1.61831C11.5364 1.65354 11.3858 1.67479 11.2203 1.67914C11.0548 1.68349 10.9255 1.68206 10.8265 1.67376C10.7275 1.66545 10.6591 1.65165 10.6171 1.63257C10.596 1.62306 10.5809 1.61224 10.5723 1.60038C10.5637 1.58852 10.5625 1.57495 10.5651 1.56097C10.5705 1.53308 10.5955 1.501 10.6386 1.46612C10.7246 1.39641 10.8779 1.3141 11.0574 1.22807C11.2368 1.14203 11.4431 1.05205 11.6391 0.964927C11.8352 0.877805 12.0011 0.789882 12.1368 0.703563C12.2372 0.639639 12.3034 0.578121 12.3712 0.517406C12.3576 0.48848 12.3418 0.461844 12.3193 0.442255C11.8062 -0.00486645 11.4817 0.303238 10.2967 0.72149C9.11162 1.13974 7.44812 0.617014 7.19643 1.41778C7.1789 1.47368 7.17249 1.54207 7.16602 1.60932Z" fill="url(#paint0_linear_1097_5570)"/>
<path d="M10.3166 13.8691H9.20996V15.7135H10.3166V13.8691Z" fill="#FF2626"/>
<path d="M7.73455 13.8691H6.62793V15.7135H7.73455V13.8691Z" fill="#FF2626"/>
<path d="M5.52148 17.5566H6.6281V18.6633H5.52148V17.5566Z" fill="#FF2626"/>
<path d="M10.3168 18.6633V19.7699H9.57908V20.5076H7.36585V19.7699H6.6281V18.6633H7.73472V19.401H9.21021V18.6633L10.3168 18.6633Z" fill="#FF2626"/>
<path d="M10.3168 18.6633V17.5566H11.4234V18.6633H10.3168Z" fill="#FF2626"/>
<path d="M12.3726 0.516199C12.4765 0.736932 12.3474 1.18869 12.3242 1.26566L12.3312 1.27097L12.3716 1.24814L12.3742 1.24582C12.4627 1.19318 13.5675 0.538534 14.2375 0.404558C14.5072 0.350579 14.9055 0.429833 15.0904 0.748368L15.0469 0.682748C15.0665 0.716829 15.1287 0.815489 15.1431 0.855241C15.3172 1.33905 15.2112 2.10399 15.1833 2.28048L15.1958 2.31809C15.3909 2.26403 17.0603 1.83401 17.0603 2.94982C17.0603 3.05211 17.0279 3.17096 16.9833 3.29708C16.5114 4.63306 13.7847 7.13298 13.7847 7.13298L13.783 7.1437C13.782 7.16849 13.7715 7.31912 13.6474 7.81688L13.6792 7.83935C18.9432 9.16822 19.5 12.1614 19.5 16.7517C19.5 21.3524 13.6452 24.5599 10.0203 23.5839C6.3955 22.6079 0.399979 19.9582 2.1427 14.1724C3.84543 8.51965 8.51099 7.53136 8.72636 7.48851L8.7656 7.47705L9.18087 6.7145L9.18204 6.7155L9.18271 6.71416C9.18271 6.71416 7.0317 3.00738 7.16717 1.60736L7.16743 1.60467C7.17381 1.53829 7.18029 1.47098 7.19758 1.41582C7.34541 0.9455 7.98027 0.931746 8.71917 0.915738C9.23831 0.904491 9.8088 0.892131 10.2978 0.719537C10.5548 0.628834 10.7713 0.543312 10.9581 0.469548C11.6325 0.20317 11.9186 0.0901439 12.3205 0.440301C12.343 0.459891 12.3588 0.486526 12.3724 0.515452" stroke="#FF2626" stroke-width="0.5"/>
</g>
<defs>
<linearGradient id="paint0_linear_1097_5570" x1="12.904" y1="-0.119664" x2="12.0185" y2="5.41222" gradientUnits="userSpaceOnUse">
<stop stop-color="#FF57F8"/>
<stop offset="0.48" stop-color="#FF0000"/>
<stop offset="1" stop-color="#FF002E"/>
</linearGradient>
<clipPath id="clip0_1097_5570">
<rect width="24" height="24" fill="white"/>
</clipPath>
</defs>
</svg>
