<svg width="160" height="23" viewBox="0 0 160 23" fill="none" xmlns="http://www.w3.org/2000/svg">
<path d="M6.72016 7.7C8.45349 7.7 9.85349 8.07333 10.9202 8.82C12.0002 9.55333 12.5402 10.68 12.5402 12.2H8.68016C8.68016 11 8.02682 10.4 6.72016 10.4C5.41349 10.4 4.76016 11.1533 4.76016 12.66V13.8C4.76016 15.2933 5.44016 16.04 6.80016 16.04C8.16016 16.04 8.84016 15.4267 8.84016 14.2H12.5402C12.5402 15.7333 12.0002 16.8733 10.9202 17.62C9.85349 18.3667 8.45349 18.74 6.72016 18.74C4.86682 18.74 3.41349 18.2733 2.36016 17.34C1.30682 16.4067 0.780158 15.0333 0.780158 13.22C0.780158 11.4067 1.30682 10.0333 2.36016 9.1C3.41349 8.16667 4.86682 7.7 6.72016 7.7ZM19.82 7.68C20.1267 7.68 20.4 7.72 20.64 7.8C20.88 7.86667 21 7.90667 21 7.92V11.26H19.72C18.8933 11.26 18.2933 11.4733 17.92 11.9C17.56 12.3267 17.38 12.96 17.38 13.8V18.5H13.4V7.94H16.66L16.92 9.54C17.16 8.92667 17.54 8.46667 18.06 8.16C18.58 7.84 19.1667 7.68 19.82 7.68ZM26.8592 7.7C28.7926 7.7 30.2659 8.15333 31.2792 9.06C32.3059 9.96667 32.8192 11.3533 32.8192 13.22V13.9H24.8992C24.8992 14.66 25.0659 15.2333 25.3992 15.62C25.7459 16.0067 26.2859 16.2 27.0192 16.2C27.6859 16.2 28.1726 16.06 28.4792 15.78C28.7992 15.5 28.9592 15.1267 28.9592 14.66H32.8192C32.8192 15.94 32.3326 16.94 31.3592 17.66C30.3859 18.38 28.9659 18.74 27.0992 18.74C25.1392 18.74 23.6192 18.2867 22.5392 17.38C21.4592 16.46 20.9192 15.0733 20.9192 13.22C20.9192 11.4067 21.4459 10.0333 22.4992 9.1C23.5526 8.16667 25.0059 7.7 26.8592 7.7ZM27.0192 10.24C25.7659 10.24 25.0659 10.8333 24.9192 12.02H28.7992C28.7992 11.4733 28.6392 11.04 28.3192 10.72C28.0126 10.4 27.5792 10.24 27.0192 10.24ZM38.7591 7.7C40.3724 7.7 41.6857 7.97333 42.6991 8.52C43.7124 9.05333 44.2191 9.92667 44.2191 11.14V15.26C44.2191 15.4867 44.2724 15.6733 44.3791 15.82C44.4857 15.9667 44.6457 16.04 44.8591 16.04H45.5791V18.34C45.5391 18.3667 45.4324 18.4133 45.2591 18.48C45.0991 18.5333 44.8657 18.5867 44.5591 18.64C44.2524 18.7067 43.8991 18.74 43.4991 18.74C42.7257 18.74 42.0857 18.6267 41.5791 18.4C41.0857 18.16 40.7457 17.8333 40.5591 17.42C40.0524 17.82 39.4857 18.14 38.8591 18.38C38.2324 18.62 37.4991 18.74 36.6591 18.74C34.1791 18.74 32.9391 17.7533 32.9391 15.78C32.9391 14.7533 33.2124 13.9733 33.7591 13.44C34.3191 12.8933 35.1191 12.52 36.1591 12.32C37.1991 12.12 38.5591 12.02 40.2391 12.02V11.5C40.2391 11.0867 40.0924 10.7733 39.7991 10.56C39.5191 10.3467 39.1524 10.24 38.6991 10.24C38.2857 10.24 37.9257 10.3133 37.6191 10.46C37.3257 10.6067 37.1791 10.84 37.1791 11.16V11.24H33.2591C33.2457 11.1733 33.2391 11.08 33.2391 10.96C33.2391 9.96 33.7124 9.16667 34.6591 8.58C35.6191 7.99333 36.9857 7.7 38.7591 7.7ZM40.2391 13.9C39.1057 13.9 38.2657 14.0267 37.7191 14.28C37.1857 14.52 36.9191 14.8467 36.9191 15.26C36.9191 15.9267 37.3724 16.26 38.2791 16.26C38.7991 16.26 39.2524 16.12 39.6391 15.84C40.0391 15.56 40.2391 15.2133 40.2391 14.8V13.9ZM52.3869 7.94V10.64H50.1469V14.66C50.1469 15.14 50.2269 15.4933 50.3869 15.72C50.5469 15.9333 50.8402 16.04 51.2669 16.04H52.3869V18.38C52.0669 18.4867 51.6535 18.5733 51.1469 18.64C50.6402 18.7067 50.2002 18.74 49.8269 18.74C48.6535 18.74 47.7469 18.5267 47.1069 18.1C46.4802 17.6733 46.1669 16.9467 46.1669 15.92V10.64H44.6869V7.94H46.3269L47.1869 4.74H50.1469V7.94H52.3869ZM58.4936 7.7C60.4269 7.7 61.9003 8.15333 62.9136 9.06C63.9403 9.96667 64.4536 11.3533 64.4536 13.22V13.9H56.5336C56.5336 14.66 56.7003 15.2333 57.0336 15.62C57.3803 16.0067 57.9203 16.2 58.6536 16.2C59.3203 16.2 59.8069 16.06 60.1136 15.78C60.4336 15.5 60.5936 15.1267 60.5936 14.66H64.4536C64.4536 15.94 63.9669 16.94 62.9936 17.66C62.0203 18.38 60.6003 18.74 58.7336 18.74C56.7736 18.74 55.2536 18.2867 54.1736 17.38C53.0936 16.46 52.5536 15.0733 52.5536 13.22C52.5536 11.4067 53.0803 10.0333 54.1336 9.1C55.1869 8.16667 56.6403 7.7 58.4936 7.7ZM58.6536 10.24C57.4003 10.24 56.7003 10.8333 56.5536 12.02H60.4336C60.4336 11.4733 60.2736 11.04 59.9536 10.72C59.6469 10.4 59.2136 10.24 58.6536 10.24ZM77.9136 7.7C79.1403 7.7 80.0603 8.04 80.6736 8.72C81.2869 9.4 81.5936 10.38 81.5936 11.66V18.5H77.6136V12.14C77.6136 11.6867 77.4936 11.3267 77.2536 11.06C77.0269 10.78 76.7003 10.64 76.2736 10.64C75.7803 10.64 75.3803 10.8 75.0736 11.12C74.7669 11.44 74.6136 11.8333 74.6136 12.3V18.5H70.6336V7.94H73.8936L74.1536 9.54C74.5669 8.98 75.1069 8.53333 75.7736 8.2C76.4536 7.86667 77.1669 7.7 77.9136 7.7ZM88.2334 7.7C90.1668 7.7 91.6401 8.15333 92.6534 9.06C93.6801 9.96667 94.1934 11.3533 94.1934 13.22V13.9H86.2734C86.2734 14.66 86.4401 15.2333 86.7734 15.62C87.1201 16.0067 87.6601 16.2 88.3934 16.2C89.0601 16.2 89.5468 16.06 89.8534 15.78C90.1734 15.5 90.3334 15.1267 90.3334 14.66H94.1934C94.1934 15.94 93.7068 16.94 92.7334 17.66C91.7601 18.38 90.3401 18.74 88.4734 18.74C86.5134 18.74 84.9934 18.2867 83.9134 17.38C82.8334 16.46 82.2934 15.0733 82.2934 13.22C82.2934 11.4067 82.8201 10.0333 83.8734 9.1C84.9268 8.16667 86.3801 7.7 88.2334 7.7ZM88.3934 10.24C87.1401 10.24 86.4401 10.8333 86.2934 12.02H90.1734C90.1734 11.4733 90.0134 11.04 89.6934 10.72C89.3868 10.4 88.9534 10.24 88.3934 10.24ZM104.833 18.5L103.193 12.62H103.113L101.453 18.5H97.5733L93.7133 7.94H97.9933L99.5933 14.18H99.7333L101.393 7.94H105.353L106.953 14.18H107.093L108.713 7.94H112.593L108.713 18.5H104.833ZM123.52 7.7C125.253 7.7 126.653 8.07333 127.72 8.82C128.8 9.55333 129.34 10.68 129.34 12.2H125.48C125.48 11 124.827 10.4 123.52 10.4C122.213 10.4 121.56 11.1533 121.56 12.66V13.8C121.56 15.2933 122.24 16.04 123.6 16.04C124.96 16.04 125.64 15.4267 125.64 14.2H129.34C129.34 15.7333 128.8 16.8733 127.72 17.62C126.653 18.3667 125.253 18.74 123.52 18.74C121.667 18.74 120.213 18.2733 119.16 17.34C118.107 16.4067 117.58 15.0333 117.58 13.22C117.58 11.4067 118.107 10.0333 119.16 9.1C120.213 8.16667 121.667 7.7 123.52 7.7ZM135.66 7.7C137.513 7.7 138.967 8.17333 140.02 9.12C141.087 10.0533 141.62 11.42 141.62 13.22C141.62 15.02 141.087 16.3933 140.02 17.34C138.967 18.2733 137.513 18.74 135.66 18.74C133.807 18.74 132.353 18.2733 131.3 17.34C130.247 16.4067 129.72 15.0333 129.72 13.22C129.72 11.4067 130.247 10.0333 131.3 9.1C132.353 8.16667 133.807 7.7 135.66 7.7ZM135.66 10.4C134.353 10.4 133.7 11.1533 133.7 12.66V13.8C133.7 15.2933 134.353 16.04 135.66 16.04C136.98 16.04 137.64 15.2933 137.64 13.8V12.66C137.64 11.1533 136.98 10.4 135.66 10.4ZM142.48 6.7V4H146.46V6.7H142.48ZM142.48 18.5V7.94H146.46V18.5H142.48ZM155.08 7.7C156.307 7.7 157.227 8.04 157.84 8.72C158.453 9.4 158.76 10.38 158.76 11.66V18.5H154.78V12.14C154.78 11.6867 154.66 11.3267 154.42 11.06C154.193 10.78 153.867 10.64 153.44 10.64C152.947 10.64 152.547 10.8 152.24 11.12C151.933 11.44 151.78 11.8333 151.78 12.3V18.5H147.8V7.94H151.06L151.32 9.54C151.733 8.98 152.273 8.53333 152.94 8.2C153.62 7.86667 154.333 7.7 155.08 7.7Z" fill="#FF583E"/>
</svg>
