<svg width="79" height="140" viewBox="0 0 79 140" fill="none" xmlns="http://www.w3.org/2000/svg">
<g id="Group 4960">
<rect id="Rectangle 98" x="1" y="1.5" width="77" height="137" rx="19" fill="#0E0E0E" stroke="#A58C08" stroke-width="2" stroke-linecap="round" stroke-linejoin="round"/>
<g id="Vector">
<path d="M32.8571 50.6429C32.8571 46.698 36.0551 43.5 40 43.5C43.9449 43.5 47.1429 46.698 47.1429 50.6429V114.929C47.1429 118.873 43.9449 122.071 40 122.071C36.0551 122.071 32.8571 118.873 32.8571 114.929V50.6429Z" fill="#656565"/>
<path d="M32.8571 102.429C32.8571 98.4837 36.0551 95.2857 40 95.2857C43.9449 95.2857 47.1429 98.4837 47.1429 102.429V114.929C47.1429 118.873 43.9449 122.071 40 122.071C36.0551 122.071 32.8571 118.873 32.8571 114.929V102.429Z" fill="#252525"/>
<path d="M65 43.5C65 57.3071 53.8071 68.5 40 68.5C26.1929 68.5 15 57.3071 15 43.5C15 29.6929 26.1929 18.5 40 18.5C53.8071 18.5 65 29.6929 65 43.5Z" fill="current"/>
<path d="M31.1561 34.3988C29.2287 36.7064 26.918 37.9521 25.9949 37.1811C25.0719 36.4102 25.8861 33.9145 27.8135 31.6069C29.7409 29.2993 32.0516 28.0536 32.9746 28.8245C33.8977 29.5955 33.0835 32.0912 31.1561 34.3988Z" fill="white"/>
<path d="M26.8815 42.7796C26.1105 43.7026 24.7372 43.8259 23.8142 43.055C22.8911 42.284 22.7678 40.9107 23.5388 39.9877C24.3098 39.0646 25.683 38.9414 26.6061 39.7123C27.5291 40.4833 27.6524 41.8565 26.8815 42.7796Z" fill="white"/>
</g>
</g>
</svg>
