<svg width="30" height="31" viewBox="0 0 30 31" fill="none" xmlns="http://www.w3.org/2000/svg">
<rect y="0.470703" width="30" height="30" rx="15" fill="black"/>
<path d="M18.8734 12.4763H15.6275C15.052 12.4763 14.5502 12.0405 14.5134 11.4657C14.4727 10.8349 14.9707 10.3099 15.5907 10.3099H17.941V7.37891H15.2731V7.38273C13.2976 7.45282 11.7159 9.13496 11.7159 11.2019C11.7159 11.8455 11.8696 12.4508 12.1402 12.9822C10.1812 13.7825 8.79395 15.7628 8.79395 18.0834C8.79395 20.5327 10.34 22.6061 12.4743 23.3082C12.9762 23.4739 13.511 23.5631 14.0662 23.5631C14.0713 23.5631 14.0776 23.5631 14.0827 23.5631C14.878 23.5606 15.6529 23.3108 16.3237 22.8813L17.0517 22.4162V23.3082H19.8466V12.4763H18.8734ZM17.0517 18.179C17.0517 19.5285 16.0226 20.6907 14.6798 20.7647C14.6277 20.7672 14.5756 20.7685 14.5235 20.7685C13.0067 20.7685 11.7782 19.5655 11.7782 18.0822C11.7782 16.6816 12.8745 15.5335 14.272 15.4086V15.406H17.0529V18.1777L17.0517 18.179Z" fill="#BFF009"/>
</svg>
