<svg width="25" height="25" viewBox="0 0 25 25" fill="none" xmlns="http://www.w3.org/2000/svg">
<g id="Octicons-mark-github 1" clip-path="url(#clip0_296_9990)">
<path id="Vector" fill-rule="evenodd" clip-rule="evenodd" d="M12.3336 0.555542C5.7343 0.555542 0.38916 5.90068 0.38916 12.5C0.38916 17.7854 3.80826 22.2496 8.55617 23.8323C9.1534 23.9368 9.37735 23.5785 9.37735 23.2649C9.37735 22.9812 9.36242 22.0406 9.36242 21.0403C6.36138 21.5927 5.58499 20.3087 5.3461 19.6368C5.21173 19.2934 4.62944 18.2333 4.1218 17.9496C3.70374 17.7257 3.10652 17.1733 4.10687 17.1583C5.04749 17.1434 5.71937 18.0243 5.94333 18.3826C7.01833 20.1892 8.73534 19.6816 9.42215 19.368C9.52666 18.5917 9.8402 18.0691 10.1836 17.7705C7.52597 17.4719 4.74888 16.4417 4.74888 11.8729C4.74888 10.5739 5.21173 9.49894 5.97319 8.66283C5.85374 8.36422 5.43569 7.13992 6.09263 5.49756C6.09263 5.49756 7.09298 5.18401 9.37735 6.72186C10.3329 6.45311 11.3482 6.31874 12.3635 6.31874C13.3787 6.31874 14.394 6.45311 15.3496 6.72186C17.634 5.16908 18.6343 5.49756 18.6343 5.49756C19.2912 7.13992 18.8732 8.36422 18.7537 8.66283C19.5152 9.49894 19.978 10.559 19.978 11.8729C19.978 16.4566 17.186 17.4719 14.5284 17.7705C14.9614 18.1437 15.3346 18.8604 15.3346 19.9802C15.3346 21.5778 15.3197 22.8618 15.3197 23.2649C15.3197 23.5785 15.5437 23.9517 16.1409 23.8323C20.859 22.2496 24.278 17.7705 24.278 12.5C24.278 5.90068 18.9329 0.555542 12.3336 0.555542Z" fill="current"/>
</g>
<defs>
<clipPath id="clip0_296_9990">
<rect width="23.8889" height="23.8889" fill="current" transform="translate(0.38916 0.555542)"/>
</clipPath>
</defs>
</svg>
