<svg width="16" height="16" viewBox="0 0 16 16" fill="none" xmlns="http://www.w3.org/2000/svg">
<g id="info.svg">
<path d="M8.25977 0.5C4.12427 0.5 0.759766 3.8645 0.759766 8C0.759766 12.1355 4.12427 15.5 8.25977 15.5C12.3953 15.5 15.7598 12.1355 15.7598 8C15.7598 3.8645 12.3953 0.5 8.25977 0.5ZM8.25977 14C4.95152 14 2.25977 11.3082 2.25977 8C2.25977 4.69175 4.95152 2 8.25977 2C11.568 2 14.2598 4.69175 14.2598 8C14.2598 11.3082 11.568 14 8.25977 14Z" fill="current"/>
<path d="M7.50977 7.25H9.00977V11.75H7.50977V7.25ZM7.50977 4.25H9.00977V5.75H7.50977V4.25Z" fill="current"/>
</g>
</svg>
