<svg width="24" height="24" viewBox="0 0 24 24" fill="none" xmlns="http://www.w3.org/2000/svg">
<g id="bx-loader-circle.svg">
<path id="Vector" d="M12 22C13.1046 22 14 21.1046 14 20C14 18.8954 13.1046 18 12 18C10.8954 18 10 18.8954 10 20C10 21.1046 10.8954 22 12 22Z" fill="black"/>
<path id="Vector_2" d="M12 6C13.1046 6 14 5.10457 14 4C14 2.89543 13.1046 2 12 2C10.8954 2 10 2.89543 10 4C10 5.10457 10.8954 6 12 6Z" fill="#FAFF00"/>
<path id="Vector_3" d="M6.34375 19.6572C7.44832 19.6572 8.34375 18.7618 8.34375 17.6572C8.34375 16.5527 7.44832 15.6572 6.34375 15.6572C5.23918 15.6572 4.34375 16.5527 4.34375 17.6572C4.34375 18.7618 5.23918 19.6572 6.34375 19.6572Z" fill="black"/>
<path id="Vector_4" d="M17.6562 8.34277C18.7608 8.34277 19.6562 7.44734 19.6562 6.34277C19.6562 5.2382 18.7608 4.34277 17.6562 4.34277C16.5517 4.34277 15.6562 5.2382 15.6562 6.34277C15.6562 7.44734 16.5517 8.34277 17.6562 8.34277Z" fill="black"/>
<path id="Vector_5" d="M3.99905 14.001C5.10417 14.001 6.00005 13.1051 6.00005 12C6.00005 10.8949 5.10417 9.99902 3.99905 9.99902C2.89393 9.99902 1.99805 10.8949 1.99805 12C1.99805 13.1051 2.89393 14.001 3.99905 14.001Z" fill="black"/>
<path id="Vector_6" d="M20 14C21.1046 14 22 13.1046 22 12C22 10.8954 21.1046 10 20 10C18.8954 10 18 10.8954 18 12C18 13.1046 18.8954 14 20 14Z" fill="black"/>
<path id="Vector_7" d="M6.34375 8.34424C7.44832 8.34424 8.34375 7.44881 8.34375 6.34424C8.34375 5.23967 7.44832 4.34424 6.34375 4.34424C5.23918 4.34424 4.34375 5.23967 4.34375 6.34424C4.34375 7.44881 5.23918 8.34424 6.34375 8.34424Z" fill="black"/>
<path id="Vector_8" d="M17.6562 19.6582C18.7608 19.6582 19.6562 18.7628 19.6562 17.6582C19.6562 16.5536 18.7608 15.6582 17.6562 15.6582C16.5517 15.6582 15.6562 16.5536 15.6562 17.6582C15.6562 18.7628 16.5517 19.6582 17.6562 19.6582Z" fill="black"/>
</g>
</svg>
