<svg width="25" height="26" viewBox="0 0 25 26" fill="none" xmlns="http://www.w3.org/2000/svg">
<g id="2">
<path id="3" d="M25 13C25 19.9036 19.4036 25.5 12.5 25.5C5.59644 25.5 0 19.9036 0 13C0 6.09644 5.59644 0.5 12.5 0.5C19.4036 0.5 25 6.09644 25 13ZM3.73783 13C3.73783 17.8392 7.66079 21.7622 12.5 21.7622C17.3392 21.7622 21.2622 17.8392 21.2622 13C21.2622 8.16079 17.3392 4.23783 12.5 4.23783C7.66079 4.23783 3.73783 8.16079 3.73783 13Z" fill="url(#paint0_angular_1033_280)"/>
<circle id="Ellipse 1" cx="12.625" cy="23.625" r="1.875" fill="white"/>
</g>
<defs>
<radialGradient id="paint0_angular_1033_280" cx="0" cy="0" r="1" gradientUnits="userSpaceOnUse" gradientTransform="translate(12.5 13) rotate(90) scale(12.5)">
<stop stop-color="white"/>
<stop offset="0.175675" stop-color="white"/>
<stop offset="1" stop-color="white" stop-opacity="0"/>
</radialGradient>
</defs>
</svg>
