<svg width="40" height="40" viewBox="0 0 40 40" fill="none" xmlns="http://www.w3.org/2000/svg">
<g id="streamlinehq-entertainment-events-hobbies-game-machines-arcade-2-entertainment-events-hobbies-48-ico_gPjTzNcGJCDQ6Yyx" clip-path="url(#clip0_689_2056)">
<path id="Union" d="M31.1524 0.654297H4.99306V5.88616H7.609V26.8136H5.83098V28.7756H3.79211V32.6995H1.72314V40.0003H33.1143L33.1144 37.2369L38.0959 37.0901V5.69895H33.1143V3.10376H31.1524V0.654297Z" fill="#FAFF00"/>
<g id="Group">
<path id="Vector" d="M38.0858 5.7125H36.1859V3.8125H34.2734V1.9H32.3734V0L3.79835 0V7.625H5.71085V9.525H7.61085V7.625L30.4734 7.625V9.525L32.3734 9.525V28.575H30.4734V30.475H28.5609V32.375H3.79835V30.475H1.89835V32.375H-0.00164795L-0.00164795 40H1.89835L1.89835 34.2875H26.6609V40H39.9984V7.625H38.0858V5.7125ZM7.61085 5.7125H5.71085V1.9H7.61085V5.7125ZM11.4234 5.7125H9.51085V1.9H11.4234V5.7125ZM28.5609 5.7125L13.3234 5.7125V1.9L28.5609 1.9V5.7125ZM38.0858 19.05H36.1859V9.525H34.2734V7.625H32.3734V5.7125H30.4734V3.8125H32.3734V5.7125H34.2734V7.625H36.1859V9.525H38.0858V19.05Z" fill="#FF2626"/>
<path id="Vector_2" d="M26.6609 19.0508H24.7484V20.9508H26.6609V19.0508Z" fill="#FF2626"/>
<path id="Vector_3" d="M26.6614 28.5742H20.9489V30.4742H26.6614V28.5742Z" fill="#FF2626"/>
<path id="Vector_4" d="M24.7486 15.2383H22.8486V17.1383H24.7486V15.2383Z" fill="#FF2626"/>
<path id="Vector_5" d="M24.7486 40V36.1875H19.0361V40H20.9486V38.1H22.8486V40H24.7486Z" fill="#FF2626"/>
<path id="Vector_6" d="M24.7489 20.9492H17.1364V22.8617H24.7489V20.9492Z" fill="#FF2626"/>
<path id="Vector_7" d="M19.0364 15.2383H17.1364V17.1383H19.0364V15.2383Z" fill="#FF2626"/>
<path id="Vector_8" d="M17.1354 19.0508H15.2354V20.9508H17.1354V19.0508Z" fill="#FF2626"/>
<path id="Vector_9" d="M15.2364 28.5742H13.3239V30.4742H15.2364V28.5742Z" fill="#FF2626"/>
<path id="Vector_10" d="M30.4728 26.6633V11.4258H11.4229V26.6633H30.4728ZM13.3229 13.3383H28.5604V24.7633H13.3229V13.3383Z" fill="#FF2626"/>
<path id="Vector_11" d="M11.4239 28.5742H9.51135V30.4742H11.4239V28.5742Z" fill="#FF2626"/>
<path id="Vector_12" d="M9.51035 9.52539H7.61035L7.61035 26.6629H9.51035V9.52539Z" fill="#FF2626"/>
<path id="Vector_13" d="M7.61057 26.6621H5.71057V28.5746H7.61057V26.6621Z" fill="#FF2626"/>
<path id="Vector_14" d="M5.71035 28.5742H3.79785V30.4742H5.71035V28.5742Z" fill="#FF2626"/>
</g>
</g>
<defs>
<clipPath id="clip0_689_2056">
<rect width="40" height="40" fill="white"/>
</clipPath>
</defs>
</svg>
