<svg width="155" height="56" viewBox="0 0 155 56" fill="none" xmlns="http://www.w3.org/2000/svg">
<rect x="8" y="35.5" width="34" height="8" fill="white"/>
<ellipse cx="25" cy="43.5" rx="17" ry="12" fill="white"/>
<path d="M42 35.5C42 42.6797 34.3888 48.5 25 48.5C15.6112 48.5 8 42.6797 8 35.5C8 28.3203 15.6112 22.5 25 22.5C34.3888 22.5 42 28.3203 42 35.5Z" fill="white"/>
<path d="M38.6829 35.5C38.6829 41.2788 32.5569 45.9634 25 45.9634C17.4431 45.9634 11.3171 41.2788 11.3171 35.5C11.3171 29.7212 17.4431 25.0366 25 25.0366C32.5569 25.0366 38.6829 29.7212 38.6829 35.5Z" fill="black"/>
<path d="M29.561 35.5C29.561 37.4263 27.519 38.9878 25 38.9878C22.481 38.9878 20.439 37.4263 20.439 35.5C20.439 33.5737 22.481 32.0122 25 32.0122C27.519 32.0122 29.561 33.5737 29.561 35.5Z" fill="#FF583E"/>
<path d="M35.3659 35.5C35.3659 39.8779 30.7249 43.4268 25 43.4268C19.2751 43.4268 14.6341 39.8779 14.6341 35.5C14.6341 31.1221 19.2751 27.5732 25 27.5732C30.7249 27.5732 35.3659 31.1221 35.3659 35.5Z" fill="black"/>
<path d="M35.3659 35.5C35.3659 39.8779 30.7249 43.4268 25 43.4268C19.2751 43.4268 14.6341 39.8779 14.6341 35.5C14.6341 31.1221 19.2751 27.5732 25 27.5732C30.7249 27.5732 35.3659 31.1221 35.3659 35.5Z" fill="black"/>
<path fill-rule="evenodd" clip-rule="evenodd" d="M12.1463 33.2673L12.301 32.9568C12.4557 32.6463 12.4559 32.6463 12.4559 32.6463L12.4615 32.648L12.4774 32.6527L12.5382 32.6708C12.5914 32.6866 12.6693 32.7101 12.7693 32.7407C12.9693 32.8018 13.2576 32.8916 13.6125 33.0063C14.322 33.2356 15.2993 33.5653 16.3707 33.9667C18.4983 34.7639 21.052 35.864 22.5904 37.042C24.1314 38.2219 25.4598 40.0961 26.394 41.6448C26.8644 42.4246 27.2409 43.1323 27.4999 43.6451C27.6295 43.9017 27.7298 44.1097 27.7978 44.2541C27.8319 44.3262 27.8579 44.3825 27.8755 44.4209L27.8955 44.4649L27.9007 44.4765L27.9021 44.4795L27.9024 44.4804C27.9024 44.4804 27.9026 44.4808 27.4918 44.5879L27.0809 44.6951L27.0796 44.6921L27.075 44.6819L27.0563 44.6407C27.0396 44.6042 27.0145 44.5499 26.9814 44.4798C26.9153 44.3397 26.8173 44.1363 26.6903 43.8848C26.4362 43.3817 26.0668 42.6875 25.6059 41.9235C24.6776 40.3844 23.4018 38.6031 21.9766 37.5119C20.5489 36.4187 18.1113 35.3588 15.9892 34.5637C14.9357 34.169 13.9736 33.8444 13.2749 33.6186C12.9257 33.5057 12.6426 33.4176 12.4473 33.3579C12.3496 33.328 12.2739 33.3052 12.2228 33.29L12.1651 33.2728L12.1507 33.2686L12.1463 33.2673Z" fill="black"/>
<path fill-rule="evenodd" clip-rule="evenodd" d="M13.8049 30.7472L13.9554 30.4285C14.106 30.1097 14.1062 30.1098 14.1062 30.1098L14.1126 30.1116L14.131 30.1167L14.2015 30.1367C14.2632 30.1542 14.3537 30.1801 14.4698 30.2139C14.7021 30.2816 15.0371 30.3808 15.4496 30.5077C16.2744 30.7615 17.4104 31.1262 18.6557 31.5703C21.1303 32.4529 24.0936 33.6687 25.8765 34.9681C27.6635 36.2705 29.207 38.3425 30.2944 40.0583C30.8415 40.9216 31.2794 41.7051 31.5807 42.2729C31.7314 42.557 31.848 42.7873 31.9272 42.9471C31.9668 43.027 31.997 43.0892 32.0175 43.1317L32.0407 43.1804L32.0467 43.1932L32.0483 43.1966L32.0488 43.1975C32.0488 43.1975 32.049 43.1979 31.633 43.3124L31.217 43.4268L31.2154 43.4234L31.21 43.4121L31.1882 43.3664C31.1687 43.3259 31.1395 43.2657 31.101 43.1881C31.024 43.0327 30.9099 42.8073 30.762 42.5286C30.4662 41.971 30.0361 41.2016 29.4995 40.3548C28.4194 38.6504 26.9325 36.6731 25.2677 35.4597C23.5989 34.2434 20.7538 33.0664 18.2831 32.1852C17.0556 31.7475 15.9347 31.3876 15.1206 31.1371C14.7138 31.0119 14.3839 30.9142 14.1562 30.8479C14.0423 30.8147 13.954 30.7895 13.8944 30.7725L13.8269 30.7534L13.8101 30.7487L13.8049 30.7472Z" fill="black"/>
<path fill-rule="evenodd" clip-rule="evenodd" d="M17.122 28.1803L17.2657 27.8767C17.4094 27.5731 17.4095 27.5732 17.4095 27.5732L17.4157 27.5749L17.4332 27.5798L17.5006 27.5988C17.5594 27.6155 17.6458 27.6402 17.7567 27.6724C17.9784 27.7368 18.2982 27.8313 18.6919 27.9522C19.4792 28.1939 20.5636 28.5412 21.7522 28.9642C24.1144 29.8048 26.943 30.9626 28.6449 32.2002C30.3506 33.4406 31.824 35.4138 32.8619 37.048C33.3842 37.8702 33.8022 38.6164 34.0898 39.1572C34.2336 39.4277 34.345 39.647 34.4205 39.7992C34.4583 39.8753 34.4872 39.9346 34.5067 39.9751L34.5289 40.0214L34.5346 40.0336L34.5362 40.0368L34.5366 40.0377C34.5366 40.0377 34.5368 40.0381 34.1397 40.1471L33.7426 40.2561L33.7411 40.2529L33.736 40.2421L33.7151 40.1985C33.6965 40.16 33.6687 40.1027 33.6319 40.0287C33.5584 39.8807 33.4495 39.666 33.3083 39.4006C33.026 38.8696 32.6154 38.1369 32.1032 37.3304C31.0721 35.7071 29.6528 33.8239 28.0638 32.6684C26.4708 31.51 23.755 30.3891 21.3966 29.5498C20.2249 29.1329 19.155 28.7901 18.3779 28.5516C17.9895 28.4324 17.6747 28.3393 17.4573 28.2762C17.3486 28.2446 17.2643 28.2205 17.2074 28.2044L17.143 28.1862L17.1269 28.1817L17.122 28.1803Z" fill="black"/>
<rect y="27.5" width="34" height="8" fill="white"/>
<ellipse cx="17" cy="35.5" rx="17" ry="12" fill="white"/>
<path d="M34 27.5C34 34.6797 26.3888 40.5 17 40.5C7.61116 40.5 0 34.6797 0 27.5C0 20.3203 7.61116 14.5 17 14.5C26.3888 14.5 34 20.3203 34 27.5Z" fill="white"/>
<path d="M30.6829 27.5C30.6829 33.2788 24.5569 37.9634 17 37.9634C9.44313 37.9634 3.31707 33.2788 3.31707 27.5C3.31707 21.7212 9.44313 17.0366 17 17.0366C24.5569 17.0366 30.6829 21.7212 30.6829 27.5Z" fill="black"/>
<path d="M21.561 27.5C21.561 29.4263 19.519 30.9878 17 30.9878C14.481 30.9878 12.439 29.4263 12.439 27.5C12.439 25.5737 14.481 24.0122 17 24.0122C19.519 24.0122 21.561 25.5737 21.561 27.5Z" fill="black"/>
<path d="M27.3659 27.5C27.3659 31.8779 22.7249 35.4268 17 35.4268C11.2751 35.4268 6.63415 31.8779 6.63415 27.5C6.63415 23.1221 11.2751 19.5732 17 19.5732C22.7249 19.5732 27.3659 23.1221 27.3659 27.5Z" fill="black"/>
<path d="M27.3659 27.5C27.3659 31.8779 22.7249 35.4268 17 35.4268C11.2751 35.4268 6.63415 31.8779 6.63415 27.5C6.63415 23.1221 11.2751 19.5732 17 19.5732C22.7249 19.5732 27.3659 23.1221 27.3659 27.5Z" fill="black"/>
<path fill-rule="evenodd" clip-rule="evenodd" d="M4.14634 25.2673L4.30102 24.9568C4.4557 24.6463 4.45587 24.6463 4.45587 24.6463L4.46152 24.648L4.47739 24.6527L4.53825 24.6708C4.59142 24.6866 4.66935 24.7101 4.76933 24.7407C4.96929 24.8018 5.25755 24.8916 5.61246 25.0063C6.32199 25.2356 7.29934 25.5653 8.37072 25.9667C10.4983 26.7639 13.052 27.864 14.5904 29.042C16.1314 30.2219 17.4598 32.0961 18.394 33.6448C18.8644 34.4246 19.2409 35.1323 19.4999 35.6451C19.6295 35.9017 19.7298 36.1097 19.7978 36.2541C19.8319 36.3262 19.8579 36.3825 19.8755 36.4209L19.8955 36.4649L19.9007 36.4765L19.9021 36.4795L19.9024 36.4804C19.9024 36.4804 19.9026 36.4808 19.4918 36.5879L19.0809 36.6951L19.0796 36.6921L19.075 36.6819L19.0563 36.6407C19.0396 36.6042 19.0145 36.5499 18.9814 36.4798C18.9153 36.3397 18.8173 36.1363 18.6903 35.8848C18.4362 35.3817 18.0668 34.6875 17.6059 33.9235C16.6776 32.3844 15.4018 30.6031 13.9766 29.5119C12.5489 28.4187 10.1113 27.3588 7.98918 26.5637C6.93572 26.169 5.9736 25.8444 5.27488 25.6186C4.92566 25.5057 4.6426 25.4176 4.44727 25.3579C4.34961 25.328 4.2739 25.3052 4.22284 25.29L4.16509 25.2728L4.15072 25.2686L4.14634 25.2673Z" fill="black"/>
<path fill-rule="evenodd" clip-rule="evenodd" d="M5.80488 22.7472L5.95543 22.4285C6.10598 22.1097 6.10616 22.1098 6.10616 22.1098L6.11263 22.1116L6.13097 22.1167L6.20151 22.1367C6.26319 22.1542 6.35368 22.1801 6.46983 22.2139C6.70211 22.2816 7.03711 22.3808 7.44962 22.5077C8.27436 22.7615 9.4104 23.1262 10.6557 23.5703C13.1303 24.4529 16.0936 25.6687 17.8765 26.9681C19.6635 28.2705 21.207 30.3425 22.2944 32.0583C22.8415 32.9216 23.2794 33.7051 23.5807 34.2729C23.7314 34.557 23.848 34.7873 23.9272 34.9471C23.9668 35.027 23.997 35.0892 24.0175 35.1317L24.0407 35.1804L24.0467 35.1932L24.0483 35.1966L24.0488 35.1975C24.0488 35.1975 24.049 35.1979 23.633 35.3124L23.217 35.4268L23.2154 35.4234L23.21 35.4121L23.1882 35.3664C23.1687 35.3259 23.1395 35.2657 23.101 35.1881C23.024 35.0327 22.9099 34.8073 22.762 34.5286C22.4662 33.971 22.0361 33.2016 21.4995 32.3548C20.4194 30.6504 18.9325 28.6731 17.2677 27.4597C15.5989 26.2434 12.7538 25.0664 10.2831 24.1852C9.05562 23.7475 7.93469 23.3876 7.12064 23.1371C6.71375 23.0119 6.3839 22.9142 6.15618 22.8479C6.04233 22.8147 5.95403 22.7895 5.89442 22.7725L5.82694 22.7534L5.81008 22.7487L5.80488 22.7472Z" fill="black"/>
<path fill-rule="evenodd" clip-rule="evenodd" d="M9.12195 20.1803L9.26566 19.8767C9.40937 19.5731 9.40954 19.5732 9.40954 19.5732L9.41572 19.5749L9.43322 19.5798L9.50055 19.5988C9.55943 19.6155 9.64581 19.6402 9.75668 19.6724C9.9784 19.7368 10.2982 19.8313 10.6919 19.9522C11.4792 20.1939 12.5636 20.5412 13.7522 20.9642C16.1144 21.8048 18.943 22.9626 20.6449 24.2002C22.3506 25.4406 23.824 27.4138 24.8619 29.048C25.3842 29.8702 25.8022 30.6164 26.0898 31.1572C26.2336 31.4277 26.345 31.647 26.4205 31.7992C26.4583 31.8753 26.4872 31.9346 26.5067 31.9751L26.5289 32.0214L26.5346 32.0336L26.5362 32.0368L26.5366 32.0377C26.5366 32.0377 26.5368 32.0381 26.1397 32.1471L25.7426 32.2561L25.7411 32.2529L25.736 32.2421L25.7151 32.1985C25.6965 32.16 25.6687 32.1027 25.6319 32.0287C25.5584 31.8807 25.4495 31.666 25.3083 31.4006C25.026 30.8696 24.6154 30.1369 24.1032 29.3304C23.0721 27.7071 21.6528 25.8239 20.0638 24.6684C18.4708 23.51 15.755 22.3891 13.3966 21.5498C12.2249 21.1329 11.155 20.7901 10.3779 20.5516C9.98952 20.4324 9.67466 20.3393 9.45728 20.2762C9.34861 20.2446 9.26432 20.2205 9.20743 20.2044L9.14301 20.1862L9.12692 20.1817L9.12195 20.1803Z" fill="black"/>
<path d="M37.5 21.5C37.5 24.6077 35.7163 27.4706 32.7325 29.5768C29.75 31.6821 25.6035 33 21 33C16.3965 33 12.25 31.6821 9.26753 29.5768C6.28374 27.4706 4.5 24.6077 4.5 21.5C4.5 18.3923 6.28374 15.5294 9.26753 13.4232C12.25 11.3179 16.3965 10 21 10C25.6035 10 29.75 11.3179 32.7325 13.4232C35.7163 15.5294 37.5 18.3923 37.5 21.5Z" fill="white" stroke="white"/>
<mask id="path-8-inside-1_1631_12912" fill="white">
<path fill-rule="evenodd" clip-rule="evenodd" d="M21.0583 34.9114C30.4147 34.9114 37.9995 29.5652 37.9995 22.9704C37.9995 22.5533 37.9692 22.1412 37.91 21.7352H37.9995V13.5H31.3786C28.521 11.9506 24.9423 11.0293 21.0583 11.0293C17.1744 11.0293 13.5956 11.9506 10.7381 13.5H4.11719V21.7352H4.20672C4.14752 22.1412 4.11719 22.5533 4.11719 22.9704C4.11719 29.5652 11.702 34.9114 21.0583 34.9114Z"/>
</mask>
<path fill-rule="evenodd" clip-rule="evenodd" d="M21.0583 34.9114C30.4147 34.9114 37.9995 29.5652 37.9995 22.9704C37.9995 22.5533 37.9692 22.1412 37.91 21.7352H37.9995V13.5H31.3786C28.521 11.9506 24.9423 11.0293 21.0583 11.0293C17.1744 11.0293 13.5956 11.9506 10.7381 13.5H4.11719V21.7352H4.20672C4.14752 22.1412 4.11719 22.5533 4.11719 22.9704C4.11719 29.5652 11.702 34.9114 21.0583 34.9114Z" fill="white"/>
<path d="M37.91 21.7352V20.7352H36.7536L36.9204 21.8795L37.91 21.7352ZM37.9995 21.7352V22.7352H38.9995V21.7352H37.9995ZM37.9995 13.5H38.9995V12.5H37.9995V13.5ZM31.3786 13.5L30.902 14.3791L31.125 14.5H31.3786V13.5ZM10.7381 13.5V14.5H10.9917L11.2147 14.3791L10.7381 13.5ZM4.11719 13.5V12.5H3.11719V13.5H4.11719ZM4.11719 21.7352H3.11719V22.7352H4.11719V21.7352ZM4.20672 21.7352L5.19626 21.8795L5.36308 20.7352H4.20672V21.7352ZM36.9995 22.9704C36.9995 25.855 35.3421 28.5661 32.4614 30.5966C29.5835 32.6251 25.555 33.9114 21.0583 33.9114V35.9114C25.918 35.9114 30.3601 34.5246 33.6137 32.2313C36.8645 29.94 38.9995 26.6805 38.9995 22.9704H36.9995ZM36.9204 21.8795C36.9727 22.2381 36.9995 22.6019 36.9995 22.9704H38.9995C38.9995 22.5047 38.9656 22.0444 38.8995 21.5909L36.9204 21.8795ZM37.9995 20.7352H37.91V22.7352H37.9995V20.7352ZM36.9995 13.5V21.7352H38.9995V13.5H36.9995ZM31.3786 14.5H37.9995V12.5H31.3786V14.5ZM21.0583 12.0293C24.7885 12.0293 28.2015 12.9148 30.902 14.3791L31.8553 12.6209C28.8406 10.9863 25.0961 10.0293 21.0583 10.0293V12.0293ZM11.2147 14.3791C13.9152 12.9148 17.3282 12.0293 21.0583 12.0293V10.0293C17.0206 10.0293 13.2761 10.9863 10.2614 12.6209L11.2147 14.3791ZM4.11719 14.5H10.7381V12.5H4.11719V14.5ZM5.11719 21.7352V13.5H3.11719V21.7352H5.11719ZM4.20672 20.7352H4.11719V22.7352H4.20672V20.7352ZM5.11719 22.9704C5.11719 22.6019 5.14398 22.2381 5.19626 21.8795L3.21718 21.5909C3.15107 22.0444 3.11719 22.5047 3.11719 22.9704H5.11719ZM21.0583 33.9114C16.5617 33.9114 12.5332 32.6251 9.65526 30.5966C6.77459 28.5661 5.11719 25.855 5.11719 22.9704H3.11719C3.11719 26.6805 5.25219 29.94 8.50302 32.2313C11.7566 34.5246 16.1987 35.9114 21.0583 35.9114V33.9114Z" fill="white" mask="url(#path-8-inside-1_1631_12912)"/>
<path d="M38 13.5C38 20.6797 30.3888 26.5 21 26.5C11.6112 26.5 4 20.6797 4 13.5C4 6.3203 11.6112 0.5 21 0.5C30.3888 0.5 38 6.3203 38 13.5Z" fill="white"/>
<path d="M34.6829 13.5C34.6829 19.2788 28.5569 23.9634 21 23.9634C13.4431 23.9634 7.31707 19.2788 7.31707 13.5C7.31707 7.72122 13.4431 3.03659 21 3.03659C28.5569 3.03659 34.6829 7.72122 34.6829 13.5Z" fill="black"/>
<path d="M25.561 13.5C25.561 15.4263 23.519 16.9878 21 16.9878C18.481 16.9878 16.439 15.4263 16.439 13.5C16.439 11.5737 18.481 10.0122 21 10.0122C23.519 10.0122 25.561 11.5737 25.561 13.5Z" fill="#FF583E"/>
<path d="M31.3659 13.5C31.3659 17.8779 26.7249 21.4268 21 21.4268C15.2751 21.4268 10.6341 17.8779 10.6341 13.5C10.6341 9.12213 15.2751 5.57317 21 5.57317C26.7249 5.57317 31.3659 9.12213 31.3659 13.5Z" fill="#FF583E"/>
<path d="M31.3659 13.5C31.3659 17.8779 26.7249 21.4268 21 21.4268C15.2751 21.4268 10.6341 17.8779 10.6341 13.5C10.6341 9.12213 15.2751 5.57317 21 5.57317C26.7249 5.57317 31.3659 9.12213 31.3659 13.5Z" fill="#FF583E"/>
<path fill-rule="evenodd" clip-rule="evenodd" d="M8.14634 11.2673L8.30102 10.9568C8.4557 10.6463 8.45587 10.6463 8.45587 10.6463L8.46152 10.648L8.47739 10.6527L8.53825 10.6708C8.59142 10.6866 8.66935 10.7101 8.76933 10.7407C8.96929 10.8018 9.25755 10.8916 9.61246 11.0063C10.322 11.2356 11.2993 11.5653 12.3707 11.9667C14.4983 12.7639 17.052 13.864 18.5904 15.042C20.1314 16.2219 21.4598 18.0961 22.394 19.6448C22.8644 20.4246 23.2409 21.1323 23.4999 21.6451C23.6295 21.9017 23.7298 22.1097 23.7978 22.2541C23.8319 22.3262 23.8579 22.3825 23.8755 22.4209L23.8955 22.4649L23.9007 22.4765L23.9021 22.4795L23.9024 22.4804C23.9024 22.4804 23.9026 22.4808 23.4918 22.5879L23.0809 22.6951L23.0796 22.6921L23.075 22.6819L23.0563 22.6407C23.0396 22.6042 23.0145 22.5499 22.9814 22.4798C22.9153 22.3397 22.8173 22.1363 22.6903 21.8848C22.4362 21.3817 22.0668 20.6875 21.6059 19.9235C20.6776 18.3844 19.4018 16.6031 17.9766 15.5119C16.5489 14.4187 14.1113 13.3588 11.9892 12.5637C10.9357 12.169 9.9736 11.8444 9.27488 11.6186C8.92566 11.5057 8.6426 11.4176 8.44727 11.3579C8.34961 11.328 8.2739 11.3052 8.22284 11.29L8.16509 11.2728L8.15072 11.2686L8.14634 11.2673Z" fill="black"/>
<path fill-rule="evenodd" clip-rule="evenodd" d="M9.80488 8.74725L9.95543 8.42848C10.106 8.10971 10.1062 8.10976 10.1062 8.10976L10.1126 8.11156L10.131 8.1167L10.2015 8.13665C10.2632 8.15418 10.3537 8.18011 10.4698 8.21393C10.7021 8.28157 11.0371 8.38082 11.4496 8.50774C12.2744 8.76147 13.4104 9.12622 14.6557 9.57035C17.1303 10.4529 20.0936 11.6687 21.8765 12.9681C23.6635 14.2705 25.207 16.3425 26.2944 18.0583C26.8415 18.9216 27.2794 19.7051 27.5807 20.2729C27.7314 20.557 27.848 20.7873 27.9272 20.9471C27.9668 21.027 27.997 21.0892 28.0175 21.1317L28.0407 21.1804L28.0467 21.1932L28.0483 21.1966L28.0488 21.1975C28.0488 21.1975 28.049 21.1979 27.633 21.3124L27.217 21.4268L27.2154 21.4234L27.21 21.4121L27.1882 21.3664C27.1687 21.3259 27.1395 21.2657 27.101 21.1881C27.024 21.0327 26.9099 20.8073 26.762 20.5286C26.4662 19.971 26.0361 19.2016 25.4995 18.3548C24.4194 16.6504 22.9325 14.6731 21.2677 13.4597C19.5989 12.2434 16.7538 11.0664 14.2831 10.1852C13.0556 9.74748 11.9347 9.38757 11.1206 9.13712C10.7138 9.01193 10.3839 8.91421 10.1562 8.8479C10.0423 8.81475 9.95403 8.78945 9.89442 8.77251L9.82694 8.75343L9.81008 8.7487L9.80488 8.74725Z" fill="black"/>
<path fill-rule="evenodd" clip-rule="evenodd" d="M13.122 6.1803L13.2657 5.87671C13.4094 5.57312 13.4095 5.57317 13.4095 5.57317L13.4157 5.57489L13.4332 5.57979L13.5006 5.59878C13.5594 5.61548 13.6458 5.64017 13.7567 5.67239C13.9784 5.7368 14.2982 5.83133 14.6919 5.9522C15.4792 6.19385 16.5636 6.54123 17.7522 6.96421C20.1144 7.80477 22.943 8.9626 24.6449 10.2002C26.3506 11.4406 27.824 13.4138 28.8619 15.048C29.3842 15.8702 29.8022 16.6164 30.0898 17.1572C30.2336 17.4277 30.345 17.647 30.4205 17.7992C30.4583 17.8753 30.4872 17.9346 30.5067 17.9751L30.5289 18.0214L30.5346 18.0336L30.5362 18.0368L30.5366 18.0377C30.5366 18.0377 30.5368 18.0381 30.1397 18.1471L29.7426 18.2561L29.7411 18.2529L29.736 18.2421L29.7151 18.1985C29.6965 18.16 29.6687 18.1027 29.6319 18.0287C29.5584 17.8807 29.4495 17.666 29.3083 17.4006C29.026 16.8696 28.6154 16.1369 28.1032 15.3304C27.0721 13.7071 25.6528 11.8239 24.0638 10.6684C22.4708 9.51002 19.755 8.38907 17.3966 7.54983C16.2249 7.13291 15.155 6.79013 14.3779 6.55161C13.9895 6.43239 13.6747 6.33932 13.4573 6.27617C13.3486 6.24459 13.2643 6.2205 13.2074 6.20436L13.143 6.18619L13.1269 6.18169L13.122 6.1803Z" fill="black"/>
<path d="M52 38.0264V17.9637H56.2418V26.8098H56.5063L63.7261 17.9637H68.8103L61.3652 26.9469L68.8985 38.0264H63.8241L58.3284 29.778L56.2418 32.325V38.0264H52Z" fill="white"/>
<path d="M73.9257 38.0264H69.3803L76.3062 17.9637H81.7725L88.6887 38.0264H84.1432L79.1178 22.5484H78.961L73.9257 38.0264ZM73.6417 30.1405H84.3783V33.4516H73.6417V30.1405Z" fill="white"/>
<path d="M94.7935 17.9637V38.0264H90.5517V17.9637H94.7935Z" fill="white"/>
<path d="M108.615 23.7337C108.537 22.9435 108.201 22.3296 107.606 21.892C107.012 21.4545 106.205 21.2357 105.187 21.2357C104.494 21.2357 103.91 21.3337 103.433 21.5296C102.956 21.719 102.591 21.9835 102.336 22.3231C102.088 22.6627 101.964 23.048 101.964 23.479C101.951 23.8382 102.026 24.1517 102.189 24.4195C102.359 24.6872 102.591 24.9191 102.885 25.115C103.178 25.3044 103.518 25.4709 103.903 25.6146C104.289 25.7518 104.7 25.8693 105.138 25.9673L106.94 26.3983C107.815 26.5942 108.619 26.8555 109.35 27.182C110.081 27.5085 110.715 27.9102 111.25 28.3869C111.786 28.8637 112.201 29.4253 112.495 30.0719C112.795 30.7185 112.949 31.4597 112.955 32.2956C112.949 33.5234 112.635 34.588 112.015 35.4892C111.401 36.3839 110.513 37.0795 109.35 37.5758C108.194 38.0656 106.8 38.3105 105.167 38.3105C103.547 38.3105 102.137 38.0624 100.935 37.566C99.7399 37.0697 98.806 36.335 98.1333 35.3619C97.4672 34.3822 97.1178 33.1708 97.0851 31.7275H101.19C101.235 32.4001 101.428 32.9618 101.768 33.4124C102.114 33.8565 102.574 34.1929 103.149 34.4214C103.73 34.6435 104.387 34.7545 105.118 34.7545C105.836 34.7545 106.46 34.65 106.989 34.441C107.525 34.232 107.939 33.9414 108.233 33.5692C108.527 33.1969 108.674 32.7691 108.674 32.2858C108.674 31.8352 108.54 31.4564 108.272 31.1495C108.011 30.8425 107.626 30.5813 107.116 30.3658C106.614 30.1503 105.996 29.9543 105.265 29.778L103.08 29.2294C101.389 28.818 100.053 28.1747 99.0738 27.2996C98.0941 26.4244 97.6076 25.2456 97.6141 23.7631C97.6076 22.5484 97.9309 21.4871 98.584 20.5793C99.2436 19.6716 100.148 18.963 101.298 18.4536C102.447 17.9442 103.753 17.6895 105.216 17.6895C106.705 17.6895 108.005 17.9442 109.115 18.4536C110.232 18.963 111.1 19.6716 111.721 20.5793C112.341 21.4871 112.661 22.5386 112.681 23.7337H108.615Z" fill="white"/>
<path d="M115.256 38.0264V17.9637H128.775V21.461H119.498V26.2416H128.08V29.7388H119.498V34.5292H128.814V38.0264H115.256Z" fill="white"/>
<path d="M131.596 38.0264V17.9637H135.838V26.8098H136.102L143.322 17.9637H148.406L140.961 26.9469L148.494 38.0264H143.42L137.924 29.778L135.838 32.325V38.0264H131.596Z" fill="white"/>
<path d="M154.305 17.9637V38.0264H150.064V17.9637H154.305Z" fill="white"/>
</svg>
