<svg width="173" height="40" viewBox="0 0 173 40" fill="none" xmlns="http://www.w3.org/2000/svg">
<g filter="url(#filter0_d_1482_13330)">
<g filter="url(#filter1_ii_1482_13330)">
<path d="M2.7196 13.8287C3.5253 5.97313 10.1424 0 18.0392 0C25.8443 0 32.4152 5.83912 33.3324 13.5901L35.0595 28.1836C35.473 31.6776 32.5648 34.6658 29.0609 34.3472L28.4883 34.2952C26.873 34.1483 25.2537 34.5289 23.873 35.3798L21.4603 36.8667C19.4306 38.1175 16.9863 38.5084 14.6677 37.9529L11.6031 37.2187C10.3511 36.9187 9.03828 36.9973 7.83103 37.4444C4.22037 38.7817 0.459184 35.8678 0.852031 32.0375L2.7196 13.8287Z" fill="url(#paint0_linear_1482_13330)"/>
</g>
<path d="M4.05741 13.9659C4.79275 6.79634 10.832 1.34483 18.0392 1.34483C25.1627 1.34483 31.1598 6.67404 31.9969 13.7482L33.724 28.3417C34.037 30.9868 31.8353 33.2491 29.1827 33.0079L28.61 32.9559C26.7053 32.7827 24.7957 33.2315 23.1674 34.2349L20.7548 35.7218C19.0295 36.785 16.9518 37.1173 14.981 36.6451L11.9164 35.9109C10.4054 35.5489 8.82097 35.6437 7.36396 36.1833C4.68707 37.1748 1.89859 35.0144 2.18984 32.1747L4.05741 13.9659Z" stroke="url(#paint1_linear_1482_13330)" stroke-width="2.68966"/>
<g filter="url(#filter2_i_1482_13330)">
<circle cx="10.758" cy="18.6496" r="2.24138" fill="url(#paint2_linear_1482_13330)"/>
</g>
<mask id="mask0_1482_13330" style="mask-type:alpha" maskUnits="userSpaceOnUse" x="8" y="16" width="5" height="5">
<circle cx="10.758" cy="18.6496" r="2.24138" fill="url(#paint3_linear_1482_13330)"/>
</mask>
<g mask="url(#mask0_1482_13330)">
<g style="mix-blend-mode:plus-lighter" opacity="0.3">
<circle cx="11.2958" cy="21.1591" r="1.43448" fill="white"/>
</g>
</g>
<g filter="url(#filter3_i_1482_13330)">
<circle cx="22.5932" cy="14.8842" r="3.04828" fill="url(#paint4_linear_1482_13330)"/>
</g>
<g filter="url(#filter4_i_1482_13330)">
<path d="M13.8326 21.6167H20.9905V26.3886C20.9905 28.3652 19.3882 29.9676 17.4116 29.9676C15.435 29.9676 13.8326 28.3652 13.8326 26.3886V21.6167Z" fill="url(#paint5_linear_1482_13330)"/>
<path d="M10.7629 22.6225C10.6354 22.3541 10.8157 22.0584 11.104 21.9866L23.1089 18.9934C23.3971 18.9215 23.6951 19.098 23.7086 19.3947C23.7655 20.6476 22.9355 21.8086 21.6717 22.1237L13.8425 24.0758C12.5787 24.3909 11.3008 23.7554 10.7629 22.6225Z" fill="url(#paint6_linear_1482_13330)"/>
</g>
<mask id="mask1_1482_13330" style="mask-type:alpha" maskUnits="userSpaceOnUse" x="19" y="11" width="7" height="7">
<circle cx="22.5932" cy="14.8842" r="3.04828" fill="url(#paint7_linear_1482_13330)"/>
</mask>
<g mask="url(#mask1_1482_13330)">
<g style="mix-blend-mode:plus-lighter" opacity="0.3">
<circle cx="23.3105" cy="18.6494" r="2.33103" fill="white"/>
</g>
</g>
</g>
<mask id="path-10-outside-1_1482_13330" maskUnits="userSpaceOnUse" x="41.8623" y="9" width="131" height="25" fill="black">
<rect fill="white" x="41.8623" y="9" width="131" height="25"/>
<path d="M44.5985 12.5172H49.5916L52.2951 22.9448C52.3502 23.1655 52.5158 23.1655 52.5709 22.9448L55.302 12.5172H60.2399V31H56.1847V21.1517L54.6951 26.5034C54.2537 28.1034 53.5364 28.5724 52.4054 28.5724C51.2192 28.5724 50.5295 28.1034 50.0882 26.5034L48.5985 21.1517V31H44.5985V12.5172ZM75.0981 23.3586C75.0981 25.5103 74.8498 25.5931 73.5257 25.5931H66.105C66.3808 27.1655 67.2912 27.6897 69.2222 27.6897C70.4912 27.6897 73.0015 27.3862 74.1326 27.2207V30.6138C72.0084 31.0276 70.2429 31.2483 68.7808 31.2483C63.8981 31.2483 61.6912 29.3172 61.6912 24.269V23.9379C61.6912 19 63.9533 16.9586 68.5326 16.9586C73.0567 16.9586 75.0981 19.3586 75.0981 23.3586ZM66.105 22.5034H70.7395C70.6843 21.3172 69.9395 20.5172 68.5326 20.5172C67.0705 20.5172 66.3533 21.069 66.105 22.5034ZM76.9632 21.069C76.9632 18.2 78.2045 16.9586 81.1287 16.9586C82.7839 16.9586 83.4735 17.4 84.3011 18.4207H84.4666C85.2666 17.4 85.9563 16.9586 87.6666 16.9586C90.5632 16.9586 91.8045 18.2 91.8045 21.069V31H88.0528V21.7586C88.0528 20.931 87.8045 20.5724 87.1701 20.5724C86.508 20.5724 86.2597 20.931 86.2597 21.7586V31H82.508V21.7586C82.508 20.931 82.2597 20.5724 81.5976 20.5724C80.9632 20.5724 80.6873 20.931 80.6873 21.7586V31H76.9632V21.069ZM107.077 23.3586C107.077 25.5103 106.828 25.5931 105.504 25.5931H98.0834C98.3593 27.1655 99.2696 27.6897 101.201 27.6897C102.47 27.6897 104.98 27.3862 106.111 27.2207V30.6138C103.987 31.0276 102.221 31.2483 100.759 31.2483C95.8765 31.2483 93.6696 29.3172 93.6696 24.269V23.9379C93.6696 19 95.9317 16.9586 100.511 16.9586C105.035 16.9586 107.077 19.3586 107.077 23.3586ZM98.0834 22.5034H102.718C102.663 21.3172 101.918 20.5172 100.511 20.5172C99.0489 20.5172 98.3317 21.069 98.0834 22.5034ZM116.197 26.0897C114.238 25.8138 110.017 25.6207 110.017 21.4552C110.017 18.3655 112.142 16.9586 116.5 16.9586C118.569 16.9586 119.976 17.1793 121.824 17.5931V21.0414C120.39 20.7655 118.873 20.5724 116.942 20.5724C114.735 20.5724 114.321 20.7655 114.321 21.2621C114.321 21.8138 115.066 22.0345 116.721 22.2C119.204 22.4483 122.845 22.9172 122.845 26.5862C122.845 29.8414 120.39 31.2483 115.921 31.2483C113.824 31.2483 112.39 31.0552 110.376 30.7241V27.2483C112.031 27.4414 113.631 27.6069 115.645 27.6069C117.631 27.6069 118.514 27.4138 118.514 26.9172C118.514 26.4207 118.017 26.3379 116.197 26.0897ZM136.158 27.5241C137.207 27.5241 137.979 27.4138 139.165 27.1655V30.6138C137.896 31 136.572 31.2483 135.22 31.2483C131.276 31.2483 129.869 30.0345 129.869 25.9241V15.1103H125.234V11.4138H134.42V25.7034C134.42 26.9172 134.917 27.5241 136.158 27.5241ZM141.527 23.9379C141.527 19 143.761 16.9586 148.341 16.9586C152.975 16.9586 155.182 19 155.182 23.9379V24.269C155.182 29.2069 152.975 31.2483 148.341 31.2483C143.761 31.2483 141.527 29.2069 141.527 24.269V23.9379ZM145.775 24.1586C145.775 26.7517 146.548 27.4966 148.341 27.4966C150.189 27.4966 150.906 26.7517 150.906 24.1586V24.0483C150.906 21.4552 150.189 20.7103 148.341 20.7103C146.548 20.7103 145.775 21.4552 145.775 24.0483V24.1586ZM167.033 27.5241C168.275 27.5241 169.185 27.4138 170.592 27.1655V30.6138C169.158 31 167.64 31.2483 166.096 31.2483C161.737 31.2483 160.192 30.0345 160.192 25.9241V20.9034H158.04V17.2069H160.192V13.6207H164.744V17.2069H170.482V20.9034H164.744V25.7034C164.744 26.9172 165.406 27.5241 167.033 27.5241Z"/>
</mask>
<path d="M44.5985 12.5172H49.5916L52.2951 22.9448C52.3502 23.1655 52.5158 23.1655 52.5709 22.9448L55.302 12.5172H60.2399V31H56.1847V21.1517L54.6951 26.5034C54.2537 28.1034 53.5364 28.5724 52.4054 28.5724C51.2192 28.5724 50.5295 28.1034 50.0882 26.5034L48.5985 21.1517V31H44.5985V12.5172ZM75.0981 23.3586C75.0981 25.5103 74.8498 25.5931 73.5257 25.5931H66.105C66.3808 27.1655 67.2912 27.6897 69.2222 27.6897C70.4912 27.6897 73.0015 27.3862 74.1326 27.2207V30.6138C72.0084 31.0276 70.2429 31.2483 68.7808 31.2483C63.8981 31.2483 61.6912 29.3172 61.6912 24.269V23.9379C61.6912 19 63.9533 16.9586 68.5326 16.9586C73.0567 16.9586 75.0981 19.3586 75.0981 23.3586ZM66.105 22.5034H70.7395C70.6843 21.3172 69.9395 20.5172 68.5326 20.5172C67.0705 20.5172 66.3533 21.069 66.105 22.5034ZM76.9632 21.069C76.9632 18.2 78.2045 16.9586 81.1287 16.9586C82.7839 16.9586 83.4735 17.4 84.3011 18.4207H84.4666C85.2666 17.4 85.9563 16.9586 87.6666 16.9586C90.5632 16.9586 91.8045 18.2 91.8045 21.069V31H88.0528V21.7586C88.0528 20.931 87.8045 20.5724 87.1701 20.5724C86.508 20.5724 86.2597 20.931 86.2597 21.7586V31H82.508V21.7586C82.508 20.931 82.2597 20.5724 81.5976 20.5724C80.9632 20.5724 80.6873 20.931 80.6873 21.7586V31H76.9632V21.069ZM107.077 23.3586C107.077 25.5103 106.828 25.5931 105.504 25.5931H98.0834C98.3593 27.1655 99.2696 27.6897 101.201 27.6897C102.47 27.6897 104.98 27.3862 106.111 27.2207V30.6138C103.987 31.0276 102.221 31.2483 100.759 31.2483C95.8765 31.2483 93.6696 29.3172 93.6696 24.269V23.9379C93.6696 19 95.9317 16.9586 100.511 16.9586C105.035 16.9586 107.077 19.3586 107.077 23.3586ZM98.0834 22.5034H102.718C102.663 21.3172 101.918 20.5172 100.511 20.5172C99.0489 20.5172 98.3317 21.069 98.0834 22.5034ZM116.197 26.0897C114.238 25.8138 110.017 25.6207 110.017 21.4552C110.017 18.3655 112.142 16.9586 116.5 16.9586C118.569 16.9586 119.976 17.1793 121.824 17.5931V21.0414C120.39 20.7655 118.873 20.5724 116.942 20.5724C114.735 20.5724 114.321 20.7655 114.321 21.2621C114.321 21.8138 115.066 22.0345 116.721 22.2C119.204 22.4483 122.845 22.9172 122.845 26.5862C122.845 29.8414 120.39 31.2483 115.921 31.2483C113.824 31.2483 112.39 31.0552 110.376 30.7241V27.2483C112.031 27.4414 113.631 27.6069 115.645 27.6069C117.631 27.6069 118.514 27.4138 118.514 26.9172C118.514 26.4207 118.017 26.3379 116.197 26.0897ZM136.158 27.5241C137.207 27.5241 137.979 27.4138 139.165 27.1655V30.6138C137.896 31 136.572 31.2483 135.22 31.2483C131.276 31.2483 129.869 30.0345 129.869 25.9241V15.1103H125.234V11.4138H134.42V25.7034C134.42 26.9172 134.917 27.5241 136.158 27.5241ZM141.527 23.9379C141.527 19 143.761 16.9586 148.341 16.9586C152.975 16.9586 155.182 19 155.182 23.9379V24.269C155.182 29.2069 152.975 31.2483 148.341 31.2483C143.761 31.2483 141.527 29.2069 141.527 24.269V23.9379ZM145.775 24.1586C145.775 26.7517 146.548 27.4966 148.341 27.4966C150.189 27.4966 150.906 26.7517 150.906 24.1586V24.0483C150.906 21.4552 150.189 20.7103 148.341 20.7103C146.548 20.7103 145.775 21.4552 145.775 24.0483V24.1586ZM167.033 27.5241C168.275 27.5241 169.185 27.4138 170.592 27.1655V30.6138C169.158 31 167.64 31.2483 166.096 31.2483C161.737 31.2483 160.192 30.0345 160.192 25.9241V20.9034H158.04V17.2069H160.192V13.6207H164.744V17.2069H170.482V20.9034H164.744V25.7034C164.744 26.9172 165.406 27.5241 167.033 27.5241Z" fill="#FAFF00"/>
<path d="M44.5985 12.5172V10.4483H42.5295V12.5172H44.5985ZM49.5916 12.5172L51.5944 11.998L51.1926 10.4483H49.5916V12.5172ZM52.2951 22.9448L54.3023 22.443L54.3001 22.4343L54.2978 22.4256L52.2951 22.9448ZM52.5709 22.9448L50.5695 22.4206L50.5665 22.4318L50.5637 22.443L52.5709 22.9448ZM55.302 12.5172V10.4483H53.7051L53.3005 11.993L55.302 12.5172ZM60.2399 12.5172H62.3089V10.4483H60.2399V12.5172ZM60.2399 31V33.069H62.3089V31H60.2399ZM56.1847 31H54.1158V33.069H56.1847V31ZM56.1847 21.1517H58.2537L54.1915 20.5969L56.1847 21.1517ZM54.6951 26.5034L52.7019 25.9486L52.7006 25.9532L54.6951 26.5034ZM50.0882 26.5034L52.0826 25.9532L52.0814 25.9486L50.0882 26.5034ZM48.5985 21.1517L50.5917 20.5969L46.5295 21.1517H48.5985ZM48.5985 31V33.069H50.6675V31H48.5985ZM44.5985 31H42.5295V33.069H44.5985V31ZM44.5985 14.5862H49.5916V10.4483H44.5985V14.5862ZM47.5889 13.0365L50.2923 23.4641L54.2978 22.4256L51.5944 11.998L47.5889 13.0365ZM50.2879 23.4466C50.3554 23.7168 50.4955 24.0873 50.7966 24.4314C51.1074 24.7865 51.6644 25.1793 52.433 25.1793C53.2016 25.1793 53.7586 24.7865 54.0694 24.4314C54.3705 24.0873 54.5106 23.7168 54.5781 23.4466L50.5637 22.443C50.6037 22.2832 50.7024 21.9955 50.9553 21.7065C51.2177 21.4066 51.7196 21.0414 52.433 21.0414C53.1464 21.0414 53.6483 21.4066 53.9107 21.7065C54.1636 21.9955 54.2623 22.2832 54.3023 22.443L50.2879 23.4466ZM54.5724 23.469L57.3034 13.0414L53.3005 11.993L50.5695 22.4206L54.5724 23.469ZM55.302 14.5862H60.2399V10.4483H55.302V14.5862ZM58.1709 12.5172V31H62.3089V12.5172H58.1709ZM60.2399 28.931H56.1847V33.069H60.2399V28.931ZM58.2537 31V21.1517H54.1158V31H58.2537ZM54.1915 20.5969L52.7019 25.9486L56.6883 27.0583L58.1779 21.7065L54.1915 20.5969ZM52.7006 25.9532C52.5317 26.5654 52.3955 26.6234 52.4744 26.5569C52.5206 26.5178 52.5704 26.4964 52.5915 26.4901C52.5997 26.4877 52.5507 26.5034 52.4054 26.5034V30.6414C53.2587 30.6414 54.2651 30.4602 55.1433 29.719C55.9739 29.018 56.417 28.0415 56.6895 27.0536L52.7006 25.9532ZM52.4054 26.5034C52.2383 26.5034 52.1779 26.4861 52.18 26.4867C52.1968 26.4916 52.25 26.513 52.302 26.5569C52.3478 26.5955 52.3366 26.6047 52.2901 26.5186C52.2399 26.4256 52.1651 26.2522 52.0826 25.9532L48.0937 27.0536C48.3615 28.0246 48.7941 29.0109 49.633 29.719C50.5221 30.4694 51.545 30.6414 52.4054 30.6414V26.5034ZM52.0814 25.9486L50.5917 20.5969L46.6053 21.7065L48.095 27.0583L52.0814 25.9486ZM46.5295 21.1517V31H50.6675V21.1517H46.5295ZM48.5985 28.931H44.5985V33.069H48.5985V28.931ZM46.6675 31V12.5172H42.5295V31H46.6675ZM66.105 25.5931V23.5241H63.6414L64.0671 25.9506L66.105 25.5931ZM74.1326 27.2207H76.2015V24.8269L73.833 25.1735L74.1326 27.2207ZM74.1326 30.6138L74.5282 32.6446L76.2015 32.3186V30.6138H74.1326ZM66.105 22.5034L64.0663 22.1506L63.6472 24.5724H66.105V22.5034ZM70.7395 22.5034V24.5724H72.9069L72.8062 22.4073L70.7395 22.5034ZM73.0291 23.3586C73.0291 23.6101 73.0254 23.8133 73.018 23.9793C73.0104 24.1472 72.9998 24.2568 72.9901 24.3253C72.98 24.3962 72.9755 24.3899 72.9933 24.338C73.0128 24.2814 73.0651 24.1528 73.1816 24.0045C73.3054 23.8468 73.4603 23.7201 73.6237 23.632C73.7745 23.5508 73.8925 23.524 73.929 23.5168C73.962 23.5103 73.9545 23.5149 73.8733 23.5188C73.7934 23.5227 73.6873 23.5241 73.5257 23.5241V27.6621C73.821 27.6621 74.2894 27.6635 74.7309 27.5763C75.2529 27.4732 75.9222 27.214 76.4353 26.561C76.884 25.9899 77.0247 25.3463 77.0871 24.9057C77.1528 24.4423 77.167 23.9109 77.167 23.3586H73.0291ZM73.5257 23.5241H66.105V27.6621H73.5257V23.5241ZM64.0671 25.9506C64.2679 27.0951 64.7786 28.2261 65.9145 28.9652C66.9328 29.6278 68.1433 29.7586 69.2222 29.7586V25.6207C68.8239 25.6207 68.5534 25.5928 68.373 25.556C68.1974 25.5202 68.1532 25.4851 68.1713 25.4969C68.1809 25.5031 68.1967 25.5153 68.2129 25.5325C68.2288 25.5495 68.235 25.5607 68.2336 25.5582C68.2284 25.549 68.1829 25.4638 68.1428 25.2356L64.0671 25.9506ZM69.2222 29.7586C70.659 29.7586 73.305 29.4328 74.4321 29.2679L73.833 25.1735C72.698 25.3396 70.3234 25.6207 69.2222 25.6207V29.7586ZM72.0636 27.2207V30.6138H76.2015V27.2207H72.0636ZM73.737 28.583C71.6718 28.9853 70.0532 29.1793 68.7808 29.1793V33.3172C70.4326 33.3172 72.345 33.0699 74.5282 32.6446L73.737 28.583ZM68.7808 29.1793C66.5428 29.1793 65.4275 28.7244 64.8366 28.158C64.2651 27.6103 63.7602 26.5474 63.7602 24.269H59.6222C59.6222 27.0388 60.2207 29.4656 61.9734 31.1454C63.7066 32.8067 66.1361 33.3172 68.7808 33.3172V29.1793ZM63.7602 24.269V23.9379H59.6222V24.269H63.7602ZM63.7602 23.9379C63.7602 21.741 64.2671 20.6447 64.8509 20.0662C65.4377 19.4848 66.5038 19.0276 68.5326 19.0276V14.8897C65.9821 14.8897 63.6274 15.4532 61.9383 17.1269C60.2463 18.8036 59.6222 21.197 59.6222 23.9379H63.7602ZM68.5326 19.0276C70.4436 19.0276 71.4696 19.5295 72.0328 20.1053C72.6044 20.6898 73.0291 21.6874 73.0291 23.3586H77.167C77.167 21.0299 76.5711 18.8275 74.991 17.212C73.4024 15.5877 71.1457 14.8897 68.5326 14.8897V19.0276ZM66.105 24.5724H70.7395V20.4345H66.105V24.5724ZM72.8062 22.4073C72.7595 21.4026 72.4037 20.3544 71.5631 19.561C70.7221 18.7672 69.6292 18.4483 68.5326 18.4483V22.5862C68.69 22.5862 68.7656 22.6087 68.7826 22.6146C68.7908 22.6175 68.7862 22.6167 68.7731 22.6088C68.7597 22.6008 68.7418 22.5881 68.7227 22.5701C68.7036 22.5521 68.6877 22.5329 68.6755 22.5149C68.6635 22.4972 68.6578 22.4846 68.6561 22.4804C68.6529 22.4727 68.6684 22.5065 68.6727 22.5996L72.8062 22.4073ZM68.5326 18.4483C67.5809 18.4483 66.4826 18.6212 65.5642 19.3623C64.6285 20.1175 64.2357 21.1722 64.0663 22.1506L68.1436 22.8563C68.1822 22.6335 68.2248 22.5318 68.239 22.5031C68.2473 22.4861 68.2269 22.5309 68.1629 22.5825C68.1011 22.6324 68.064 22.6358 68.1068 22.6243C68.1602 22.61 68.2894 22.5862 68.5326 22.5862V18.4483ZM84.3011 18.4207L82.694 19.7237L83.315 20.4897H84.3011V18.4207ZM84.4666 18.4207V20.4897H85.4737L86.095 19.697L84.4666 18.4207ZM91.8045 31V33.069H93.8735V31H91.8045ZM88.0528 31H85.9839V33.069H88.0528V31ZM86.2597 31V33.069H88.3287V31H86.2597ZM82.508 31H80.439V33.069H82.508V31ZM80.6873 31V33.069H82.7563V31H80.6873ZM76.9632 31H74.8942V33.069H76.9632V31ZM79.0321 21.069C79.0321 19.8782 79.2969 19.5152 79.4048 19.4084C79.5178 19.2966 79.9012 19.0276 81.1287 19.0276V14.8897C79.4321 14.8897 77.7327 15.2413 76.4939 16.4675C75.2501 17.6986 74.8942 19.3908 74.8942 21.069H79.0321ZM81.1287 19.0276C81.7832 19.0276 82.0182 19.1172 82.1106 19.1627C82.2023 19.2079 82.3569 19.308 82.694 19.7237L85.9082 17.1176C85.4177 16.5127 84.8137 15.8817 83.9399 15.4511C83.0667 15.0207 82.1294 14.8897 81.1287 14.8897V19.0276ZM84.3011 20.4897H84.4666V16.3517H84.3011V20.4897ZM86.095 19.697C86.4122 19.2923 86.5541 19.2047 86.6347 19.1653C86.7263 19.1204 86.9733 19.0276 87.6666 19.0276V14.8897C86.6496 14.8897 85.6966 15.0175 84.8158 15.4485C83.924 15.8849 83.321 16.5284 82.8382 17.1444L86.095 19.697ZM87.6666 19.0276C88.8757 19.0276 89.2519 19.2945 89.3626 19.4047C89.4708 19.5123 89.7356 19.8783 89.7356 21.069H93.8735C93.8735 19.3906 93.5176 17.7015 92.281 16.4712C91.0469 15.2434 89.3541 14.8897 87.6666 14.8897V19.0276ZM89.7356 21.069V31H93.8735V21.069H89.7356ZM91.8045 28.931H88.0528V33.069H91.8045V28.931ZM90.1218 31V21.7586H85.9839V31H90.1218ZM90.1218 21.7586C90.1218 21.2328 90.0626 20.3758 89.5187 19.633C88.8577 18.7301 87.8907 18.5034 87.1701 18.5034V22.6414C87.1433 22.6414 86.9918 22.6389 86.7846 22.5531C86.5533 22.4574 86.3376 22.2926 86.18 22.0774C86.037 21.882 85.9942 21.717 85.984 21.6711C85.9744 21.6275 85.9839 21.645 85.9839 21.7586H90.1218ZM87.1701 18.5034C86.4652 18.5034 85.4879 18.7119 84.8114 19.6138C84.2485 20.3644 84.1908 21.2358 84.1908 21.7586H88.3287C88.3287 21.6444 88.3383 21.6295 88.3277 21.6766C88.3164 21.7271 88.2709 21.8978 88.1218 22.0965C87.9582 22.3147 87.7397 22.4733 87.5169 22.5624C87.3193 22.6414 87.1807 22.6414 87.1701 22.6414V18.5034ZM84.1908 21.7586V31H88.3287V21.7586H84.1908ZM86.2597 28.931H82.508V33.069H86.2597V28.931ZM84.577 31V21.7586H80.439V31H84.577ZM84.577 21.7586C84.577 21.2358 84.5192 20.3644 83.9563 19.6138C83.2798 18.7119 82.3025 18.5034 81.5976 18.5034V22.6414C81.587 22.6414 81.4484 22.6414 81.2508 22.5624C81.028 22.4733 80.8095 22.3147 80.6459 22.0965C80.4969 21.8978 80.4513 21.7271 80.44 21.6766C80.4294 21.6295 80.439 21.6444 80.439 21.7586H84.577ZM81.5976 18.5034C80.8805 18.5034 79.9309 18.726 79.2635 19.5951C78.6952 20.3353 78.6183 21.1978 78.6183 21.7586H82.7563C82.7563 21.6573 82.7657 21.6503 82.7528 21.7041C82.7391 21.7617 82.6907 21.9262 82.5455 22.1152C82.3883 22.32 82.1799 22.4719 81.9636 22.5594C81.768 22.6385 81.6257 22.6414 81.5976 22.6414V18.5034ZM78.6183 21.7586V31H82.7563V21.7586H78.6183ZM80.6873 28.931H76.9632V33.069H80.6873V28.931ZM79.0321 31V21.069H74.8942V31H79.0321ZM98.0834 25.5931V23.5241H95.6199L96.0456 25.9506L98.0834 25.5931ZM106.111 27.2207H108.18V24.8269L105.811 25.1735L106.111 27.2207ZM106.111 30.6138L106.507 32.6446L108.18 32.3186V30.6138H106.111ZM98.0834 22.5034L96.0448 22.1506L95.6256 24.5724H98.0834V22.5034ZM102.718 22.5034V24.5724H104.885L104.785 22.4073L102.718 22.5034ZM105.008 23.3586C105.008 23.6101 105.004 23.8133 104.996 23.9793C104.989 24.1472 104.978 24.2568 104.969 24.3253C104.958 24.3962 104.954 24.3899 104.972 24.338C104.991 24.2814 105.044 24.1528 105.16 24.0045C105.284 23.8468 105.439 23.7201 105.602 23.632C105.753 23.5508 105.871 23.524 105.907 23.5168C105.94 23.5103 105.933 23.5149 105.852 23.5188C105.772 23.5227 105.666 23.5241 105.504 23.5241V27.6621C105.799 27.6621 106.268 27.6635 106.709 27.5763C107.231 27.4732 107.901 27.214 108.414 26.561C108.862 25.9899 109.003 25.3463 109.066 24.9057C109.131 24.4423 109.146 23.9109 109.146 23.3586H105.008ZM105.504 23.5241H98.0834V27.6621H105.504V23.5241ZM96.0456 25.9506C96.2464 27.0951 96.7571 28.2261 97.893 28.9652C98.9112 29.6278 100.122 29.7586 101.201 29.7586V25.6207C100.802 25.6207 100.532 25.5928 100.351 25.556C100.176 25.5202 100.132 25.4851 100.15 25.4969C100.159 25.5031 100.175 25.5153 100.191 25.5325C100.207 25.5495 100.213 25.5607 100.212 25.5582C100.207 25.549 100.161 25.4638 100.121 25.2356L96.0456 25.9506ZM101.201 29.7586C102.637 29.7586 105.283 29.4328 106.411 29.2679L105.811 25.1735C104.676 25.3396 102.302 25.6207 101.201 25.6207V29.7586ZM104.042 27.2207V30.6138H108.18V27.2207H104.042ZM105.715 28.583C103.65 28.9853 102.032 29.1793 100.759 29.1793V33.3172C102.411 33.3172 104.323 33.0699 106.507 32.6446L105.715 28.583ZM100.759 29.1793C98.5213 29.1793 97.4059 28.7244 96.8151 28.158C96.2436 27.6103 95.7386 26.5474 95.7386 24.269H91.6007C91.6007 27.0388 92.1992 29.4656 93.9518 31.1454C95.6851 32.8067 98.1145 33.3172 100.759 33.3172V29.1793ZM95.7386 24.269V23.9379H91.6007V24.269H95.7386ZM95.7386 23.9379C95.7386 21.741 96.2456 20.6447 96.8294 20.0662C97.4161 19.4848 98.4822 19.0276 100.511 19.0276V14.8897C97.9605 14.8897 95.6059 15.4532 93.9168 17.1269C92.2247 18.8036 91.6007 21.197 91.6007 23.9379H95.7386ZM100.511 19.0276C102.422 19.0276 103.448 19.5295 104.011 20.1053C104.583 20.6898 105.008 21.6874 105.008 23.3586H109.146C109.146 21.0299 108.549 18.8275 106.969 17.212C105.381 15.5877 103.124 14.8897 100.511 14.8897V19.0276ZM98.0834 24.5724H102.718V20.4345H98.0834V24.5724ZM104.785 22.4073C104.738 21.4026 104.382 20.3544 103.542 19.561C102.701 18.7672 101.608 18.4483 100.511 18.4483V22.5862C100.668 22.5862 100.744 22.6087 100.761 22.6146C100.769 22.6175 100.765 22.6167 100.752 22.6088C100.738 22.6008 100.72 22.5881 100.701 22.5701C100.682 22.5521 100.666 22.5329 100.654 22.5149C100.642 22.4972 100.636 22.4846 100.635 22.4804C100.631 22.4727 100.647 22.5065 100.651 22.5996L104.785 22.4073ZM100.511 18.4483C99.5594 18.4483 98.4611 18.6212 97.5427 19.3623C96.6069 20.1175 96.2141 21.1722 96.0448 22.1506L100.122 22.8563C100.161 22.6335 100.203 22.5318 100.217 22.5031C100.226 22.4861 100.205 22.5309 100.141 22.5825C100.08 22.6324 100.042 22.6358 100.085 22.6243C100.139 22.61 100.268 22.5862 100.511 22.5862V18.4483ZM116.197 26.0897L115.908 28.1384L115.917 28.1396L116.197 26.0897ZM121.824 17.5931H123.893V15.9361L122.276 15.5741L121.824 17.5931ZM121.824 21.0414L121.434 23.0731L123.893 23.5461V21.0414H121.824ZM116.721 22.2L116.515 24.2587L116.721 22.2ZM110.376 30.7241H108.307V32.4808L110.04 32.7657L110.376 30.7241ZM110.376 27.2483L110.616 25.1932L108.307 24.9239V27.2483H110.376ZM116.485 24.0409C115.304 23.8745 114.186 23.7918 113.244 23.3544C112.827 23.1611 112.565 22.9438 112.402 22.7103C112.25 22.4937 112.086 22.1282 112.086 21.4552H107.949C107.949 22.8649 108.313 24.0856 109.013 25.0854C109.702 26.0683 110.618 26.6975 111.502 27.1077C113.159 27.8771 115.131 28.0289 115.908 28.1384L116.485 24.0409ZM112.086 21.4552C112.086 20.4498 112.389 20.0324 112.795 19.7545C113.356 19.3693 114.47 19.0276 116.5 19.0276V14.8897C114.172 14.8897 112.044 15.2514 110.454 16.3421C108.708 17.5401 107.949 19.3709 107.949 21.4552H112.086ZM116.5 19.0276C118.375 19.0276 119.625 19.2209 121.372 19.6121L122.276 15.5741C120.327 15.1377 118.763 14.8897 116.5 14.8897V19.0276ZM119.755 17.5931V21.0414H123.893V17.5931H119.755ZM122.215 19.0096C120.675 18.7134 119.025 18.5034 116.942 18.5034V22.6414C118.72 22.6414 120.105 22.8176 121.434 23.0731L122.215 19.0096ZM116.942 18.5034C115.876 18.5034 114.931 18.5393 114.226 18.7444C113.843 18.8558 113.276 19.0856 112.831 19.6203C112.345 20.2034 112.252 20.8433 112.252 21.2621H116.39C116.39 21.4326 116.349 21.8621 116.009 22.2693C115.71 22.6282 115.385 22.7166 115.382 22.7176C115.368 22.7215 115.462 22.6953 115.754 22.6737C116.031 22.6532 116.413 22.6414 116.942 22.6414V18.5034ZM112.252 21.2621C112.252 21.9299 112.502 22.5569 112.962 23.0421C113.365 23.4663 113.84 23.69 114.185 23.8173C114.854 24.0636 115.695 24.1767 116.515 24.2587L116.927 20.1413C116.538 20.1024 116.236 20.0634 116.002 20.0228C115.76 19.9807 115.647 19.9462 115.615 19.9345C115.568 19.9169 115.753 19.9716 115.964 20.1941C116.08 20.3165 116.196 20.4811 116.278 20.6874C116.36 20.8938 116.39 21.0928 116.39 21.2621H112.252ZM116.515 24.2587C117.803 24.3875 118.961 24.5493 119.793 24.963C120.17 25.1503 120.39 25.3489 120.522 25.5446C120.644 25.7258 120.776 26.0289 120.776 26.5862H124.914C124.914 25.309 124.591 24.1776 123.953 23.2312C123.324 22.2994 122.479 21.6773 121.635 21.2577C120.026 20.4576 118.122 20.2608 116.927 20.1413L116.515 24.2587ZM120.776 26.5862C120.776 27.6009 120.447 28.0694 119.935 28.4009C119.26 28.8378 118.008 29.1793 115.921 29.1793V33.3172C118.303 33.3172 120.513 32.9553 122.183 31.875C124.015 30.6892 124.914 28.8267 124.914 26.5862H120.776ZM115.921 29.1793C113.987 29.1793 112.679 29.006 110.712 28.6826L110.04 32.7657C112.101 33.1044 113.661 33.3172 115.921 33.3172V29.1793ZM112.445 30.7241V27.2483H108.307V30.7241H112.445ZM110.136 29.3033C111.814 29.499 113.509 29.6759 115.645 29.6759V25.5379C113.754 25.5379 112.249 25.3838 110.616 25.1932L110.136 29.3033ZM115.645 29.6759C116.651 29.6759 117.577 29.6319 118.298 29.4622C118.65 29.3795 119.155 29.2231 119.61 28.8716C120.152 28.4528 120.583 27.7755 120.583 26.9172H116.445C116.445 26.6592 116.506 26.381 116.645 26.1197C116.779 25.8669 116.949 25.6988 117.08 25.5973C117.307 25.4218 117.468 25.4068 117.351 25.4343C117.265 25.4545 117.089 25.4835 116.784 25.5053C116.487 25.5265 116.112 25.5379 115.645 25.5379V29.6759ZM120.583 26.9172C120.583 26.4101 120.439 25.765 119.93 25.212C119.498 24.7431 118.979 24.5402 118.675 24.4418C118.103 24.2568 117.292 24.1509 116.476 24.0397L115.917 28.1396C116.378 28.2025 116.72 28.2502 116.987 28.2947C117.118 28.3165 117.216 28.3352 117.29 28.3513C117.326 28.3591 117.353 28.3657 117.372 28.3708C117.382 28.3733 117.389 28.3753 117.394 28.3767C117.399 28.3781 117.401 28.3789 117.401 28.3789C117.401 28.3788 117.398 28.3779 117.393 28.376C117.388 28.374 117.379 28.3709 117.368 28.3663C117.347 28.3575 117.312 28.3418 117.267 28.3173C117.179 28.2689 117.034 28.1755 116.886 28.0147C116.73 27.845 116.607 27.6403 116.531 27.4168C116.458 27.2042 116.445 27.0254 116.445 26.9172H120.583ZM139.165 27.1655H141.234V24.6187L138.741 25.1404L139.165 27.1655ZM139.165 30.6138L139.768 32.5931L141.234 32.1468V30.6138H139.165ZM129.869 15.1103H131.938V13.0414H129.869V15.1103ZM125.234 15.1103H123.165V17.1793H125.234V15.1103ZM125.234 11.4138V9.34483H123.165V11.4138H125.234ZM134.42 11.4138H136.489V9.34483H134.42V11.4138ZM136.158 29.5931C137.4 29.5931 138.324 29.4554 139.589 29.1906L138.741 25.1404C137.634 25.3722 137.014 25.4552 136.158 25.4552V29.5931ZM137.096 27.1655V30.6138H141.234V27.1655H137.096ZM138.563 28.6345C137.437 28.977 136.32 29.1793 135.22 29.1793V33.3172C136.824 33.3172 138.355 33.023 139.768 32.5931L138.563 28.6345ZM135.22 29.1793C133.334 29.1793 132.729 28.8585 132.504 28.6405C132.296 28.4391 131.938 27.8598 131.938 25.9241H127.8C127.8 28.0988 128.145 30.1816 129.627 31.6146C131.091 33.0312 133.162 33.3172 135.22 33.3172V29.1793ZM131.938 25.9241V15.1103H127.8V25.9241H131.938ZM129.869 13.0414H125.234V17.1793H129.869V13.0414ZM127.303 15.1103V11.4138H123.165V15.1103H127.303ZM125.234 13.4828H134.42V9.34483H125.234V13.4828ZM132.352 11.4138V25.7034H136.489V11.4138H132.352ZM132.352 25.7034C132.352 26.5328 132.511 27.6116 133.302 28.4701C134.126 29.3654 135.232 29.5931 136.158 29.5931V25.4552C136.008 25.4552 135.983 25.4357 136.035 25.4533C136.102 25.4764 136.228 25.539 136.346 25.6678C136.461 25.792 136.498 25.9019 136.505 25.9242C136.508 25.9359 136.489 25.8751 136.489 25.7034H132.352ZM143.596 23.9379C143.596 21.7348 144.099 20.6384 144.677 20.0618C145.256 19.4848 146.312 19.0276 148.341 19.0276V14.8897C145.79 14.8897 143.439 15.4531 141.756 17.1313C140.072 18.8099 139.458 21.2031 139.458 23.9379H143.596ZM148.341 19.0276C150.404 19.0276 151.463 19.4877 152.039 20.0618C152.614 20.6355 153.113 21.7284 153.113 23.9379H157.251C157.251 21.2095 156.647 18.8128 154.96 17.1313C153.274 15.4503 150.912 14.8897 148.341 14.8897V19.0276ZM153.113 23.9379V24.269H157.251V23.9379H153.113ZM153.113 24.269C153.113 26.4785 152.614 27.5714 152.039 28.1451C151.463 28.7192 150.404 29.1793 148.341 29.1793V33.3172C150.912 33.3172 153.274 32.7566 154.96 31.0756C156.647 29.3941 157.251 26.9974 157.251 24.269H153.113ZM148.341 29.1793C146.312 29.1793 145.256 28.7221 144.677 28.1451C144.099 27.5685 143.596 26.4721 143.596 24.269H139.458C139.458 27.0038 140.072 29.397 141.756 31.0756C143.439 32.7538 145.79 33.3172 148.341 33.3172V29.1793ZM143.596 24.269V23.9379H139.458V24.269H143.596ZM143.706 24.1586C143.706 25.5402 143.885 27.0107 144.784 28.1096C145.789 29.3388 147.216 29.5655 148.341 29.5655V25.4276C148.019 25.4276 147.882 25.3917 147.849 25.3808C147.84 25.3777 147.86 25.3835 147.895 25.4067C147.931 25.4311 147.964 25.4613 147.987 25.4904C148.034 25.5475 147.991 25.5297 147.94 25.3082C147.887 25.0806 147.844 24.7175 147.844 24.1586H143.706ZM148.341 29.5655C149.474 29.5655 150.923 29.3475 151.929 28.0965C152.818 26.991 152.975 25.5134 152.975 24.1586H148.837C148.837 24.7258 148.797 25.0944 148.745 25.3272C148.695 25.5547 148.653 25.5678 148.704 25.5035C148.731 25.4702 148.767 25.4362 148.808 25.4089C148.846 25.3829 148.869 25.3762 148.86 25.3792C148.827 25.3905 148.683 25.4276 148.341 25.4276V29.5655ZM152.975 24.1586V24.0483H148.837V24.1586H152.975ZM152.975 24.0483C152.975 22.6934 152.818 21.2159 151.929 20.1104C150.923 18.8594 149.474 18.6414 148.341 18.6414V22.7793C148.683 22.7793 148.827 22.8164 148.86 22.8277C148.869 22.8307 148.846 22.824 148.808 22.798C148.767 22.7707 148.731 22.7367 148.704 22.7034C148.653 22.6391 148.695 22.6522 148.745 22.8797C148.797 23.1125 148.837 23.4811 148.837 24.0483H152.975ZM148.341 18.6414C147.216 18.6414 145.789 18.8681 144.784 20.0973C143.885 21.1962 143.706 22.6667 143.706 24.0483H147.844C147.844 23.4894 147.887 23.1263 147.94 22.8987C147.991 22.6772 148.034 22.6594 147.987 22.7165C147.964 22.7456 147.931 22.7758 147.895 22.8002C147.86 22.8234 147.84 22.8292 147.849 22.8261C147.882 22.8151 148.019 22.7793 148.341 22.7793V18.6414ZM143.706 24.0483V24.1586H147.844V24.0483H143.706ZM170.592 27.1655H172.661V24.6995L170.232 25.128L170.592 27.1655ZM170.592 30.6138L171.13 32.6116L172.661 32.1994V30.6138H170.592ZM160.192 20.9034H162.261V18.8345H160.192V20.9034ZM158.04 20.9034H155.971V22.9724H158.04V20.9034ZM158.04 17.2069V15.1379H155.971V17.2069H158.04ZM160.192 17.2069V19.2759H162.261V17.2069H160.192ZM160.192 13.6207V11.5517H158.123V13.6207H160.192ZM164.744 13.6207H166.813V11.5517H164.744V13.6207ZM164.744 17.2069H162.675V19.2759H164.744V17.2069ZM170.482 17.2069H172.551V15.1379H170.482V17.2069ZM170.482 20.9034V22.9724H172.551V20.9034H170.482ZM164.744 20.9034V18.8345H162.675V20.9034H164.744ZM167.033 29.5931C168.438 29.5931 169.478 29.4631 170.952 29.203L170.232 25.128C168.893 25.3645 168.111 25.4552 167.033 25.4552V29.5931ZM168.523 27.1655V30.6138H172.661V27.1655H168.523ZM170.054 28.616C168.755 28.9658 167.421 29.1793 166.096 29.1793V33.3172C167.859 33.3172 169.56 33.0342 171.13 32.6116L170.054 28.616ZM166.096 29.1793C163.972 29.1793 163.191 28.8507 162.874 28.5727C162.638 28.3652 162.261 27.8198 162.261 25.9241H158.123C158.123 28.1389 158.519 30.2555 160.144 31.6825C161.69 33.0389 163.86 33.3172 166.096 33.3172V29.1793ZM162.261 25.9241V20.9034H158.123V25.9241H162.261ZM160.192 18.8345H158.04V22.9724H160.192V18.8345ZM160.109 20.9034V17.2069H155.971V20.9034H160.109ZM158.04 19.2759H160.192V15.1379H158.04V19.2759ZM162.261 17.2069V13.6207H158.123V17.2069H162.261ZM160.192 15.6897H164.744V11.5517H160.192V15.6897ZM162.675 13.6207V17.2069H166.813V13.6207H162.675ZM164.744 19.2759H170.482V15.1379H164.744V19.2759ZM168.413 17.2069V20.9034H172.551V17.2069H168.413ZM170.482 18.8345H164.744V22.9724H170.482V18.8345ZM162.675 20.9034V25.7034H166.813V20.9034H162.675ZM162.675 25.7034C162.675 26.6851 162.956 27.8381 163.964 28.6669C164.88 29.4199 166.033 29.5931 167.033 29.5931V25.4552C166.746 25.4552 166.584 25.4275 166.511 25.4083C166.443 25.3907 166.497 25.3927 166.592 25.471C166.64 25.5098 166.686 25.5583 166.725 25.6143C166.765 25.6697 166.79 25.7203 166.804 25.7575C166.831 25.827 166.813 25.8265 166.813 25.7034H162.675Z" fill="#FF2626" mask="url(#path-10-outside-1_1482_13330)"/>
<defs>
<filter id="filter0_d_1482_13330" x="0" y="0" width="36.4002" height="40.5379" filterUnits="userSpaceOnUse" color-interpolation-filters="sRGB">
<feFlood flood-opacity="0" result="BackgroundImageFix"/>
<feColorMatrix in="SourceAlpha" type="matrix" values="0 0 0 0 0 0 0 0 0 0 0 0 0 0 0 0 0 0 127 0" result="hardAlpha"/>
<feOffset dx="0.537931" dy="0.537931"/>
<feComposite in2="hardAlpha" operator="out"/>
<feColorMatrix type="matrix" values="0 0 0 0 0.844962 0 0 0 0 0.0220812 0 0 0 0 0.0916204 0 0 0 1 0"/>
<feBlend mode="normal" in2="BackgroundImageFix" result="effect1_dropShadow_1482_13330"/>
<feBlend mode="normal" in="SourceGraphic" in2="effect1_dropShadow_1482_13330" result="shape"/>
</filter>
<filter id="filter1_ii_1482_13330" x="0.823242" y="0" width="34.2754" height="38.1992" filterUnits="userSpaceOnUse" color-interpolation-filters="sRGB">
<feFlood flood-opacity="0" result="BackgroundImageFix"/>
<feBlend mode="normal" in="SourceGraphic" in2="BackgroundImageFix" result="shape"/>
<feColorMatrix in="SourceAlpha" type="matrix" values="0 0 0 0 0 0 0 0 0 0 0 0 0 0 0 0 0 0 127 0" result="hardAlpha"/>
<feOffset dx="-4.48276" dy="-2.68966"/>
<feComposite in2="hardAlpha" operator="arithmetic" k2="-1" k3="1"/>
<feColorMatrix type="matrix" values="0 0 0 0 0.0495516 0 0 0 0 0.0495516 0 0 0 0 0.0495516 0 0 0 0.3 0"/>
<feBlend mode="color-burn" in2="shape" result="effect1_innerShadow_1482_13330"/>
<feColorMatrix in="SourceAlpha" type="matrix" values="0 0 0 0 0 0 0 0 0 0 0 0 0 0 0 0 0 0 127 0" result="hardAlpha"/>
<feOffset dx="3.22759" dy="0.717241"/>
<feComposite in2="hardAlpha" operator="arithmetic" k2="-1" k3="1"/>
<feColorMatrix type="matrix" values="0 0 0 0 0.919236 0 0 0 0 0.0427755 0 0 0 0 0.118689 0 0 0 1 0"/>
<feBlend mode="normal" in2="effect1_innerShadow_1482_13330" result="effect2_innerShadow_1482_13330"/>
</filter>
<filter id="filter2_i_1482_13330" x="8.5166" y="16.4082" width="4.48242" height="4.48242" filterUnits="userSpaceOnUse" color-interpolation-filters="sRGB">
<feFlood flood-opacity="0" result="BackgroundImageFix"/>
<feBlend mode="normal" in="SourceGraphic" in2="BackgroundImageFix" result="shape"/>
<feColorMatrix in="SourceAlpha" type="matrix" values="0 0 0 0 0 0 0 0 0 0 0 0 0 0 0 0 0 0 127 0" result="hardAlpha"/>
<feOffset dx="1.03448" dy="0.862069"/>
<feComposite in2="hardAlpha" operator="arithmetic" k2="-1" k3="1"/>
<feColorMatrix type="matrix" values="0 0 0 0 0.913725 0 0 0 0 0.435294 0 0 0 0 0.494118 0 0 0 1 0"/>
<feBlend mode="multiply" in2="shape" result="effect1_innerShadow_1482_13330"/>
</filter>
<filter id="filter3_i_1482_13330" x="19.5449" y="11.8359" width="6.09668" height="6.0957" filterUnits="userSpaceOnUse" color-interpolation-filters="sRGB">
<feFlood flood-opacity="0" result="BackgroundImageFix"/>
<feBlend mode="normal" in="SourceGraphic" in2="BackgroundImageFix" result="shape"/>
<feColorMatrix in="SourceAlpha" type="matrix" values="0 0 0 0 0 0 0 0 0 0 0 0 0 0 0 0 0 0 127 0" result="hardAlpha"/>
<feOffset dx="1.07586" dy="0.896552"/>
<feComposite in2="hardAlpha" operator="arithmetic" k2="-1" k3="1"/>
<feColorMatrix type="matrix" values="0 0 0 0 0.913725 0 0 0 0 0.435294 0 0 0 0 0.494118 0 0 0 1 0"/>
<feBlend mode="multiply" in2="shape" result="effect1_innerShadow_1482_13330"/>
</filter>
<filter id="filter4_i_1482_13330" x="10.7217" y="18.9766" width="12.9893" height="10.9902" filterUnits="userSpaceOnUse" color-interpolation-filters="sRGB">
<feFlood flood-opacity="0" result="BackgroundImageFix"/>
<feBlend mode="normal" in="SourceGraphic" in2="BackgroundImageFix" result="shape"/>
<feColorMatrix in="SourceAlpha" type="matrix" values="0 0 0 0 0 0 0 0 0 0 0 0 0 0 0 0 0 0 127 0" result="hardAlpha"/>
<feOffset dx="1.07586" dy="0.717241"/>
<feComposite in2="hardAlpha" operator="arithmetic" k2="-1" k3="1"/>
<feColorMatrix type="matrix" values="0 0 0 0 0.913725 0 0 0 0 0.435294 0 0 0 0 0.494118 0 0 0 1 0"/>
<feBlend mode="multiply" in2="shape" result="effect1_innerShadow_1482_13330"/>
</filter>
<linearGradient id="paint0_linear_1482_13330" x1="23.131" y1="1.43448" x2="2.6" y2="40.3448" gradientUnits="userSpaceOnUse">
<stop stop-color="white"/>
<stop offset="1" stop-color="#FFEAEE"/>
</linearGradient>
<linearGradient id="paint1_linear_1482_13330" x1="20.8" y1="-3.4069" x2="2.90677e-07" y2="43.9172" gradientUnits="userSpaceOnUse">
<stop stop-color="#FF57F8"/>
<stop offset="0.48" stop-color="#FF0000"/>
<stop offset="1" stop-color="#FF002E"/>
</linearGradient>
<linearGradient id="paint2_linear_1482_13330" x1="10.758" y1="16.4082" x2="10.758" y2="20.891" gradientUnits="userSpaceOnUse">
<stop stop-color="#FF57F8"/>
<stop offset="1" stop-color="#FF0000"/>
</linearGradient>
<linearGradient id="paint3_linear_1482_13330" x1="10.758" y1="16.4082" x2="10.758" y2="20.891" gradientUnits="userSpaceOnUse">
<stop stop-color="#FF57F8"/>
<stop offset="1" stop-color="#FF0000"/>
</linearGradient>
<linearGradient id="paint4_linear_1482_13330" x1="22.5932" y1="11.8359" x2="22.5932" y2="17.9325" gradientUnits="userSpaceOnUse">
<stop stop-color="#FF57F8"/>
<stop offset="1" stop-color="#FF0000"/>
</linearGradient>
<linearGradient id="paint5_linear_1482_13330" x1="17.1467" y1="18.8633" x2="17.1467" y2="29.9676" gradientUnits="userSpaceOnUse">
<stop stop-color="#FF57F8"/>
<stop offset="1" stop-color="#FF0000"/>
</linearGradient>
<linearGradient id="paint6_linear_1482_13330" x1="17.1467" y1="18.8633" x2="17.1467" y2="29.9676" gradientUnits="userSpaceOnUse">
<stop stop-color="#FF57F8"/>
<stop offset="1" stop-color="#FF0000"/>
</linearGradient>
<linearGradient id="paint7_linear_1482_13330" x1="22.5932" y1="11.8359" x2="22.5932" y2="17.9325" gradientUnits="userSpaceOnUse">
<stop stop-color="#FF57F8"/>
<stop offset="1" stop-color="#FF0000"/>
</linearGradient>
</defs>
</svg>
