<svg width="25" height="25" viewBox="0 0 25 25" fill="none" xmlns="http://www.w3.org/2000/svg">
<g id="medium-icon-svgrepo-com 1" clip-path="url(#clip0_296_9977)">
<g id="Group">
<path id="Vector" d="M7.18159 5.68793C10.9026 5.68793 13.9189 8.72523 13.9189 12.4717C13.9189 16.2181 10.9024 19.2552 7.18159 19.2552C3.46079 19.2552 0.444092 16.2181 0.444092 12.4717C0.444092 8.72523 3.46056 5.68793 7.18159 5.68793ZM17.9409 6.0853C19.8014 6.0853 21.3096 8.94429 21.3096 12.4717H21.3099C21.3099 15.9981 19.8016 18.858 17.9411 18.858C16.0806 18.858 14.5724 15.9981 14.5724 12.4717C14.5724 8.9452 16.0804 6.0853 17.9409 6.0853ZM23.1482 6.75049C23.8024 6.75049 24.333 9.3119 24.333 12.4717C24.333 15.6305 23.8026 18.1928 23.1482 18.1928C22.4938 18.1928 21.9636 15.6312 21.9636 12.4717C21.9636 9.31213 22.494 6.75049 23.1482 6.75049Z" fill="current"/>
</g>
</g>
<defs>
<clipPath id="clip0_296_9977">
<rect width="23.8889" height="23.8889" fill="current" transform="translate(0.443848 0.555542)"/>
</clipPath>
</defs>
</svg>
