<svg width="218" height="181" viewBox="0 0 218 181" fill="none" xmlns="http://www.w3.org/2000/svg">
<path d="M54.9463 59.3974L48.5578 55.3583L51.3362 50.9593L49.7959 49.9912L47.0175 54.3901L43.2933 52.037L47.1334 45.9562L45.5997 44.9842L39.9747 53.8917L53.1641 62.2137L54.9463 59.3974Z" fill="#ff583e"/>
<path d="M65.3742 46.1224L65.3373 46.0737L58.5683 53.8192L46.8225 43.5511L49.0173 41.0398L59.396 50.1084L64.1705 44.6446L55.5279 34.0304L64.1391 27.0173L65.2841 28.4239L59.2592 33.3305L62.0479 36.7495L66.0726 33.462L67.228 34.8714L63.193 38.1561L66.8154 42.6094L72.8404 37.7028L73.9854 39.1094L65.3742 46.1224Z" fill="#ff583e"/>
<path d="M80.7903 35.4171C81.2941 34.8634 81.6605 34.2839 81.8931 33.6852C82.1181 33.0734 82.2067 32.4528 82.1455 31.831C82.0882 31.2158 81.903 30.6218 81.5871 30.0595C81.2977 29.5431 80.9195 29.1307 80.4467 28.843C79.9984 28.5673 79.4865 28.3635 78.9316 28.237C78.387 28.1134 77.8117 28.0425 77.2055 28.0245C76.6163 28.0055 76.0281 28.0034 75.4305 28.0155L73.7018 28.041C73.155 28.0501 72.6401 28.0232 72.1881 27.9687C71.7531 27.9133 71.3696 27.8105 71.048 27.6632C70.7651 27.5374 70.56 27.3492 70.4186 27.0891C70.3124 26.9051 70.2522 26.6946 70.2352 26.4679C70.2116 26.2449 70.2416 26.0085 70.3262 25.7757C70.4136 25.5325 70.5583 25.2825 70.7653 25.0491C70.975 24.8053 71.2677 24.5838 71.6263 24.3855C71.9351 24.2072 72.2508 24.0863 72.545 24.004C72.6418 23.9744 72.7358 23.9552 72.8337 23.9425C73.2174 23.8787 73.591 23.8733 73.9489 23.947C74.3069 24.0207 74.6613 24.149 75.0029 24.346C75.3548 24.5459 75.6929 24.7975 76.017 25.101L76.3695 25.4232L77.7157 23.6121L77.4416 23.3498C76.9842 22.9217 76.5084 22.5832 76.0207 22.3303C75.5161 22.0784 74.9865 21.9198 74.4356 21.8611C73.8848 21.8024 73.3062 21.8473 72.7064 21.9921L72.5692 22.0276C72.024 22.1758 71.4434 22.4147 70.8614 22.7419C70.1507 23.1347 69.5588 23.5816 69.1027 24.0815C68.64 24.5852 68.3017 25.1222 68.0972 25.6783C67.8898 26.2449 67.8124 26.824 67.8611 27.4092C67.9164 27.9906 68.0903 28.5648 68.391 29.1009C68.6927 29.6539 69.0927 30.0888 69.5665 30.3935C70.0158 30.686 70.5184 30.904 71.0667 31.0343C71.5981 31.1656 72.1669 31.2402 72.7561 31.2592C73.3247 31.2727 73.9025 31.272 74.4728 31.2582C75.0327 31.2416 75.5964 31.2315 76.1431 31.2225C76.6664 31.2183 77.1578 31.25 77.607 31.3148C78.0327 31.3844 78.4172 31.5041 78.7436 31.6749C79.0455 31.8335 79.2771 32.0678 79.4526 32.387C79.6044 32.6498 79.6638 32.9046 79.6556 33.1635C79.6446 33.4327 79.5789 33.6984 79.4577 33.9436C79.3308 34.2096 79.1484 34.4551 78.9169 34.6763C78.6827 34.908 78.4191 35.1039 78.1393 35.2567C77.8502 35.4236 77.5477 35.537 77.2535 35.6192C77.1632 35.645 77.0626 35.6681 76.9686 35.6873C76.5756 35.7653 76.185 35.7717 75.8008 35.7132C75.4203 35.6613 75.0358 35.5416 74.6642 35.3531C74.2963 35.1712 73.931 34.9178 73.5992 34.6012L73.2571 34.2818L71.8148 36.0782L72.12 36.3489C72.583 36.7562 73.0758 37.0938 73.5832 37.3353C74.1009 37.5795 74.6475 37.7371 75.2049 37.792C75.7661 37.8535 76.3616 37.8076 76.9614 37.6628L77.1588 37.6101C77.6974 37.4656 78.2676 37.224 78.8469 36.9071C79.6496 36.4612 80.3099 35.9661 80.8072 35.4161L80.7903 35.4171Z" fill="#ff583e"/>
<path fill-rule="evenodd" clip-rule="evenodd" d="M96.4583 29.3062C95.5473 29.9286 94.4549 30.4191 93.1972 30.7597L92.9227 30.8306L87.1694 32.2773L83.3752 17.1467L88.5559 15.8465C90.046 15.4682 91.3882 15.289 92.5477 15.2942C93.7345 15.3011 94.799 15.5364 95.7101 15.9916C96.7401 16.5009 97.6005 17.1869 98.2659 18.0206C98.9312 18.8543 99.4052 19.8423 99.6859 20.9506C99.9466 22.0092 100.007 23.0696 99.8608 24.0913C99.712 25.1235 99.3521 26.0935 98.7829 26.9741C98.2202 27.8509 97.4379 28.6356 96.4583 29.3062ZM96.2563 24.5252C96.362 23.737 96.296 22.864 96.0556 21.9164L96.0518 21.9098C95.8457 21.0825 95.5131 20.3546 95.0746 19.7317C94.6399 19.1153 94.1172 18.6198 93.517 18.2479C92.9206 17.8825 92.2466 17.6408 91.5195 17.5349C90.7925 17.429 90.0201 17.4719 89.2332 17.6721L87.0833 18.2125L89.9337 29.5687L92.2143 28.9967C92.9137 28.8119 93.5486 28.5155 94.1134 28.128C94.7008 27.7188 95.1869 27.2104 95.5485 26.6074C95.91 26.0044 96.1535 25.3031 96.2563 24.5252Z" fill="#ff583e"/>
<path fill-rule="evenodd" clip-rule="evenodd" d="M103.916 26.5165C104.678 27.2594 105.59 27.8539 106.623 28.2916C107.658 28.719 108.786 28.9436 109.98 28.9468C110.779 28.9498 111.555 28.8522 112.278 28.6627L112.361 28.6406C113.057 28.4493 113.724 28.1781 114.332 27.8357C114.967 27.478 115.553 27.0519 116.064 26.5555C116.575 26.0592 117.024 25.5019 117.402 24.8979C117.777 24.2873 118.064 23.631 118.267 22.9356C118.466 22.2335 118.572 21.5065 118.578 20.7583C118.578 20.0138 118.483 19.2886 118.289 18.6034C118.095 17.9182 117.804 17.2626 117.435 16.6694C117.067 16.0763 116.619 15.5287 116.111 15.0425C115.598 14.5497 115.016 14.1326 114.383 13.7796C113.753 13.4333 113.06 13.1587 112.339 12.9709C111.607 12.7803 110.835 12.6736 110.04 12.6771C109.241 12.6741 108.472 12.7679 107.738 12.9547L107.601 12.9901C106.925 13.17 106.278 13.4299 105.686 13.7544C105.06 14.0978 104.477 14.5136 103.952 15.0006C103.434 15.4838 102.981 16.0345 102.611 16.6244C102.242 17.2142 101.952 17.864 101.751 18.5491C101.551 19.2342 101.445 19.9612 101.442 20.699C101.438 21.8312 101.656 22.906 102.093 23.9063C102.527 24.9001 103.141 25.7811 103.903 26.5241L103.916 26.5165ZM106.48 15.9945C106.878 15.4403 107.382 15.0089 107.969 14.7051C108.2 14.5892 108.449 14.4893 108.713 14.4157C109.115 14.3066 109.557 14.2529 110.029 14.2517C110.801 14.253 111.487 14.409 112.066 14.7141C112.656 15.0221 113.151 15.4547 113.551 16.0119C113.959 16.5823 114.276 17.267 114.48 18.0604C114.691 18.867 114.8 19.7681 114.79 20.7375C114.788 21.72 114.676 22.6344 114.457 23.4532C114.247 24.2579 113.925 24.9604 113.508 25.543C113.1 26.1113 112.59 26.5635 112.011 26.8804C111.764 27.0142 111.498 27.1151 111.221 27.1964C110.843 27.3006 110.418 27.3534 109.979 27.3525C109.197 27.3484 108.508 27.1859 107.921 26.8675C107.334 26.5492 106.834 26.0931 106.443 25.5217C106.037 24.941 105.727 24.2356 105.522 23.4252C105.313 22.6083 105.21 21.6865 105.216 20.7105C105.222 19.7345 105.331 18.8305 105.545 18.0324C105.756 17.2447 106.068 16.5563 106.48 15.9945Z" fill="#ff583e"/>
<path d="M123.61 18.7294L120.924 29.4185L118.998 28.9358L122.808 13.8042L124.758 14.2991L131.137 26.4395L133.629 16.5371L135.524 17.0115L131.625 32.4747L130.461 32.174L123.61 18.7294Z" fill="#ff583e"/>
<path fill-rule="evenodd" clip-rule="evenodd" d="M184.853 101.421C184.381 100.906 183.834 100.459 183.223 100.085C182.612 99.7099 181.942 99.4136 181.233 99.2181C180.148 98.9162 179.045 98.843 177.97 98.9993C177.63 99.0469 177.288 99.1218 176.96 99.2061C176.264 99.3974 175.594 99.679 174.963 100.043C174.037 100.578 173.227 101.3 172.539 102.188C171.851 103.075 171.338 104.099 171.02 105.246C170.804 106.011 170.691 106.786 170.682 107.544C170.669 108.296 170.754 109.036 170.926 109.743C171.098 110.45 171.366 111.127 171.703 111.756C172.046 112.381 172.462 112.965 172.945 113.483C173.429 114.001 173.99 114.457 174.611 114.835C175.231 115.212 175.912 115.511 176.631 115.709C177.344 115.911 178.067 116.011 178.787 115.998C179.449 115.992 180.096 115.899 180.725 115.729L180.882 115.682C181.557 115.485 182.2 115.202 182.803 114.836C183.407 114.47 183.971 114.021 184.481 113.508C184.987 112.988 185.434 112.397 185.807 111.752C186.186 111.104 186.489 110.386 186.702 109.615C186.914 108.844 187.031 108.076 187.043 107.324C187.056 106.572 186.981 105.835 186.817 105.141C186.653 104.447 186.402 103.769 186.075 103.143C185.745 102.51 185.343 101.936 184.864 101.424L184.853 101.421ZM182.085 112.272C181.546 112.416 180.949 112.489 180.313 112.48C179.483 112.469 178.58 112.332 177.644 112.076C176.703 111.813 175.853 111.463 175.117 111.038C174.398 110.612 173.801 110.124 173.35 109.57C172.906 109.029 172.608 108.421 172.46 107.771C172.316 107.127 172.338 106.422 172.552 105.685C172.765 104.931 173.105 104.305 173.566 103.829C174.027 103.353 174.596 102.989 175.259 102.755C175.382 102.71 175.509 102.672 175.635 102.634C176.211 102.477 176.846 102.408 177.526 102.419C178.367 102.433 179.283 102.578 180.23 102.837C181.171 103.101 182.011 103.448 182.726 103.867C183.427 104.277 184.007 104.766 184.444 105.311C184.874 105.843 185.158 106.441 185.296 107.089C185.429 107.73 185.394 108.442 185.181 109.196C184.97 109.94 184.644 110.558 184.193 111.037C183.743 111.516 183.194 111.886 182.545 112.128C182.418 112.179 182.284 112.218 182.145 112.259L182.095 112.274L182.085 112.272Z" fill="#ff583e"/>
<path d="M177.241 121.105L167.648 115.674L168.632 113.949L182.202 121.64L181.205 123.389L167.814 126.311L176.696 131.346L175.731 133.042L161.862 125.183L162.459 124.137L177.241 121.105Z" fill="#ff583e"/>
<path fill-rule="evenodd" clip-rule="evenodd" d="M157.503 130.713C156.546 131.757 155.829 132.837 155.381 133.927C154.926 135.022 154.702 136.106 154.711 137.153C154.719 138.199 154.953 139.212 155.394 140.158C155.831 141.097 156.46 141.943 157.266 142.687C158.108 143.462 159.053 144.021 160.062 144.358C161.078 144.691 162.169 144.789 163.316 144.652C163.613 144.621 163.912 144.562 164.213 144.476C164.926 144.283 165.637 143.952 166.347 143.498C167.315 142.869 168.343 141.978 169.38 140.844L172.999 136.915L161.527 126.348L157.509 130.71L157.503 130.713ZM159.769 139.875C159.053 139.211 158.512 138.516 158.17 137.802C157.831 137.095 157.646 136.378 157.613 135.67C157.585 134.968 157.71 134.274 157.982 133.608C158.258 132.932 158.659 132.306 159.189 131.737L160.679 130.115L169.29 138.049L167.787 139.679C167.238 140.276 166.62 140.738 165.948 141.047C165.664 141.176 165.368 141.286 165.08 141.364C164.692 141.466 164.291 141.531 163.888 141.545C163.188 141.563 162.474 141.432 161.774 141.162C161.071 140.884 160.392 140.453 159.763 139.878L159.769 139.875Z" fill="#ff583e"/>
<path d="M147.986 139.467L150.607 137.4L160.269 149.647L157.648 151.715L147.986 139.467Z" fill="#ff583e"/>
<path d="M145.336 141.523L150.789 151.105L136.543 146.126L135.494 146.723L143.383 160.585L145.076 159.616L140.026 150.748L153.031 155.094L154.776 154.095L147.065 140.542L145.336 141.523Z" fill="#ff583e"/>
<path d="M133.401 150.017C134.042 150.339 134.63 150.735 135.155 151.203L135.156 151.176C135.681 151.644 136.141 152.184 136.521 152.78C136.91 153.379 137.205 154.041 137.41 154.746C137.612 155.445 137.72 156.162 137.728 156.875C137.733 157.582 137.647 158.298 137.474 158.985C137.301 159.672 137.039 160.34 136.682 160.967C136.329 161.6 135.889 162.187 135.37 162.714C134.857 163.238 134.253 163.709 133.577 164.117C132.904 164.514 132.149 164.845 131.337 165.078L131.204 165.12C130.461 165.321 129.736 165.415 129.041 165.396C128.313 165.378 127.609 165.267 126.955 165.076C126.301 164.884 125.686 164.608 125.126 164.274C124.576 163.944 124.06 163.567 123.614 163.158L123.305 162.881L124.711 161.219L125.041 161.563C125.922 162.483 126.779 163.101 127.595 163.392C128.374 163.678 129.161 163.706 130 163.475C130.866 163.23 131.568 162.868 132.155 162.397C132.736 161.931 133.201 161.356 133.532 160.7C133.859 160.038 134.062 159.281 134.115 158.462C134.177 157.629 134.066 156.738 133.795 155.799C133.525 154.86 133.126 154.048 132.614 153.389C132.102 152.729 131.509 152.204 130.848 151.833C130.187 151.461 129.466 151.229 128.693 151.149C127.947 151.072 127.19 151.141 126.423 151.347L126.32 151.38C125.749 151.544 125.253 151.777 124.845 152.057C124.502 152.298 124.193 152.582 123.94 152.903L125.197 157.25L127.877 156.474L128.361 158.148L122.474 159.848L120.48 152.965L120.666 152.787C121.02 152.443 121.391 152.115 121.777 151.813C122.166 151.5 122.605 151.212 123.068 150.953C123.545 150.687 124.078 150.441 124.652 150.206C125.226 149.971 125.899 149.74 126.651 149.525L126.831 149.473C127.58 149.268 128.334 149.148 129.064 149.122C129.85 149.088 130.622 149.15 131.342 149.304C132.062 149.458 132.759 149.695 133.401 150.017Z" fill="#ff583e"/>
<path d="M114.929 151.955L114.926 151.955L114.925 151.949L114.929 151.955Z" fill="#ff583e"/>
<path d="M114.926 151.955L111.985 152.183L113.187 168.074L115.031 167.929L115.128 167.672C115.349 167.098 115.679 166.653 116.124 166.317C116.375 166.129 116.696 165.987 117.064 165.88C117.351 165.802 117.671 165.748 118.023 165.72L118.453 165.691L118.336 164.199L115.865 164.381L114.926 151.955Z" fill="#ff583e"/>
<path fill-rule="evenodd" clip-rule="evenodd" d="M103.834 151.571C104.719 151.647 105.519 151.939 106.211 152.424L106.2 152.421C106.882 152.904 107.448 153.55 107.895 154.325C108.339 155.094 108.652 156 108.829 157.019C109.005 158.022 109.043 159.121 108.937 160.286C108.838 161.36 108.61 162.376 108.254 163.309C107.896 164.251 107.432 165.071 106.861 165.751C106.287 166.442 105.606 166.976 104.852 167.34C104.595 167.471 104.332 167.562 104.061 167.64C103.523 167.784 102.948 167.836 102.357 167.783C101.468 167.7 100.675 167.404 99.9819 166.902C99.3096 166.405 98.7402 165.753 98.2991 164.974C97.8683 164.197 97.5566 163.308 97.3715 162.32C97.1902 161.338 97.1479 160.294 97.2467 159.22C97.3469 158.059 97.5849 156.984 97.9421 156.024C98.302 155.054 98.7754 154.22 99.3399 153.544C99.9175 152.86 100.593 152.33 101.347 151.982C101.582 151.872 101.834 151.779 102.085 151.713C102.641 151.568 103.226 151.519 103.834 151.571ZM103.547 165.869C103.903 165.575 104.218 165.149 104.491 164.605L104.487 164.599C104.766 164.035 105.007 163.344 105.191 162.554C105.384 161.751 105.519 160.893 105.601 159.987C105.682 159.081 105.708 158.199 105.664 157.366C105.629 156.545 105.52 155.81 105.342 155.169C105.173 154.557 104.939 154.061 104.638 153.691C104.381 153.367 104.067 153.188 103.681 153.157C103.518 153.147 103.365 153.156 103.221 153.195C103.024 153.248 102.833 153.358 102.653 153.515C102.297 153.825 101.977 154.272 101.702 154.843C101.412 155.449 101.169 156.15 100.982 156.95C100.786 157.764 100.648 158.632 100.567 159.538C100.481 160.437 100.462 161.315 100.508 162.138C100.553 162.945 100.661 163.662 100.841 164.277C101.012 164.862 101.251 165.337 101.544 165.693C101.811 166.003 102.121 166.175 102.5 166.21C102.674 166.224 102.844 166.213 102.994 166.17C103.188 166.111 103.369 166.015 103.547 165.869Z" fill="#ff583e"/>
<path fill-rule="evenodd" clip-rule="evenodd" d="M97.4448 155.952C97.4374 154.922 97.2816 153.97 96.9768 153.138C96.6709 152.29 96.2093 151.566 95.6166 150.98C95.0136 150.39 94.271 149.969 93.4145 149.745C92.5581 149.521 91.7148 149.517 90.8951 149.737C90.0754 149.956 89.3384 150.364 88.6597 150.948C87.9837 151.523 87.3828 152.273 86.8719 153.163C86.3611 154.054 85.9497 155.071 85.6535 156.197C85.3796 157.24 85.2477 158.271 85.2635 159.27C85.283 160.275 85.4443 161.207 85.7388 162.036C86.0447 162.884 86.4931 163.615 87.0765 164.216C87.674 164.826 88.4099 165.251 89.2702 165.481C90.106 165.7 90.9389 165.701 91.7351 165.486L91.8018 165.465C92.6073 165.237 93.364 164.818 94.0494 164.229C94.7216 163.648 95.3169 162.919 95.826 162.056C96.3284 161.196 96.726 160.231 96.9999 159.188C97.2961 158.062 97.4446 156.968 97.4344 155.949L97.4448 155.952ZM90.3852 163.953C90.1578 164.014 89.9234 164.018 89.6813 163.947C89.3119 163.854 89.0333 163.629 88.8284 163.275C88.597 162.874 88.4441 162.366 88.3737 161.759C88.2984 161.127 88.3055 160.396 88.4036 159.595C88.4941 158.78 88.6634 157.92 88.8929 157.043C89.129 156.162 89.4085 155.326 89.7298 154.562C90.0483 153.809 90.4096 153.145 90.7921 152.608C91.1587 152.09 91.5504 151.706 91.9568 151.454C92.0948 151.374 92.2338 151.312 92.3607 151.274C92.5816 151.216 92.799 151.213 93.027 151.274C93.4002 151.374 93.6788 151.599 93.8809 151.964C94.1161 152.372 94.2606 152.91 94.3255 153.539C94.3924 154.201 94.376 154.946 94.2752 155.758C94.1753 156.587 94.006 157.447 93.7803 158.33C93.5442 159.211 93.2712 160.044 92.9527 160.797C92.6435 161.536 92.2944 162.176 91.9174 162.691C91.5591 163.179 91.1768 163.548 90.776 163.78C90.6511 163.852 90.5253 163.907 90.3984 163.945L90.3852 163.953Z" fill="#ff583e"/>
<path d="M67.5425 156.438L84.8738 147.001L86.666 147.92L69.3348 157.357L67.5425 156.438Z" fill="#ff583e"/>
<path fill-rule="evenodd" clip-rule="evenodd" d="M80.7089 153.673C81.2273 153.645 81.7511 153.763 82.2737 154.031C82.7859 154.296 83.1912 154.649 83.4755 155.08C83.7494 155.509 83.9237 155.978 84.005 156.483C84.0787 156.975 84.0622 157.493 83.9648 158.022C83.8702 158.541 83.6964 159.044 83.4595 159.514C83.2159 159.988 82.9064 160.438 82.5393 160.834C82.1693 161.24 81.7473 161.572 81.2994 161.813C81.0459 161.95 80.7801 162.051 80.5093 162.129C80.2922 162.193 80.0599 162.23 79.8332 162.247C79.3016 162.283 78.7713 162.168 78.2525 161.907C77.7299 161.639 77.3236 161.269 77.0449 160.817C76.7775 160.384 76.6126 159.901 76.5406 159.382C76.4697 158.88 76.4955 158.348 76.6126 157.807C76.7204 157.281 76.9007 156.774 77.1443 156.3C77.3878 155.827 77.688 155.39 78.0458 155.009C78.4129 154.613 78.819 154.299 79.2641 154.069C79.4951 153.953 79.7309 153.86 79.9715 153.792C80.2122 153.723 80.4614 153.684 80.7089 153.673ZM81.8463 156.538C81.9046 156.32 81.9301 156.122 81.9255 155.932L81.9151 155.929C81.9153 155.762 81.8864 155.621 81.8313 155.495C81.7989 155.409 81.7271 155.345 81.6252 155.29C81.5271 155.242 81.4414 155.23 81.3474 155.249L81.2938 155.262C81.1773 155.303 81.058 155.355 80.9473 155.436C80.7972 155.54 80.6491 155.678 80.4993 155.844C80.3466 156.02 80.2082 156.205 80.0735 156.396C79.9426 156.594 79.8183 156.789 79.7137 156.972C79.6026 157.159 79.5139 157.324 79.4439 157.461C79.4252 157.5 79.4047 157.542 79.3827 157.588C79.3298 157.697 79.2682 157.825 79.2024 157.968C79.1845 158.013 79.1661 158.058 79.1474 158.104C79.08 158.269 79.0091 158.444 78.9428 158.626C78.8582 158.859 78.7877 159.101 78.7276 159.346C78.6703 159.581 78.6459 159.796 78.6373 159.994C78.6371 160.161 78.6632 160.312 78.7118 160.442C78.7442 160.528 78.7953 160.586 78.883 160.632C78.9811 160.68 79.0668 160.692 79.1608 160.673C79.3178 160.626 79.4502 160.567 79.5806 160.474C79.7401 160.356 79.8947 160.214 80.0474 160.039C80.2159 159.845 80.3675 159.652 80.505 159.45C80.6424 159.248 80.7695 159.043 80.8834 158.846C80.9974 158.649 81.0888 158.474 81.1588 158.337C81.2225 158.212 81.2932 158.062 81.3736 157.891L81.3975 157.84C81.4814 157.651 81.5708 157.442 81.646 157.223C81.7213 157.004 81.789 156.773 81.8463 156.538Z" fill="#ff583e"/>
<path d="M115.437 72.179C114.921 71.5573 114.267 71.3654 113.558 71.6255L113.554 71.6189C113.094 71.7356 112.712 71.9494 112.339 72.159C112.141 72.2695 111.946 72.3789 111.743 72.4721C110.982 72.8237 110.854 73.1782 111.328 73.9384C112.311 75.5109 113.245 77.1158 114.179 78.7193C114.553 79.3609 114.926 80.0023 115.303 80.6413C116.028 81.8873 117.005 82.1232 118.235 81.3492C119.312 80.6658 119.683 79.9432 119.258 78.796C118.365 76.3851 117.093 74.1668 115.437 72.179Z" fill="#ff583e"/>
<path d="M58.0854 134.291C58.5569 135.973 58.2667 136.745 57.1531 137.335C56.1617 137.864 55.2657 137.663 54.3784 136.642C53.2315 135.335 52.3789 133.832 51.5272 132.331C51.2761 131.888 51.0251 131.445 50.7667 131.008C48.9186 127.883 47.0872 124.748 45.2559 121.613L45.2551 121.612C44.5223 120.358 43.7896 119.103 43.0557 117.85C42.5284 116.936 42.0875 115.991 41.9229 114.947C41.7582 113.903 42.1566 113.121 43.1097 112.632C44.0628 112.143 44.8869 112.28 45.6573 113.053C46.75 114.15 47.494 115.479 48.2378 116.808C48.373 117.049 48.5084 117.291 48.6456 117.531C49.6339 119.253 50.6463 120.962 51.6588 122.671C53.7149 126.142 55.7715 129.614 57.6288 133.197C57.8017 133.53 57.934 133.888 58.0179 134.114L58.0184 134.115C58.0462 134.19 58.0686 134.251 58.0854 134.291Z" fill="#ff583e"/>
<path d="M108.821 107.216C109.919 106.599 110.219 105.769 109.763 104.219L109.759 104.212C109.72 104.12 109.678 104.008 109.631 103.884C109.506 103.555 109.348 103.136 109.128 102.754C106.247 97.75 103.36 92.7495 100.473 87.7489C100.297 87.4445 100.125 87.1371 99.9536 86.8295L99.9451 86.8147C99.207 85.4941 98.4669 84.1698 97.4102 83.0512C96.5497 82.1375 95.7302 81.9623 94.8016 82.4633C93.8073 83.0023 93.4186 83.8313 93.6525 85.0105C93.872 86.1191 94.3875 87.1181 94.949 88.0907C97.6264 92.7129 100.304 97.3351 103.007 101.942C103.168 102.215 103.326 102.489 103.484 102.763C104.262 104.116 105.042 105.472 106.12 106.62C107.01 107.569 107.884 107.748 108.821 107.216Z" fill="#ff583e"/>
<path d="M155.345 51.1618C156.847 53.1213 158.268 54.9712 159.676 56.8041L160.648 58.0706L160.691 58.1269L160.692 58.1275C160.936 58.4506 161.184 58.7786 161.441 59.0938C161.933 59.7034 161.891 60.2532 161.315 60.7432C162.417 60.2998 162.944 60.9684 163.482 61.718C164.323 62.8879 165.214 64.0208 166.111 65.1499C166.468 65.601 166.434 65.875 165.913 66.1578C164.965 66.6702 164.033 67.2259 163.115 67.7909C162.682 68.0582 162.402 68.0275 162.192 67.5268C160.135 62.72 158.07 57.911 156.007 53.1065L155.33 51.5299C155.322 51.5153 155.323 51.495 155.329 51.4296C155.333 51.3767 155.34 51.2944 155.345 51.1618Z" fill="#ff583e"/>
<path fill-rule="evenodd" clip-rule="evenodd" d="M18.8155 162.772L18.8269 162.778C19.3792 163.773 19.9713 164.481 20.6461 165.124C24.6772 168.964 31.0454 169.721 36.049 166.885C40.51 164.353 44.9368 161.762 49.3599 159.165C49.879 158.865 50.2101 158.831 50.6835 159.242C55.4082 163.313 60.5715 166.762 66.0462 169.735C72.8736 173.441 79.9951 176.383 87.5967 178.092C88.3409 178.258 89.0922 178.315 89.8491 178.351C90.1726 178.367 90.5533 178.533 90.9584 178.71C91.3217 178.869 91.7048 179.036 92.0839 179.111C98.8188 180.427 105.611 180.991 112.457 180.648C113.023 180.621 113.594 180.612 114.165 180.602C116.23 180.569 118.307 180.535 120.269 179.642C120.435 179.564 120.755 179.572 120.88 179.684C121.175 179.953 121.479 179.883 121.778 179.816C121.855 179.798 121.931 179.781 122.007 179.769C128.62 178.825 135.025 177.125 141.262 174.741C149.191 171.706 156.559 167.653 163.322 162.539C170.421 157.171 176.662 150.939 181.852 143.676C189.435 133.06 194.669 121.443 197.262 108.635C199.614 97.0171 199.651 85.3958 197.487 73.7571C197.359 73.0951 197.548 72.7846 198.08 72.4773C201.807 70.3432 205.529 68.1855 209.244 66.0317C210.9 65.0757 212.529 64.0567 213.881 62.6804C213.924 62.6361 213.969 62.5924 214.014 62.5486C214.317 62.257 214.627 61.958 214.351 61.4012C214.205 61.1176 214.335 60.6304 214.758 60.7104C215.531 60.8601 215.763 60.3875 215.995 59.9125C216.033 59.8356 216.071 59.7586 216.111 59.6842C216.818 58.3738 217.432 57.1166 216.913 55.4889C216.694 54.7915 216.564 54.5512 215.885 54.6191C215.656 54.6465 215.329 54.6423 215.279 54.3122C215.232 53.9887 215.468 53.7909 215.706 53.6101C216.05 53.3522 216.28 53.5299 216.514 53.7096C216.591 53.7694 216.669 53.8294 216.751 53.8737C216.82 53.9119 216.887 53.9627 216.953 54.0138C217.149 54.1637 217.348 54.3155 217.615 54.155C217.875 53.9976 217.852 53.7333 217.829 53.4788C217.823 53.4097 217.817 53.3413 217.817 53.276C217.801 52.5443 217.694 51.8257 217.588 51.1047L217.587 51.1033C217.551 50.8613 217.516 50.6191 217.483 50.376C217.242 48.5174 215.848 48.3325 214.399 48.722C213.677 48.9172 212.965 49.145 212.254 49.3728C211.898 49.4867 211.542 49.6006 211.185 49.7104C210.32 49.9731 209.458 50.2254 208.586 50.4749C208.375 50.5351 208.138 50.5494 208.048 50.2862C207.977 50.0729 208.129 49.9414 208.317 49.9029C209.178 49.7239 210.009 49.4255 210.84 49.127C212.183 48.6447 213.526 48.1621 214.999 48.1829C216.067 48.197 216.371 47.6451 215.836 46.7185C215.656 46.4069 215.463 46.1028 215.27 45.7987L215.268 45.796C215.075 45.4919 214.882 45.1878 214.702 44.8761C210.021 36.8287 205.336 28.7746 200.661 20.7233C200.57 20.5676 200.48 20.4115 200.39 20.2554C199.47 18.6635 198.55 17.0713 197.105 15.8547C192.727 12.1708 186.806 11.7342 181.515 14.7712C178.609 16.4373 175.721 18.1299 172.833 19.8232L172.828 19.8263C171.544 20.5786 170.261 21.331 168.975 22.0813C168.931 22.1081 168.886 22.1355 168.842 22.1628C168.446 22.4089 168.076 22.6386 167.543 22.1809C162.47 17.8554 156.936 14.2341 151.04 11.0935C147.209 9.05603 143.26 7.37581 139.237 5.80886C138.547 5.54089 137.944 5.34593 137.334 6.17119C137.873 5.29919 137.357 5.13303 136.793 4.97649C136.18 4.80568 135.568 4.62752 134.957 4.4494C134.006 4.17258 133.055 3.8957 132.101 3.64686C131.423 3.46993 130.738 3.31515 130.052 3.16024L130.047 3.1592C129.15 2.95628 128.25 2.75302 127.364 2.5C126.457 2.23997 125.531 2.12147 124.605 2.0029C124 1.9254 123.395 1.84784 122.794 1.73075C117.501 0.712478 112.124 0.610308 106.745 0.657785C103.032 0.690316 99.3597 1.12829 95.7029 1.65373C87.6444 2.8105 79.8874 5.08117 72.475 8.44955C69.1688 9.94655 65.9538 11.6013 62.8586 13.5547C62.235 13.9495 61.5968 14.3367 60.9571 14.7249C59.8197 15.4151 58.6776 16.1081 57.6039 16.8514C47.7871 23.6581 39.5745 32.0443 33.2164 42.2162C27.6487 51.1168 23.5406 60.6029 21.2608 70.8732C18.564 83.0315 18.3265 95.2155 20.6208 107.445C20.7692 108.218 20.5752 108.61 19.8974 108.984C18.9127 109.527 17.9432 110.096 16.9744 110.665L16.9715 110.667C15.9473 111.268 14.9235 111.87 13.8838 112.438C13.0385 112.9 12.2242 113.414 11.4101 113.927C10.3002 114.626 9.19057 115.325 8.00305 115.895C6.75401 116.493 5.6433 117.301 4.63578 118.242C3.87855 118.951 3.26892 119.785 2.65681 120.623C2.45979 120.893 2.26251 121.163 2.05997 121.429C1.68957 121.916 1.62752 122.497 1.56629 123.071C1.49002 123.786 1.41503 124.489 0.74691 124.982C0.704708 125.015 0.671381 125.139 0.697939 125.185C0.884381 125.558 0.917638 125.965 0.951053 126.374C0.988952 126.839 1.02705 127.305 1.28899 127.727C1.66153 128.326 1.41705 129.011 0.812518 129.36C0.502635 129.539 0.537506 129.798 0.573965 130.069C0.580799 130.12 0.587689 130.171 0.592373 130.223C0.621551 130.573 0.808965 130.838 0.998589 131.107C1.12563 131.287 1.25365 131.468 1.33575 131.677C1.44798 131.96 1.50503 132.278 1.56246 132.598C1.71206 133.432 1.86433 134.281 3.00123 134.562C3.19437 134.608 3.35425 135.006 3.44483 135.27C3.57811 135.653 3.68015 136.046 3.7905 136.471C3.83326 136.636 3.87734 136.806 3.9249 136.981C4.45681 136.642 4.53736 136.138 4.61577 135.648C4.64305 135.478 4.67007 135.309 4.71576 135.149C4.81019 134.797 4.9767 134.569 5.37381 134.559C5.66551 134.548 5.86346 134.618 5.89693 134.949C6.01714 136.159 6.0087 137.434 5.12121 138.279C4.43614 138.929 4.92356 139.121 5.2891 139.207C5.67188 139.299 5.82557 139.534 5.98111 139.773C6.05258 139.883 6.12444 139.993 6.21911 140.09C6.55416 140.438 6.54874 140.83 6.54346 141.213C6.53943 141.505 6.53548 141.791 6.68333 142.047C6.95041 142.51 7.21959 142.971 7.48878 143.433C7.89256 144.125 8.29634 144.817 8.69302 145.513C9.05824 146.161 9.32001 146.614 10.1203 145.845C10.6842 145.305 11.1083 145.851 11.4651 146.311C11.5009 146.357 11.536 146.402 11.5704 146.445C11.9566 146.932 11.7496 147.165 11.2368 147.4C10.5089 147.733 10.3195 148.315 10.7369 149.038C10.9962 149.487 11.2574 149.934 11.5184 150.381C12.04 151.275 12.561 152.167 13.0662 153.072C13.3859 153.641 13.7577 154.058 14.5754 154.032C13.7591 154.297 13.9893 154.678 14.2203 155.06C14.2441 155.099 14.2679 155.139 14.2906 155.178C15.366 157.01 16.4452 158.849 17.514 160.685C17.5667 160.774 17.6162 160.866 17.6653 160.957C17.9759 161.534 18.2682 162.076 19.2181 161.664C19.5525 161.515 20.1521 161.536 20.4358 162.074C20.5848 162.347 20.6228 162.64 20.2907 162.657C20.1446 162.667 20.0042 162.717 19.8592 162.769C19.5634 162.876 19.2484 162.99 18.8269 162.778L18.8107 162.749L18.8155 162.772ZM126.951 46.6419C127.036 46.5967 127.121 46.5522 127.207 46.5077C127.505 46.3521 127.804 46.1963 128.086 46.0128C128.253 45.9051 128.458 45.7856 128.668 45.6631C129.247 45.3258 129.864 44.966 129.82 44.7666C129.681 44.1735 129.086 44.0278 128.5 43.8842C128.278 43.8298 128.057 43.7757 127.862 43.6977C117.456 39.5428 106.799 38.8092 95.9974 41.7861C93.763 42.3985 91.638 42.1399 89.5058 41.8805C88.5773 41.7675 87.6475 41.6543 86.7067 41.6128C89.5919 40.0697 92.6272 39.0445 95.7548 38.2551L95.7791 38.2489C97.7038 37.7607 97.7334 37.7532 98.5765 39.561C98.8454 40.133 99.1384 40.2004 99.6729 39.9881C100.755 39.556 101.494 38.8318 101.786 37.6993C101.897 37.2847 102.021 37.0291 102.537 36.9675C108.287 36.2587 114.005 36.5409 119.682 37.6177C124.328 38.5015 128.713 40.1487 132.953 42.1956C132.979 42.2085 133.005 42.2214 133.031 42.2343L133.035 42.236C133.455 42.4441 133.85 42.6396 134.364 42.3182C134.996 41.929 135.646 41.5702 136.295 41.2115C136.815 40.9244 137.334 40.6374 137.845 40.3348C139.39 39.4233 140.931 38.505 142.471 37.5869L142.472 37.5864L142.474 37.5855L142.7 37.4505L132.828 32.7084L139.585 18.6441L149.6 23.4548L148.811 25.0931L141.807 21.7334L139.9 25.6993L144.584 27.9541L143.801 29.5886L139.111 27.3376L136.624 32.5145L143.632 35.8808L142.947 37.3036C146.147 35.3964 149.348 33.4929 152.591 31.655C152.97 31.4405 153.331 31.172 153.694 30.902C154.644 30.1954 155.608 29.4781 156.966 29.6893C157.015 29.6966 157.124 29.537 157.149 29.4438C157.336 28.8346 157.825 28.5647 158.319 28.2912L158.32 28.2908C158.396 28.2488 158.472 28.2067 158.547 28.1632C159.152 27.8142 159.752 27.4579 160.353 27.1015C161.553 26.3889 162.754 25.6762 163.988 25.022C164.917 24.5209 164.724 24.247 164.045 23.7098C160.197 20.64 156.154 17.8572 151.872 15.4321C150.271 14.5254 148.651 13.647 147.004 12.8281C146.748 12.7033 146.546 12.4601 146.342 12.2162C145.923 11.7144 145.502 11.2096 144.616 11.7272C144.592 11.7409 144.536 11.7055 144.483 11.672C144.462 11.659 144.441 11.6462 144.424 11.6368C140.49 9.87744 136.502 8.28115 132.312 7.23069C129.262 6.46877 126.215 5.71344 123.108 5.20306C117.927 4.34806 112.708 3.94401 107.464 4.07184C107.409 4.07303 107.352 4.07805 107.295 4.08309C107.071 4.1028 106.841 4.12307 106.71 3.91991C106.444 3.50417 106.069 3.32608 105.902 3.65904C105.652 4.15136 105.29 4.15627 104.92 4.16127C104.824 4.16258 104.727 4.16389 104.631 4.17386C104.042 4.22249 103.453 4.26855 102.864 4.31459L102.863 4.31467C99.6825 4.56337 96.5076 4.81161 93.3717 5.46158C88.802 6.40894 84.3154 7.60627 79.9016 9.11197C76.4285 10.2983 73.12 11.87 69.8178 13.4386C69.0565 13.8002 68.2954 14.1618 67.5328 14.5183C66.5495 14.977 65.5918 15.6178 64.6351 16.2579C64.2084 16.5434 63.7819 16.8288 63.3534 17.0978C53.3378 23.4235 44.7992 31.3058 38.0855 41.1047C38.0573 41.146 38.0294 41.1877 38.0016 41.2292C37.6505 41.753 37.3106 42.2603 36.4673 42.0652C36.7128 42.4423 36.8285 42.6201 36.8242 42.7948C36.8203 42.9505 36.7211 43.1038 36.5334 43.3938C34.3715 46.736 32.4313 50.2042 30.7542 53.8097C30.7165 53.8903 30.68 53.9713 30.6437 54.052C30.3286 54.752 30.0259 55.4245 29.067 55.546C28.6588 55.5977 28.2107 56.0053 28.2437 56.4419C28.2635 56.7013 28.4909 56.717 28.7316 56.7335C28.8802 56.7438 29.0339 56.7543 29.147 56.8228C29.1893 56.8507 29.2279 56.8807 29.2907 56.9296C29.312 56.9462 29.3362 56.9649 29.3642 56.9865C26.8963 62.4241 25.3266 68.1578 24.0947 74.0821C23.572 73.3588 23.1126 73.1246 22.5201 73.2214C22.1364 73.2852 21.7906 73.4148 21.8153 73.8824C21.838 74.3161 21.9882 74.6675 22.5395 74.6208C22.6191 74.6145 22.701 74.6247 22.7831 74.6349C22.8825 74.6473 22.9821 74.6598 23.0779 74.6428C23.8388 74.519 23.9756 74.8167 23.8424 75.542C23.1911 79.1334 22.7696 82.7587 22.5976 86.4063C22.2875 92.8497 22.6718 99.2515 23.7711 105.617C23.9053 106.381 24.1478 106.512 24.8029 106.099C25.6946 105.538 26.6092 105.009 27.5219 104.48C27.8263 104.304 28.1305 104.127 28.4336 103.95C30.5804 102.702 32.7267 101.453 34.873 100.204L34.8773 100.202C37.4303 98.7159 39.9832 97.2302 42.5369 95.746L29.9233 95.301L30.118 89.7654C30.1478 88.8458 30.2825 88.032 30.5024 87.3355C30.7317 86.6249 31.0425 86.025 31.4356 85.5526C31.8316 85.07 32.3024 84.7018 32.8425 84.4688C33.0116 84.3975 33.1883 84.3393 33.3687 84.2876C33.7532 84.1796 34.1586 84.1382 34.5775 84.1505C35.0886 84.1708 35.5747 84.2844 36.0227 84.4989C36.4603 84.7106 36.855 84.9996 37.203 85.3595C37.5405 85.7165 37.8314 86.1444 38.0717 86.6365C38.2189 86.937 38.3436 87.2592 38.4458 87.6032L43.5 84.0807L31.7441 74.7207L32.0157 73.5826L47.4486 70.4637L34.8696 65.0047L39.0626 55.3469L40.7241 56.0699L37.8567 62.6668L41.902 64.4228L43.9748 59.6515L45.6362 60.3744L43.5635 65.1457L50.4951 68.1528L49.163 71.2174L48.9536 71.128L48.3985 73.4899L43.1047 74.5487L41.7763 80.1694L45.1935 82.9014L45.2143 82.907L45.9873 82.3642L45.9462 83.4919L46.0388 83.5611L45.9269 84.02L45.8468 86.3092L38.746 91.1885L38.7057 92.272L45.6278 92.516L45.5769 93.98C48.4495 92.3124 51.3235 90.6472 54.2001 88.9864C54.8309 88.6222 55.0098 88.2035 55.051 87.5314C55.3041 83.7055 55.8868 79.9346 56.9602 76.2397C61.2052 61.5579 69.9847 50.4963 83.3401 43.0659C83.5037 42.9756 83.6665 42.874 83.8304 42.7717C84.3588 42.4418 84.8977 42.1055 85.5034 42.1236C87.2041 42.1802 88.9015 42.3059 90.5983 42.4317C91.192 42.4757 91.7856 42.5197 92.3793 42.5607C83.0593 46.1456 75.215 51.6645 69.1081 59.5097C63.0078 67.351 59.5691 76.2666 58.6166 86.3927C59.1855 86.0643 59.7309 85.7414 60.2624 85.4268L60.2637 85.426C61.4016 84.7524 62.4757 84.1165 63.5787 83.5454L78.1677 75.0417C73.5168 66.0881 76.6985 54.9785 85.5238 49.8832C94.3033 44.8144 105.445 47.5584 110.905 55.9599L126.943 46.6118L126.951 46.6419ZM83.5552 71.9014L86.1331 70.3988C86.0729 69.6668 85.5214 69.0363 84.7653 68.904C83.862 68.7509 83.0111 69.356 82.8542 70.2527C82.742 70.9145 83.0369 71.5482 83.5552 71.9014ZM131.983 174.255C134.79 173.44 137.77 172.456 140.695 171.301C154.71 165.742 166.576 157.218 176.108 145.503C182.902 137.147 188.011 127.863 191.346 117.614C195.792 103.964 196.776 90.0522 194.431 75.8986C194.277 74.9798 194.091 74.8244 193.24 75.3242C187.852 78.4836 182.456 81.631 177.059 84.7725L189.45 85.2396L189.207 91.6009C189.177 92.4151 189.056 93.177 188.846 93.8593C188.633 94.552 188.339 95.1509 187.978 95.6485C187.607 96.1603 187.162 96.5575 186.651 96.8261C186.431 96.9448 186.201 97.0333 185.967 97.0983C185.643 97.1892 185.299 97.2303 184.948 97.2139C184.508 97.1961 184.107 97.1386 183.757 97.0338C183.387 96.9235 183.043 96.7368 182.738 96.4831C182.442 96.2425 182.167 95.9191 181.916 95.5296L181.666 95.0959C181.601 95.2562 181.532 95.4099 181.452 95.5609C181.208 96.0175 180.912 96.4159 180.554 96.7366C180.196 97.0572 179.779 97.3066 179.307 97.4743C179.227 97.5029 179.137 97.5287 179.047 97.5544C178.652 97.6597 178.233 97.7088 177.793 97.691C177.177 97.6702 176.593 97.5081 176.059 97.2206C175.535 96.9359 175.072 96.5285 174.691 96.0211C174.315 95.5202 174.027 94.9154 173.833 94.2302C173.639 93.5449 173.555 92.7783 173.587 91.9537L173.789 86.6745C170.508 88.5826 167.226 90.4889 163.946 92.3948L163.92 92.4095L163.915 92.4128L163.864 92.4424C163.345 92.7421 163.089 93.0736 163.059 93.7043C162.624 101.797 160.34 109.345 156.538 116.508C153.585 122.076 149.724 126.907 145.081 131.051C136.638 138.598 126.697 143.05 115.43 144.43C109.642 145.134 103.878 144.878 98.1875 143.687C93.6913 142.743 89.3526 141.253 85.2483 139.137C84.7154 138.866 84.2714 138.719 83.651 139.086C81.3856 140.442 79.1116 141.777 76.8345 143.107C76.9629 143.239 77.0769 143.382 77.1768 143.534C77.4535 143.952 77.6278 144.421 77.7025 144.93C77.7697 145.425 77.7532 145.943 77.652 146.466C77.547 146.982 77.3732 147.485 77.1297 147.959C76.89 148.439 76.5767 148.883 76.2095 149.279C75.8358 149.679 75.4241 150.013 74.9763 150.254C74.7162 150.395 74.441 150.51 74.1665 150.581C73.9559 150.641 73.734 150.682 73.5138 150.695C72.986 150.737 72.4557 150.622 71.9369 150.361C71.4105 150.087 71.008 149.724 70.7293 149.271C70.4619 148.838 70.297 148.355 70.2316 147.832C70.1978 147.554 70.1909 147.266 70.2105 146.972L68.9231 147.721C67.7997 148.374 66.6763 149.027 65.5531 149.684C64.587 150.251 63.621 150.818 62.6551 151.385C59.7602 153.084 56.8654 154.783 53.9641 156.471C53.4122 156.79 53.2778 157.043 53.881 157.466C54.3731 157.806 54.8383 158.176 55.3035 158.547C55.4586 158.67 55.6137 158.794 55.7698 158.916C64.0645 165.377 73.2235 170.208 83.253 173.345C99.3245 178.374 115.504 178.582 131.983 174.255ZM74.562 144.433L73.6959 144.939C73.5888 145.103 73.487 145.264 73.3943 145.419C73.2832 145.606 73.1945 145.771 73.1245 145.908C73.1059 145.947 73.0853 145.99 73.0633 146.035L73.0629 146.036C73.0101 146.146 72.9486 146.273 72.883 146.416L72.8615 146.469L72.8281 146.551C72.7606 146.717 72.6897 146.891 72.6234 147.074C72.5388 147.306 72.4749 147.545 72.4148 147.79C72.3641 148.021 72.3331 148.24 72.3245 148.438C72.3178 148.608 72.3438 148.759 72.3924 148.889C72.4248 148.976 72.4759 149.034 72.5636 149.079C72.6617 149.128 72.754 149.136 72.848 149.117C72.9984 149.074 73.127 149.008 73.2574 148.915C73.4169 148.797 73.5781 148.651 73.7308 148.476C73.8993 148.282 74.0509 148.089 74.1949 147.884C74.3389 147.678 74.4698 147.48 74.5772 147.286C74.6911 147.089 74.7864 146.92 74.8563 146.783C74.9235 146.657 75.0018 146.489 75.0885 146.29C75.1789 146.098 75.2645 145.882 75.3464 145.659C75.4282 145.437 75.4931 145.215 75.5438 144.984C75.5956 144.771 75.6173 144.565 75.6192 144.371L75.622 144.361C75.6156 144.198 75.5933 144.053 75.5382 143.928C75.5359 143.922 75.5333 143.916 75.5302 143.91C75.5277 143.904 75.5249 143.899 75.5217 143.893C75.5191 143.888 75.5162 143.883 75.5131 143.879L74.5651 144.432L74.562 144.433ZM123.323 126.188L98.9571 140.255C95.4141 139.511 91.8458 138.406 88.2549 136.954C88.251 136.94 102.986 128.262 119.057 118.8L123.323 126.188ZM157.052 106.714L132.706 120.77L128.395 113.303C144.596 103.767 159.536 94.9764 159.536 94.9764C159.096 99.0755 158.284 102.977 157.052 106.714ZM26.5945 134.363C27.008 134.441 27.2397 134.655 27.4608 134.859C27.5026 134.898 27.5441 134.936 27.5864 134.973C29.003 136.201 30.4195 137.429 31.8361 138.658L31.893 138.708C35.4203 141.767 38.9489 144.828 42.4855 147.88C42.7005 148.065 42.9074 148.291 43.115 148.518C43.6134 149.062 44.1159 149.611 44.7444 149.607C45.3166 149.598 45.8789 149.221 46.445 148.842C46.7289 148.651 47.0137 148.461 47.3013 148.315C47.9445 147.987 48.0741 147.711 47.6578 147.005C44.6744 141.898 41.7126 136.775 38.7514 131.653L38.746 131.644C37.2643 129.081 35.7825 126.518 34.2984 123.957C33.4916 122.56 32.6726 121.172 31.8534 119.784C31.1513 118.594 30.4486 117.404 29.754 116.207C29.4239 115.636 29.1173 115.454 28.4961 115.865C27.6009 116.469 26.6623 117.029 25.6988 117.515C25.0228 117.861 25.0431 118.2 25.3873 118.781C26.2937 120.291 27.1743 121.815 28.0549 123.339C29.6109 126.033 31.1671 128.727 32.865 131.338C33.5399 132.371 34.1933 133.417 34.8615 134.486C35.2382 135.089 35.62 135.7 36.0127 136.32C35.541 136.311 35.3194 136.093 35.1185 135.896C35.0628 135.841 35.0087 135.788 34.9513 135.741C32.6264 133.763 30.3064 131.782 27.9864 129.8L27.9856 129.8L27.9796 129.795C25.6618 127.816 23.3441 125.836 21.0214 123.86C20.7745 123.651 20.5386 123.4 20.3026 123.15C19.7511 122.565 19.1989 121.979 18.5046 121.914C17.8531 121.854 17.264 122.276 16.6617 122.707C16.3067 122.961 15.947 123.218 15.5673 123.382C14.782 123.721 14.8244 124.144 15.2245 124.806C16.0441 126.149 16.8379 127.511 17.6309 128.871C17.9284 129.381 18.226 129.892 18.5246 130.401C19.3352 131.787 20.1459 133.173 20.9567 134.559C25.0111 141.491 29.0656 148.423 33.0972 155.368C33.4917 156.051 33.8022 156.24 34.505 155.773C35.4002 155.169 36.3464 154.622 37.3098 154.136C37.953 153.809 38.025 153.478 37.66 152.891C36.4944 150.984 35.3767 149.048 34.2593 147.113C32.6339 144.299 31.0091 141.485 29.238 138.759C28.6201 137.811 28.0437 136.839 27.4543 135.846C27.1652 135.358 26.8728 134.865 26.571 134.368L26.5945 134.363ZM123.587 80.8171C124.814 79.1628 124.638 77.5994 124.039 76.0003C123.068 73.4071 121.646 71.0653 119.922 68.9149C117.406 65.7856 115.151 65.3702 111.691 67.3592C110.721 67.9192 109.759 68.4942 108.798 69.0693C107.467 69.8655 106.136 70.6617 104.782 71.418C103.983 71.8705 103.802 72.1941 104.312 73.0473C106.288 76.3758 108.23 79.7241 110.173 83.0745L110.174 83.0762C111.057 84.5986 111.94 86.1214 112.827 87.6431C113.664 89.0807 114.503 90.5176 115.341 91.9544C117.578 95.7862 119.814 99.618 122.023 103.466C122.479 104.254 122.85 104.382 123.601 103.878C124.562 103.235 125.564 102.648 126.59 102.135C127.34 101.763 127.361 101.436 126.948 100.736C125.356 98.0458 123.786 95.3385 122.216 92.632L122.209 92.6195C121.336 91.1133 120.462 89.6069 119.585 88.1042L119.574 88.0849C119.005 87.1063 118.718 86.613 118.838 86.2588C118.961 85.8988 119.506 85.6826 120.603 85.2466L120.607 85.2452C122.068 84.6647 122.753 84.8206 123.716 86.0784C124.134 86.6257 124.489 87.2217 124.845 87.8192C124.916 87.9384 124.987 88.0578 125.059 88.1768C125.392 88.7357 125.725 89.2946 126.058 89.8534L126.061 89.8577C127.724 92.6474 129.386 95.4369 131.024 98.2345C131.448 98.9704 131.858 99.2246 132.618 98.6283C133.003 98.3278 133.443 98.0943 133.883 97.8609L133.886 97.8596C134.087 97.7532 134.288 97.6467 134.483 97.5339C135.816 96.7581 136.08 95.7067 135.273 94.3795C134.673 93.3982 134.089 92.4083 133.506 91.4186L133.497 91.4038C132.029 88.9163 130.563 86.43 128.866 84.0866L128.745 83.9198C127.532 82.2409 126.294 80.5267 123.584 80.8275L123.587 80.8171ZM36.8342 117.499C37.1845 118.804 37.7564 120.007 38.4279 121.17C41.1371 125.847 43.8555 130.51 46.5777 135.18L46.5964 135.212L46.7721 135.517C47.5776 136.916 48.388 138.323 49.4926 139.515C51.0879 141.231 52.8245 142.752 55.3612 142.821C61.0538 142.968 64.9212 137.967 63.2982 132.561C63.1147 131.94 62.8711 131.335 62.6143 130.739C61.6152 128.43 60.3197 126.287 59.0254 124.146L59.0249 124.145C58.6219 123.478 58.219 122.812 57.8252 122.14C57.191 121.06 56.5734 119.968 55.9557 118.876C54.4935 116.291 53.0304 113.704 51.3422 111.261C50.1213 109.495 48.6807 107.865 46.5068 107.271C43.2343 106.383 40.6198 107.849 38.3715 109.979C36.1551 112.074 36.0568 114.741 36.8353 117.516L36.8342 117.499ZM115.056 102.582C114.771 101.573 114.389 100.593 113.898 99.6669C112.066 96.2164 110.066 92.8627 108.067 89.509C107 87.7204 105.933 85.9317 104.892 84.1284C104.042 82.6565 103.164 81.2102 102.049 79.9173C99.4183 76.8628 96.7164 76.2499 93.0509 77.7617C92.1829 78.1239 91.4934 78.6758 90.7926 79.2367L90.7743 79.2513C88.6783 80.917 87.8127 83.0902 88.2039 85.7556C88.5922 88.4311 89.9347 90.6959 91.2811 92.9673L91.2815 92.9679C92.5166 95.0551 93.7379 97.1519 94.9596 99.2493L94.9614 99.2526C96.5906 102.05 98.2205 104.848 99.8847 107.626C100.966 109.438 102.393 111.015 104.313 111.973C107.558 113.587 110.336 112.36 112.93 110.372C115.611 108.324 115.903 105.597 115.062 102.578L115.056 102.582ZM148.292 46.9722C148.28 47.3449 148.454 47.6302 148.626 47.9146L148.627 47.9168C148.715 48.0605 148.802 48.2042 148.865 48.3588C150.494 52.3668 152.136 56.3709 153.779 60.3761L153.781 60.3794C154.575 62.3155 155.369 64.2518 156.162 66.189C156.675 67.4407 157.189 68.6916 157.703 69.9422L157.71 69.9598L157.718 69.9795L157.719 69.9817C159.148 73.4617 160.577 76.9397 161.973 80.4269C162.285 81.1935 162.586 81.2298 163.221 80.8279C164.226 80.1863 165.258 79.5907 166.305 79.0213C166.864 78.7158 166.965 78.4039 166.688 77.8187C166.236 76.855 165.812 75.8789 165.387 74.9038L165.386 74.9017L165.385 74.9003C165.133 74.3211 164.882 73.7422 164.624 73.1665C164.412 72.6931 164.335 72.317 164.918 72.0067C166.186 71.3187 167.442 70.611 168.664 69.8442C169.293 69.4461 169.601 69.6621 169.978 70.163C170.542 70.9237 171.124 71.6744 171.705 72.4252C172.141 72.9882 172.578 73.5512 173.006 74.1183C173.342 74.5639 173.623 74.7 174.159 74.3551C175.132 73.7324 176.13 73.1557 177.171 72.6514C178.02 72.2401 177.915 71.8453 177.401 71.2132C174.278 67.3826 171.178 63.5302 168.08 59.6675C167.239 58.6209 166.403 57.5695 165.566 56.5178L165.561 56.512C164.017 54.5709 162.473 52.6291 160.897 50.7164C160.75 50.5399 160.718 50.3085 160.69 50.1009C160.657 49.8629 160.628 49.656 160.436 49.5985C159.894 49.4394 159.615 49.0794 159.326 48.7067C159.271 48.6364 159.216 48.5655 159.159 48.4955L159.156 48.491C157.706 46.6929 156.257 44.8949 154.833 43.0816C154.513 42.6793 154.278 42.5439 153.773 42.853C152.107 43.8674 150.414 44.8358 148.718 45.7977C148.205 46.0936 147.886 46.3915 148.288 46.9657L148.292 46.9722ZM144.668 55.1415C144.541 55.1007 144.463 55.0756 144.39 55.0862C144.127 55.1156 143.678 54.8842 143.593 54.6615C143.548 54.5384 143.448 54.3337 143.31 54.4745C142.829 54.9531 142.613 54.6029 142.434 54.3144C142.38 54.2256 142.328 54.1426 142.274 54.0914C140.549 52.4239 138.602 51.8744 136.314 52.7222C134.668 53.331 133.217 54.2475 131.955 55.4756C130.477 56.9071 129.962 58.6853 130.402 60.6305C131.487 65.4095 133.969 69.146 138.784 70.8694C140.067 71.3291 141.371 71.7289 142.676 72.1289L142.686 72.1321C143.758 72.461 144.831 72.79 145.893 73.152C149.194 74.2865 151.095 76.7899 152.216 79.9622C152.682 81.2701 152.242 82.1464 151.011 82.6996C149.995 83.155 149.201 82.798 148.503 82.0275C147.227 80.6214 146.304 78.9804 145.382 77.3396C145.207 77.028 145.032 76.7163 144.854 76.4064L144.839 76.3794C144.592 75.9511 144.388 75.5983 143.794 75.9669C142.91 76.5118 142.009 77.0289 141.108 77.5459C140.851 77.6937 140.593 77.8414 140.336 77.9897C140.021 78.1718 139.817 78.3506 140.059 78.7542C140.268 79.109 140.474 79.4655 140.679 79.8219C141.954 82.0283 143.227 84.2322 145.105 86.0218C147.178 87.988 149.512 88.7079 152.247 87.5579C153.524 87.0223 154.681 86.3104 155.717 85.3882C157.402 83.8899 158.024 82.0237 157.624 79.8279C157.145 77.178 155.948 74.8465 154.407 72.6784C154.262 72.4752 154.124 72.2602 153.985 72.0445C153.589 71.4296 153.19 70.8094 152.634 70.4426C150.634 69.1179 148.561 67.8792 146.217 67.1735C143.905 66.476 141.595 65.724 139.344 64.8597C137.208 64.0429 136.149 62.2538 135.676 60.0998C135.485 59.2376 135.814 58.5482 136.553 58.0518C137.438 57.4615 138.431 57.5719 139.2 58.3279C140.128 59.2393 140.752 60.3484 141.375 61.4577C141.635 61.92 141.895 62.3822 142.176 62.8302C142.477 63.3051 142.691 63.5235 143.254 63.1633C144.285 62.5065 145.364 61.9013 146.433 61.3102C146.93 61.0322 146.991 60.76 146.681 60.2823C146.387 59.8282 146.11 59.3619 145.833 58.8957C145.409 58.1825 144.985 57.4694 144.503 56.7995C144.014 56.1184 143.706 55.6304 144.968 55.2521L144.994 55.2369C144.856 55.2021 144.751 55.1684 144.668 55.1415ZM187.486 52.1085C188.746 51.9241 189.408 52.3569 189.946 53.3342C190.826 54.9495 191.761 56.5366 192.696 58.1233L192.7 58.1315C193.349 59.2324 193.997 60.3331 194.627 61.4429C194.961 62.0211 195.262 62.1186 195.817 61.7896C198.956 59.9423 202.109 58.1043 205.263 56.2833C205.736 56.0101 205.95 55.773 205.583 55.2137C204.973 54.2781 204.431 53.2942 203.92 52.3017C203.636 51.7646 203.375 51.6613 202.83 51.9931C202.142 52.4152 201.44 52.818 200.739 53.2209C199.937 53.6814 199.135 54.1419 198.352 54.6313C197.657 55.0673 197.261 54.9722 196.971 54.2281C196.889 54.0172 196.761 53.8253 196.636 53.6374L196.592 53.571C196.408 53.2829 196.463 53.1198 196.812 53.0411C197.295 52.9373 197.783 52.7958 197.518 52.125C197.281 51.5172 196.78 51.605 196.336 51.7915C195.815 52.0131 195.562 51.8175 195.304 51.3707C194.176 49.4022 193.049 47.4336 191.875 45.4916C191.516 44.9013 191.664 44.6409 192.234 44.3381C192.96 43.9508 193.671 43.5388 194.383 43.1268C195.044 42.7442 195.704 42.3616 196.377 41.9988C196.857 41.7388 197.026 41.484 196.72 40.9856L196.719 40.9838C196.11 40.0046 195.501 39.0253 194.925 38.0271C194.651 37.554 194.412 37.4732 193.911 37.7888C193.272 38.1876 192.615 38.5593 191.958 38.9315C191.263 39.3245 190.568 39.718 189.891 40.1445C189.21 40.5729 188.869 40.4982 188.463 39.7951C186.984 37.1882 185.479 34.5964 183.932 32.0378C183.539 31.3883 183.731 31.1286 184.307 30.8051C184.891 30.4787 185.468 30.1351 186.044 29.7913L186.052 29.7866C186.838 29.3178 187.625 28.8489 188.433 28.4226C189.178 28.0278 189.346 27.6506 188.86 26.9318C188.297 26.092 187.756 25.2305 187.314 24.329C186.973 23.6322 186.678 23.7586 186.084 24.0493C185.116 24.5222 184.202 25.1085 183.289 25.6947C181.403 26.905 179.517 28.1151 177.155 28.3279C177.132 28.3264 177.11 28.4094 177.096 28.4652L177.09 28.4882C177.144 28.623 177.271 28.6233 177.399 28.6236C177.556 28.624 177.716 28.6244 177.755 28.8664L177.746 28.873L177.729 28.8864C177.708 28.9021 177.688 28.9185 177.667 28.9349C177.586 28.9997 177.504 29.0657 177.409 29.1013C176.34 29.5258 176.316 30.0915 176.894 31.063C179.715 35.7971 182.482 40.5625 185.248 45.3279L185.251 45.3332L186.08 46.7607C186.785 47.9812 187.465 49.2108 188.143 50.4367L188.144 50.4387L188.173 50.49L188.179 50.5009C188.306 50.7305 188.433 50.9599 188.56 51.1891C188.644 51.3422 188.729 51.4952 188.814 51.648C188.645 51.739 188.475 51.7351 188.304 51.7311C188.028 51.7248 187.747 51.7183 187.458 52.1068L187.486 52.1085ZM75.2149 88.6617C76.3221 88.0713 77.4286 87.4813 77.7185 85.9621C77.8952 86.1552 77.873 86.3404 77.8517 86.5182C77.8314 86.6874 77.8119 86.8498 77.9652 87.0059C78.3537 86.7816 78.7457 86.5601 79.1387 86.338L79.14 86.3373C79.9297 85.8911 80.7237 85.4425 81.5004 84.9648C82.0382 84.6368 82.3022 84.7297 82.6019 85.2488C83.153 86.2186 83.721 87.1873 84.3576 88.1077C84.7706 88.7016 84.5449 88.9633 84.0192 89.2668C83.3781 89.6296 82.7437 90.0039 82.1091 90.3781C81.2208 90.902 80.3325 91.426 79.4261 91.9186C78.7707 92.2707 78.7486 92.5814 79.1042 93.1821C80.4849 95.5128 81.842 97.8483 83.1635 100.213C83.5477 100.894 83.8867 100.935 84.5089 100.54C85.1639 100.127 85.8337 99.736 86.5036 99.3449C87.1735 98.9537 87.844 98.5623 88.499 98.149C89.0725 97.7916 89.4157 97.7337 89.7633 98.4267C90.2494 99.3901 90.7957 100.336 91.4002 101.231C91.8587 101.904 91.6634 102.218 91.0212 102.563C90.4182 102.892 89.8259 103.242 89.2335 103.592L89.2264 103.596C88.4857 104.034 87.7441 104.473 86.9817 104.869C86.3226 105.214 86.2807 105.536 86.625 106.117C87.5772 107.718 88.5231 109.323 89.4687 110.927C90.8886 113.335 92.308 115.742 93.7473 118.135L93.8277 118.268C94.5034 119.388 94.8439 119.952 94.7274 120.397C94.609 120.848 94.019 121.176 92.8296 121.837L92.8274 121.838C92.651 121.937 92.4703 122.03 92.2898 122.123L92.2852 122.125C91.8851 122.332 91.4854 122.538 91.1348 122.806C90.4295 123.345 90.0824 123.169 89.6575 122.433C87.8348 119.254 85.9915 116.093 84.1475 112.929C83.3563 111.572 82.5651 110.215 81.7753 108.856L80.3755 106.444L80.3649 106.426L80.3641 106.424C77.5377 101.553 74.7133 96.685 71.8571 91.8291C71.418 91.0838 71.4879 90.7192 72.258 90.3535C72.8837 90.058 73.4743 89.6913 74.062 89.3265L74.0633 89.3257L74.2658 89.2002C74.3149 89.1697 74.3641 89.1394 74.4133 89.1091C74.6726 88.9508 74.9437 88.8063 75.2149 88.6617ZM74.2125 132.668C75.0255 132.185 75.8563 131.691 76.7109 131.239C77.3269 130.91 77.3106 130.639 76.9843 130.074C75.3419 127.27 73.7123 124.462 72.0827 121.654L72.0785 121.646C70.7219 119.309 69.3654 116.971 68.0012 114.636C65.8342 110.928 63.6606 107.224 61.4514 103.549C61.0248 102.841 61.1295 102.491 61.8461 102.139C62.2028 101.968 62.5419 101.759 62.8801 101.55L62.8808 101.55C63.219 101.341 63.5571 101.133 63.9104 100.964C64.5086 100.68 64.51 100.364 64.2086 99.8722C64.1261 99.7384 64.0432 99.6049 63.9603 99.4714C63.4904 98.715 63.0205 97.9586 62.6314 97.1555C62.2742 96.4155 61.9266 96.3446 61.2311 96.7637C59.4046 97.8491 57.5672 98.9106 55.7294 99.9722C54.443 100.715 53.1564 101.459 51.8732 102.21C49.9621 103.331 49.9734 103.351 51.1125 105.339C51.9851 106.85 53.1656 107.185 54.6538 106.344C54.7371 106.296 54.8231 106.251 54.9092 106.206C55.0813 106.116 55.2535 106.027 55.4029 105.911C55.9966 105.437 56.2931 105.677 56.6308 106.262C59.9162 111.953 63.211 117.629 66.5227 123.305C68.3887 126.506 70.2771 129.687 72.1694 132.873L72.1878 132.904C72.1973 132.921 72.2066 132.938 72.2157 132.956L72.2229 132.97L72.2354 132.995C72.2447 133.014 72.2539 133.034 72.2633 133.053C72.3894 133.319 72.531 133.617 73.0218 133.378L73.0246 133.367C73.4091 133.145 73.7969 132.915 74.1889 132.682L74.2125 132.668ZM181.12 55.5136L181.178 55.5003L181.197 55.4959L181.241 55.4857C181.259 55.4814 181.276 55.4771 181.294 55.4726C179.788 56.3341 179.804 56.3604 180.765 57.9951L181.048 58.4753L181.049 58.4761C181.798 59.7456 182.545 61.0111 183.254 62.3057C183.597 62.931 183.887 63.1141 184.575 62.6819C185.415 62.1461 186.28 61.6516 187.145 61.1572C187.782 60.7928 188.419 60.4285 189.047 60.0476C189.617 59.7005 189.972 59.6623 190.312 60.3421C190.7 61.1139 191.15 61.8496 191.6 62.5854C191.697 62.743 191.793 62.9007 191.889 63.0587C192.169 63.5281 192.239 63.8468 191.654 64.1845C188.433 66.0265 185.225 67.9051 182.02 69.7904C181.478 70.1118 181.229 69.984 180.926 69.4583C179.17 66.4044 177.394 63.3682 175.618 60.3327C175.264 59.7265 174.909 59.1203 174.555 58.514C174.515 58.4454 174.48 58.3701 174.446 58.2943C174.304 57.986 174.159 57.6707 173.66 57.7689C173.438 57.8094 173.309 57.586 173.391 57.4247C173.703 56.8356 173.409 56.4148 173.123 56.0043C173.047 55.8962 172.973 55.7887 172.909 55.6792C169.646 50.0723 166.372 44.4627 163.056 38.8862C162.564 38.0489 162.578 37.6027 163.507 37.1628C164.518 36.684 165.495 36.1291 166.419 35.4991C167.118 35.0254 167.447 35.0804 167.887 35.8427C170.402 40.2219 172.942 44.5811 175.484 48.9426C176.211 50.1906 176.939 51.4388 177.666 52.6878C177.81 52.9375 177.962 53.1832 178.115 53.429C178.42 53.9206 178.725 54.4122 178.963 54.935C179.338 55.7522 179.823 56.0154 180.655 55.6494C180.804 55.5856 180.962 55.5496 181.12 55.5136ZM18.2201 157.781C18.4459 157.864 18.6518 157.937 18.8467 158.006C19.0838 158.09 19.3053 158.169 19.5266 158.253C20.0229 158.432 20.3175 158.166 20.6132 157.899C20.7398 157.784 20.8667 157.669 21.0097 157.589C21.2003 157.479 21.1618 157.291 21.0331 157.129C20.6593 156.679 20.1877 156.636 19.6584 156.766C19.0859 156.913 18.5731 157.147 18.2201 157.781ZM146.915 47.4254C144.141 46.6265 141.29 46.4237 138.426 46.2727C141.256 46.6535 144.081 47.0381 146.915 47.4254ZM182.914 23.0667C182.861 23.0911 182.806 23.1076 182.754 23.1231C182.582 23.1746 182.45 23.2141 182.589 23.4907L182.611 23.5349C182.845 24.0158 183.102 24.5425 183.667 24.4459C183.905 24.4044 184.469 23.8776 184.263 23.4005C184.086 22.9771 183.753 23.0258 183.428 23.0733C183.244 23.1002 183.063 23.1266 182.914 23.0667ZM102.035 3.27252L102.055 3.28963C102.648 3.79744 103.019 4.11446 103.538 3.79756C103.755 3.67237 103.851 3.29266 103.671 3.13347C103.373 2.86476 103.097 2.96486 102.747 3.09138C102.542 3.16594 102.31 3.24966 102.035 3.27252ZM7.43176 124.557C7.47341 124.407 7.51631 124.257 7.55923 124.107C7.84757 123.1 8.13641 122.091 8.04564 121.022C7.72422 122.18 7.42354 123.344 7.43176 124.557ZM83.0425 95.6658C82.9259 95.4869 82.8091 95.3075 82.612 95.2497C83.2536 94.9781 83.6421 95.1996 83.9217 95.6839C83.9938 95.8087 83.9852 96.0064 83.8387 96.056C83.3926 96.2031 83.2178 95.9349 83.0425 95.6658ZM83.4112 67.4692C82.5145 67.3122 82.0983 65.3622 82.494 63.1186C82.8858 60.8685 83.9333 59.1774 84.83 59.3343C85.7266 59.4912 86.1428 61.4413 85.7472 63.6848C85.3553 65.9349 84.3078 67.6261 83.4112 67.4692ZM40.1963 78.9351L41.1339 74.9594L36.4014 75.9131L40.1963 78.9351ZM31.8045 92.0271L37.0838 92.2095L37.1189 91.208C37.1392 90.6969 37.0834 90.2209 36.9658 89.7895C36.8453 89.3684 36.6733 88.9946 36.4508 88.685C36.232 88.382 35.9665 88.1498 35.6363 87.9724C35.3203 87.8044 34.951 87.711 34.5387 87.695C34.2356 87.686 33.9449 87.7136 33.6808 87.7873C33.614 87.8083 33.5407 87.8331 33.474 87.8541C33.1518 87.9788 32.8796 88.1447 32.6519 88.3725C32.4176 88.6041 32.24 88.8731 32.0965 89.2013C31.9596 89.5257 31.8832 89.894 31.8661 90.2893L31.8045 92.0271ZM182.695 88.334L182.593 91.0562L182.597 91.0628C182.579 91.5024 182.627 91.904 182.735 92.2443C182.847 92.5741 182.997 92.8642 183.198 93.0902C183.394 93.3095 183.629 93.4892 183.912 93.615C184.206 93.7435 184.526 93.8127 184.867 93.8262C185.136 93.8373 185.382 93.8089 185.61 93.7476C185.693 93.7256 185.78 93.6932 185.866 93.6608C186.155 93.5382 186.408 93.3394 186.626 93.0645C186.853 92.7755 187.038 92.3973 187.176 91.9233C187.32 91.4286 187.403 90.8287 187.429 90.1303L187.489 88.5188L182.695 88.334ZM175.589 90.3072C175.569 90.9849 175.608 91.5843 175.72 92.0807L175.726 92.0769C175.83 92.5602 175.99 92.9585 176.192 93.2625C176.383 93.5638 176.62 93.7773 176.898 93.9238C177.179 94.0769 177.486 94.1537 177.844 94.1662C178.201 94.1787 178.539 94.1414 178.85 94.0582L178.879 94.0511C178.921 94.0409 178.96 94.0315 179 94.0152C179.341 93.9064 179.625 93.7159 179.887 93.4418C180.146 93.1612 180.367 92.7705 180.539 92.2945C180.717 91.7977 180.818 91.1696 180.845 90.4269L180.926 88.26L175.675 88.0585L175.589 90.3072Z" fill="#ff583e"/>
</svg>
