<svg width="28" height="64" viewBox="0 0 28 64" fill="none" xmlns="http://www.w3.org/2000/svg">
<g filter="url(#filter0_d_1370_16684)">
<path d="M20.4215 25.6697C20.8402 26.208 21.3636 27.2997 22.2758 28.6605C22.7992 29.4082 24.0853 30.8289 24.4741 31.5616C24.7544 32.0069 24.8357 32.5491 24.6984 33.0571C24.4637 34.0228 23.5476 34.6634 22.5599 34.5525C21.7961 34.399 21.0941 34.0247 20.5411 33.4758C20.155 33.1121 19.7999 32.717 19.4793 32.2944C19.2401 31.9953 19.1803 31.8757 18.9111 31.5317C18.6419 31.1878 18.4624 30.8438 18.597 31.3523C18.7017 32.1 18.8812 33.3562 19.1354 34.4777C19.3298 35.3301 19.3747 35.4647 19.5541 36.1077C19.7336 36.7508 19.8382 37.2891 20.0326 38.0219C20.2104 38.7418 20.3501 39.4706 20.4514 40.2052C20.6399 41.1448 20.5027 42.1205 20.0626 42.9717C19.5401 43.4632 18.7736 43.5929 18.1185 43.3007C17.4596 42.8142 16.9684 42.1348 16.7128 41.3567C16.3209 40.399 16.0594 39.3931 15.9352 38.3658C15.6959 36.8704 15.2323 34.6871 15.2174 34.2385C15.2174 34.7918 15.3221 35.9582 15.2174 36.4816C15.1137 37.0272 14.7344 37.4801 14.2154 37.6779C13.7701 37.8146 13.299 37.8453 12.8396 37.7677C12.376 37.6707 11.9653 37.4041 11.6882 37.0199C11.3417 36.1475 11.1494 35.2216 11.1199 34.2833C11.0799 35.1049 10.9392 35.9185 10.7012 36.7059C10.4513 37.058 10.0864 37.3119 9.66934 37.4237C9.17496 37.5141 8.66829 37.5141 8.17392 37.4237C7.76851 37.2882 7.41388 37.0326 7.15703 36.691C6.84034 35.8979 6.64864 35.0604 6.58876 34.2085C6.58876 33.9992 6.48408 34.7918 6.15509 35.3152C5.98412 35.8227 5.55537 36.2005 5.03034 36.3062C4.5053 36.4119 3.96375 36.2295 3.60968 35.8277C3.25561 35.4258 3.14281 34.8656 3.31378 34.3581C3.31378 33.3861 3.31378 33.4309 3.31378 32.7729C3.31378 32.1149 3.31378 31.5317 3.31378 30.9784C3.36827 30.1033 3.48824 29.2336 3.67268 28.3764C3.93292 27.618 4.29515 26.8986 4.74939 26.2379C5.4755 25.4304 6.07545 24.5179 6.52894 23.5312C6.64146 23.041 6.69171 22.5386 6.67849 22.0358C6.67999 21.5712 6.61964 21.1086 6.49904 20.66C7.11046 20.5953 7.72699 20.5953 8.33841 20.66C8.92163 20.7497 9.63943 21.9161 9.83384 22.275C9.93003 22.4678 10.1269 22.5895 10.3423 22.5895C10.5577 22.5895 10.7545 22.4678 10.8507 22.275C11.1797 21.7068 11.9125 20.6749 12.4209 20.6151C13.4229 20.4955 15.4866 20.6151 17.1166 20.6151C17.1166 20.6151 16.8474 22.1105 17.4605 22.6489C18.0736 23.1873 18.7017 23.8153 19.1653 24.234L20.4215 25.6697Z" fill="white"/>
<path fill-rule="evenodd" clip-rule="evenodd" d="M2.75372 31.8055C2.75357 32.0426 2.75357 32.2796 2.75357 32.7726L2.75357 34.2732C2.56261 34.9449 2.72487 35.6707 3.18951 36.198C3.67603 36.7502 4.42017 37.0009 5.14161 36.8556C5.63314 36.7566 6.06326 36.4841 6.36178 36.0999C6.4406 36.3708 6.53234 36.6369 6.6368 36.8985C7.03451 37.4601 7.48347 37.7836 7.99669 37.9552C8.6347 38.0776 9.20972 38.0776 9.77078 37.975C10.3322 37.8262 10.7912 37.5177 11.1148 37.0904C11.132 37.1359 11.1496 37.1813 11.1676 37.2266C11.593 37.8452 12.1249 38.1907 12.7255 38.3162C13.2922 38.4124 13.8517 38.3759 14.3805 38.2137C14.7203 38.0847 15.0124 37.885 15.2422 37.6348C15.2975 37.9441 15.3432 38.2117 15.382 38.4541C15.5092 39.5099 15.7835 40.5646 16.1944 41.5687C16.4725 42.42 17.0335 43.1959 17.786 43.7515C18.7522 44.1967 19.7602 44.0262 20.4473 43.3799L20.5613 43.229C21.06 42.2645 21.2153 41.159 21.0018 40.0945C20.9036 39.3742 20.7601 38.6261 20.5777 37.8871C20.4931 37.5682 20.4928 37.5666 20.314 36.8173L20.3139 36.8172C20.291 36.721 20.291 36.721 20.2676 36.6246C20.2068 36.3739 20.1536 36.1671 20.0948 35.9566C19.9944 35.5989 19.9556 35.4604 19.922 35.3361L19.9021 35.2618C19.8405 35.0294 19.7799 34.779 19.6827 34.3527C19.5936 33.9594 19.515 33.5642 19.4396 33.135C19.6643 33.3948 19.9045 33.6456 20.1572 33.8836C20.7775 34.4997 21.5785 34.9268 22.4501 35.1019C23.7661 35.2519 24.9425 34.4292 25.2439 33.1891C25.4185 32.5439 25.3129 31.8404 24.9492 31.2625C24.7767 30.9341 24.4423 30.4829 23.848 29.7464L23.7556 29.632C23.0658 28.7804 22.9417 28.6273 22.8268 28.4677C22.7986 28.4285 22.771 28.3889 22.7358 28.3385C22.5193 28.0156 22.1398 27.3896 21.7739 26.786C21.3647 26.1112 20.9725 25.4643 20.8441 25.3L19.5879 23.8644C19.4237 23.7126 18.9877 23.3 18.6885 23.0169C18.5409 22.8772 18.4266 22.769 18.3946 22.7391C18.2497 22.604 18.1167 22.4819 17.9891 22.3674C17.9103 22.297 17.9102 22.2968 17.8315 22.2275L17.8311 22.2271C17.7418 22.1487 17.6668 21.9524 17.6354 21.6657C17.6088 21.4224 17.6161 21.151 17.6451 20.8906C17.6546 20.8048 17.6638 20.7432 17.6691 20.7141C17.731 20.3701 17.4666 20.054 17.1171 20.054C16.7147 20.054 16.2991 20.0474 15.6386 20.0327L15.4107 20.0275C13.6213 19.9868 12.9505 19.9868 12.355 20.0579C11.6744 20.138 10.9504 20.9842 10.3362 22.0242C9.81378 21.0591 9.1428 20.2159 8.42426 20.1053C7.74733 20.0332 7.09128 20.0332 6.44066 20.1019C6.09782 20.1382 5.86855 20.4723 5.95806 20.8052C6.06574 21.2057 6.11963 21.6188 6.11828 22.0336C6.13046 22.5058 6.08492 22.9611 5.98295 23.4054C5.59007 24.232 5.02132 25.0971 4.33298 25.8626C3.8048 26.6224 3.41959 27.3875 3.14284 28.194C2.93469 29.1426 2.81089 30.0402 2.75466 30.9432C2.75414 31.3663 2.75387 31.5859 2.75372 31.8055ZM17.8331 23.7506C18.1249 24.0266 18.6347 24.5088 18.7908 24.6497L19.9876 26.0234C20.0752 26.1422 20.36 26.6136 20.6907 27.1611C21.0839 27.8121 21.5421 28.5707 21.8113 28.9723C21.9361 29.1508 22.0901 29.352 22.3002 29.6152C22.3818 29.7175 22.4401 29.7898 22.5865 29.9704L22.8848 30.3378L22.9759 30.4505C23.5212 31.1264 23.8333 31.5474 23.98 31.824C24.1977 32.1726 24.2548 32.5535 24.1584 32.9102C23.9868 33.6155 23.3309 34.0741 22.6239 33.9947C22.0155 33.8704 21.4125 33.5488 20.9375 33.0773C20.5635 32.7248 20.2292 32.3528 19.9275 31.955C19.8339 31.8377 19.775 31.7589 19.6825 31.6292C19.5232 31.4059 19.4778 31.3437 19.354 31.1856C19.3452 31.1744 19.3214 31.1421 19.29 31.0996C19.2035 30.9825 19.0596 30.7876 19.012 30.7372C18.9535 30.6628 18.9535 30.6628 18.6553 30.5405C18.0153 30.7764 18.0118 30.7816 17.9931 31.0822C17.9858 31.2004 18.0062 31.3061 18.0563 31.4953C18.2271 32.7448 18.3786 33.6694 18.5898 34.6012C18.6899 35.0399 18.7533 35.3022 18.8188 35.5491L18.84 35.6284C18.8751 35.7586 18.9157 35.9032 19.0153 36.258C19.0702 36.4548 19.1204 36.6499 19.1785 36.8891C19.1898 36.9358 19.1954 36.9592 19.2011 36.9826C19.2068 37.0063 19.2124 37.0299 19.2238 37.0775C19.4055 37.839 19.4063 37.8424 19.492 38.1652C19.6625 38.8567 19.7986 39.5661 19.8972 40.2813C20.0594 41.0949 19.9567 41.9063 19.6113 42.6224C19.2571 42.9092 18.7691 42.9758 18.3483 42.7881C17.8877 42.4317 17.4662 41.8488 17.2469 41.1812C16.8603 40.2326 16.6114 39.2755 16.4933 38.298C16.4284 37.8901 16.35 37.4455 16.2453 36.8786L16.1987 36.6276C15.7884 34.4262 15.7856 34.4105 15.7792 34.2193C15.7547 33.4843 14.6579 33.5026 14.6579 34.238C14.6579 34.3999 14.6611 34.4869 14.6817 34.9729C14.6897 35.1646 14.6929 35.2463 14.6965 35.3583C14.7125 35.8548 14.7045 36.1926 14.6688 36.3711C14.6004 36.7308 14.3541 37.0249 14.017 37.1534C13.6904 37.2523 13.3077 37.2773 12.9345 37.2142C12.629 37.1499 12.3396 36.962 12.1443 36.6913C11.8882 36.0004 11.7092 35.1385 11.6818 34.2652C11.6592 33.5472 10.5961 33.538 10.5611 34.2555C10.5249 34.9985 10.4016 35.7345 10.1938 36.4484C10.0226 36.659 9.78891 36.8109 9.52542 36.8816C9.14213 36.9498 8.70381 36.9498 8.27611 36.8716C8.05548 36.7919 7.79516 36.6043 7.60662 36.3535C7.38399 35.7433 7.20531 34.9627 7.14951 34.1687C7.17108 34.175 7.17108 34.175 7.00414 33.7994C6.18593 33.6574 6.18593 33.6574 6.09532 33.8997L6.09528 33.8998C6.05657 33.9786 6.05656 33.9786 6.04559 34.0121C6.03181 34.053 6.01729 34.1076 5.99179 34.2065C5.93597 34.4179 5.88463 34.5826 5.81797 34.7442C5.77441 34.8498 5.72858 34.9416 5.68165 35.0162C5.51797 35.4533 5.24961 35.6898 4.92098 35.756C4.59236 35.8221 4.25339 35.708 4.03177 35.4565C3.81016 35.2049 3.73955 34.8543 3.84656 34.5366L3.8759 34.3576L3.8759 30.9779C3.92757 30.1656 4.04371 29.3236 4.22226 28.4939C4.44817 27.8477 4.78741 27.1739 5.21283 26.5551C5.93159 25.7629 6.56275 24.8029 7.03983 23.7649C7.19992 23.12 7.25488 22.5705 7.24042 22.0205C7.24146 21.7416 7.22093 21.4581 7.17918 21.1753C7.54667 21.1645 7.91471 21.1785 8.2808 21.2172C8.46271 21.2458 9.01853 21.9443 9.34208 22.5416C9.52453 22.9079 9.91569 23.1498 10.3436 23.1498C10.7716 23.1498 11.1627 22.9079 11.3538 22.525C11.725 21.8861 12.3193 21.1914 12.4878 21.1716C13.0065 21.1096 13.6694 21.1096 15.386 21.1487L15.6143 21.1538C15.9668 21.1617 16.2507 21.1673 16.501 21.1708C16.4936 21.3771 16.499 21.5847 16.5213 21.7877C16.5803 22.3265 16.7493 22.769 17.0918 23.0698L17.0923 23.0702C17.1661 23.1353 17.1663 23.1354 17.2408 23.2021C17.3626 23.3113 17.4904 23.4286 17.6303 23.5591C17.6533 23.5806 17.7295 23.6526 17.8331 23.7506Z" fill="black"/>
<path d="M7.73976 24.8529L7.73976 30.0148C7.73976 30.3237 7.99083 30.5742 8.30054 30.5742C8.61026 30.5742 8.86133 30.3237 8.86133 30.0148L8.86133 24.8529C8.86133 24.5439 8.61026 24.2934 8.30054 24.2934C7.99083 24.2934 7.73976 24.5439 7.73976 24.8529Z" fill="black"/>
<path d="M10.7011 24.8548L10.731 30.0193C10.7328 30.3275 10.9853 30.576 11.295 30.5742C11.6047 30.5724 11.8543 30.3211 11.8525 30.0129L11.8226 24.8483C11.8208 24.5401 11.5683 24.2917 11.2586 24.2934C10.9489 24.2952 10.6993 24.5465 10.7011 24.8548Z" fill="black"/>
<path d="M14.8437 30.0075L14.8138 24.8536C14.812 24.5424 14.5595 24.2916 14.2498 24.2934C13.9401 24.2953 13.6905 24.549 13.6923 24.8602L13.7222 30.014C13.724 30.3252 13.9765 30.576 14.2862 30.5742C14.5959 30.5724 14.8455 30.3187 14.8437 30.0075Z" fill="black"/>
</g>
<defs>
<filter id="filter0_d_1370_16684" x="1.47846" y="20" width="25.044" height="26.6918" filterUnits="userSpaceOnUse" color-interpolation-filters="sRGB">
<feFlood flood-opacity="0" result="BackgroundImageFix"/>
<feColorMatrix in="SourceAlpha" type="matrix" values="0 0 0 0 0 0 0 0 0 0 0 0 0 0 0 0 0 0 127 0" result="hardAlpha"/>
<feOffset dy="1.49543"/>
<feGaussianBlur stdDeviation="0.598171"/>
<feColorMatrix type="matrix" values="0 0 0 0 0 0 0 0 0 0 0 0 0 0 0 0 0 0 0.5 0"/>
<feBlend mode="normal" in2="BackgroundImageFix" result="effect1_dropShadow_1370_16684"/>
<feBlend mode="normal" in="SourceGraphic" in2="effect1_dropShadow_1370_16684" result="shape"/>
</filter>
</defs>
</svg>
