<svg width="78" height="20" viewBox="0 0 78 20" fill="none" xmlns="http://www.w3.org/2000/svg">
<mask id="path-1-outside-1_671_4526" maskUnits="userSpaceOnUse" x="-2" y="-2" width="83" height="24" fill="black">
<rect fill="white" x="-2" y="-2" width="83" height="24"/>
<path d="M0.296875 0.0273438H5.26562C6.60938 0.0273438 7.64062 0.132812 8.35938 0.34375C9.08594 0.554688 9.62891 0.859375 9.98828 1.25781C10.3555 1.65625 10.6016 2.14062 10.7266 2.71094C10.8594 3.27344 10.9258 4.14844 10.9258 5.33594V6.98828C10.9258 8.19922 10.8008 9.08203 10.5508 9.63672C10.3008 10.1914 9.83984 10.6172 9.16797 10.9141C8.50391 11.2109 7.63281 11.3594 6.55469 11.3594H5.23047V19H0.296875V0.0273438ZM5.23047 3.27344V8.10156C5.37109 8.10938 5.49219 8.11328 5.59375 8.11328C6.04688 8.11328 6.35938 8.00391 6.53125 7.78516C6.71094 7.55859 6.80078 7.09375 6.80078 6.39062V4.83203C6.80078 4.18359 6.69922 3.76172 6.49609 3.56641C6.29297 3.37109 5.87109 3.27344 5.23047 3.27344ZM16.9375 3.44922L16.75 5.48828C17.4375 4.02734 18.4336 3.25391 19.7383 3.16797V8.64062C18.8711 8.64062 18.2344 8.75781 17.8281 8.99219C17.4219 9.22656 17.1719 9.55469 17.0781 9.97656C16.9844 10.3906 16.9375 11.3516 16.9375 12.8594V19H12.2031V3.44922H16.9375ZM31.5273 11.5H25.3984V14.8633C25.3984 15.5664 25.4492 16.0195 25.5508 16.2227C25.6523 16.4258 25.8477 16.5273 26.1367 16.5273C26.4961 16.5273 26.7344 16.3945 26.8516 16.1289C26.9766 15.8555 27.0391 15.332 27.0391 14.5586V12.5078H31.5273V13.6562C31.5273 14.6172 31.4648 15.3555 31.3398 15.8711C31.2227 16.3867 30.9414 16.9375 30.4961 17.5234C30.0508 18.1094 29.4844 18.5508 28.7969 18.8477C28.1172 19.1367 27.2617 19.2812 26.2305 19.2812C25.2305 19.2812 24.3477 19.1367 23.582 18.8477C22.8164 18.5586 22.2188 18.1641 21.7891 17.6641C21.3672 17.1562 21.0742 16.6016 20.9102 16C20.7461 15.3906 20.6641 14.5078 20.6641 13.3516V8.81641C20.6641 7.45703 20.8477 6.38672 21.2148 5.60547C21.582 4.81641 22.1836 4.21484 23.0195 3.80078C23.8555 3.37891 24.8164 3.16797 25.9023 3.16797C27.2305 3.16797 28.3242 3.42188 29.1836 3.92969C30.0508 4.42969 30.6562 5.09766 31 5.93359C31.3516 6.76172 31.5273 7.92969 31.5273 9.4375V11.5ZM26.7812 8.96875V7.83203C26.7812 7.02734 26.7383 6.50781 26.6523 6.27344C26.5664 6.03906 26.3906 5.92188 26.125 5.92188C25.7969 5.92188 25.5938 6.02344 25.5156 6.22656C25.4375 6.42188 25.3984 6.95703 25.3984 7.83203V8.96875H26.7812ZM42.8711 3.44922L40.6562 19H34.4805L32.1016 3.44922H36.332L37.6562 14.793C37.7578 13.9648 37.9297 11.9336 38.1719 8.69922C38.3125 6.89453 38.4688 5.14453 38.6406 3.44922H42.8711ZM48.4609 0.0273438V2.5H43.5859V0.0273438H48.4609ZM48.4609 3.44922V19H43.5859V3.44922H48.4609ZM60.8945 11.5H54.7656V14.8633C54.7656 15.5664 54.8164 16.0195 54.918 16.2227C55.0195 16.4258 55.2148 16.5273 55.5039 16.5273C55.8633 16.5273 56.1016 16.3945 56.2188 16.1289C56.3438 15.8555 56.4062 15.332 56.4062 14.5586V12.5078H60.8945V13.6562C60.8945 14.6172 60.832 15.3555 60.707 15.8711C60.5898 16.3867 60.3086 16.9375 59.8633 17.5234C59.418 18.1094 58.8516 18.5508 58.1641 18.8477C57.4844 19.1367 56.6289 19.2812 55.5977 19.2812C54.5977 19.2812 53.7148 19.1367 52.9492 18.8477C52.1836 18.5586 51.5859 18.1641 51.1562 17.6641C50.7344 17.1562 50.4414 16.6016 50.2773 16C50.1133 15.3906 50.0312 14.5078 50.0312 13.3516V8.81641C50.0312 7.45703 50.2148 6.38672 50.582 5.60547C50.9492 4.81641 51.5508 4.21484 52.3867 3.80078C53.2227 3.37891 54.1836 3.16797 55.2695 3.16797C56.5977 3.16797 57.6914 3.42188 58.5508 3.92969C59.418 4.42969 60.0234 5.09766 60.3672 5.93359C60.7188 6.76172 60.8945 7.92969 60.8945 9.4375V11.5ZM56.1484 8.96875V7.83203C56.1484 7.02734 56.1055 6.50781 56.0195 6.27344C55.9336 6.03906 55.7578 5.92188 55.4922 5.92188C55.1641 5.92188 54.9609 6.02344 54.8828 6.22656C54.8047 6.42188 54.7656 6.95703 54.7656 7.83203V8.96875H56.1484ZM77.7461 3.44922L75.8594 19H70.7148C70.4336 17.1016 70.1094 14.6016 69.7422 11.5C69.6172 12.8594 69.4414 14.2344 69.2148 15.625L68.6875 19H63.543L61.5391 3.44922H65.6172C65.6484 3.85547 65.9922 6.82031 66.6484 12.3438C66.6953 11.7812 67.0469 8.81641 67.7031 3.44922H71.6289L72.5898 12.3438C72.7383 9.75 73.0977 6.78516 73.668 3.44922H77.7461Z"/>
</mask>
<path d="M0.296875 0.0273438H5.26562C6.60938 0.0273438 7.64062 0.132812 8.35938 0.34375C9.08594 0.554688 9.62891 0.859375 9.98828 1.25781C10.3555 1.65625 10.6016 2.14062 10.7266 2.71094C10.8594 3.27344 10.9258 4.14844 10.9258 5.33594V6.98828C10.9258 8.19922 10.8008 9.08203 10.5508 9.63672C10.3008 10.1914 9.83984 10.6172 9.16797 10.9141C8.50391 11.2109 7.63281 11.3594 6.55469 11.3594H5.23047V19H0.296875V0.0273438ZM5.23047 3.27344V8.10156C5.37109 8.10938 5.49219 8.11328 5.59375 8.11328C6.04688 8.11328 6.35938 8.00391 6.53125 7.78516C6.71094 7.55859 6.80078 7.09375 6.80078 6.39062V4.83203C6.80078 4.18359 6.69922 3.76172 6.49609 3.56641C6.29297 3.37109 5.87109 3.27344 5.23047 3.27344ZM16.9375 3.44922L16.75 5.48828C17.4375 4.02734 18.4336 3.25391 19.7383 3.16797V8.64062C18.8711 8.64062 18.2344 8.75781 17.8281 8.99219C17.4219 9.22656 17.1719 9.55469 17.0781 9.97656C16.9844 10.3906 16.9375 11.3516 16.9375 12.8594V19H12.2031V3.44922H16.9375ZM31.5273 11.5H25.3984V14.8633C25.3984 15.5664 25.4492 16.0195 25.5508 16.2227C25.6523 16.4258 25.8477 16.5273 26.1367 16.5273C26.4961 16.5273 26.7344 16.3945 26.8516 16.1289C26.9766 15.8555 27.0391 15.332 27.0391 14.5586V12.5078H31.5273V13.6562C31.5273 14.6172 31.4648 15.3555 31.3398 15.8711C31.2227 16.3867 30.9414 16.9375 30.4961 17.5234C30.0508 18.1094 29.4844 18.5508 28.7969 18.8477C28.1172 19.1367 27.2617 19.2812 26.2305 19.2812C25.2305 19.2812 24.3477 19.1367 23.582 18.8477C22.8164 18.5586 22.2188 18.1641 21.7891 17.6641C21.3672 17.1562 21.0742 16.6016 20.9102 16C20.7461 15.3906 20.6641 14.5078 20.6641 13.3516V8.81641C20.6641 7.45703 20.8477 6.38672 21.2148 5.60547C21.582 4.81641 22.1836 4.21484 23.0195 3.80078C23.8555 3.37891 24.8164 3.16797 25.9023 3.16797C27.2305 3.16797 28.3242 3.42188 29.1836 3.92969C30.0508 4.42969 30.6562 5.09766 31 5.93359C31.3516 6.76172 31.5273 7.92969 31.5273 9.4375V11.5ZM26.7812 8.96875V7.83203C26.7812 7.02734 26.7383 6.50781 26.6523 6.27344C26.5664 6.03906 26.3906 5.92188 26.125 5.92188C25.7969 5.92188 25.5938 6.02344 25.5156 6.22656C25.4375 6.42188 25.3984 6.95703 25.3984 7.83203V8.96875H26.7812ZM42.8711 3.44922L40.6562 19H34.4805L32.1016 3.44922H36.332L37.6562 14.793C37.7578 13.9648 37.9297 11.9336 38.1719 8.69922C38.3125 6.89453 38.4688 5.14453 38.6406 3.44922H42.8711ZM48.4609 0.0273438V2.5H43.5859V0.0273438H48.4609ZM48.4609 3.44922V19H43.5859V3.44922H48.4609ZM60.8945 11.5H54.7656V14.8633C54.7656 15.5664 54.8164 16.0195 54.918 16.2227C55.0195 16.4258 55.2148 16.5273 55.5039 16.5273C55.8633 16.5273 56.1016 16.3945 56.2188 16.1289C56.3438 15.8555 56.4062 15.332 56.4062 14.5586V12.5078H60.8945V13.6562C60.8945 14.6172 60.832 15.3555 60.707 15.8711C60.5898 16.3867 60.3086 16.9375 59.8633 17.5234C59.418 18.1094 58.8516 18.5508 58.1641 18.8477C57.4844 19.1367 56.6289 19.2812 55.5977 19.2812C54.5977 19.2812 53.7148 19.1367 52.9492 18.8477C52.1836 18.5586 51.5859 18.1641 51.1562 17.6641C50.7344 17.1562 50.4414 16.6016 50.2773 16C50.1133 15.3906 50.0312 14.5078 50.0312 13.3516V8.81641C50.0312 7.45703 50.2148 6.38672 50.582 5.60547C50.9492 4.81641 51.5508 4.21484 52.3867 3.80078C53.2227 3.37891 54.1836 3.16797 55.2695 3.16797C56.5977 3.16797 57.6914 3.42188 58.5508 3.92969C59.418 4.42969 60.0234 5.09766 60.3672 5.93359C60.7188 6.76172 60.8945 7.92969 60.8945 9.4375V11.5ZM56.1484 8.96875V7.83203C56.1484 7.02734 56.1055 6.50781 56.0195 6.27344C55.9336 6.03906 55.7578 5.92188 55.4922 5.92188C55.1641 5.92188 54.9609 6.02344 54.8828 6.22656C54.8047 6.42188 54.7656 6.95703 54.7656 7.83203V8.96875H56.1484ZM77.7461 3.44922L75.8594 19H70.7148C70.4336 17.1016 70.1094 14.6016 69.7422 11.5C69.6172 12.8594 69.4414 14.2344 69.2148 15.625L68.6875 19H63.543L61.5391 3.44922H65.6172C65.6484 3.85547 65.9922 6.82031 66.6484 12.3438C66.6953 11.7812 67.0469 8.81641 67.7031 3.44922H71.6289L72.5898 12.3438C72.7383 9.75 73.0977 6.78516 73.668 3.44922H77.7461Z" fill="#FAFF00"/>
<path d="M0.296875 0.0273438V-1.97266H-1.70312V0.0273438H0.296875ZM8.35938 0.34375L7.79617 2.26282L7.80175 2.26444L8.35938 0.34375ZM9.98828 1.25781L8.50314 2.59735L8.51031 2.6053L8.51757 2.61317L9.98828 1.25781ZM10.7266 2.71094L8.77294 3.13913L8.77638 3.15485L8.78008 3.17052L10.7266 2.71094ZM9.16797 10.9141L8.35963 9.08467L8.35171 9.08821L9.16797 10.9141ZM5.23047 11.3594V9.35938H3.23047V11.3594H5.23047ZM5.23047 19V21H7.23047V19H5.23047ZM0.296875 19H-1.70312V21H0.296875V19ZM5.23047 3.27344V1.27344H3.23047V3.27344H5.23047ZM5.23047 8.10156H3.23047V9.99354L5.11953 10.0985L5.23047 8.10156ZM6.53125 7.78516L4.96424 6.54235L4.95861 6.54951L6.53125 7.78516ZM0.296875 2.02734H5.26562V-1.97266H0.296875V2.02734ZM5.26562 2.02734C6.54428 2.02734 7.35083 2.13212 7.79617 2.26281L8.92258 -1.57531C7.93042 -1.86649 6.67447 -1.97266 5.26562 -1.97266V2.02734ZM7.80175 2.26444C8.31078 2.41222 8.47502 2.56618 8.50314 2.59735L11.4734 -0.0817251C10.7828 -0.847426 9.8611 -1.30285 8.917 -1.57694L7.80175 2.26444ZM8.51757 2.61317C8.62586 2.73069 8.71777 2.88744 8.77294 3.13913L12.6802 2.28275C12.4854 1.39381 12.0851 0.581815 11.459 -0.0975494L8.51757 2.61317ZM8.78008 3.17052C8.85683 3.49556 8.92578 4.17672 8.92578 5.33594H12.9258C12.9258 4.12015 12.8619 3.05132 12.673 2.25135L8.78008 3.17052ZM8.92578 5.33594V6.98828H12.9258V5.33594H8.92578ZM8.92578 6.98828C8.92578 8.14156 8.79457 8.66592 8.72742 8.81492L12.3741 10.4585C12.807 9.49814 12.9258 8.25688 12.9258 6.98828H8.92578ZM8.72742 8.81492C8.72019 8.83097 8.6788 8.94367 8.35964 9.08469L9.9763 12.7434C11.0009 12.2907 11.8814 11.5518 12.3741 10.4585L8.72742 8.81492ZM8.35171 9.08821C8.03753 9.22867 7.47538 9.35938 6.55469 9.35938V13.3594C7.79025 13.3594 8.97029 13.1932 9.98423 12.7399L8.35171 9.08821ZM6.55469 9.35938H5.23047V13.3594H6.55469V9.35938ZM3.23047 11.3594V19H7.23047V11.3594H3.23047ZM5.23047 17H0.296875V21H5.23047V17ZM2.29688 19V0.0273438H-1.70312V19H2.29688ZM3.23047 3.27344V8.10156H7.23047V3.27344H3.23047ZM5.11953 10.0985C5.28415 10.1076 5.44416 10.1133 5.59375 10.1133V6.11328C5.54022 6.11328 5.45804 6.11112 5.34141 6.10464L5.11953 10.0985ZM5.59375 10.1133C6.27739 10.1133 7.36652 9.95927 8.10389 9.0208L4.95861 6.54951C5.14987 6.30609 5.37291 6.19056 5.50727 6.14353C5.62561 6.10211 5.6724 6.11328 5.59375 6.11328V10.1133ZM8.09825 9.02795C8.47619 8.5514 8.6256 8.01583 8.69706 7.64613C8.77472 7.24429 8.80078 6.81462 8.80078 6.39062H4.80078C4.80078 6.52498 4.79645 6.63382 4.78983 6.7199C4.78313 6.80698 4.77485 6.86064 4.76974 6.88707C4.76424 6.91551 4.7656 6.89584 4.78575 6.84414C4.80514 6.79442 4.85582 6.67909 4.96425 6.54237L8.09825 9.02795ZM8.80078 6.39062V4.83203H4.80078V6.39062H8.80078ZM8.80078 4.83203C8.80078 4.41953 8.77006 3.98073 8.66906 3.56119C8.57353 3.16439 8.37006 2.59372 7.88231 2.12474L5.10988 5.00807C4.96144 4.86535 4.8785 4.72676 4.83602 4.64071C4.79402 4.55561 4.78094 4.50065 4.78016 4.4974C4.77896 4.49241 4.7849 4.51616 4.79068 4.57712C4.79635 4.63689 4.80078 4.72064 4.80078 4.83203H8.80078ZM7.88231 2.12474C7.41658 1.67693 6.86746 1.48827 6.47838 1.3982C6.06738 1.30306 5.6376 1.27344 5.23047 1.27344V5.27344C5.34119 5.27344 5.42553 5.27772 5.48687 5.28335C5.54927 5.28909 5.57654 5.29521 5.57631 5.29516C5.57535 5.29494 5.56407 5.2923 5.54435 5.28575C5.52472 5.27922 5.49357 5.26776 5.45387 5.24915C5.37679 5.21302 5.24768 5.14058 5.10988 5.00807L7.88231 2.12474ZM16.9375 3.44922L18.9291 3.63235L19.1298 1.44922H16.9375V3.44922ZM16.75 5.48828L14.7584 5.30515L18.5596 6.33988L16.75 5.48828ZM19.7383 3.16797H21.7383V1.0319L19.6068 1.17229L19.7383 3.16797ZM19.7383 8.64062V10.6406H21.7383V8.64062H19.7383ZM17.0781 9.97656L19.0288 10.4182L19.0305 10.4104L17.0781 9.97656ZM16.9375 19V21H18.9375V19H16.9375ZM12.2031 19H10.2031V21H12.2031V19ZM12.2031 3.44922V1.44922H10.2031V3.44922H12.2031ZM14.9459 3.26608L14.7584 5.30515L18.7416 5.67142L18.9291 3.63235L14.9459 3.26608ZM18.5596 6.33988C19.0232 5.35485 19.4718 5.18986 19.8697 5.16364L19.6068 1.17229C17.3954 1.31796 15.8518 2.69984 14.9404 4.63669L18.5596 6.33988ZM17.7383 3.16797V8.64062H21.7383V3.16797H17.7383ZM19.7383 6.64062C18.7725 6.64062 17.7007 6.7567 16.8287 7.25982L18.8276 10.7246C18.7738 10.7556 18.7992 10.7273 18.9724 10.6955C19.139 10.6648 19.3881 10.6406 19.7383 10.6406V6.64062ZM16.8287 7.25982C15.9831 7.74763 15.3522 8.52347 15.1258 9.5427L19.0305 10.4104C19.0177 10.4682 18.9855 10.549 18.9268 10.6261C18.8706 10.7 18.8228 10.7273 18.8276 10.7246L16.8287 7.25982ZM15.1275 9.53491C14.9743 10.2118 14.9375 11.4178 14.9375 12.8594H18.9375C18.9375 12.122 18.949 11.5405 18.9703 11.1053C18.9809 10.8879 18.9933 10.7191 19.0062 10.5931C19.02 10.4584 19.0306 10.4101 19.0288 10.4182L15.1275 9.53491ZM14.9375 12.8594V19H18.9375V12.8594H14.9375ZM16.9375 17H12.2031V21H16.9375V17ZM14.2031 19V3.44922H10.2031V19H14.2031ZM12.2031 5.44922H16.9375V1.44922H12.2031V5.44922ZM31.5273 11.5V13.5H33.5273V11.5H31.5273ZM25.3984 11.5V9.5H23.3984V11.5H25.3984ZM26.8516 16.1289L25.0326 15.2974L25.0271 15.3095L25.0217 15.3216L26.8516 16.1289ZM27.0391 12.5078V10.5078H25.0391V12.5078H27.0391ZM31.5273 12.5078H33.5273V10.5078H31.5273V12.5078ZM31.3398 15.8711L29.3961 15.3999L29.3928 15.4138L29.3896 15.4279L31.3398 15.8711ZM28.7969 18.8477L29.5796 20.6882L29.5897 20.6838L28.7969 18.8477ZM21.7891 17.6641L20.2507 18.9421L20.2613 18.9549L20.2722 18.9676L21.7891 17.6641ZM20.9102 16L18.9789 16.5199L18.9806 16.5262L20.9102 16ZM21.2148 5.60547L23.0249 6.4562L23.0281 6.44927L21.2148 5.60547ZM23.0195 3.80078L23.9073 5.59297L23.914 5.58965L23.9206 5.58629L23.0195 3.80078ZM29.1836 3.92969L28.1661 5.65154L28.1753 5.65698L28.1846 5.66232L29.1836 3.92969ZM31 5.93359L29.1503 6.69422L29.1546 6.70471L29.159 6.71514L31 5.93359ZM26.7812 8.96875V10.9688H28.7812V8.96875H26.7812ZM25.5156 6.22656L27.3726 6.96934L27.3775 6.95696L27.3823 6.94452L25.5156 6.22656ZM25.3984 8.96875H23.3984V10.9688H25.3984V8.96875ZM31.5273 9.5H25.3984V13.5H31.5273V9.5ZM23.3984 11.5V14.8633H27.3984V11.5H23.3984ZM23.3984 14.8633C23.3984 15.2541 23.4121 15.6244 23.449 15.9532C23.4796 16.2267 23.5459 16.6851 23.7619 17.1171L27.3396 15.3282C27.4095 15.468 27.4312 15.5661 27.4323 15.5712C27.4357 15.5859 27.4309 15.5688 27.4241 15.5077C27.4101 15.3834 27.3984 15.1756 27.3984 14.8633H23.3984ZM23.7619 17.1171C24.2998 18.1928 25.336 18.5273 26.1367 18.5273V14.5273C26.2165 14.5273 26.4337 14.5403 26.6961 14.6767C26.9853 14.8271 27.2081 15.0652 27.3396 15.3282L23.7619 17.1171ZM26.1367 18.5273C26.5525 18.5273 27.0621 18.4515 27.5587 18.1747C28.083 17.8824 28.4592 17.4397 28.6814 16.9362L25.0217 15.3216C25.1267 15.0837 25.3252 14.8402 25.6112 14.6808C25.8696 14.5368 26.0803 14.5273 26.1367 14.5273V18.5273ZM28.6705 16.9604C28.8605 16.5449 28.9378 16.1056 28.9781 15.7684C29.022 15.4009 29.0391 14.9916 29.0391 14.5586H25.0391C25.0391 14.899 25.0249 15.1382 25.0063 15.2941C24.9972 15.3706 24.989 15.4094 24.9868 15.4189C24.9835 15.4327 24.9934 15.3831 25.0326 15.2974L28.6705 16.9604ZM29.0391 14.5586V12.5078H25.0391V14.5586H29.0391ZM27.0391 14.5078H31.5273V10.5078H27.0391V14.5078ZM29.5273 12.5078V13.6562H33.5273V12.5078H29.5273ZM29.5273 13.6562C29.5273 14.5643 29.4651 15.1155 29.3961 15.3999L33.2835 16.3423C33.4646 15.5954 33.5273 14.67 33.5273 13.6562H29.5273ZM29.3896 15.4279C29.3553 15.5787 29.2397 15.8712 28.9038 16.3133L32.0884 18.7336C32.6431 18.0038 33.09 17.1948 33.2901 16.3143L29.3896 15.4279ZM28.9038 16.3133C28.6704 16.6203 28.3814 16.8486 28.004 17.0115L29.5897 20.6838C30.5873 20.253 31.4311 19.5985 32.0884 18.7336L28.9038 16.3133ZM28.0141 17.0072C27.6594 17.1581 27.092 17.2812 26.2305 17.2812V21.2812C27.4315 21.2812 28.575 21.1154 29.5796 20.6881L28.0141 17.0072ZM26.2305 17.2812C25.4199 17.2812 24.7844 17.1638 24.2885 16.9766L22.8756 20.7187C23.9109 21.1096 25.041 21.2812 26.2305 21.2812V17.2812ZM24.2885 16.9766C23.7617 16.7777 23.4706 16.5522 23.3059 16.3605L20.2722 18.9676C20.9669 19.7759 21.8711 20.3395 22.8756 20.7187L24.2885 16.9766ZM23.3274 16.386C23.0772 16.0848 22.9242 15.7836 22.8397 15.4738L18.9806 16.5262C19.2243 17.4195 19.6572 18.2277 20.2507 18.9421L23.3274 16.386ZM22.8414 15.4801C22.7461 15.1263 22.6641 14.452 22.6641 13.3516H18.6641C18.6641 14.5636 18.746 15.655 18.9789 16.5199L22.8414 15.4801ZM22.6641 13.3516V8.81641H18.6641V13.3516H22.6641ZM22.6641 8.81641C22.6641 7.59993 22.8342 6.86191 23.0249 6.45619L19.4048 4.75475C18.8611 5.91152 18.6641 7.31413 18.6641 8.81641H22.6641ZM23.0281 6.44927C23.1893 6.103 23.4473 5.82082 23.9073 5.59297L22.1318 2.00859C20.9199 2.60887 19.9748 3.52981 19.4016 4.76166L23.0281 6.44927ZM23.9206 5.58629C24.4356 5.32638 25.0794 5.16797 25.9023 5.16797V1.16797C24.5534 1.16797 23.2753 1.43144 22.1184 2.01528L23.9206 5.58629ZM25.9023 5.16797C26.9872 5.16797 27.7006 5.37644 28.1661 5.65154L30.2011 2.20783C28.9479 1.46731 27.4737 1.16797 25.9023 1.16797V5.16797ZM28.1846 5.66232C28.7121 5.96644 28.993 6.31165 29.1503 6.69422L32.8497 5.17296C32.3195 3.88367 31.3895 2.89293 30.1826 2.19706L28.1846 5.66232ZM29.159 6.71514C29.3579 7.18371 29.5273 8.04091 29.5273 9.4375H33.5273C33.5273 7.81846 33.3452 6.33972 32.841 5.15205L29.159 6.71514ZM29.5273 9.4375V11.5H33.5273V9.4375H29.5273ZM28.7812 8.96875V7.83203H24.7812V8.96875H28.7812ZM28.7812 7.83203C28.7812 7.40073 28.77 7.00957 28.7422 6.67402C28.7184 6.38549 28.6712 5.96981 28.5301 5.58493L24.7746 6.96195C24.7384 6.86333 24.7321 6.80933 24.7374 6.83976C24.7409 6.86072 24.7483 6.91241 24.7558 7.00372C24.771 7.18769 24.7812 7.45865 24.7812 7.83203H28.7812ZM28.5301 5.58493C28.3684 5.14382 28.0673 4.68022 27.5655 4.34566C27.0736 4.01777 26.5511 3.92188 26.125 3.92188V7.92188C25.9645 7.92188 25.6627 7.88457 25.3467 7.67387C25.0206 7.45649 24.8504 7.16868 24.7746 6.96195L28.5301 5.58493ZM26.125 3.92188C25.4598 3.92188 24.168 4.15915 23.6489 5.5086L27.3823 6.94452C27.2339 7.33053 26.9444 7.62519 26.621 7.7869C26.3492 7.92278 26.1432 7.92188 26.125 7.92188V3.92188ZM23.6587 5.48378C23.4903 5.90459 23.4514 6.37778 23.433 6.62882C23.4085 6.96531 23.3984 7.37206 23.3984 7.83203H27.3984C27.3984 7.417 27.4079 7.11867 27.4224 6.92001C27.4297 6.8205 27.4366 6.76915 27.4391 6.75357C27.4451 6.7161 27.4342 6.81532 27.3726 6.96934L23.6587 5.48378ZM23.3984 7.83203V8.96875H27.3984V7.83203H23.3984ZM25.3984 10.9688H26.7812V6.96875H25.3984V10.9688ZM42.8711 3.44922L44.8511 3.73123L45.1761 1.44922H42.8711V3.44922ZM40.6562 19V21H42.3916L42.6363 19.282L40.6562 19ZM34.4805 19L32.5035 19.3024L32.7632 21H34.4805V19ZM32.1016 3.44922V1.44922H29.7723L30.1246 3.75165L32.1016 3.44922ZM36.332 3.44922L38.3185 3.21732L38.1121 1.44922H36.332V3.44922ZM37.6562 14.793L35.6697 15.0249L39.6414 15.0364L37.6562 14.793ZM38.1719 8.69922L36.1779 8.54385L36.1775 8.54988L38.1719 8.69922ZM38.6406 3.44922V1.44922H36.8331L36.6508 3.24749L38.6406 3.44922ZM40.8911 3.16721L38.6762 18.718L42.6363 19.282L44.8511 3.73123L40.8911 3.16721ZM40.6562 17H34.4805V21H40.6562V17ZM36.4575 18.6976L34.0786 3.14678L30.1246 3.75165L32.5035 19.3024L36.4575 18.6976ZM32.1016 5.44922H36.332V1.44922H32.1016V5.44922ZM34.3455 3.68112L35.6697 15.0249L39.6428 14.5611L38.3185 3.21732L34.3455 3.68112ZM39.6414 15.0364C39.75 14.1509 39.9254 12.0662 40.1663 8.84856L36.1775 8.54988C35.934 11.801 35.7657 13.7787 35.6711 14.5495L39.6414 15.0364ZM40.1658 8.85459C40.3053 7.06442 40.4602 5.32991 40.6304 3.65095L36.6508 3.24749C36.4773 4.95916 36.3197 6.72464 36.1779 8.54385L40.1658 8.85459ZM38.6406 5.44922H42.8711V1.44922H38.6406V5.44922ZM48.4609 0.0273438H50.4609V-1.97266H48.4609V0.0273438ZM48.4609 2.5V4.5H50.4609V2.5H48.4609ZM43.5859 2.5H41.5859V4.5H43.5859V2.5ZM43.5859 0.0273438V-1.97266H41.5859V0.0273438H43.5859ZM48.4609 3.44922H50.4609V1.44922H48.4609V3.44922ZM48.4609 19V21H50.4609V19H48.4609ZM43.5859 19H41.5859V21H43.5859V19ZM43.5859 3.44922V1.44922H41.5859V3.44922H43.5859ZM46.4609 0.0273438V2.5H50.4609V0.0273438H46.4609ZM48.4609 0.5H43.5859V4.5H48.4609V0.5ZM45.5859 2.5V0.0273438H41.5859V2.5H45.5859ZM43.5859 2.02734H48.4609V-1.97266H43.5859V2.02734ZM46.4609 3.44922V19H50.4609V3.44922H46.4609ZM48.4609 17H43.5859V21H48.4609V17ZM45.5859 19V3.44922H41.5859V19H45.5859ZM43.5859 5.44922H48.4609V1.44922H43.5859V5.44922ZM60.8945 11.5V13.5H62.8945V11.5H60.8945ZM54.7656 11.5V9.5H52.7656V11.5H54.7656ZM56.2188 16.1289L54.3998 15.2974L54.3943 15.3095L54.3889 15.3216L56.2188 16.1289ZM56.4062 12.5078V10.5078H54.4062V12.5078H56.4062ZM60.8945 12.5078H62.8945V10.5078H60.8945V12.5078ZM60.707 15.8711L58.7633 15.3999L58.7599 15.4138L58.7568 15.4279L60.707 15.8711ZM58.1641 18.8477L58.9468 20.6882L58.9569 20.6838L58.1641 18.8477ZM51.1562 17.6641L49.6179 18.9421L49.6285 18.9549L49.6394 18.9676L51.1562 17.6641ZM50.2773 16L48.3461 16.5199L48.3478 16.5262L50.2773 16ZM50.582 5.60547L52.3921 6.4562L52.3953 6.44927L50.582 5.60547ZM52.3867 3.80078L53.2744 5.59297L53.2811 5.58965L53.2878 5.58629L52.3867 3.80078ZM58.5508 3.92969L57.5333 5.65154L57.5425 5.65698L57.5518 5.66232L58.5508 3.92969ZM60.3672 5.93359L58.5175 6.69422L58.5218 6.70471L58.5262 6.71514L60.3672 5.93359ZM56.1484 8.96875V10.9688H58.1484V8.96875H56.1484ZM54.8828 6.22656L56.7398 6.96934L56.7447 6.95696L56.7495 6.94452L54.8828 6.22656ZM54.7656 8.96875H52.7656V10.9688H54.7656V8.96875ZM60.8945 9.5H54.7656V13.5H60.8945V9.5ZM52.7656 11.5V14.8633H56.7656V11.5H52.7656ZM52.7656 14.8633C52.7656 15.2541 52.7793 15.6244 52.8162 15.9532C52.8468 16.2267 52.9131 16.6851 53.1291 17.1171L56.7068 15.3282C56.7767 15.468 56.7983 15.5661 56.7995 15.5712C56.8029 15.5859 56.7981 15.5688 56.7913 15.5077C56.7773 15.3834 56.7656 15.1756 56.7656 14.8633H52.7656ZM53.1291 17.1171C53.667 18.1928 54.7031 18.5273 55.5039 18.5273V14.5273C55.5837 14.5273 55.8009 14.5403 56.0633 14.6767C56.3524 14.8271 56.5753 15.0652 56.7068 15.3282L53.1291 17.1171ZM55.5039 18.5273C55.9197 18.5273 56.4293 18.4515 56.9259 18.1747C57.4502 17.8824 57.8264 17.4397 58.0486 16.9362L54.3889 15.3216C54.4939 15.0837 54.6924 14.8402 54.9784 14.6808C55.2367 14.5368 55.4475 14.5273 55.5039 14.5273V18.5273ZM58.0377 16.9604C58.2276 16.5449 58.305 16.1056 58.3453 15.7684C58.3891 15.4009 58.4062 14.9916 58.4062 14.5586H54.4062C54.4062 14.899 54.3921 15.1382 54.3735 15.2941C54.3644 15.3706 54.3562 15.4094 54.3539 15.4189C54.3507 15.4327 54.3606 15.3831 54.3998 15.2974L58.0377 16.9604ZM58.4062 14.5586V12.5078H54.4062V14.5586H58.4062ZM56.4062 14.5078H60.8945V10.5078H56.4062V14.5078ZM58.8945 12.5078V13.6562H62.8945V12.5078H58.8945ZM58.8945 13.6562C58.8945 14.5643 58.8323 15.1155 58.7633 15.3999L62.6507 16.3423C62.8318 15.5954 62.8945 14.67 62.8945 13.6562H58.8945ZM58.7568 15.4279C58.7225 15.5787 58.6069 15.8712 58.271 16.3133L61.4556 18.7336C62.0103 18.0038 62.4572 17.1948 62.6573 16.3143L58.7568 15.4279ZM58.271 16.3133C58.0376 16.6203 57.7486 16.8486 57.3712 17.0115L58.9569 20.6838C59.9545 20.253 60.7983 19.5985 61.4556 18.7336L58.271 16.3133ZM57.3813 17.0072C57.0266 17.1581 56.4592 17.2812 55.5977 17.2812V21.2812C56.7986 21.2812 57.9422 21.1154 58.9468 20.6881L57.3813 17.0072ZM55.5977 17.2812C54.7871 17.2812 54.1516 17.1638 53.6556 16.9766L52.2428 20.7187C53.2781 21.1096 54.4082 21.2812 55.5977 21.2812V17.2812ZM53.6556 16.9766C53.1289 16.7777 52.8378 16.5522 52.6731 16.3605L49.6394 18.9676C50.3341 19.7759 51.2383 20.3395 52.2428 20.7187L53.6556 16.9766ZM52.6946 16.386C52.4444 16.0848 52.2914 15.7836 52.2069 15.4738L48.3478 16.5262C48.5914 17.4195 49.0244 18.2277 49.6179 18.9421L52.6946 16.386ZM52.2086 15.4801C52.1133 15.1263 52.0312 14.452 52.0312 13.3516H48.0312C48.0312 14.5636 48.1132 15.655 48.3461 16.5199L52.2086 15.4801ZM52.0312 13.3516V8.81641H48.0312V13.3516H52.0312ZM52.0312 8.81641C52.0312 7.59993 52.2014 6.86191 52.3921 6.45619L48.772 4.75475C48.2283 5.91152 48.0312 7.31413 48.0312 8.81641H52.0312ZM52.3953 6.44927C52.5564 6.103 52.8145 5.82082 53.2744 5.59297L51.499 2.00859C50.2871 2.60887 49.342 3.52981 48.7687 4.76166L52.3953 6.44927ZM53.2878 5.58629C53.8028 5.32638 54.4466 5.16797 55.2695 5.16797V1.16797C53.9206 1.16797 52.6425 1.43144 51.4856 2.01528L53.2878 5.58629ZM55.2695 5.16797C56.3544 5.16797 57.0678 5.37644 57.5333 5.65154L59.5682 2.20783C58.315 1.46731 56.8409 1.16797 55.2695 1.16797V5.16797ZM57.5518 5.66232C58.0793 5.96644 58.3602 6.31165 58.5175 6.69422L62.2169 5.17296C61.6867 3.88367 60.7567 2.89293 59.5498 2.19706L57.5518 5.66232ZM58.5262 6.71514C58.7251 7.18371 58.8945 8.04091 58.8945 9.4375H62.8945C62.8945 7.81846 62.7124 6.33972 62.2082 5.15205L58.5262 6.71514ZM58.8945 9.4375V11.5H62.8945V9.4375H58.8945ZM58.1484 8.96875V7.83203H54.1484V8.96875H58.1484ZM58.1484 7.83203C58.1484 7.40073 58.1372 7.00957 58.1094 6.67402C58.0855 6.38549 58.0384 5.96981 57.8973 5.58493L54.1418 6.96195C54.1056 6.86333 54.0993 6.80933 54.1045 6.83976C54.1081 6.86072 54.1155 6.91241 54.123 7.00372C54.1382 7.18769 54.1484 7.45865 54.1484 7.83203H58.1484ZM57.8973 5.58493C57.7355 5.14382 57.4345 4.68022 56.9326 4.34566C56.4408 4.01777 55.9183 3.92188 55.4922 3.92188V7.92188C55.3317 7.92188 55.0299 7.88457 54.7138 7.67387C54.3878 7.45649 54.2176 7.16868 54.1418 6.96195L57.8973 5.58493ZM55.4922 3.92188C54.8269 3.92188 53.5351 4.15915 53.0161 5.5086L56.7495 6.94452C56.601 7.33053 56.3116 7.62519 55.9882 7.7869C55.7164 7.92278 55.5103 7.92188 55.4922 7.92188V3.92188ZM53.0259 5.48378C52.8575 5.90459 52.8186 6.37778 52.8002 6.62882C52.7757 6.96531 52.7656 7.37206 52.7656 7.83203H56.7656C56.7656 7.417 56.7751 7.11867 56.7896 6.92001C56.7969 6.8205 56.8038 6.76915 56.8063 6.75357C56.8123 6.7161 56.8014 6.81532 56.7398 6.96934L53.0259 5.48378ZM52.7656 7.83203V8.96875H56.7656V7.83203H52.7656ZM54.7656 10.9688H56.1484V6.96875H54.7656V10.9688ZM77.7461 3.44922L79.7315 3.6901L80.0034 1.44922H77.7461V3.44922ZM75.8594 19V21H77.6314L77.8448 19.2409L75.8594 19ZM70.7148 19L68.7364 19.2931L68.9893 21H70.7148V19ZM69.7422 11.5L71.7283 11.2649L67.7506 11.3169L69.7422 11.5ZM69.2148 15.625L67.2408 15.3034L67.2388 15.3162L69.2148 15.625ZM68.6875 19V21H70.3993L70.6635 19.3088L68.6875 19ZM63.543 19L61.5594 19.2556L61.7842 21H63.543V19ZM61.5391 3.44922V1.44922H59.2648L59.5555 3.70483L61.5391 3.44922ZM65.6172 3.44922L67.6113 3.29583L67.4693 1.44922H65.6172V3.44922ZM66.6484 12.3438L64.6624 12.5797L68.6415 12.5098L66.6484 12.3438ZM67.7031 3.44922V1.44922H65.9328L65.7179 3.20648L67.7031 3.44922ZM71.6289 3.44922L73.6173 3.2344L73.4245 1.44922H71.6289V3.44922ZM72.5898 12.3438L70.6014 12.5586L74.5866 12.458L72.5898 12.3438ZM73.668 3.44922V1.44922H71.9809L71.6966 3.11219L73.668 3.44922ZM75.7607 3.20833L73.8739 18.7591L77.8448 19.2409L79.7315 3.6901L75.7607 3.20833ZM75.8594 17H70.7148V21H75.8594V17ZM72.6933 18.7069C72.4161 16.8359 72.0944 14.3574 71.7283 11.2649L67.7561 11.7351C68.1243 14.8457 68.4511 17.3673 68.7364 19.2931L72.6933 18.7069ZM67.7506 11.3169C67.63 12.6284 67.4602 13.9572 67.2409 15.3034L71.1888 15.9466C71.4226 14.5115 71.6044 13.0903 71.7338 11.6831L67.7506 11.3169ZM67.2388 15.3162L66.7115 18.6912L70.6635 19.3088L71.1909 15.9338L67.2388 15.3162ZM68.6875 17H63.543V21H68.6875V17ZM65.5266 18.7444L63.5227 3.19361L59.5555 3.70483L61.5594 19.2556L65.5266 18.7444ZM61.5391 5.44922H65.6172V1.44922H61.5391V5.44922ZM63.6231 3.60261C63.6585 4.06351 64.011 7.09673 64.6624 12.5797L68.6345 12.1078C67.9734 6.54389 67.6383 3.64743 67.6113 3.29583L63.6231 3.60261ZM68.6415 12.5098C68.6842 11.9976 69.0281 9.09177 69.6883 3.69195L65.7179 3.20648C65.0657 8.54104 64.7064 11.5649 64.6553 12.1777L68.6415 12.5098ZM67.7031 5.44922H71.6289V1.44922H67.7031V5.44922ZM69.6405 3.66404L70.6014 12.5586L74.5783 12.1289L73.6173 3.2344L69.6405 3.66404ZM74.5866 12.458C74.7297 9.95732 75.0781 7.06917 75.6394 3.78625L71.6966 3.11219C71.1172 6.50114 70.7469 9.54268 70.5931 12.2295L74.5866 12.458ZM73.668 5.44922H77.7461V1.44922H73.668V5.44922Z" fill="#FF2626" mask="url(#path-1-outside-1_671_4526)"/>
</svg>
