<svg width="87" height="30" viewBox="0 0 87 30" fill="none" xmlns="http://www.w3.org/2000/svg">
<g id="Group 1">
<g id="RWE">
<path id="Vector" d="M65.8682 27.3743V2.625H83.7739V7.88936H72.4486V12.3675H82.8388V17.6318H72.4486V22.11H83.7393V27.3743H65.8682Z" fill="#FAFF00"/>
<path id="Vector_2" d="M33.3165 27.3743L25.9395 2.625H33.2819L36.8145 18.1104H37.0223L41.1438 2.625H46.9623L51.1183 18.1788H51.3261L54.8588 2.625H62.2012L54.8242 27.3743H48.4862L44.1569 13.2221H43.9491L39.6199 27.3743H33.3165Z" fill="#FAFF00"/>
<path id="Vector_3" d="M2.69922 27.3743V2.625H13.3665C18.9772 2.625 22.6484 5.76994 22.6484 11.0001C22.6484 14.4185 21.0552 16.8456 18.3538 18.1104L23.4796 27.3743H16.3104L11.8772 19.1359H9.27967V27.3743H2.69922ZM9.27967 14.0425H11.8426C14.3362 14.0425 15.7562 13.1537 15.7562 11.0001C15.7562 8.81233 14.3362 7.82099 11.8426 7.82099H9.27967V14.0425Z" fill="#FAFF00"/>
</g>
<g id="RWE (Stroke)">
<path id="Stroke" fill-rule="evenodd" clip-rule="evenodd" d="M63.1689 30V0H86.3945V10.515H85.4594V19.485H86.3598V30H63.1689ZM72.4093 22.1103V17.6322H82.7995V12.3678H72.4093V7.8897H83.7346V2.62534H65.8288V27.3747H83.7V22.1103H72.4093Z" fill="#FF2626"/>
<path id="Stroke_2" fill-rule="evenodd" clip-rule="evenodd" d="M31.2849 30L22.3428 0H35.3679L37.0677 7.45115L39.0508 0H48.9701L50.9796 7.52043L52.6877 0H65.7148L56.7727 30H46.4693L44.0115 21.9656L41.5537 30H31.2849ZM43.9076 13.2224H44.1154L48.4446 27.3747H54.7826L62.1597 2.62534H54.8173L51.2846 18.1791H51.0768L46.9207 2.62534H41.1022L36.9808 18.1108H36.773L33.2403 2.62534H25.8979L33.275 27.3747H39.5783L43.9076 13.2224Z" fill="#FF2626"/>
<path id="Stroke_3" fill-rule="evenodd" clip-rule="evenodd" d="M0 30V0H13.3271C16.6221 0 19.6331 0.92719 21.8527 2.90122C24.1056 4.90487 25.2689 7.74599 25.2689 11.0005C25.2689 14.3222 24.0384 17.0809 21.8212 18.9712L27.9236 30H14.672L11.9002 24.8491V30H0ZM11.8379 19.1363L16.271 27.3747H23.4403L18.3144 18.1108C18.6077 17.9735 18.8878 17.8225 19.1543 17.658C21.343 16.3074 22.6091 14.0478 22.6091 11.0005C22.6091 5.77028 18.9379 2.62534 13.3271 2.62534H2.65989V27.3747H9.24034V19.1363H11.8379ZM11.9002 14.0424C11.8681 14.0427 11.8358 14.0428 11.8033 14.0428H9.24034V7.82133H11.8033C11.8358 7.82133 11.8681 7.8215 11.9002 7.82184C14.3337 7.84738 15.7169 8.84119 15.7169 11.0005C15.7169 13.126 14.3337 14.0195 11.9002 14.0424ZM11.9002 10.4474V11.4169C12.3221 11.4114 12.6259 11.3707 12.8339 11.3204C12.9292 11.2973 12.9952 11.2745 13.0383 11.257C13.0476 11.2047 13.057 11.1217 13.057 11.0005C13.057 10.7939 13.0313 10.6803 13.0166 10.6322C12.9814 10.6133 12.9091 10.5807 12.7825 10.5474C12.5891 10.4966 12.3021 10.4534 11.9002 10.4474Z" fill="#FF2626"/>
</g>
</g>
</svg>
