<svg width="25" height="24" viewBox="0 0 25 24" fill="none" xmlns="http://www.w3.org/2000/svg">
<path id="Vector" fill-rule="evenodd" clip-rule="evenodd" d="M12.7942 24C16.2991 24 19.4521 22.489 21.6407 20.0811L21.0584 19.4366C20.3377 18.6391 19.1091 18.5709 18.3047 19.2839L17.0624 20.3848C15.3725 21.8827 12.8038 21.7882 11.2283 20.1703L10.4516 19.3727C9.7057 18.6067 8.4835 18.5801 7.70486 19.3127L5.42651 21.4565C7.45767 23.0501 10.0153 24 12.7942 24ZM22.7418 17.9154L23.0246 18.2284C24.1262 16.4127 24.7607 14.2807 24.7607 12C24.7607 9.23453 23.8278 6.68755 22.2604 4.65823C21.969 4.73313 21.6906 4.87646 21.4501 5.08961L20.2079 6.19056C18.5179 7.68838 15.9493 7.59397 14.3738 5.97611L13.5971 5.17846C12.8511 4.4125 11.629 4.3858 10.8503 5.11846L7.65422 8.12585L6.09935 6.47342L9.29545 3.46602C10.9757 1.88502 13.6131 1.94264 15.2226 3.59551L15.9993 4.39317C16.7295 5.1429 17.9198 5.18665 18.703 4.49254L19.9451 3.39159C20.1537 3.20682 20.3753 3.04637 20.6067 2.91003C18.5103 1.09658 15.7799 0 12.7942 0C6.79108 0 1.82041 4.4328 0.959596 10.2124C2.5977 9.26676 4.72466 9.51398 6.10055 10.9269L6.99884 11.8493C7.69706 12.5664 8.82338 12.642 9.61121 12.0248L12.2741 9.93859C13.8724 8.68644 16.135 8.74701 17.664 10.0829L21.2899 13.2508L19.7971 14.9594L16.1711 11.7916C15.4626 11.1725 14.414 11.1444 13.6734 11.7247L11.0105 13.8109C9.31047 15.1428 6.87998 14.9796 5.37329 13.4323L4.47501 12.5099C3.72911 11.7439 2.50692 11.7172 1.72828 12.4499L0.890625 13.238C1.14968 15.7727 2.1954 18.0736 3.77891 19.8913L6.15 17.6602C7.83021 16.0793 10.4676 16.1368 12.0771 17.7898L12.8539 18.5874C13.584 19.3371 14.7744 19.3809 15.5575 18.6868L16.7997 17.5859C18.5356 16.0473 21.1868 16.1944 22.7418 17.9154Z" fill="url(#paint0_linear_757_797)"/>
<defs>
<linearGradient id="paint0_linear_757_797" x1="12.8257" y1="1.78742e-07" x2="17.5674" y2="23.9903" gradientUnits="userSpaceOnUse">
<stop stop-color="#780000"/>
<stop offset="1" stop-color="#C1121F"/>
</linearGradient>
</defs>
</svg>
