<svg width="17" height="16" viewBox="0 0 17 16" fill="none" xmlns="http://www.w3.org/2000/svg">
<path d="M15.2903 4.95698H5.09678L6.12633 2.3831C6.21242 2.16808 6.25363 1.93774 6.24744 1.70621C6.24125 1.47468 6.18778 1.24686 6.09033 1.03675C5.99287 0.826642 5.85348 0.638679 5.68072 0.48441C5.50797 0.330141 5.30549 0.212825 5.08574 0.139669L4.79692 0.0436797C4.63486 -0.0104578 4.46022 -0.0143627 4.29591 0.0324769C4.13159 0.0793165 3.98526 0.174715 3.8761 0.306164L0.196226 4.72083C0.0693443 4.87357 -7.72756e-05 5.06591 6.45516e-08 5.26448V14.3011C6.45516e-08 14.7517 0.178994 15.1838 0.497604 15.5024C0.816215 15.821 1.24834 16 1.69893 16H7.82356C8.24153 15.9998 8.64477 15.8456 8.95617 15.5668C9.26756 15.288 9.46526 14.9042 9.51144 14.4888L10.1936 8.35483H15.2903C15.7409 8.35483 16.1731 8.17584 16.4917 7.85723C16.8103 7.53861 16.9893 7.10649 16.9893 6.6559C16.9893 6.20532 16.8103 5.77319 16.4917 5.45458C16.1731 5.13597 15.7409 4.95698 15.2903 4.95698Z" fill="#AEAEAE"/>
</svg>
