<svg width="123" height="124" viewBox="0 0 123 124" fill="none" xmlns="http://www.w3.org/2000/svg">
<g clip-path="url(#clip0_1133_14152)">
<path d="M83.5212 1.29297H31.8565V11.6259H37.023V52.9576H33.5114V56.8325H29.4846V64.5822H25.3984V79.0014H87.3961L87.3961 73.5436L97.2347 73.2538V11.2562H87.3961V6.13067H83.5212V1.29297Z" fill="#FAFF00"/>
<path d="M97.2228 11.2822H93.4703V7.52969H89.6931V3.7525H85.9406V0L29.505 0V15.0594H33.2822V18.8119H37.0347V15.0594L82.1881 15.0594V18.8119H85.9406V56.4356H82.1881V60.1881H78.4109V63.9406H29.505V60.1881H25.7525V63.9406H22L22 79H25.7525L25.7525 67.7178H74.6584V79H101V15.0594H97.2228V11.2822ZM37.0347 11.2822H33.2822V3.7525H37.0347V11.2822ZM44.5644 11.2822H40.7872V3.7525H44.5644V11.2822ZM78.4109 11.2822L48.3169 11.2822V3.7525L78.4109 3.7525V11.2822ZM97.2228 37.6237H93.4703V18.8119H89.6931V15.0594H85.9406V11.2822H82.1881V7.52969H85.9406V11.2822H89.6931V15.0594H93.4703V18.8119H97.2228V37.6237Z" fill="#FF2626"/>
<path d="M72.7812 40H69.7812V43H72.7812V40Z" fill="#FF2626"/>
<path d="M73.0197 32H70V35H73.0197V32Z" fill="#FF2626"/>
<path d="M59 32H56V34.9804H59V32Z" fill="#FF2626"/>
<path d="M66.0197 32H63V35H66.0197V32Z" fill="#FF2626"/>
<path d="M52.0197 32H49V35H52.0197V32Z" fill="#FF2626"/>
<path d="M74.6572 56.4355H63.375V60.188H74.6572V56.4355Z" fill="#FF2626"/>
<path d="M70.25 30H65.75V33H70.25V30Z" fill="#FF2626"/>
<path d="M57 30H51V33H57V30Z" fill="#FF2626"/>
<path d="M70 43H54V46H70V43Z" fill="#FF2626"/>
<path d="M70.8837 79.0004V71.4707H59.6016V79.0004H63.3788V75.2479H67.1313V79.0004H70.8837Z" fill="#FF2626"/>
<path d="M54 40H51V43H54V40Z" fill="#FF2626"/>
<path d="M52.0936 56.4355H48.3164V60.188H52.0936V56.4355Z" fill="#FF2626"/>
<path d="M82.1902 52.6585V22.5645H44.5664V52.6585H82.1902ZM48.3189 26.3416H78.413V48.906H48.3189V26.3416Z" fill="#FF2626"/>
<path d="M44.5623 56.4355H40.7852V60.188H44.5623V56.4355Z" fill="#FF2626"/>
<path d="M40.7877 18.8125H37.0352V52.6591H40.7877V18.8125Z" fill="#FF2626"/>
<path d="M37.0298 52.6582H33.2773V56.4354H37.0298V52.6582Z" fill="#FF2626"/>
<path d="M33.2811 56.4355H29.5039V60.188H33.2811V56.4355Z" fill="#FF2626"/>
<path d="M74 34.084H76.5658V34.7647H78.6036V35.4454H79.9622V36.1261H81.3207V37.4875H82V42.084H77.3964V40.0419H76.0378V38.6805H74.6793V36.6383H74V34.084Z" fill="#26BEFF"/>
<path d="M81.2016 38.8848H79.6016V41.2848H81.2016V38.8848Z" fill="white"/>
<path d="M80.4016 37.2832H79.6016V38.0832H80.4016V37.2832Z" fill="white"/>
<path d="M75 32.043L76.281 30.6131L76.6604 30.953L77.6778 29.8173L78.0572 30.1572L78.7355 29.4L79.1148 29.7399L79.7931 28.9828L80.5518 29.6625L80.891 29.284L83.4525 31.5789L81.1541 34.1444L80.016 33.1248L79.3377 33.8819L78.579 33.2022L77.9007 33.9593L76.7627 32.9397L76.4235 33.3183L75 32.043Z" fill="#26BEFF"/>
<path d="M81.2715 30.4267L80.4727 31.3184L81.8102 32.5166L82.609 31.625L81.2715 30.4267Z" fill="white"/>
<path d="M79.9775 30.0737L79.5781 30.5195L80.024 30.919L80.4234 30.4731L79.9775 30.0737Z" fill="white"/>
<path d="M48.4531 30.543L47.1721 29.1131L46.7927 29.453L45.7753 28.3173L45.3959 28.6572L44.7177 27.9L44.3383 28.2399L43.66 27.4828L42.9013 28.1625L42.5622 27.784L40.0006 30.0789L42.2991 32.6444L43.4371 31.6248L44.1154 32.3819L44.8741 31.7022L45.5524 32.4593L46.6905 31.4397L47.0296 31.8183L48.4531 30.543Z" fill="#26BEFF"/>
<path d="M42.1816 28.9267L42.9805 29.8184L41.643 31.0166L40.8441 30.125L42.1816 28.9267Z" fill="white"/>
<path d="M43.4756 28.5737L43.875 29.0195L43.4292 29.419L43.0297 28.9731L43.4756 28.5737Z" fill="white"/>
<path d="M48.0859 34H45.814V34.6028H44.0095V35.2055H42.8065V35.8083H41.6035V37.0138H41.002V41.084H45.0784V39.2757H46.2814V38.0702H47.4844V36.2619H48.0859V34Z" fill="#26BEFF"/>
<path d="M43.1277 38.252H41.7109V40.3771H43.1277V38.252Z" fill="white"/>
<path d="M43.1264 36.832H42.418V37.5404H43.1264V36.832Z" fill="white"/>
</g>
<path d="M118.06 96.3984L109.617 112.787V119.934H102.237V112.787L93.793 96.3984H102.237L105.993 104.742L109.75 96.3984H118.06Z" fill="#FAFF00"/>
<path d="M85.018 119.934L80.5967 111.491H80.5635V119.934H73.1836V96.3984H84.1537C86.0597 96.3984 87.6886 96.7419 89.0404 97.429C90.3923 98.0938 91.4007 99.0135 92.0655 100.188C92.7525 101.341 93.0961 102.648 93.0961 104.111C93.0961 105.684 92.6528 107.08 91.7663 108.299C90.902 109.518 89.6499 110.394 88.0099 110.926L93.1293 119.934H85.018ZM80.5635 106.571H83.4889C84.1981 106.571 84.7299 106.416 85.0845 106.105C85.4391 105.773 85.6164 105.263 85.6164 104.576C85.6164 103.956 85.428 103.468 85.0513 103.113C84.6967 102.759 84.1759 102.582 83.4889 102.582H80.5635V106.571Z" fill="#FAFF00"/>
<path d="M62.7485 119.934L58.3272 111.491H58.294V119.934H50.9141V96.3984H61.8842C63.7901 96.3984 65.419 96.7419 66.7709 97.429C68.1228 98.0938 69.1311 99.0135 69.796 100.188C70.483 101.341 70.8265 102.648 70.8265 104.111C70.8265 105.684 70.3833 107.08 69.4968 108.299C68.6325 109.518 67.3803 110.394 65.7404 110.926L70.8598 119.934H62.7485ZM58.294 106.571H61.2193C61.9285 106.571 62.4604 106.416 62.815 106.105C63.1696 105.773 63.3469 105.263 63.3469 104.576C63.3469 103.956 63.1585 103.468 62.7818 103.113C62.4272 102.759 61.9064 102.582 61.2193 102.582H58.294V106.571Z" fill="#FAFF00"/>
<path d="M36.1844 120.168C33.9682 120.168 31.9293 119.647 30.0677 118.605C28.2283 117.564 26.7656 116.123 25.6797 114.284C24.5937 112.444 24.0508 110.372 24.0508 108.067C24.0508 105.762 24.5937 103.69 25.6797 101.851C26.7656 100.011 28.2283 98.5819 30.0677 97.5624C31.9293 96.5208 33.9682 96 36.1844 96C38.4006 96 40.4284 96.5208 42.2679 97.5624C44.1073 98.5819 45.5589 100.011 46.6227 101.851C47.7086 103.69 48.2516 105.762 48.2516 108.067C48.2516 110.372 47.7086 112.444 46.6227 114.284C45.5589 116.123 44.0962 117.564 42.2346 118.605C40.3952 119.647 38.3784 120.168 36.1844 120.168ZM36.1844 113.286C37.6471 113.286 38.7774 112.821 39.5752 111.89C40.373 110.937 40.7719 109.663 40.7719 108.067C40.7719 106.449 40.373 105.175 39.5752 104.244C38.7774 103.291 37.6471 102.815 36.1844 102.815C34.6996 102.815 33.5582 103.291 32.7604 104.244C31.9626 105.175 31.5637 106.449 31.5637 108.067C31.5637 109.663 31.9626 110.937 32.7604 111.89C33.5582 112.821 34.6996 113.286 36.1844 113.286Z" fill="#FAFF00"/>
<path d="M13.1466 120.168C10.3321 120.168 8.00508 119.514 6.16564 118.206C4.34837 116.876 3.36216 114.937 3.20703 112.389H11.0523C11.1631 113.741 11.7615 114.417 12.8475 114.417C13.2464 114.417 13.5788 114.328 13.8447 114.151C14.1328 113.951 14.2769 113.652 14.2769 113.253C14.2769 112.699 13.9777 112.256 13.3793 111.923C12.781 111.569 11.8502 111.17 10.5869 110.727C9.07993 110.195 7.82778 109.674 6.8305 109.164C5.85538 108.654 5.01323 107.912 4.30404 106.937C3.59486 105.962 3.25136 104.71 3.27352 103.18C3.27352 101.651 3.66135 100.355 4.43702 99.291C5.23484 98.2051 6.3097 97.3851 7.66157 96.8311C9.03561 96.277 10.5759 96 12.2823 96C15.1634 96 17.446 96.6649 19.1303 97.9946C20.8368 99.3243 21.7344 101.197 21.823 103.613H13.878C13.8558 102.948 13.6896 102.471 13.3793 102.183C13.0691 101.895 12.6923 101.751 12.2491 101.751C11.9388 101.751 11.684 101.862 11.4845 102.083C11.285 102.283 11.1853 102.571 11.1853 102.948C11.1853 103.48 11.4734 103.923 12.0496 104.277C12.648 104.61 13.5899 105.02 14.8753 105.507C16.3601 106.061 17.579 106.593 18.532 107.103C19.5071 107.613 20.3493 108.322 21.0584 109.231C21.7676 110.139 22.1222 111.281 22.1222 112.655C22.1222 114.095 21.7676 115.392 21.0584 116.544C20.3493 117.674 19.3187 118.561 17.9668 119.203C16.615 119.846 15.0082 120.168 13.1466 120.168Z" fill="#FAFF00"/>
<path fill-rule="evenodd" clip-rule="evenodd" d="M122.979 93.3984L112.615 113.515V122.934H99.2352V113.515L88.8711 93.3984H104.175L105.992 97.4345L107.809 93.3984H122.979ZM105.992 104.742L102.235 96.3984H93.7915L102.235 112.787V119.934H109.615V112.787L118.059 96.3984H109.748L105.992 104.742Z" fill="#FF2626"/>
<path fill-rule="evenodd" clip-rule="evenodd" d="M80.5635 111.491H80.5967L85.018 119.934H93.1293L88.0099 110.926C89.046 110.59 89.9273 110.116 90.6538 109.506C91.0772 109.15 91.4481 108.748 91.7663 108.299C92.6528 107.08 93.0961 105.684 93.0961 104.111C93.0961 102.648 92.7525 101.341 92.0655 100.188C91.4007 99.0135 90.3923 98.0938 89.0404 97.429C87.6886 96.7419 86.0597 96.3984 84.1537 96.3984H73.1836V119.934H80.5635V111.491ZM90.3818 94.7455C92.1913 95.6391 93.6668 96.9416 94.6594 98.6807C95.6364 100.332 96.0961 102.169 96.0961 104.111C96.0961 106.282 95.4726 108.297 94.2033 110.049C93.6213 110.867 92.9317 111.563 92.1531 112.144L98.2846 122.934H70.1836V119.934H70.8592L70.1836 118.745V107.135C70.6118 106.212 70.826 105.204 70.826 104.111C70.826 102.956 70.6118 101.898 70.1836 100.936V93.3984H84.1537C86.4064 93.3984 88.519 93.803 90.3818 94.7455ZM83.5635 106.57C83.5388 106.571 83.514 106.571 83.4889 106.571H80.5635V102.582H83.4889C83.514 102.582 83.5388 102.582 83.5635 102.582C84.2137 102.595 84.7096 102.772 85.0513 103.113C85.428 103.468 85.6164 103.956 85.6164 104.576C85.6164 105.263 85.4391 105.773 85.0845 106.105C84.7425 106.405 84.2355 106.56 83.5635 106.57Z" fill="#FF2626"/>
<path fill-rule="evenodd" clip-rule="evenodd" d="M58.294 111.491H58.3272L62.7485 119.934H70.8598L65.7404 110.926C66.7765 110.59 67.6578 110.116 68.3843 109.506C68.8077 109.15 69.1786 108.748 69.4968 108.299C70.3833 107.08 70.8265 105.684 70.8265 104.111C70.8265 102.648 70.483 101.341 69.796 100.188C69.1311 99.0135 68.1228 98.0938 66.7709 97.429C65.419 96.7419 63.7901 96.3984 61.8842 96.3984H50.9141V119.934H58.294V111.491ZM62.7818 103.113C63.1585 103.468 63.3469 103.956 63.3469 104.576C63.3469 105.263 63.1696 105.773 62.815 106.105C62.473 106.405 61.9659 106.56 61.294 106.57C61.2693 106.571 61.2444 106.571 61.2193 106.571H58.294V102.582H61.2193C61.2444 102.582 61.2693 102.582 61.294 102.582C61.9442 102.595 62.4401 102.772 62.7818 103.113ZM68.1123 94.7455C69.9218 95.6391 71.3972 96.9416 72.3899 98.6807C72.7093 99.2204 72.9733 99.78 73.1842 100.357V107.734C72.8781 108.546 72.4618 109.32 71.9338 110.049C71.3518 110.867 70.6621 111.563 69.8836 112.144L73.1842 117.953V119.934H74.3103L76.0151 122.934H47.9141V111.07C48.1392 110.117 48.2518 109.116 48.2518 108.067C48.2518 107.017 48.1392 106.016 47.9141 105.063V93.3984H61.8842C64.1369 93.3984 66.2494 93.803 68.1123 94.7455Z" fill="#FF2626"/>
<path fill-rule="evenodd" clip-rule="evenodd" d="M28.5962 121.219L28.5895 121.216C26.288 119.912 24.4463 118.095 23.0963 115.809C22.6894 115.119 22.3446 114.407 22.0607 113.673C22.102 113.342 22.1227 113.002 22.1227 112.655C22.1227 111.303 21.7795 110.176 21.0931 109.275C21.0648 108.877 21.0508 108.474 21.0508 108.067C21.0508 106.519 21.2544 105.03 21.6701 103.613H21.8235C21.8183 103.471 21.8104 103.332 21.7997 103.194C22.124 102.2 22.5552 101.242 23.0963 100.326C24.4484 98.0353 26.2959 96.2242 28.6079 94.9415C30.9335 93.6414 33.478 93 36.1844 93C38.888 93 41.425 93.6402 43.7342 94.9452C46.0449 96.2286 47.883 98.042 49.2131 100.338C50.0246 101.715 50.5882 103.186 50.9138 104.734V111.4C50.5882 112.948 50.0246 114.419 49.2131 115.797C47.8798 118.098 46.0296 119.918 43.7059 121.22C41.4 122.524 38.8734 123.168 36.1844 123.168C33.4761 123.168 30.9299 122.525 28.6029 121.223L28.5962 121.219ZM42.2346 118.605C44.0962 117.564 45.5589 116.123 46.6227 114.284C47.7086 112.444 48.2516 110.372 48.2516 108.067C48.2516 105.762 47.7086 103.69 46.6227 101.851C45.5589 100.011 44.1073 98.5819 42.2679 97.5624C40.4284 96.5208 38.4006 96 36.1844 96C33.9682 96 31.9293 96.5208 30.0677 97.5624C28.2283 98.5819 26.7656 100.011 25.6797 101.851C24.5937 103.69 24.0508 105.762 24.0508 108.067C24.0508 110.372 24.5937 112.444 25.6797 114.284C26.7656 116.123 28.2283 117.564 30.0677 118.605C31.9293 119.647 33.9682 120.168 36.1844 120.168C38.3784 120.168 40.3952 119.647 42.2346 118.605ZM37.2861 106.183L37.2749 106.17C37.1502 106.021 36.9333 105.815 36.1844 105.815C35.3967 105.815 35.1764 106.032 35.0607 106.17L35.0495 106.183L35.0382 106.197C34.838 106.43 34.5637 106.933 34.5637 108.067C34.5637 109.145 34.8218 109.672 35.0494 109.951C35.1621 110.078 35.3999 110.286 36.1844 110.286C36.9331 110.286 37.1659 110.087 37.2861 109.951C37.5137 109.672 37.7719 109.145 37.7719 108.067C37.7719 106.933 37.4976 106.43 37.2974 106.197L37.2861 106.183ZM39.5752 111.89C38.7774 112.821 37.6471 113.286 36.1844 113.286C34.6996 113.286 33.5582 112.821 32.7604 111.89C31.9626 110.937 31.5637 109.663 31.5637 108.067C31.5637 106.449 31.9626 105.175 32.7604 104.244C33.5582 103.291 34.6996 102.815 36.1844 102.815C37.6471 102.815 38.7774 103.291 39.5752 104.244C40.373 105.175 40.7719 106.449 40.7719 108.067C40.7719 109.663 40.373 110.937 39.5752 111.89Z" fill="#FF2626"/>
<path fill-rule="evenodd" clip-rule="evenodd" d="M4.41139 120.639L4.39477 120.627C1.75527 118.696 0.414446 115.877 0.213235 112.571L0.0195312 109.389H2.419C2.23127 109.168 2.05111 108.939 1.8785 108.701C0.700009 107.081 0.248733 105.153 0.274198 103.159C0.277943 101.108 0.809878 99.1744 2.01365 97.5235L2.02002 97.5148C3.17186 95.947 4.7068 94.8001 6.52456 94.0552L6.53243 94.0519L6.54033 94.0487C8.32083 93.3308 10.2498 93 12.283 93C15.6048 93 18.6137 93.7673 20.9825 95.6341C23.4704 97.5763 24.7049 100.322 24.8217 103.503L24.8263 103.629C24.4705 104.571 24.2372 105.566 24.1263 106.613H22.7646C22.9944 106.858 23.2142 107.116 23.424 107.385C23.6603 107.688 23.8696 108.002 24.0533 108.326C24.0809 109.876 24.3578 111.319 24.8839 112.655C24.9549 112.835 25.0304 113.013 25.1105 113.19C25.0287 114.95 24.5399 116.612 23.6141 118.116L23.6072 118.127L23.6003 118.139C22.552 119.809 21.058 121.056 19.2556 121.913C17.4155 122.788 15.3486 123.168 13.1473 123.168C9.86522 123.168 6.8888 122.401 4.42817 120.651L4.41139 120.639ZM21.8237 103.613C21.7827 102.497 21.5692 101.497 21.183 100.613C20.7332 99.5827 20.0492 98.71 19.131 97.9946C17.4467 96.6649 15.164 96 12.283 96C10.5765 96 9.03627 96.277 7.66223 96.8311C6.31036 97.3851 5.23551 98.2051 4.43768 99.291C3.66201 100.355 3.27418 101.651 3.27418 103.18C3.25202 104.71 3.59553 105.962 4.30471 106.937C5.01389 107.912 5.85604 108.654 6.83116 109.164C6.97715 109.239 7.12859 109.314 7.2855 109.389C8.20049 109.827 9.30119 110.273 10.5876 110.727C10.7481 110.783 10.9032 110.838 11.053 110.893C11.6179 111.1 12.1064 111.297 12.5186 111.484C12.6345 111.536 12.7443 111.588 12.8481 111.639C13.0477 111.737 13.225 111.831 13.38 111.923C13.5166 111.999 13.6375 112.081 13.7429 112.168C14.0993 112.464 14.2776 112.825 14.2776 113.253C14.2776 113.652 14.1335 113.951 13.8454 114.151C13.5795 114.328 13.247 114.417 12.8481 114.417C12.5556 114.417 12.2984 114.367 12.0766 114.269C12.0536 114.259 12.031 114.248 12.0088 114.237C11.6907 114.077 11.4505 113.808 11.2881 113.432C11.1649 113.146 11.0866 112.798 11.053 112.389H3.20769C3.27569 113.506 3.50335 114.506 3.89067 115.389C4.38701 116.52 5.14556 117.459 6.1663 118.206C8.00574 119.514 10.3327 120.168 13.1473 120.168C15.0089 120.168 16.6156 119.846 17.9675 119.203C19.3194 118.561 20.3499 117.674 21.0591 116.544C21.7683 115.392 22.1229 114.095 22.1229 112.655C22.1229 111.281 21.7683 110.139 21.0591 109.231C20.3499 108.322 19.5078 107.613 18.5326 107.103C18.2311 106.942 17.903 106.778 17.5482 106.613C16.7817 106.255 15.891 105.886 14.8759 105.507C14.5167 105.371 14.1842 105.241 13.8786 105.117C13.4795 104.955 13.1261 104.803 12.8185 104.661C12.6074 104.564 12.4178 104.472 12.2497 104.385C12.1795 104.348 12.113 104.312 12.0503 104.277C11.9123 104.193 11.7909 104.103 11.686 104.008C11.5769 103.909 11.4858 103.805 11.4124 103.695C11.2615 103.469 11.186 103.22 11.186 102.948C11.186 102.571 11.2857 102.283 11.4852 102.083C11.6846 101.862 11.9395 101.751 12.2497 101.751C12.6406 101.751 12.9797 101.863 13.2672 102.087C13.2966 102.11 13.3255 102.134 13.3538 102.159C13.3626 102.167 13.3713 102.175 13.38 102.183C13.5746 102.364 13.7126 102.619 13.7938 102.948C13.8421 103.143 13.8704 103.365 13.8786 103.613H21.8237Z" fill="#FF2626"/>
<defs>
<clipPath id="clip0_1133_14152">
<rect width="79" height="79" fill="white" transform="translate(22)"/>
</clipPath>
</defs>
</svg>
