<svg width="47" height="98" viewBox="0 0 47 98" fill="none" xmlns="http://www.w3.org/2000/svg">
<g id="Vector">
<path d="M16.7857 30.2143C16.7857 26.5061 19.7918 23.5 23.5 23.5C27.2082 23.5 30.2143 26.5061 30.2143 30.2143V90.6429C30.2143 94.3511 27.2082 97.3571 23.5 97.3571C19.7918 97.3571 16.7857 94.3511 16.7857 90.6429V30.2143Z" fill="#656565"/>
<path d="M16.7857 78.8929C16.7857 75.1847 19.7918 72.1786 23.5 72.1786C27.2082 72.1786 30.2143 75.1847 30.2143 78.8929V90.6429C30.2143 94.3511 27.2082 97.3571 23.5 97.3571C19.7918 97.3571 16.7857 94.3511 16.7857 90.6429V78.8929Z" fill="#252525"/>
<path d="M47 23.5C47 36.4787 36.4787 47 23.5 47C10.5213 47 0 36.4787 0 23.5C0 10.5213 10.5213 0 23.5 0C36.4787 0 47 10.5213 47 23.5Z" fill="current"/>
<path d="M15.1868 14.9448C13.375 17.114 11.2029 18.285 10.3352 17.5603C9.46758 16.8356 10.2329 14.4896 12.0447 12.3205C13.8564 10.1513 16.0285 8.98034 16.8962 9.70504C17.7638 10.4297 16.9985 12.7757 15.1868 14.9448Z" fill="white"/>
<path d="M11.1686 22.8228C10.4439 23.6905 9.153 23.8064 8.28533 23.0817C7.41767 22.357 7.30177 21.0661 8.02647 20.1984C8.75117 19.3308 10.042 19.2149 10.9097 19.9396C11.7774 20.6643 11.8933 21.9551 11.1686 22.8228Z" fill="white"/>
</g>
</svg>
