<svg width="53" height="107" viewBox="0 0 53 107" fill="none" xmlns="http://www.w3.org/2000/svg">
<path d="M19.8571 35.1429C19.8571 31.198 23.0551 28 27 28C30.9449 28 34.1429 31.198 34.1429 35.1429V99.4286C34.1429 103.373 30.9449 106.571 27 106.571C23.0551 106.571 19.8571 103.373 19.8571 99.4286V35.1429Z" fill="#656565"/>
<path d="M19.8571 86.9286C19.8571 82.9837 23.0551 79.7857 27 79.7857C30.9449 79.7857 34.1429 82.9837 34.1429 86.9286V99.4286C34.1429 103.373 30.9449 106.571 27 106.571C23.0551 106.571 19.8571 103.373 19.8571 99.4286V86.9286Z" fill="#252525"/>
<path d="M52 28C52 41.8071 40.8071 53 27 53C13.1929 53 2 41.8071 2 28C2 14.1929 13.1929 3 27 3C40.8071 3 52 14.1929 52 28Z" fill="#FF2626"/>
<path d="M18.1561 18.8988C16.2287 21.2064 13.918 22.4521 12.9949 21.6811C12.0719 20.9102 12.8861 18.4145 14.8135 16.1069C16.7409 13.7993 19.0516 12.5536 19.9746 13.3245C20.8977 14.0955 20.0835 16.5912 18.1561 18.8988Z" fill="white"/>
<path d="M13.8815 27.2796C13.1105 28.2026 11.7372 28.3259 10.8142 27.555C9.89114 26.784 9.76784 25.4107 10.5388 24.4877C11.3098 23.5646 12.683 23.4414 13.6061 24.2123C14.5291 24.9833 14.6524 26.3565 13.8815 27.2796Z" fill="white"/>
<circle cx="26.5" cy="26.5" r="26.5" fill="white"/>
<circle cx="26.5004" cy="26.4974" r="25.6283" fill="black"/>
<circle cx="26.5011" cy="26.4981" r="23.8849" fill="white"/>
<g filter="url(#filter0_i_1667_21132)">
<circle cx="26.4997" cy="26.5075" r="20.0505" fill="#FF583E"/>
</g>
<path d="M5.71191 19.1094C9.48961 23.132 16.0955 33.5299 12.2974 42.9399" stroke="white"/>
<path d="M10.3662 11.9941C15.8759 17.0877 24.3756 31.0358 14.2965 46.0798" stroke="white"/>
<path d="M17.2492 46.7595C24.2035 40.4708 34.5935 23.3721 20.5189 5.28732" stroke="white"/>
<path d="M23.0456 48.1801C32.288 41.1542 47.1076 23.0814 32.4466 6.99779" stroke="white"/>
<path d="M30.1973 46.5521C35.9477 42.3709 47.1937 30.6353 46.1739 17.1426" stroke="white"/>
<defs>
<filter id="filter0_i_1667_21132" x="6.44922" y="2.45703" width="40.1006" height="44.1016" filterUnits="userSpaceOnUse" color-interpolation-filters="sRGB">
<feFlood flood-opacity="0" result="BackgroundImageFix"/>
<feBlend mode="normal" in="SourceGraphic" in2="BackgroundImageFix" result="shape"/>
<feColorMatrix in="SourceAlpha" type="matrix" values="0 0 0 0 0 0 0 0 0 0 0 0 0 0 0 0 0 0 127 0" result="hardAlpha"/>
<feOffset dy="-5"/>
<feGaussianBlur stdDeviation="2"/>
<feComposite in2="hardAlpha" operator="arithmetic" k2="-1" k3="1"/>
<feColorMatrix type="matrix" values="0 0 0 0 1 0 0 0 0 0.134715 0 0 0 0 0 0 0 0 1 0"/>
<feBlend mode="normal" in2="shape" result="effect1_innerShadow_1667_21132"/>
</filter>
</defs>
</svg>
