<svg width="19" height="16" viewBox="0 0 19 16" fill="none" xmlns="http://www.w3.org/2000/svg">
<path id="telegram_logo.svg" fill-rule="evenodd" clip-rule="evenodd" d="M1.2546 6.98188C6.12251 4.84728 9.37647 3.46761 11.0165 2.79078C15.6501 0.864444 16.6133 0.526032 17.238 0.5C17.3682 0.5 17.6806 0.526032 17.8888 0.682222C18.045 0.81238 18.0971 0.994601 18.1231 1.12476C18.1491 1.25492 18.1752 1.54127 18.1491 1.77555C17.8888 4.40475 16.8215 10.8346 16.2488 13.7761C16.0145 15.0257 15.546 15.4422 15.1034 15.4942C14.1403 15.5723 13.3853 14.8434 12.4482 14.2447C10.9904 13.2815 10.1574 12.6828 8.72568 11.7457C7.08568 10.6523 8.15298 10.0536 9.09012 9.09044C9.3244 8.83012 13.6196 4.95141 13.6977 4.58697C13.6977 4.5349 13.7238 4.37871 13.6196 4.30062C13.5155 4.22252 13.3853 4.24856 13.2812 4.27459C13.125 4.30062 10.7822 5.86252 6.22664 8.93425C5.54982 9.40282 4.95109 9.61107 4.40442 9.61107C3.8057 9.61107 2.6603 9.27266 1.80126 8.98631C0.759995 8.6479 -0.0730178 8.46568 0.00507713 7.89298C0.0571404 7.60664 0.473646 7.29426 1.2546 6.98188Z" fill="#5E5E5E"/>
</svg>
