<svg width="19" height="15" viewBox="0 0 19 15" fill="none" xmlns="http://www.w3.org/2000/svg">
<path fill-rule="evenodd" clip-rule="evenodd" d="M1.2546 6.48188C6.12251 4.34728 9.37647 2.96761 11.0165 2.29078C15.6501 0.364444 16.6133 0.0260316 17.238 0C17.3682 0 17.6806 0.0260318 17.8888 0.182222C18.045 0.31238 18.0971 0.494601 18.1231 0.62476C18.1491 0.754918 18.1752 1.04127 18.1491 1.27555C17.8888 3.90475 16.8215 10.3346 16.2488 13.2761C16.0145 14.5257 15.546 14.9422 15.1034 14.9942C14.1403 15.0723 13.3853 14.3434 12.4482 13.7447C10.9904 12.7815 10.1574 12.1828 8.72568 11.2457C7.08568 10.1523 8.15298 9.55361 9.09012 8.59044C9.3244 8.33012 13.6196 4.45141 13.6977 4.08697C13.6977 4.0349 13.7238 3.87871 13.6196 3.80062C13.5155 3.72252 13.3853 3.74856 13.2812 3.77459C13.125 3.80062 10.7822 5.36252 6.22664 8.43425C5.54982 8.90282 4.95109 9.11107 4.40442 9.11107C3.8057 9.11107 2.6603 8.77266 1.80126 8.48631C0.759995 8.1479 -0.0730178 7.96568 0.00507713 7.39298C0.0571404 7.10664 0.473646 6.79426 1.2546 6.48188Z" fill="white"/>
</svg>
