<svg width="26" height="24" viewBox="0 0 26 24" fill="none" xmlns="http://www.w3.org/2000/svg">
<path d="M5.79844 3.09961C3.36834 3.09961 1.39837 5.06963 1.39844 7.49973L1.39869 16.4996C1.39876 18.9296 3.36867 20.8994 5.79865 20.8994L20.1983 20.8996C22.6272 20.8996 24.5984 18.9318 24.5983 16.5006L24.5981 7.49868C24.598 5.06778 22.6271 3.09961 20.1981 3.09961H5.79844ZM5.45204 7.29946C5.52122 7.17998 5.65044 7.09961 5.79844 7.09961H20.1981C20.3467 7.09961 20.4758 7.18008 20.5448 7.29946H5.45204ZM5.39855 11.2995H20.5982L20.5983 16.5007C20.5983 16.7205 20.4203 16.8996 20.1984 16.8996L5.79869 16.8994C5.57778 16.8994 5.3987 16.7204 5.39869 16.4995L5.39855 11.2995Z" fill="#FAFF00" stroke="#FF2626" stroke-width="2" stroke-linecap="round" stroke-linejoin="round"/>
</svg>
